<svg xmlns="http://www.w3.org/2000/svg" xmlns:xlink="http://www.w3.org/1999/xlink" viewBox="0 0 343.68 342.49"><defs><style>.cls-1{fill:url(#Degradado_sin_nombre_44);}.cls-2{fill:url(#Degradado_sin_nombre_58);}.cls-3{fill:#fff;}</style><linearGradient id="Degradado_sin_nombre_44" x1="29.65" y1="236.17" x2="342.28" y2="93.42" gradientUnits="userSpaceOnUse"><stop offset="0" stop-color="#ff5100"/><stop offset="0.2" stop-color="#fb4800"/><stop offset="0.51" stop-color="#ef3100"/><stop offset="0.9" stop-color="#dc0b00"/><stop offset="1" stop-color="#d70000"/></linearGradient><linearGradient id="Degradado_sin_nombre_58" x1="16.64" y1="171.55" x2="327.25" y2="171.55" gradientUnits="userSpaceOnUse"><stop offset="0" stop-color="#d70000"/><stop offset="0.1" stop-color="#dc0b00"/><stop offset="0.49" stop-color="#ef3100"/><stop offset="0.8" stop-color="#fb4800"/><stop offset="1" stop-color="#ff5100"/></linearGradient></defs><title>clinicabtnNuevo</title><g id="Capa_2" data-name="Capa 2"><g id="Capa_1-2" data-name="Capa 1"><path class="cls-1" d="M170.66,0C77,.66-.54,78.09,0,172.24c.57,93.9,78.58,170.25,171.85,170.25,93.82,0,172.17-77.27,171.83-171.85S264.56-.65,170.66,0Zm-.41,327.19c-83.71-.91-152.17-69.86-153.59-153C15.2,89.09,84.6,16.84,170.25,15.92c87-.95,158.47,71.9,157,158.3C325.79,258.59,255.26,328.11,170.25,327.19Z"/><path class="cls-2" d="M327.23,174.22c-1.44,84.37-72,153.89-157,153-83.71-.91-152.17-69.86-153.59-153C15.2,89.09,84.6,16.84,170.25,15.92,257.22,15,328.72,87.82,327.23,174.22Z"/><path class="cls-3" d="M277.67,196.67c-2.62,9.37-12.89,41.67-45.08,62.85-30.49,20.06-73.16,25.22-109.79,5.3-51.9-28.22-55.06-86.9-55.15-89.63-.18-5-1.1-53.87,39.24-86.45C139.4,62.49,176.2,65,184.06,65.67c3.09-.12,5.68-1.66,6.63-4a6.5,6.5,0,0,0-.43-5.27c-2-3.71-8.11-5.24-15.21-3.75a118.59,118.59,0,0,0-65,17.24c-35.14,21.64-47.4,55.33-51.18,68.15-3.87,13.09-11,45.38,4,80.62,22.42,52.72,75.26,67.18,81.15,68.68,7.61,1.95,55,13.2,98.38-17.23,33.24-23.3,43.69-56.65,46.41-66.57a6.59,6.59,0,1,0-11.14-6.89Z"/><path class="cls-3" d="M232.94,92.68c-4.3,1-5.43,6.44-11.13,7.16-4,.51-7.25-1.65-12.73-5.3-5.06-3.37-8.76-5.84-10.6-10.71a18,18,0,0,1-.4-10.74c2.45-4.16,6.52-9.26,13-11.73.61-.23,1.11-.39,1.48-.5,7.78-2.32,15.19.7,18,1.86,18.53,7.54,36.33,28.11,36.33,28.11,2,2.31,17.69,20.72,26.52,44.55a49.79,49.79,0,0,1,4.93,23.73c-.26,5.14-.58,10.09-4.09,14.07-.48.55-3.43,2.53-9.33,6.48-3.78,2.54-5,3.3-6.89,3.45-3.31.25-5.88-1.45-7.7-2.65-4.46-3-6.51-6.92-8.22-10.34a21.86,21.86,0,0,1-2.65-11.41,15.39,15.39,0,0,1,1.33-5.83c2.35-5,7.16-7.09,8.75-7.69a11,11,0,0,0,1.84-5.57c.11-3.39-1.63-5.74-3.7-8.75-6.39-9.3-11.38-18.26-11.4-18.3C250.09,103.92,240.71,90.8,232.94,92.68Z"/></g></g></svg>