<svg xmlns="http://www.w3.org/2000/svg" viewBox="0 0 126 126"><title>clinica_salir</title><g id="Capa_2" data-name="Capa 2"><g id="Capa_1-2" data-name="Capa 1"><path class="cls-1" d="M37,3a6,6,0,0,0-6,6V33a2,2,0,1,0,4,0V9a2,2,0,0,1,2-2h80a2,2,0,0,1,2,2V117a2,2,0,0,1-2,2H37a2,2,0,0,1-2-2V89a2,2,0,0,0-4,0v28a6,6,0,0,0,6,6h80a6,6,0,0,0,6-6V9a6,6,0,0,0-6-6ZM21,79a2,2,0,0,0,1.42-3.42L7.83,61,22.42,46.42c1.76-1.71-1-4.64-2.84-2.84l-16,16a2,2,0,0,0,0,2.84l16,16A2,2,0,0,0,21,79ZM73,63H17a2,2,0,0,1,0-4H73a2,2,0,0,1,0,4Z"/></g></g></svg>