<?xml version="1.0" encoding="utf-8"?>
<!-- Generator: Adobe Illustrator 24.0.1, SVG Export Plug-In . SVG Version: 6.00 Build 0)  -->
<svg version="1.1" id="Capa_1" xmlns="http://www.w3.org/2000/svg" xmlns:xlink="http://www.w3.org/1999/xlink" x="0px" y="0px"
	 viewBox="0 0 318 323" style="enable-background:new 0 0 318 323;" xml:space="preserve">
<style type="text/css">
	.st0{clip-path:url(#SVGID_2_);}
	.st1{fill:#FFFFFF;}
	.st2{fill:#153450;}
	.st3{fill:#163452;}
	.st4{fill:#1C3057;}
</style>
<title>MotoNetBRRecurso 4</title>
<g>
	<defs>
		<rect id="SVGID_1_" x="-1053.6" y="8.7" width="361" height="429.6"/>
	</defs>
	<clipPath id="SVGID_2_">
		<use xlink:href="#SVGID_1_"  style="overflow:visible;"/>
	</clipPath>
	<g class="st0">
		<defs>
			<rect id="SVGID_3_" x="-1093.7" y="-2.7" width="458.4" height="458.2"/>
		</defs>
		<clipPath id="SVGID_4_">
			<use xlink:href="#SVGID_3_"  style="overflow:visible;"/>
		</clipPath>
		<g style="clip-path:url(#SVGID_4_);">
			
				<image style="overflow:visible;" width="1024" height="1024" xlink:href="9EB806F47B082072.png"  transform="matrix(0.4477 0 0 0.4475 -1093.7169 -2.7308)">
			</image>
		</g>
	</g>
</g>
<g id="Capa_2_1_">
	<g id="Capa_1-2">
		<path class="st1" d="M-484.9,120.3L-484.9,120.3c-4-0.1-7.3,3.1-7.4,7.1c0,3.8,3,7,6.9,7.1c3.9,0.1,7.2-3,7.4-6.9
			S-480.9,120.4-484.9,120.3z M-476.1,209.4c-0.1-4.7-3.8-8.5-8.4-8.7c-4.9-0.2-9,3.5-9.2,8.4v50.2c0.1,4.9,4,8.8,8.9,8.9
			c0,0,0,0,0,0c5,0,9.1-4.1,9.1-9.1C-475.8,242.6-475.9,226-476.1,209.4z M-458.8,223.5l-7.3-71.6l-4.8-5.1
			c-8,5.4-18.5,5.5-26.7,0.4c-1.5,1.3-3.1,2.6-4.6,3.8c-2.6,24.7-5.2,49.5-7.8,74.1c-0.1,1.1-0.5,6.2,3,10.1c1,1.2,2.3,2.1,3.7,2.8
			c0.1-11.9,0.1-23.8,0.1-35.8c1.6-6.2,6.7-10.9,12.9-11.9l11.9,0.1c6,0.9,10.8,5.4,12.1,11.3c0.1,12,0.2,24.1,0.4,36.1
			c1.5-0.8,2.8-1.8,3.9-3.1C-458.2,230.5-458.7,224.9-458.8,223.5z M-458.8,223.5l-7.3-71.6l-4.8-5.1c-8,5.4-18.5,5.5-26.7,0.4
			c-1.5,1.3-3.1,2.6-4.6,3.8c-2.6,24.7-5.2,49.5-7.8,74.1c-0.1,1.1-0.5,6.2,3,10.1c1,1.2,2.3,2.1,3.7,2.8
			c0.1-11.9,0.1-23.8,0.1-35.8c1.6-6.2,6.7-10.9,12.9-11.9l11.9,0.1c6,0.9,10.8,5.4,12.1,11.3c0.1,12,0.2,24.1,0.4,36.1
			c1.5-0.8,2.8-1.8,3.9-3.1C-458.2,230.5-458.7,224.9-458.8,223.5z M-476.1,209.4c-0.1-4.7-3.8-8.5-8.4-8.7c-4.9-0.2-9,3.5-9.2,8.4
			v50.2c0.1,4.9,4,8.8,8.9,8.9c0,0,0,0,0,0c5,0,9.1-4.1,9.1-9.1C-475.8,242.6-475.9,226-476.1,209.4z M-484.9,120.3L-484.9,120.3
			c-4-0.1-7.3,3.1-7.4,7.1c0,3.8,3,7,6.9,7.1c3.9,0.1,7.2-3,7.4-6.9S-480.9,120.4-484.9,120.3z M-484.9,120.3L-484.9,120.3
			c-4-0.1-7.3,3.1-7.4,7.1c0,3.8,3,7,6.9,7.1c3.9,0.1,7.2-3,7.4-6.9S-480.9,120.4-484.9,120.3z M-476.1,209.4
			c-0.1-4.7-3.8-8.5-8.4-8.7c-4.9-0.2-9,3.5-9.2,8.4v50.2c0.1,4.9,4,8.8,8.9,8.9c0,0,0,0,0,0c5,0,9.1-4.1,9.1-9.1
			C-475.8,242.6-475.9,226-476.1,209.4z M-458.8,223.5l-7.3-71.6l-4.8-5.1c-8,5.4-18.5,5.5-26.7,0.4c-1.5,1.3-3.1,2.6-4.6,3.8
			c-2.6,24.7-5.2,49.5-7.8,74.1c-0.1,1.1-0.5,6.2,3,10.1c1,1.2,2.3,2.1,3.7,2.8c0.1-11.9,0.1-23.8,0.1-35.8
			c1.6-6.2,6.7-10.9,12.9-11.9l11.9,0.1c6,0.9,10.8,5.4,12.1,11.3c0.1,12,0.2,24.1,0.4,36.1c1.5-0.8,2.8-1.8,3.9-3.1
			C-458.2,230.5-458.7,224.9-458.8,223.5z M-458.8,223.5l-7.3-71.6l-4.8-5.1c-8,5.4-18.5,5.5-26.7,0.4c-1.5,1.3-3.1,2.6-4.6,3.8
			c-2.6,24.7-5.2,49.5-7.8,74.1c-0.1,1.1-0.5,6.2,3,10.1c1,1.2,2.3,2.1,3.7,2.8c0.1-11.9,0.1-23.8,0.1-35.8
			c1.6-6.2,6.7-10.9,12.9-11.9l11.9,0.1c6,0.9,10.8,5.4,12.1,11.3c0.1,12,0.2,24.1,0.4,36.1c1.5-0.8,2.8-1.8,3.9-3.1
			C-458.2,230.5-458.7,224.9-458.8,223.5z M-476.1,209.4c-0.1-4.7-3.8-8.5-8.4-8.7c-4.9-0.2-9,3.5-9.2,8.4v50.2
			c0.1,4.9,4,8.8,8.9,8.9c0,0,0,0,0,0c5,0,9.1-4.1,9.1-9.1C-475.8,242.6-475.9,226-476.1,209.4z M-484.9,120.3L-484.9,120.3
			c-4-0.1-7.3,3.1-7.4,7.1c0,3.8,3,7,6.9,7.1c3.9,0.1,7.2-3,7.4-6.9S-480.9,120.4-484.9,120.3z M-484.9,120.3L-484.9,120.3
			c-4-0.1-7.3,3.1-7.4,7.1c0,3.8,3,7,6.9,7.1c3.9,0.1,7.2-3,7.4-6.9S-480.9,120.4-484.9,120.3z M-476.1,209.4
			c-0.1-4.7-3.8-8.5-8.4-8.7c-4.9-0.2-9,3.5-9.2,8.4v50.2c0.1,4.9,4,8.8,8.9,8.9c0,0,0,0,0,0c5,0,9.1-4.1,9.1-9.1
			C-475.8,242.6-475.9,226-476.1,209.4z M-458.8,223.5l-7.3-71.6l-4.8-5.1c-8,5.4-18.5,5.5-26.7,0.4c-1.5,1.3-3.1,2.6-4.6,3.8
			c-2.6,24.7-5.2,49.5-7.8,74.1c-0.1,1.1-0.5,6.2,3,10.1c1,1.2,2.3,2.1,3.7,2.8c0.1-11.9,0.1-23.8,0.1-35.8
			c1.6-6.2,6.7-10.9,12.9-11.9l11.9,0.1c6,0.9,10.8,5.4,12.1,11.3c0.1,12,0.2,24.1,0.4,36.1c1.5-0.8,2.8-1.8,3.9-3.1
			C-458.2,230.5-458.7,224.9-458.8,223.5z M-458.8,223.5l-7.3-71.6l-4.8-5.1c-8,5.4-18.5,5.5-26.7,0.4c-1.5,1.3-3.1,2.6-4.6,3.8
			c-2.6,24.7-5.2,49.5-7.8,74.1c-0.1,1.1-0.5,6.2,3,10.1c1,1.2,2.3,2.1,3.7,2.8c0.1-11.9,0.1-23.8,0.1-35.8
			c1.6-6.2,6.7-10.9,12.9-11.9l11.9,0.1c6,0.9,10.8,5.4,12.1,11.3c0.1,12,0.2,24.1,0.4,36.1c1.5-0.8,2.8-1.8,3.9-3.1
			C-458.2,230.5-458.7,224.9-458.8,223.5z M-476.1,209.4c-0.1-4.7-3.8-8.5-8.4-8.7c-4.9-0.2-9,3.5-9.2,8.4v50.2
			c0.1,4.9,4,8.8,8.9,8.9c0,0,0,0,0,0c5,0,9.1-4.1,9.1-9.1C-475.8,242.6-475.9,226-476.1,209.4z M-484.9,120.3L-484.9,120.3
			c-4-0.1-7.3,3.1-7.4,7.1c0,3.8,3,7,6.9,7.1c3.9,0.1,7.2-3,7.4-6.9S-480.9,120.4-484.9,120.3z M-484.9,120.3L-484.9,120.3
			c-4-0.1-7.3,3.1-7.4,7.1c0,3.8,3,7,6.9,7.1c3.9,0.1,7.2-3,7.4-6.9S-480.9,120.4-484.9,120.3z M-476.1,209.4
			c-0.1-4.7-3.8-8.5-8.4-8.7c-4.9-0.2-9,3.5-9.2,8.4v50.2c0.1,4.9,4,8.8,8.9,8.9c0,0,0,0,0,0c5,0,9.1-4.1,9.1-9.1
			C-475.8,242.6-475.9,226-476.1,209.4z M-458.8,223.5l-7.3-71.6l-4.8-5.1c-8,5.4-18.5,5.5-26.7,0.4c-1.5,1.3-3.1,2.6-4.6,3.8
			c-2.6,24.7-5.2,49.5-7.8,74.1c-0.1,1.1-0.5,6.2,3,10.1c1,1.2,2.3,2.1,3.7,2.8c0.1-11.9,0.1-23.8,0.1-35.8
			c1.6-6.2,6.7-10.9,12.9-11.9l11.9,0.1c6,0.9,10.8,5.4,12.1,11.3c0.1,12,0.2,24.1,0.4,36.1c1.5-0.8,2.8-1.8,3.9-3.1
			C-458.2,230.5-458.7,224.9-458.8,223.5z M-458.8,223.5l-7.3-71.6l-4.8-5.1c-8,5.4-18.5,5.5-26.7,0.4c-1.5,1.3-3.1,2.6-4.6,3.8
			c-2.6,24.7-5.2,49.5-7.8,74.1c-0.1,1.1-0.5,6.2,3,10.1c1,1.2,2.3,2.1,3.7,2.8c0.1-11.9,0.1-23.8,0.1-35.8
			c1.6-6.2,6.7-10.9,12.9-11.9l11.9,0.1c6,0.9,10.8,5.4,12.1,11.3c0.1,12,0.2,24.1,0.4,36.1c1.5-0.8,2.8-1.8,3.9-3.1
			C-458.2,230.5-458.7,224.9-458.8,223.5z M-476.1,209.4c-0.1-4.7-3.8-8.5-8.4-8.7c-4.9-0.2-9,3.5-9.2,8.4v50.2
			c0.1,4.9,4,8.8,8.9,8.9c0,0,0,0,0,0c5,0,9.1-4.1,9.1-9.1C-475.8,242.6-475.9,226-476.1,209.4z M-484.9,120.3L-484.9,120.3
			c-4-0.1-7.3,3.1-7.4,7.1c0,3.8,3,7,6.9,7.1c3.9,0.1,7.2-3,7.4-6.9S-480.9,120.4-484.9,120.3z M-484.9,120.3L-484.9,120.3
			c-4-0.1-7.3,3.1-7.4,7.1c0,3.8,3,7,6.9,7.1c3.9,0.1,7.2-3,7.4-6.9S-480.9,120.4-484.9,120.3z M-476.1,209.4
			c-0.1-4.7-3.8-8.5-8.4-8.7c-4.9-0.2-9,3.5-9.2,8.4v50.2c0.1,4.9,4,8.8,8.9,8.9c0,0,0,0,0,0c5,0,9.1-4.1,9.1-9.1
			C-475.8,242.6-475.9,226-476.1,209.4z M-458.8,223.5l-7.3-71.6l-4.8-5.1c-8,5.4-18.5,5.5-26.7,0.4c-1.5,1.3-3.1,2.6-4.6,3.8
			c-2.6,24.7-5.2,49.5-7.8,74.1c-0.1,1.1-0.5,6.2,3,10.1c1,1.2,2.3,2.1,3.7,2.8c0.1-11.9,0.1-23.8,0.1-35.8
			c1.6-6.2,6.7-10.9,12.9-11.9l11.9,0.1c6,0.9,10.8,5.4,12.1,11.3c0.1,12,0.2,24.1,0.4,36.1c1.5-0.8,2.8-1.8,3.9-3.1
			C-458.2,230.5-458.7,224.9-458.8,223.5z M-458.8,223.5l-7.3-71.6l-4.8-5.1c-8,5.4-18.5,5.5-26.7,0.4c-1.5,1.3-3.1,2.6-4.6,3.8
			c-2.6,24.7-5.2,49.5-7.8,74.1c-0.1,1.1-0.5,6.2,3,10.1c1,1.2,2.3,2.1,3.7,2.8c0.1-11.9,0.1-23.8,0.1-35.8
			c1.6-6.2,6.7-10.9,12.9-11.9l11.9,0.1c6,0.9,10.8,5.4,12.1,11.3c0.1,12,0.2,24.1,0.4,36.1c1.5-0.8,2.8-1.8,3.9-3.1
			C-458.2,230.5-458.7,224.9-458.8,223.5z M-476.1,209.4c-0.1-4.7-3.8-8.5-8.4-8.7c-4.9-0.2-9,3.5-9.2,8.4v50.2
			c0.1,4.9,4,8.8,8.9,8.9c0,0,0,0,0,0c5,0,9.1-4.1,9.1-9.1C-475.8,242.6-475.9,226-476.1,209.4z M-484.9,120.3L-484.9,120.3
			c-4-0.1-7.3,3.1-7.4,7.1c0,3.8,3,7,6.9,7.1c3.9,0.1,7.2-3,7.4-6.9S-480.9,120.4-484.9,120.3z M-484.9,120.3L-484.9,120.3
			c-4-0.1-7.3,3.1-7.4,7.1c0,3.8,3,7,6.9,7.1c3.9,0.1,7.2-3,7.4-6.9S-480.9,120.4-484.9,120.3z M-476.1,209.4
			c-0.1-4.7-3.8-8.5-8.4-8.7c-4.9-0.2-9,3.5-9.2,8.4v50.2c0.1,4.9,4,8.8,8.9,8.9c0,0,0,0,0,0c5,0,9.1-4.1,9.1-9.1
			C-475.8,242.6-475.9,226-476.1,209.4z M-458.8,223.5l-7.3-71.6l-4.8-5.1c-8,5.4-18.5,5.5-26.7,0.4c-1.5,1.3-3.1,2.6-4.6,3.8
			c-2.6,24.7-5.2,49.5-7.8,74.1c-0.1,1.1-0.5,6.2,3,10.1c1,1.2,2.3,2.1,3.7,2.8c0.1-11.9,0.1-23.8,0.1-35.8
			c1.6-6.2,6.7-10.9,12.9-11.9l11.9,0.1c6,0.9,10.8,5.4,12.1,11.3c0.1,12,0.2,24.1,0.4,36.1c1.5-0.8,2.8-1.8,3.9-3.1
			C-458.2,230.5-458.7,224.9-458.8,223.5z M-458.8,223.5l-7.3-71.6l-4.8-5.1c-8,5.4-18.5,5.5-26.7,0.4c-1.5,1.3-3.1,2.6-4.6,3.8
			c-2.6,24.7-5.2,49.5-7.8,74.1c-0.1,1.1-0.5,6.2,3,10.1c1,1.2,2.3,2.1,3.7,2.8c0.1-11.9,0.1-23.8,0.1-35.8
			c1.6-6.2,6.7-10.9,12.9-11.9l11.9,0.1c6,0.9,10.8,5.4,12.1,11.3c0.1,12,0.2,24.1,0.4,36.1c1.5-0.8,2.8-1.8,3.9-3.1
			C-458.2,230.5-458.7,224.9-458.8,223.5z M-476.1,209.4c-0.1-4.7-3.8-8.5-8.4-8.7c-4.9-0.2-9,3.5-9.2,8.4v50.2
			c0.1,4.9,4,8.8,8.9,8.9c0,0,0,0,0,0c5,0,9.1-4.1,9.1-9.1C-475.8,242.6-475.9,226-476.1,209.4z M-484.9,120.3L-484.9,120.3
			c-4-0.1-7.3,3.1-7.4,7.1c0,3.8,3,7,6.9,7.1c3.9,0.1,7.2-3,7.4-6.9S-480.9,120.4-484.9,120.3z M-484.9,120.3L-484.9,120.3
			c-4-0.1-7.3,3.1-7.4,7.1c0,3.8,3,7,6.9,7.1c3.9,0.1,7.2-3,7.4-6.9S-480.9,120.4-484.9,120.3z M-476.1,209.4
			c-0.1-4.7-3.8-8.5-8.4-8.7c-4.9-0.2-9,3.5-9.2,8.4v50.2c0.1,4.9,4,8.8,8.9,8.9c0,0,0,0,0,0c5,0,9.1-4.1,9.1-9.1
			C-475.8,242.6-475.9,226-476.1,209.4z M-458.8,223.5l-7.3-71.6l-4.8-5.1c-8,5.4-18.5,5.5-26.7,0.4c-1.5,1.3-3.1,2.6-4.6,3.8
			c-2.6,24.7-5.2,49.5-7.8,74.1c-0.1,1.1-0.5,6.2,3,10.1c1,1.2,2.3,2.1,3.7,2.8c0.1-11.9,0.1-23.8,0.1-35.8
			c1.6-6.2,6.7-10.9,12.9-11.9l11.9,0.1c6,0.9,10.8,5.4,12.1,11.3c0.1,12,0.2,24.1,0.4,36.1c1.5-0.8,2.8-1.8,3.9-3.1
			C-458.2,230.5-458.7,224.9-458.8,223.5z M-458.8,223.5l-7.3-71.6l-4.8-5.1c-8,5.4-18.5,5.5-26.7,0.4c-1.5,1.3-3.1,2.6-4.6,3.8
			c-2.6,24.7-5.2,49.5-7.8,74.1c-0.1,1.1-0.5,6.2,3,10.1c1,1.2,2.3,2.1,3.7,2.8c0.1-11.9,0.1-23.8,0.1-35.8
			c1.6-6.2,6.7-10.9,12.9-11.9l11.9,0.1c6,0.9,10.8,5.4,12.1,11.3c0.1,12,0.2,24.1,0.4,36.1c1.5-0.8,2.8-1.8,3.9-3.1
			C-458.2,230.5-458.7,224.9-458.8,223.5z M-476.1,209.4c-0.1-4.7-3.8-8.5-8.4-8.7c-4.9-0.2-9,3.5-9.2,8.4v50.2
			c0.1,4.9,4,8.8,8.9,8.9c0,0,0,0,0,0c5,0,9.1-4.1,9.1-9.1C-475.8,242.6-475.9,226-476.1,209.4z M-484.9,120.3L-484.9,120.3
			c-4-0.1-7.3,3.1-7.4,7.1c0,3.8,3,7,6.9,7.1c3.9,0.1,7.2-3,7.4-6.9S-480.9,120.4-484.9,120.3z M-484.9,120.3L-484.9,120.3
			c-4-0.1-7.3,3.1-7.4,7.1c0,3.8,3,7,6.9,7.1c3.9,0.1,7.2-3,7.4-6.9S-480.9,120.4-484.9,120.3z M-476.1,209.4
			c-0.1-4.7-3.8-8.5-8.4-8.7c-4.9-0.2-9,3.5-9.2,8.4v50.2c0.1,4.9,4,8.8,8.9,8.9c0,0,0,0,0,0c5,0,9.1-4.1,9.1-9.1
			C-475.8,242.6-475.9,226-476.1,209.4z M-458.8,223.5l-7.3-71.6l-4.8-5.1c-8,5.4-18.5,5.5-26.7,0.4c-1.5,1.3-3.1,2.6-4.6,3.8
			c-2.6,24.7-5.2,49.5-7.8,74.1c-0.1,1.1-0.5,6.2,3,10.1c1,1.2,2.3,2.1,3.7,2.8c0.1-11.9,0.1-23.8,0.1-35.8
			c1.6-6.2,6.7-10.9,12.9-11.9l11.9,0.1c6,0.9,10.8,5.4,12.1,11.3c0.1,12,0.2,24.1,0.4,36.1c1.5-0.8,2.8-1.8,3.9-3.1
			C-458.2,230.5-458.7,224.9-458.8,223.5z M-458.8,223.5l-7.3-71.6l-4.8-5.1c-8,5.4-18.5,5.5-26.7,0.4c-1.5,1.3-3.1,2.6-4.6,3.8
			c-2.6,24.7-5.2,49.5-7.8,74.1c-0.1,1.1-0.5,6.2,3,10.1c1,1.2,2.3,2.1,3.7,2.8c0.1-11.9,0.1-23.8,0.1-35.8
			c1.6-6.2,6.7-10.9,12.9-11.9l11.9,0.1c6,0.9,10.8,5.4,12.1,11.3c0.1,12,0.2,24.1,0.4,36.1c1.5-0.8,2.8-1.8,3.9-3.1
			C-458.2,230.5-458.7,224.9-458.8,223.5z M-484.5,200.7c-4.9-0.2-9,3.5-9.2,8.4v50.2c0.1,4.9,4,8.8,8.9,8.9c0,0,0,0,0,0
			c5,0,9.1-4.1,9.1-9.1c-0.1-16.6-0.2-33.2-0.4-49.8C-476.1,204.7-479.8,200.9-484.5,200.7z M-485.3,134.5c3.9,0.1,7.2-3,7.4-6.9
			s-3-7.2-6.9-7.4h0c-4-0.1-7.3,3.1-7.4,7.1C-492.2,131.2-489.2,134.4-485.3,134.5z M-379.1,211.9c-4.4-3.8-9.9-6.1-15.8-6.6
			l-37.6-0.1l26.8-69c2.7-8.9,7-27.6,0.5-48.7c-9.6-31.2-39.9-58.6-78.3-59.2c-40.9-0.6-71.6,29.5-81.2,60.2
			c-4.1,13.7-4.7,28.2-1.5,42.2l29.3,74c-8.7-0.2-23-0.3-38.7,0.7c-5,0.3-12.3,0.9-16.5,6.2c-1.3,1.7-2.2,3.6-2.7,5.7
			c-26.1,62.7-44.6,108.7-45.9,114.6c-0.5,2.3-0.5,4.7,0.2,7c0.9,2.5,2.5,4.7,4.7,6.3c3.4,2.6,7.5,4.2,11.7,4.5
			c8.7,0.8,60.6,1.1,131.7,0.2c78.6,0.4,135.9,0.1,149.2-0.1c3.6-0.1,11.8-0.3,16.2-5.8c2-2.7,3-5.9,3-9.2
			C-342.3,293.8-360.7,252.8-379.1,211.9z M-536.1,62.3c3.2-3.4,21.4-21.8,50.6-22.2c30.5-0.4,49.7,19,52.8,22.2
			c0.6,1.5,0.5,3.2-0.4,4.6c-1.5,2.5-4.7,3.4-7.3,1.9c-2.8-2.9-18.5-18.6-43.8-19c-25.8-0.4-42.1,15.6-44.9,18.4
			c-1.9,1.3-4.4,1.2-6.1-0.4C-536.5,66.3-536.9,64.1-536.1,62.3z M-458.2,142.9c1.6,2.1,2.6,4.6,3,7.2c2.4,26.3,4.9,52.7,7.2,79
			c-0.2,1.6-2,13.9-11.8,18.6c-2,0.9-4.1,1.5-6.2,1.7c-0.2,6.5-0.3,13-0.5,19.5c-1.3,5-5,9.1-9.9,10.9l-17-0.2c-2.1-0.8-4-2-5.6-3.6
			c-2-2-3.4-4.6-4.1-7.4c-0.1-6.4-0.1-12.8-0.2-19.2c-2.2-0.1-4.5-0.7-6.5-1.7c-11.3-5.5-11.8-22.3-11.8-23.3
			c3.5-40.4,6.9-69.8,8.2-75c0.7-2.4,1.8-4.7,3.3-6.8c1.3-1.6,2.8-3,4.6-4.1c-0.4-1.1-0.8-2.2-1.1-3.2l-21.8,0.1
			c-2.4-0.9-4.3-2.8-5.1-5.1c-1.7-4.5,0.6-9.6,5.1-11.2l21.6-0.1c2.5-6.5,7.7-11.6,14.2-13.9c12.3-4.3,25.7,2.2,30,14.4h19.2v0
			c2.7,0.8,4.8,2.8,5.6,5.4c1.4,4.4-1,9.1-5.4,10.5h-19.8c-0.3,0.8-0.7,1.5-1,2.3L-458.2,142.9z M-484.5,69.8
			c-17.9,0-29.1,11.3-30.9,13.2c-2.4,1.2-5.3,0.1-6.5-2.3c-0.7-1.4-0.6-3,0.1-4.4c2.1-2.3,15.3-16.6,37.1-16.7
			c22.4-0.1,36,15,37.9,17.2c1,2.6-0.4,5.5-3,6.4c-1.2,0.5-2.6,0.4-3.9-0.2C-455.4,81.2-466.6,69.9-484.5,69.8z M-462.7,96.7
			c-1.5,1-3.4,1.2-5.1,0.5c-0.7-0.8-1.4-1.5-2.2-2.1c-9.4-8.1-23.6-7-31.7,2.4c-1.2,0.5-2.5,0.5-3.7,0c-2.5-1-3.7-3.9-2.6-6.4
			c1.1-1.3,9.4-11.2,23.3-11.3c14.5-0.1,23,10.3,24,11.6C-460.2,93.3-461,95.5-462.7,96.7z M-374.1,324.1c-2.8,2.4-6.6,3.5-10.2,3
			l-199.6,0.1c-3.8,0.3-7.5-1.2-10-4v0c-2.1-2.6-3-6-2.5-9.4l34-84.7c1.2-1.2,2.5-2.2,4-3c2.3-1.2,4.8-1.9,7.3-2l22.2-0.5
			c5.8,14.3,10.1,26,13,34c11.8,32.9,16,50.6,28.7,53.3c1.9,0.4,3.8,0.5,5.7,0.2c12.1-2.2,16.5-20.3,29-54.8
			c2.7-7.4,6.9-18.8,12.5-32.8l17.2,0.4c4.6,0,9.1,1.5,12.8,4.2l39.9,88.7C-370.6,319.6-372,322.2-374.1,324.1z M-471,146.7
			c-8,5.4-18.5,5.5-26.7,0.4c-1.5,1.3-3.1,2.6-4.6,3.8c-2.6,24.7-5.2,49.5-7.8,74.1c-0.1,1.1-0.5,6.2,3,10.1c1,1.2,2.3,2.1,3.7,2.8
			c0.1-11.9,0.1-23.8,0.1-35.8c1.6-6.2,6.7-10.9,12.9-11.9l11.9,0.1c6,0.9,10.8,5.4,12.1,11.3c0.1,12,0.2,24.1,0.4,36.1
			c1.5-0.8,2.8-1.8,3.9-3.1c3.8-4.4,3.4-10,3.2-11.4l-7.3-71.6L-471,146.7z M-484.5,200.7c-4.9-0.2-9,3.5-9.2,8.4v50.2
			c0.1,4.9,4,8.8,8.9,8.9c0,0,0,0,0,0c5,0,9.1-4.1,9.1-9.1c-0.1-16.6-0.2-33.2-0.4-49.8C-476.1,204.7-479.8,200.9-484.5,200.7z
			 M-485.3,134.5c3.9,0.1,7.2-3,7.4-6.9s-3-7.2-6.9-7.4h0c-4-0.1-7.3,3.1-7.4,7.1C-492.2,131.2-489.2,134.4-485.3,134.5z
			 M-484.9,120.3L-484.9,120.3c-4-0.1-7.3,3.1-7.4,7.1c0,3.8,3,7,6.9,7.1c3.9,0.1,7.2-3,7.4-6.9S-480.9,120.4-484.9,120.3z
			 M-476.1,209.4c-0.1-4.7-3.8-8.5-8.4-8.7c-4.9-0.2-9,3.5-9.2,8.4v50.2c0.1,4.9,4,8.8,8.9,8.9c0,0,0,0,0,0c5,0,9.1-4.1,9.1-9.1
			C-475.8,242.6-475.9,226-476.1,209.4z M-458.8,223.5l-7.3-71.6l-4.8-5.1c-8,5.4-18.5,5.5-26.7,0.4c-1.5,1.3-3.1,2.6-4.6,3.8
			c-2.6,24.7-5.2,49.5-7.8,74.1c-0.1,1.1-0.5,6.2,3,10.1c1,1.2,2.3,2.1,3.7,2.8c0.1-11.9,0.1-23.8,0.1-35.8
			c1.6-6.2,6.7-10.9,12.9-11.9l11.9,0.1c6,0.9,10.8,5.4,12.1,11.3c0.1,12,0.2,24.1,0.4,36.1c1.5-0.8,2.8-1.8,3.9-3.1
			C-458.2,230.5-458.7,224.9-458.8,223.5z M-458.8,223.5l-7.3-71.6l-4.8-5.1c-8,5.4-18.5,5.5-26.7,0.4c-1.5,1.3-3.1,2.6-4.6,3.8
			c-2.6,24.7-5.2,49.5-7.8,74.1c-0.1,1.1-0.5,6.2,3,10.1c1,1.2,2.3,2.1,3.7,2.8c0.1-11.9,0.1-23.8,0.1-35.8
			c1.6-6.2,6.7-10.9,12.9-11.9l11.9,0.1c6,0.9,10.8,5.4,12.1,11.3c0.1,12,0.2,24.1,0.4,36.1c1.5-0.8,2.8-1.8,3.9-3.1
			C-458.2,230.5-458.7,224.9-458.8,223.5z M-476.1,209.4c-0.1-4.7-3.8-8.5-8.4-8.7c-4.9-0.2-9,3.5-9.2,8.4v50.2
			c0.1,4.9,4,8.8,8.9,8.9c0,0,0,0,0,0c5,0,9.1-4.1,9.1-9.1C-475.8,242.6-475.9,226-476.1,209.4z M-484.9,120.3L-484.9,120.3
			c-4-0.1-7.3,3.1-7.4,7.1c0,3.8,3,7,6.9,7.1c3.9,0.1,7.2-3,7.4-6.9S-480.9,120.4-484.9,120.3z M-484.9,120.3L-484.9,120.3
			c-4-0.1-7.3,3.1-7.4,7.1c0,3.8,3,7,6.9,7.1c3.9,0.1,7.2-3,7.4-6.9S-480.9,120.4-484.9,120.3z M-476.1,209.4
			c-0.1-4.7-3.8-8.5-8.4-8.7c-4.9-0.2-9,3.5-9.2,8.4v50.2c0.1,4.9,4,8.8,8.9,8.9c0,0,0,0,0,0c5,0,9.1-4.1,9.1-9.1
			C-475.8,242.6-475.9,226-476.1,209.4z M-458.8,223.5l-7.3-71.6l-4.8-5.1c-8,5.4-18.5,5.5-26.7,0.4c-1.5,1.3-3.1,2.6-4.6,3.8
			c-2.6,24.7-5.2,49.5-7.8,74.1c-0.1,1.1-0.5,6.2,3,10.1c1,1.2,2.3,2.1,3.7,2.8c0.1-11.9,0.1-23.8,0.1-35.8
			c1.6-6.2,6.7-10.9,12.9-11.9l11.9,0.1c6,0.9,10.8,5.4,12.1,11.3c0.1,12,0.2,24.1,0.4,36.1c1.5-0.8,2.8-1.8,3.9-3.1
			C-458.2,230.5-458.7,224.9-458.8,223.5z M-458.8,223.5l-7.3-71.6l-4.8-5.1c-8,5.4-18.5,5.5-26.7,0.4c-1.5,1.3-3.1,2.6-4.6,3.8
			c-2.6,24.7-5.2,49.5-7.8,74.1c-0.1,1.1-0.5,6.2,3,10.1c1,1.2,2.3,2.1,3.7,2.8c0.1-11.9,0.1-23.8,0.1-35.8
			c1.6-6.2,6.7-10.9,12.9-11.9l11.9,0.1c6,0.9,10.8,5.4,12.1,11.3c0.1,12,0.2,24.1,0.4,36.1c1.5-0.8,2.8-1.8,3.9-3.1
			C-458.2,230.5-458.7,224.9-458.8,223.5z M-476.1,209.4c-0.1-4.7-3.8-8.5-8.4-8.7c-4.9-0.2-9,3.5-9.2,8.4v50.2
			c0.1,4.9,4,8.8,8.9,8.9c0,0,0,0,0,0c5,0,9.1-4.1,9.1-9.1C-475.8,242.6-475.9,226-476.1,209.4z M-484.9,120.3L-484.9,120.3
			c-4-0.1-7.3,3.1-7.4,7.1c0,3.8,3,7,6.9,7.1c3.9,0.1,7.2-3,7.4-6.9S-480.9,120.4-484.9,120.3z M-484.9,120.3L-484.9,120.3
			c-4-0.1-7.3,3.1-7.4,7.1c0,3.8,3,7,6.9,7.1c3.9,0.1,7.2-3,7.4-6.9S-480.9,120.4-484.9,120.3z M-476.1,209.4
			c-0.1-4.7-3.8-8.5-8.4-8.7c-4.9-0.2-9,3.5-9.2,8.4v50.2c0.1,4.9,4,8.8,8.9,8.9c0,0,0,0,0,0c5,0,9.1-4.1,9.1-9.1
			C-475.8,242.6-475.9,226-476.1,209.4z M-458.8,223.5l-7.3-71.6l-4.8-5.1c-8,5.4-18.5,5.5-26.7,0.4c-1.5,1.3-3.1,2.6-4.6,3.8
			c-2.6,24.7-5.2,49.5-7.8,74.1c-0.1,1.1-0.5,6.2,3,10.1c1,1.2,2.3,2.1,3.7,2.8c0.1-11.9,0.1-23.8,0.1-35.8
			c1.6-6.2,6.7-10.9,12.9-11.9l11.9,0.1c6,0.9,10.8,5.4,12.1,11.3c0.1,12,0.2,24.1,0.4,36.1c1.5-0.8,2.8-1.8,3.9-3.1
			C-458.2,230.5-458.7,224.9-458.8,223.5z M-458.8,223.5l-7.3-71.6l-4.8-5.1c-8,5.4-18.5,5.5-26.7,0.4c-1.5,1.3-3.1,2.6-4.6,3.8
			c-2.6,24.7-5.2,49.5-7.8,74.1c-0.1,1.1-0.5,6.2,3,10.1c1,1.2,2.3,2.1,3.7,2.8c0.1-11.9,0.1-23.8,0.1-35.8
			c1.6-6.2,6.7-10.9,12.9-11.9l11.9,0.1c6,0.9,10.8,5.4,12.1,11.3c0.1,12,0.2,24.1,0.4,36.1c1.5-0.8,2.8-1.8,3.9-3.1
			C-458.2,230.5-458.7,224.9-458.8,223.5z M-476.1,209.4c-0.1-4.7-3.8-8.5-8.4-8.7c-4.9-0.2-9,3.5-9.2,8.4v50.2
			c0.1,4.9,4,8.8,8.9,8.9c0,0,0,0,0,0c5,0,9.1-4.1,9.1-9.1C-475.8,242.6-475.9,226-476.1,209.4z M-484.9,120.3L-484.9,120.3
			c-4-0.1-7.3,3.1-7.4,7.1c0,3.8,3,7,6.9,7.1c3.9,0.1,7.2-3,7.4-6.9S-480.9,120.4-484.9,120.3z M-484.9,120.3L-484.9,120.3
			c-4-0.1-7.3,3.1-7.4,7.1c0,3.8,3,7,6.9,7.1c3.9,0.1,7.2-3,7.4-6.9S-480.9,120.4-484.9,120.3z M-476.1,209.4
			c-0.1-4.7-3.8-8.5-8.4-8.7c-4.9-0.2-9,3.5-9.2,8.4v50.2c0.1,4.9,4,8.8,8.9,8.9c0,0,0,0,0,0c5,0,9.1-4.1,9.1-9.1
			C-475.8,242.6-475.9,226-476.1,209.4z M-458.8,223.5l-7.3-71.6l-4.8-5.1c-8,5.4-18.5,5.5-26.7,0.4c-1.5,1.3-3.1,2.6-4.6,3.8
			c-2.6,24.7-5.2,49.5-7.8,74.1c-0.1,1.1-0.5,6.2,3,10.1c1,1.2,2.3,2.1,3.7,2.8c0.1-11.9,0.1-23.8,0.1-35.8
			c1.6-6.2,6.7-10.9,12.9-11.9l11.9,0.1c6,0.9,10.8,5.4,12.1,11.3c0.1,12,0.2,24.1,0.4,36.1c1.5-0.8,2.8-1.8,3.9-3.1
			C-458.2,230.5-458.7,224.9-458.8,223.5z M-458.8,223.5l-7.3-71.6l-4.8-5.1c-8,5.4-18.5,5.5-26.7,0.4c-1.5,1.3-3.1,2.6-4.6,3.8
			c-2.6,24.7-5.2,49.5-7.8,74.1c-0.1,1.1-0.5,6.2,3,10.1c1,1.2,2.3,2.1,3.7,2.8c0.1-11.9,0.1-23.8,0.1-35.8
			c1.6-6.2,6.7-10.9,12.9-11.9l11.9,0.1c6,0.9,10.8,5.4,12.1,11.3c0.1,12,0.2,24.1,0.4,36.1c1.5-0.8,2.8-1.8,3.9-3.1
			C-458.2,230.5-458.7,224.9-458.8,223.5z M-476.1,209.4c-0.1-4.7-3.8-8.5-8.4-8.7c-4.9-0.2-9,3.5-9.2,8.4v50.2
			c0.1,4.9,4,8.8,8.9,8.9c0,0,0,0,0,0c5,0,9.1-4.1,9.1-9.1C-475.8,242.6-475.9,226-476.1,209.4z M-484.9,120.3L-484.9,120.3
			c-4-0.1-7.3,3.1-7.4,7.1c0,3.8,3,7,6.9,7.1c3.9,0.1,7.2-3,7.4-6.9S-480.9,120.4-484.9,120.3z M-484.9,120.3L-484.9,120.3
			c-4-0.1-7.3,3.1-7.4,7.1c0,3.8,3,7,6.9,7.1c3.9,0.1,7.2-3,7.4-6.9S-480.9,120.4-484.9,120.3z M-476.1,209.4
			c-0.1-4.7-3.8-8.5-8.4-8.7c-4.9-0.2-9,3.5-9.2,8.4v50.2c0.1,4.9,4,8.8,8.9,8.9c0,0,0,0,0,0c5,0,9.1-4.1,9.1-9.1
			C-475.8,242.6-475.9,226-476.1,209.4z M-458.8,223.5l-7.3-71.6l-4.8-5.1c-8,5.4-18.5,5.5-26.7,0.4c-1.5,1.3-3.1,2.6-4.6,3.8
			c-2.6,24.7-5.2,49.5-7.8,74.1c-0.1,1.1-0.5,6.2,3,10.1c1,1.2,2.3,2.1,3.7,2.8c0.1-11.9,0.1-23.8,0.1-35.8
			c1.6-6.2,6.7-10.9,12.9-11.9l11.9,0.1c6,0.9,10.8,5.4,12.1,11.3c0.1,12,0.2,24.1,0.4,36.1c1.5-0.8,2.8-1.8,3.9-3.1
			C-458.2,230.5-458.7,224.9-458.8,223.5z M-458.8,223.5l-7.3-71.6l-4.8-5.1c-8,5.4-18.5,5.5-26.7,0.4c-1.5,1.3-3.1,2.6-4.6,3.8
			c-2.6,24.7-5.2,49.5-7.8,74.1c-0.1,1.1-0.5,6.2,3,10.1c1,1.2,2.3,2.1,3.7,2.8c0.1-11.9,0.1-23.8,0.1-35.8
			c1.6-6.2,6.7-10.9,12.9-11.9l11.9,0.1c6,0.9,10.8,5.4,12.1,11.3c0.1,12,0.2,24.1,0.4,36.1c1.5-0.8,2.8-1.8,3.9-3.1
			C-458.2,230.5-458.7,224.9-458.8,223.5z M-476.1,209.4c-0.1-4.7-3.8-8.5-8.4-8.7c-4.9-0.2-9,3.5-9.2,8.4v50.2
			c0.1,4.9,4,8.8,8.9,8.9c0,0,0,0,0,0c5,0,9.1-4.1,9.1-9.1C-475.8,242.6-475.9,226-476.1,209.4z M-484.9,120.3L-484.9,120.3
			c-4-0.1-7.3,3.1-7.4,7.1c0,3.8,3,7,6.9,7.1c3.9,0.1,7.2-3,7.4-6.9S-480.9,120.4-484.9,120.3z M-484.9,120.3L-484.9,120.3
			c-4-0.1-7.3,3.1-7.4,7.1c0,3.8,3,7,6.9,7.1c3.9,0.1,7.2-3,7.4-6.9S-480.9,120.4-484.9,120.3z M-476.1,209.4
			c-0.1-4.7-3.8-8.5-8.4-8.7c-4.9-0.2-9,3.5-9.2,8.4v50.2c0.1,4.9,4,8.8,8.9,8.9c0,0,0,0,0,0c5,0,9.1-4.1,9.1-9.1
			C-475.8,242.6-475.9,226-476.1,209.4z M-458.8,223.5l-7.3-71.6l-4.8-5.1c-8,5.4-18.5,5.5-26.7,0.4c-1.5,1.3-3.1,2.6-4.6,3.8
			c-2.6,24.7-5.2,49.5-7.8,74.1c-0.1,1.1-0.5,6.2,3,10.1c1,1.2,2.3,2.1,3.7,2.8c0.1-11.9,0.1-23.8,0.1-35.8
			c1.6-6.2,6.7-10.9,12.9-11.9l11.9,0.1c6,0.9,10.8,5.4,12.1,11.3c0.1,12,0.2,24.1,0.4,36.1c1.5-0.8,2.8-1.8,3.9-3.1
			C-458.2,230.5-458.7,224.9-458.8,223.5z M-458.8,223.5l-7.3-71.6l-4.8-5.1c-8,5.4-18.5,5.5-26.7,0.4c-1.5,1.3-3.1,2.6-4.6,3.8
			c-2.6,24.7-5.2,49.5-7.8,74.1c-0.1,1.1-0.5,6.2,3,10.1c1,1.2,2.3,2.1,3.7,2.8c0.1-11.9,0.1-23.8,0.1-35.8
			c1.6-6.2,6.7-10.9,12.9-11.9l11.9,0.1c6,0.9,10.8,5.4,12.1,11.3c0.1,12,0.2,24.1,0.4,36.1c1.5-0.8,2.8-1.8,3.9-3.1
			C-458.2,230.5-458.7,224.9-458.8,223.5z M-476.1,209.4c-0.1-4.7-3.8-8.5-8.4-8.7c-4.9-0.2-9,3.5-9.2,8.4v50.2
			c0.1,4.9,4,8.8,8.9,8.9c0,0,0,0,0,0c5,0,9.1-4.1,9.1-9.1C-475.8,242.6-475.9,226-476.1,209.4z M-484.9,120.3L-484.9,120.3
			c-4-0.1-7.3,3.1-7.4,7.1c0,3.8,3,7,6.9,7.1c3.9,0.1,7.2-3,7.4-6.9S-480.9,120.4-484.9,120.3z M-484.9,120.3L-484.9,120.3
			c-4-0.1-7.3,3.1-7.4,7.1c0,3.8,3,7,6.9,7.1c3.9,0.1,7.2-3,7.4-6.9S-480.9,120.4-484.9,120.3z M-476.1,209.4
			c-0.1-4.7-3.8-8.5-8.4-8.7c-4.9-0.2-9,3.5-9.2,8.4v50.2c0.1,4.9,4,8.8,8.9,8.9c0,0,0,0,0,0c5,0,9.1-4.1,9.1-9.1
			C-475.8,242.6-475.9,226-476.1,209.4z M-458.8,223.5l-7.3-71.6l-4.8-5.1c-8,5.4-18.5,5.5-26.7,0.4c-1.5,1.3-3.1,2.6-4.6,3.8
			c-2.6,24.7-5.2,49.5-7.8,74.1c-0.1,1.1-0.5,6.2,3,10.1c1,1.2,2.3,2.1,3.7,2.8c0.1-11.9,0.1-23.8,0.1-35.8
			c1.6-6.2,6.7-10.9,12.9-11.9l11.9,0.1c6,0.9,10.8,5.4,12.1,11.3c0.1,12,0.2,24.1,0.4,36.1c1.5-0.8,2.8-1.8,3.9-3.1
			C-458.2,230.5-458.7,224.9-458.8,223.5z M-458.8,223.5l-7.3-71.6l-4.8-5.1c-8,5.4-18.5,5.5-26.7,0.4c-1.5,1.3-3.1,2.6-4.6,3.8
			c-2.6,24.7-5.2,49.5-7.8,74.1c-0.1,1.1-0.5,6.2,3,10.1c1,1.2,2.3,2.1,3.7,2.8c0.1-11.9,0.1-23.8,0.1-35.8
			c1.6-6.2,6.7-10.9,12.9-11.9l11.9,0.1c6,0.9,10.8,5.4,12.1,11.3c0.1,12,0.2,24.1,0.4,36.1c1.5-0.8,2.8-1.8,3.9-3.1
			C-458.2,230.5-458.7,224.9-458.8,223.5z M-476.1,209.4c-0.1-4.7-3.8-8.5-8.4-8.7c-4.9-0.2-9,3.5-9.2,8.4v50.2
			c0.1,4.9,4,8.8,8.9,8.9c0,0,0,0,0,0c5,0,9.1-4.1,9.1-9.1C-475.8,242.6-475.9,226-476.1,209.4z M-484.9,120.3L-484.9,120.3
			c-4-0.1-7.3,3.1-7.4,7.1c0,3.8,3,7,6.9,7.1c3.9,0.1,7.2-3,7.4-6.9S-480.9,120.4-484.9,120.3z"/>
	</g>
</g>
<path id="m" class="st1" d="M-634.1,427.8c-4.3,0-8.6,0-12.8,0c3.8-15.8,7.6-31.6,11.4-47.4c0.3-0.7,0.8-1.9,1.9-3
	c1.6-1.7,3.5-2.2,4.3-2.3c3.1,0,6.2,0,9.2-0.1c1.8,9.5,3.6,19,5.5,28.4c6.8-9.5,13.7-19,20.5-28.4c5-0.1,9.9-0.2,14.9-0.2
	c-4.3,17.5-8.6,35-12.9,52.5c-4.2,0-8.5,0.1-12.7,0.1c2.3-9.2,4.6-18.3,6.9-27.5c-5.7,7.9-11.3,15.8-17,23.7c-0.8,0.2-1.4,0.2-2,0.1
	c-3.1-0.4-5.7-3.8-6.9-8.3c-1-5.9-1.9-11.9-2.9-17.8C-629.1,407.7-631.6,417.7-634.1,427.8z"/>
<path id="o" class="st1" d="M-536,402.4c-0.2-1.8-0.8-5.6-3.6-9c-1.8-2.2-3.7-3.2-4.1-3.5c-1.8-1-3.5-1.4-6.6-1.8
	c-4.9-0.5-7.8-0.8-11.8,0c-2.5,0.5-7.4,1.5-11.9,5.6c-5.3,4.9-6.6,11-7,13.5c-0.4,3.1-0.1,5.5,0,6.1c0.3,1.8,1,5.8,4.2,9.4
	c3.1,3.4,6.8,4.5,8.4,4.9c2.8,0.6,8.4,1.4,15-0.5c2.8-0.8,7.8-2.3,12-7C-536.8,414.9-535.2,408-536,402.4z M-548.8,406.9
	c-0.1,1.6-0.7,2.8-1,3.4c-1.1,2.2-2.6,3.5-3,3.9c-2.1,1.6-4.2,2-5.3,2.1c-1.4,0.2-7.5,1.1-9.8-2.6c-2.1-3.2,0.3-7.7,0.7-8.4
	c1-2,2.5-3.2,3.5-3.8c2.4-1.6,4.8-1.8,6.4-1.9c2.6-0.2,5.3-0.3,7.1,1.5C-548.4,403-548.7,406-548.8,406.9z"/>
<path id="o_1_" class="st1" d="M-461,402.4c-0.2-1.8-0.8-5.6-3.6-9c-1.8-2.2-3.7-3.2-4.1-3.5c-1.8-1-3.5-1.4-6.6-1.8
	c-4.9-0.5-7.8-0.8-11.8,0c-2.5,0.5-7.4,1.5-11.9,5.6c-5.3,4.9-6.6,11-7,13.5c-0.4,3.1-0.1,5.5,0,6.1c0.3,1.8,1,5.8,4.2,9.4
	c3.1,3.4,6.8,4.5,8.4,4.9c2.8,0.6,8.4,1.4,15-0.5c2.8-0.8,7.8-2.3,12-7C-461.8,414.9-460.3,408-461,402.4z M-473.8,406.9
	c-0.1,1.6-0.7,2.8-1,3.4c-1.1,2.2-2.6,3.5-3,3.9c-2.1,1.6-4.2,2-5.3,2.1c-1.4,0.2-7.5,1.1-9.8-2.6c-2.1-3.2,0.3-7.7,0.7-8.4
	c1-2,2.5-3.2,3.5-3.8c2.4-1.6,4.8-1.8,6.4-1.9c2.6-0.2,5.3-0.3,7.1,1.5C-473.4,403-473.7,406-473.8,406.9z"/>
<path class="st1" d="M-523.3,375.1c4.2,0,8.5-0.1,12.7-0.1c-1,4.3-2.1,8.6-3.1,12.9c3,0,6,0,9,0.1c-0.8,3.9-1.6,7.8-2.4,11.6
	c-3.1,0-6.3,0.1-9.4,0.1c-1.1,4.6-2.2,9.2-3.2,13.9c-0.1,0.2-0.3,1.1,0.2,2c0.6,1.1,1.8,1.3,1.9,1.3c2-0.1,3.9-0.1,5.9-0.2
	c-1.3,6.8-2.2,11.1-2.2,11.1l0,0c0,0-3.9,0-11.1,0c-0.4-0.1-0.9-0.2-1.5-0.5c-4.8-2-6.3-7.1-6.4-7.5c-0.7-2.4-0.3-4.4-0.2-5.2
	C-532.3,408.9-528.7,394.4-523.3,375.1z"/>
<path class="st2" d="M-342.3,375.1c4.2,0,8.5-0.1,12.7-0.1c-1,4.3-2.1,8.6-3.1,12.9c3,0,6,0,9,0.1c-0.8,3.9-1.6,7.8-2.4,11.6
	c-3.1,0-6.3,0.1-9.4,0.1c-1.1,4.6-2.2,9.2-3.2,13.9c-0.1,0.2-0.3,1.1,0.2,2c0.6,1.1,1.8,1.3,1.9,1.3c2-0.1,3.9-0.1,5.9-0.2
	c-1.3,6.8-2.2,11.1-2.2,11.1l0,0c0,0-3.9,0-11.1,0c-0.4-0.1-0.9-0.2-1.5-0.5c-4.8-2-6.3-7.1-6.4-7.5c-0.7-2.4-0.3-4.4-0.2-5.2
	C-351.3,408.9-347.7,394.4-342.3,375.1z"/>
<path class="st3" d="M-461.1,427.7c3.8-15.3,7.6-30.6,11.4-45.9c0.5-1,2-3.5,5-5.2c3.8-2.1,7.5-1.5,8.5-1.3
	c7.7,9,15.4,18.1,23.1,27.1c2.1-9.1,4.3-18.3,6.4-27.4c4.1,0.1,8.1,0.1,12.2,0.2c-4.1,17.6-8.3,35.2-12.4,52.7
	c-4.2-0.1-8.3-0.1-12.5-0.2c0.8-3.4,1.7-6.8,2.5-10.2c-7.6-9-15.1-18.1-22.7-27.1c-3.1,12.4-6.1,24.8-9.2,37.2
	C-452.9,427.6-457,427.7-461.1,427.7z"/>
<path class="st4" d="M-360.4,427.7c0.9-3.7,1.8-7.3,2.7-11c-8.4-0.2-16.7-0.3-25.1-0.5c-0.7-0.5-2.1-1.5-2.9-3.4
	c-1.2-2.9,0.1-5.7,0.6-6.9c2.4-5.2,8.2-6.8,9.2-7.1c3.2,0,6.5,0,9.8,0c-0.2,1.1-0.4,2.2-0.6,3.3c-3.2,0-6.4,0-9.6,0
	c-3.5,1.4-5.7,4.2-5.6,7.1c0,1.5,0.7,2.7,1.2,3.5c7.9,0,15.8,0,23.7,0.1c1.2-4.8,2.5-9.7,3.8-14.5c0.1-0.4,1-3.8-1.2-6.8
	c-2.1-2.8-5.3-3-5.8-3c-5.9,0-11.9,0-17.8,0.1c-2.4,0.3-5.9,1-9.5,3.3c-7,4.5-10.4,12.5-10.4,19.6c0,2.2,0.1,5.8,2.5,9.5
	c2.7,4.2,6.7,5.9,8.2,6.4C-378.2,427.5-369.3,427.6-360.4,427.7z"/>
</svg>
