<svg width="24" height="24" viewBox="0 0 24 24" fill="none" xmlns="http://www.w3.org/2000/svg">
<path d="M12.2607 4.74733C12.1909 4.68057 12.098 4.64331 12.0015 4.64331C11.9049 4.64331 11.812 4.68057 11.7422 4.74733L3.11255 12.9912C3.0759 13.0263 3.04674 13.0684 3.02684 13.1151C3.00694 13.1617 2.99671 13.2119 2.99677 13.2626L2.99536 20.9998C2.99536 21.3977 3.1534 21.7792 3.4347 22.0605C3.71601 22.3418 4.09754 22.4998 4.49536 22.4998H9.00005C9.19897 22.4998 9.38973 22.4208 9.53038 22.2802C9.67103 22.1395 9.75005 21.9487 9.75005 21.7498V15.3748C9.75005 15.2754 9.78956 15.18 9.85989 15.1097C9.93021 15.0393 10.0256 14.9998 10.1251 14.9998H13.8751C13.9745 14.9998 14.0699 15.0393 14.1402 15.1097C14.2105 15.18 14.2501 15.2754 14.2501 15.3748V21.7498C14.2501 21.9487 14.3291 22.1395 14.4697 22.2802C14.6104 22.4208 14.8011 22.4998 15.0001 22.4998H19.5029C19.9007 22.4998 20.2822 22.3418 20.5635 22.0605C20.8448 21.7792 21.0029 21.3977 21.0029 20.9998V13.2626C21.0029 13.2119 20.9927 13.1617 20.9728 13.1151C20.9529 13.0684 20.9237 13.0263 20.8871 12.9912L12.2607 4.74733Z" fill="#212121"/>
<path d="M23.0114 11.4445L19.5052 8.09016V3C19.5052 2.80109 19.4261 2.61032 19.2855 2.46967C19.1448 2.32902 18.9541 2.25 18.7552 2.25H16.5052C16.3062 2.25 16.1155 2.32902 15.9748 2.46967C15.8342 2.61032 15.7552 2.80109 15.7552 3V4.5L13.0402 1.90406C12.7861 1.64719 12.4083 1.5 12 1.5C11.5931 1.5 11.2163 1.64719 10.9622 1.90453L0.991893 11.4436C0.70033 11.7248 0.663768 12.1875 0.92908 12.4922C0.995704 12.5691 1.07728 12.6316 1.16884 12.676C1.26041 12.7204 1.36005 12.7457 1.46169 12.7503C1.56334 12.755 1.66487 12.7389 1.7601 12.7031C1.85533 12.6672 1.94228 12.6124 2.01564 12.5419L11.7422 3.2475C11.812 3.18074 11.9048 3.14348 12.0014 3.14348C12.098 3.14348 12.1908 3.18074 12.2606 3.2475L21.9881 12.5419C22.1314 12.6793 22.3233 12.7543 22.5218 12.7504C22.7203 12.7465 22.9092 12.6641 23.047 12.5212C23.3348 12.2231 23.3109 11.7309 23.0114 11.4445Z" fill="#212121"/>
</svg>
