<svg xmlns="http://www.w3.org/2000/svg" viewBox="0 0 323.2 399.9">
  <title>motonet</title>
  <g>
    <path d="M162,91.9h0a7.2,7.2,0,0,0-.5,14.3,7.2,7.2,0,1,0,.5-14.3Zm8.8,89.1a8.7,8.7,0,0,0-8.4-8.7,8.8,8.8,0,0,0-9.2,8.5V231a9.1,9.1,0,0,0,8.9,8.9h0a9.1,9.1,0,0,0,9.1-9.1C171.1,214.2,170.9,197.6,170.8,181Zm17.3,14.1-7.4-71.6-4.8-5.1a24.6,24.6,0,0,1-26.6.4l-4.7,3.8-7.8,74.2a13.6,13.6,0,0,0,3,10.1,12.2,12.2,0,0,0,3.7,2.7c.1-11.9.1-23.8.1-35.7a16.1,16.1,0,0,1,13-11.9h11.8a14.6,14.6,0,0,1,12.2,11.3l.3,36.2a13,13,0,0,0,3.9-3.1C188.7,202.1,188.2,196.5,188.1,195.1Zm0,0-7.4-71.6-4.8-5.1a24.6,24.6,0,0,1-26.6.4l-4.7,3.8-7.8,74.2a13.6,13.6,0,0,0,3,10.1,12.2,12.2,0,0,0,3.7,2.7c.1-11.9.1-23.8.1-35.7a16.1,16.1,0,0,1,13-11.9h11.8a14.6,14.6,0,0,1,12.2,11.3l.3,36.2a13,13,0,0,0,3.9-3.1C188.7,202.1,188.2,196.5,188.1,195.1ZM170.8,181a8.7,8.7,0,0,0-8.4-8.7,8.8,8.8,0,0,0-9.2,8.5V231a9.1,9.1,0,0,0,8.9,8.9h0a9.1,9.1,0,0,0,9.1-9.1C171.1,214.2,170.9,197.6,170.8,181ZM162,91.9h0a7.2,7.2,0,0,0-.5,14.3,7.2,7.2,0,1,0,.5-14.3Zm0,0h0a7.2,7.2,0,0,0-.5,14.3,7.2,7.2,0,1,0,.5-14.3Zm8.8,89.1a8.7,8.7,0,0,0-8.4-8.7,8.8,8.8,0,0,0-9.2,8.5V231a9.1,9.1,0,0,0,8.9,8.9h0a9.1,9.1,0,0,0,9.1-9.1C171.1,214.2,170.9,197.6,170.8,181Zm17.3,14.1-7.4-71.6-4.8-5.1a24.6,24.6,0,0,1-26.6.4l-4.7,3.8-7.8,74.2a13.6,13.6,0,0,0,3,10.1,12.2,12.2,0,0,0,3.7,2.7c.1-11.9.1-23.8.1-35.7a16.1,16.1,0,0,1,13-11.9h11.8a14.6,14.6,0,0,1,12.2,11.3l.3,36.2a13,13,0,0,0,3.9-3.1C188.7,202.1,188.2,196.5,188.1,195.1Zm0,0-7.4-71.6-4.8-5.1a24.6,24.6,0,0,1-26.6.4l-4.7,3.8-7.8,74.2a13.6,13.6,0,0,0,3,10.1,12.2,12.2,0,0,0,3.7,2.7c.1-11.9.1-23.8.1-35.7a16.1,16.1,0,0,1,13-11.9h11.8a14.6,14.6,0,0,1,12.2,11.3l.3,36.2a13,13,0,0,0,3.9-3.1C188.7,202.1,188.2,196.5,188.1,195.1ZM170.8,181a8.7,8.7,0,0,0-8.4-8.7,8.8,8.8,0,0,0-9.2,8.5V231a9.1,9.1,0,0,0,8.9,8.9h0a9.1,9.1,0,0,0,9.1-9.1C171.1,214.2,170.9,197.6,170.8,181ZM162,91.9h0a7.2,7.2,0,0,0-.5,14.3,7.2,7.2,0,1,0,.5-14.3Zm0,0h0a7.2,7.2,0,0,0-.5,14.3,7.2,7.2,0,1,0,.5-14.3Zm8.8,89.1a8.7,8.7,0,0,0-8.4-8.7,8.8,8.8,0,0,0-9.2,8.5V231a9.1,9.1,0,0,0,8.9,8.9h0a9.1,9.1,0,0,0,9.1-9.1C171.1,214.2,170.9,197.6,170.8,181Zm17.3,14.1-7.4-71.6-4.8-5.1a24.6,24.6,0,0,1-26.6.4l-4.7,3.8-7.8,74.2a13.6,13.6,0,0,0,3,10.1,12.2,12.2,0,0,0,3.7,2.7c.1-11.9.1-23.8.1-35.7a16.1,16.1,0,0,1,13-11.9h11.8a14.6,14.6,0,0,1,12.2,11.3l.3,36.2a13,13,0,0,0,3.9-3.1C188.7,202.1,188.2,196.5,188.1,195.1Zm0,0-7.4-71.6-4.8-5.1a24.6,24.6,0,0,1-26.6.4l-4.7,3.8-7.8,74.2a13.6,13.6,0,0,0,3,10.1,12.2,12.2,0,0,0,3.7,2.7c.1-11.9.1-23.8.1-35.7a16.1,16.1,0,0,1,13-11.9h11.8a14.6,14.6,0,0,1,12.2,11.3l.3,36.2a13,13,0,0,0,3.9-3.1C188.7,202.1,188.2,196.5,188.1,195.1ZM170.8,181a8.7,8.7,0,0,0-8.4-8.7,8.8,8.8,0,0,0-9.2,8.5V231a9.1,9.1,0,0,0,8.9,8.9h0a9.1,9.1,0,0,0,9.1-9.1C171.1,214.2,170.9,197.6,170.8,181ZM162,91.9h0a7.2,7.2,0,0,0-.5,14.3,7.2,7.2,0,1,0,.5-14.3Zm0,0h0a7.2,7.2,0,0,0-.5,14.3,7.2,7.2,0,1,0,.5-14.3Zm8.8,89.1a8.7,8.7,0,0,0-8.4-8.7,8.8,8.8,0,0,0-9.2,8.5V231a9.1,9.1,0,0,0,8.9,8.9h0a9.1,9.1,0,0,0,9.1-9.1C171.1,214.2,170.9,197.6,170.8,181Zm17.3,14.1-7.4-71.6-4.8-5.1a24.6,24.6,0,0,1-26.6.4l-4.7,3.8-7.8,74.2a13.6,13.6,0,0,0,3,10.1,12.2,12.2,0,0,0,3.7,2.7c.1-11.9.1-23.8.1-35.7a16.1,16.1,0,0,1,13-11.9h11.8a14.6,14.6,0,0,1,12.2,11.3l.3,36.2a13,13,0,0,0,3.9-3.1C188.7,202.1,188.2,196.5,188.1,195.1Zm0,0-7.4-71.6-4.8-5.1a24.6,24.6,0,0,1-26.6.4l-4.7,3.8-7.8,74.2a13.6,13.6,0,0,0,3,10.1,12.2,12.2,0,0,0,3.7,2.7c.1-11.9.1-23.8.1-35.7a16.1,16.1,0,0,1,13-11.9h11.8a14.6,14.6,0,0,1,12.2,11.3l.3,36.2a13,13,0,0,0,3.9-3.1C188.7,202.1,188.2,196.5,188.1,195.1ZM170.8,181a8.7,8.7,0,0,0-8.4-8.7,8.8,8.8,0,0,0-9.2,8.5V231a9.1,9.1,0,0,0,8.9,8.9h0a9.1,9.1,0,0,0,9.1-9.1C171.1,214.2,170.9,197.6,170.8,181ZM162,91.9h0a7.2,7.2,0,0,0-.5,14.3,7.2,7.2,0,1,0,.5-14.3Zm0,0h0a7.2,7.2,0,0,0-.5,14.3,7.2,7.2,0,1,0,.5-14.3Zm8.8,89.1a8.7,8.7,0,0,0-8.4-8.7,8.8,8.8,0,0,0-9.2,8.5V231a9.1,9.1,0,0,0,8.9,8.9h0a9.1,9.1,0,0,0,9.1-9.1C171.1,214.2,170.9,197.6,170.8,181Zm17.3,14.1-7.4-71.6-4.8-5.1a24.6,24.6,0,0,1-26.6.4l-4.7,3.8-7.8,74.2a13.6,13.6,0,0,0,3,10.1,12.2,12.2,0,0,0,3.7,2.7c.1-11.9.1-23.8.1-35.7a16.1,16.1,0,0,1,13-11.9h11.8a14.6,14.6,0,0,1,12.2,11.3l.3,36.2a13,13,0,0,0,3.9-3.1C188.7,202.1,188.2,196.5,188.1,195.1Zm0,0-7.4-71.6-4.8-5.1a24.6,24.6,0,0,1-26.6.4l-4.7,3.8-7.8,74.2a13.6,13.6,0,0,0,3,10.1,12.2,12.2,0,0,0,3.7,2.7c.1-11.9.1-23.8.1-35.7a16.1,16.1,0,0,1,13-11.9h11.8a14.6,14.6,0,0,1,12.2,11.3l.3,36.2a13,13,0,0,0,3.9-3.1C188.7,202.1,188.2,196.5,188.1,195.1ZM170.8,181a8.7,8.7,0,0,0-8.4-8.7,8.8,8.8,0,0,0-9.2,8.5V231a9.1,9.1,0,0,0,8.9,8.9h0a9.1,9.1,0,0,0,9.1-9.1C171.1,214.2,170.9,197.6,170.8,181ZM162,91.9h0a7.2,7.2,0,0,0-.5,14.3,7.2,7.2,0,1,0,.5-14.3Zm0,0h0a7.2,7.2,0,0,0-.5,14.3,7.2,7.2,0,1,0,.5-14.3Zm8.8,89.1a8.7,8.7,0,0,0-8.4-8.7,8.8,8.8,0,0,0-9.2,8.5V231a9.1,9.1,0,0,0,8.9,8.9h0a9.1,9.1,0,0,0,9.1-9.1C171.1,214.2,170.9,197.6,170.8,181Zm17.3,14.1-7.4-71.6-4.8-5.1a24.6,24.6,0,0,1-26.6.4l-4.7,3.8-7.8,74.2a13.6,13.6,0,0,0,3,10.1,12.2,12.2,0,0,0,3.7,2.7c.1-11.9.1-23.8.1-35.7a16.1,16.1,0,0,1,13-11.9h11.8a14.6,14.6,0,0,1,12.2,11.3l.3,36.2a13,13,0,0,0,3.9-3.1C188.7,202.1,188.2,196.5,188.1,195.1Zm0,0-7.4-71.6-4.8-5.1a24.6,24.6,0,0,1-26.6.4l-4.7,3.8-7.8,74.2a13.6,13.6,0,0,0,3,10.1,12.2,12.2,0,0,0,3.7,2.7c.1-11.9.1-23.8.1-35.7a16.1,16.1,0,0,1,13-11.9h11.8a14.6,14.6,0,0,1,12.2,11.3l.3,36.2a13,13,0,0,0,3.9-3.1C188.7,202.1,188.2,196.5,188.1,195.1ZM170.8,181a8.7,8.7,0,0,0-8.4-8.7,8.8,8.8,0,0,0-9.2,8.5V231a9.1,9.1,0,0,0,8.9,8.9h0a9.1,9.1,0,0,0,9.1-9.1C171.1,214.2,170.9,197.6,170.8,181ZM162,91.9h0a7.2,7.2,0,0,0-.5,14.3,7.2,7.2,0,1,0,.5-14.3Zm0,0h0a7.2,7.2,0,0,0-.5,14.3,7.2,7.2,0,1,0,.5-14.3Zm8.8,89.1a8.7,8.7,0,0,0-8.4-8.7,8.8,8.8,0,0,0-9.2,8.5V231a9.1,9.1,0,0,0,8.9,8.9h0a9.1,9.1,0,0,0,9.1-9.1C171.1,214.2,170.9,197.6,170.8,181Zm17.3,14.1-7.4-71.6-4.8-5.1a24.6,24.6,0,0,1-26.6.4l-4.7,3.8-7.8,74.2a13.6,13.6,0,0,0,3,10.1,12.2,12.2,0,0,0,3.7,2.7c.1-11.9.1-23.8.1-35.7a16.1,16.1,0,0,1,13-11.9h11.8a14.6,14.6,0,0,1,12.2,11.3l.3,36.2a13,13,0,0,0,3.9-3.1C188.7,202.1,188.2,196.5,188.1,195.1Zm0,0-7.4-71.6-4.8-5.1a24.6,24.6,0,0,1-26.6.4l-4.7,3.8-7.8,74.2a13.6,13.6,0,0,0,3,10.1,12.2,12.2,0,0,0,3.7,2.7c.1-11.9.1-23.8.1-35.7a16.1,16.1,0,0,1,13-11.9h11.8a14.6,14.6,0,0,1,12.2,11.3l.3,36.2a13,13,0,0,0,3.9-3.1C188.7,202.1,188.2,196.5,188.1,195.1ZM170.8,181a8.7,8.7,0,0,0-8.4-8.7,8.8,8.8,0,0,0-9.2,8.5V231a9.1,9.1,0,0,0,8.9,8.9h0a9.1,9.1,0,0,0,9.1-9.1C171.1,214.2,170.9,197.6,170.8,181ZM162,91.9h0a7.2,7.2,0,0,0-.5,14.3,7.2,7.2,0,1,0,.5-14.3Zm0,0h0a7.2,7.2,0,0,0-.5,14.3,7.2,7.2,0,1,0,.5-14.3Zm8.8,89.1a8.7,8.7,0,0,0-8.4-8.7,8.8,8.8,0,0,0-9.2,8.5V231a9.1,9.1,0,0,0,8.9,8.9h0a9.1,9.1,0,0,0,9.1-9.1C171.1,214.2,170.9,197.6,170.8,181Zm17.3,14.1-7.4-71.6-4.8-5.1a24.6,24.6,0,0,1-26.6.4l-4.7,3.8-7.8,74.2a13.6,13.6,0,0,0,3,10.1,12.2,12.2,0,0,0,3.7,2.7c.1-11.9.1-23.8.1-35.7a16.1,16.1,0,0,1,13-11.9h11.8a14.6,14.6,0,0,1,12.2,11.3l.3,36.2a13,13,0,0,0,3.9-3.1C188.7,202.1,188.2,196.5,188.1,195.1Zm0,0-7.4-71.6-4.8-5.1a24.6,24.6,0,0,1-26.6.4l-4.7,3.8-7.8,74.2a13.6,13.6,0,0,0,3,10.1,12.2,12.2,0,0,0,3.7,2.7c.1-11.9.1-23.8.1-35.7a16.1,16.1,0,0,1,13-11.9h11.8a14.6,14.6,0,0,1,12.2,11.3l.3,36.2a13,13,0,0,0,3.9-3.1C188.7,202.1,188.2,196.5,188.1,195.1Zm-25.7-22.8a8.8,8.8,0,0,0-9.2,8.5V231a9.1,9.1,0,0,0,8.9,8.9h0a9.1,9.1,0,0,0,9.1-9.1c-.1-16.6-.3-33.2-.4-49.8A8.7,8.7,0,0,0,162.4,172.3Zm-.9-66.1a7.2,7.2,0,1,0,.5-14.3h0a7.2,7.2,0,0,0-.5,14.3Zm106.3,77.3a28.2,28.2,0,0,0-15.8-6.6H214.5l26.8-69c2.7-8.8,7-27.5.5-48.6C232.2,28,201.9.6,163.5,0c-41-.6-71.6,29.5-81.2,60.2a82.4,82.4,0,0,0-1.5,42.1l29.3,74c-8.6-.1-23-.3-38.6.7-5,.3-12.3.9-16.5,6.2a13.3,13.3,0,0,0-2.7,5.6C26.2,251.5,7.7,297.5,6.4,303.4a13.8,13.8,0,0,0,.1,7,14,14,0,0,0,4.7,6.3,22,22,0,0,0,11.7,4.5c8.7.9,60.6,1.1,131.7.3,78.6.4,135.9.1,149.2-.1,3.6,0,11.8-.3,16.2-5.8a14.8,14.8,0,0,0,3-9.3ZM110.8,33.9c3.2-3.4,21.4-21.8,50.7-22.3s49.6,19,52.7,22.3a5,5,0,0,1-.4,4.6,5.3,5.3,0,0,1-7.2,1.9c-2.9-3-18.5-18.7-43.8-19A62.4,62.4,0,0,0,118,39.8a4.8,4.8,0,0,1-7.2-5.9Zm77.9,80.6a15.8,15.8,0,0,1,3,7.2l7.2,79c-.2,1.6-1.9,14-11.7,18.6a17.4,17.4,0,0,1-6.3,1.7c-.1,6.5-.3,13-.5,19.5a16,16,0,0,1-9.8,10.9l-17-.2a15.6,15.6,0,0,1-5.6-3.5,16.4,16.4,0,0,1-4.1-7.4c0-6.4-.1-12.8-.2-19.3a17.8,17.8,0,0,1-6.5-1.6c-11.3-5.6-11.8-22.3-11.8-23.4,3.5-40.4,6.9-69.8,8.3-75a20.7,20.7,0,0,1,3.2-6.7,17.9,17.9,0,0,1,4.6-4.1c-.4-1.1-.7-2.2-1.1-3.3H118.6a9.1,9.1,0,0,1-5.1-5.1,8.8,8.8,0,0,1,5.1-11.3h21.6a23.8,23.8,0,0,1,14.2-13.9,23.5,23.5,0,0,1,30,14.4h19.3a8.6,8.6,0,0,1,5.6,5.4,8.3,8.3,0,0,1-5.4,10.5H184.2c-.3.8-.7,1.6-1,2.3ZM162.4,41.4a43.4,43.4,0,0,0-30.9,13.3,4.9,4.9,0,0,1-6.4-6.7c2-2.3,15.3-16.6,37.1-16.7s36,15,37.9,17.3a4.9,4.9,0,0,1-2.9,6.4,5.3,5.3,0,0,1-3.9-.2A43.7,43.7,0,0,0,162.4,41.4Zm21.8,26.9a5.7,5.7,0,0,1-5.2.5c-.6-.7-1.4-1.4-2.1-2.1A22.5,22.5,0,0,0,145.2,69a4.8,4.8,0,0,1-3.7,0,4.9,4.9,0,0,1-2.7-6.4c1.1-1.3,9.4-11.2,23.4-11.3s23,10.3,24,11.6A5.3,5.3,0,0,1,184.2,68.3Zm88.6,227.4a13,13,0,0,1-10.2,3H63a11.8,11.8,0,0,1-10-4h0a11.6,11.6,0,0,1-2.5-9.4l34-84.7a15,15,0,0,1,4-3,16.6,16.6,0,0,1,7.3-2l22.2-.5c5.7,14.3,10.1,26,13,34,11.8,32.9,16,50.6,28.6,53.3a13.7,13.7,0,0,0,5.7.2c12.1-2.2,16.5-20.3,29-54.8,2.7-7.5,6.9-18.9,12.5-32.9l17.2.4a22.6,22.6,0,0,1,12.8,4.3l39.9,88.7A12.3,12.3,0,0,1,272.8,295.7ZM175.9,118.4a24.6,24.6,0,0,1-26.6.4l-4.7,3.8-7.8,74.2a13.6,13.6,0,0,0,3,10.1,12.2,12.2,0,0,0,3.7,2.7c.1-11.9.1-23.8.1-35.7a16.1,16.1,0,0,1,13-11.9h11.8a14.6,14.6,0,0,1,12.2,11.3l.3,36.2a13,13,0,0,0,3.9-3.1c3.9-4.4,3.4-10,3.3-11.4l-7.4-71.6Zm-13.5,53.9a8.8,8.8,0,0,0-9.2,8.5V231a9.1,9.1,0,0,0,8.9,8.9h0a9.1,9.1,0,0,0,9.1-9.1c-.1-16.6-.3-33.2-.4-49.8A8.7,8.7,0,0,0,162.4,172.3Zm-.9-66.1a7.2,7.2,0,1,0,.5-14.3h0a7.2,7.2,0,0,0-.5,14.3Zm.5-14.3h0a7.2,7.2,0,0,0-.5,14.3,7.2,7.2,0,1,0,.5-14.3Zm8.8,89.1a8.7,8.7,0,0,0-8.4-8.7,8.8,8.8,0,0,0-9.2,8.5V231a9.1,9.1,0,0,0,8.9,8.9h0a9.1,9.1,0,0,0,9.1-9.1C171.1,214.2,170.9,197.6,170.8,181Zm17.3,14.1-7.4-71.6-4.8-5.1a24.6,24.6,0,0,1-26.6.4l-4.7,3.8-7.8,74.2a13.6,13.6,0,0,0,3,10.1,12.2,12.2,0,0,0,3.7,2.7c.1-11.9.1-23.8.1-35.7a16.1,16.1,0,0,1,13-11.9h11.8a14.6,14.6,0,0,1,12.2,11.3l.3,36.2a13,13,0,0,0,3.9-3.1C188.7,202.1,188.2,196.5,188.1,195.1Zm0,0-7.4-71.6-4.8-5.1a24.6,24.6,0,0,1-26.6.4l-4.7,3.8-7.8,74.2a13.6,13.6,0,0,0,3,10.1,12.2,12.2,0,0,0,3.7,2.7c.1-11.9.1-23.8.1-35.7a16.1,16.1,0,0,1,13-11.9h11.8a14.6,14.6,0,0,1,12.2,11.3l.3,36.2a13,13,0,0,0,3.9-3.1C188.7,202.1,188.2,196.5,188.1,195.1ZM170.8,181a8.7,8.7,0,0,0-8.4-8.7,8.8,8.8,0,0,0-9.2,8.5V231a9.1,9.1,0,0,0,8.9,8.9h0a9.1,9.1,0,0,0,9.1-9.1C171.1,214.2,170.9,197.6,170.8,181ZM162,91.9h0a7.2,7.2,0,0,0-.5,14.3,7.2,7.2,0,1,0,.5-14.3Zm0,0h0a7.2,7.2,0,0,0-.5,14.3,7.2,7.2,0,1,0,.5-14.3Zm8.8,89.1a8.7,8.7,0,0,0-8.4-8.7,8.8,8.8,0,0,0-9.2,8.5V231a9.1,9.1,0,0,0,8.9,8.9h0a9.1,9.1,0,0,0,9.1-9.1C171.1,214.2,170.9,197.6,170.8,181Zm17.3,14.1-7.4-71.6-4.8-5.1a24.6,24.6,0,0,1-26.6.4l-4.7,3.8-7.8,74.2a13.6,13.6,0,0,0,3,10.1,12.2,12.2,0,0,0,3.7,2.7c.1-11.9.1-23.8.1-35.7a16.1,16.1,0,0,1,13-11.9h11.8a14.6,14.6,0,0,1,12.2,11.3l.3,36.2a13,13,0,0,0,3.9-3.1C188.7,202.1,188.2,196.5,188.1,195.1Zm0,0-7.4-71.6-4.8-5.1a24.6,24.6,0,0,1-26.6.4l-4.7,3.8-7.8,74.2a13.6,13.6,0,0,0,3,10.1,12.2,12.2,0,0,0,3.7,2.7c.1-11.9.1-23.8.1-35.7a16.1,16.1,0,0,1,13-11.9h11.8a14.6,14.6,0,0,1,12.2,11.3l.3,36.2a13,13,0,0,0,3.9-3.1C188.7,202.1,188.2,196.5,188.1,195.1ZM170.8,181a8.7,8.7,0,0,0-8.4-8.7,8.8,8.8,0,0,0-9.2,8.5V231a9.1,9.1,0,0,0,8.9,8.9h0a9.1,9.1,0,0,0,9.1-9.1C171.1,214.2,170.9,197.6,170.8,181ZM162,91.9h0a7.2,7.2,0,0,0-.5,14.3,7.2,7.2,0,1,0,.5-14.3Zm0,0h0a7.2,7.2,0,0,0-.5,14.3,7.2,7.2,0,1,0,.5-14.3Zm8.8,89.1a8.7,8.7,0,0,0-8.4-8.7,8.8,8.8,0,0,0-9.2,8.5V231a9.1,9.1,0,0,0,8.9,8.9h0a9.1,9.1,0,0,0,9.1-9.1C171.1,214.2,170.9,197.6,170.8,181Zm17.3,14.1-7.4-71.6-4.8-5.1a24.6,24.6,0,0,1-26.6.4l-4.7,3.8-7.8,74.2a13.6,13.6,0,0,0,3,10.1,12.2,12.2,0,0,0,3.7,2.7c.1-11.9.1-23.8.1-35.7a16.1,16.1,0,0,1,13-11.9h11.8a14.6,14.6,0,0,1,12.2,11.3l.3,36.2a13,13,0,0,0,3.9-3.1C188.7,202.1,188.2,196.5,188.1,195.1Zm0,0-7.4-71.6-4.8-5.1a24.6,24.6,0,0,1-26.6.4l-4.7,3.8-7.8,74.2a13.6,13.6,0,0,0,3,10.1,12.2,12.2,0,0,0,3.7,2.7c.1-11.9.1-23.8.1-35.7a16.1,16.1,0,0,1,13-11.9h11.8a14.6,14.6,0,0,1,12.2,11.3l.3,36.2a13,13,0,0,0,3.9-3.1C188.7,202.1,188.2,196.5,188.1,195.1ZM170.8,181a8.7,8.7,0,0,0-8.4-8.7,8.8,8.8,0,0,0-9.2,8.5V231a9.1,9.1,0,0,0,8.9,8.9h0a9.1,9.1,0,0,0,9.1-9.1C171.1,214.2,170.9,197.6,170.8,181ZM162,91.9h0a7.2,7.2,0,0,0-.5,14.3,7.2,7.2,0,1,0,.5-14.3Zm0,0h0a7.2,7.2,0,0,0-.5,14.3,7.2,7.2,0,1,0,.5-14.3Zm8.8,89.1a8.7,8.7,0,0,0-8.4-8.7,8.8,8.8,0,0,0-9.2,8.5V231a9.1,9.1,0,0,0,8.9,8.9h0a9.1,9.1,0,0,0,9.1-9.1C171.1,214.2,170.9,197.6,170.8,181Zm17.3,14.1-7.4-71.6-4.8-5.1a24.6,24.6,0,0,1-26.6.4l-4.7,3.8-7.8,74.2a13.6,13.6,0,0,0,3,10.1,12.2,12.2,0,0,0,3.7,2.7c.1-11.9.1-23.8.1-35.7a16.1,16.1,0,0,1,13-11.9h11.8a14.6,14.6,0,0,1,12.2,11.3l.3,36.2a13,13,0,0,0,3.9-3.1C188.7,202.1,188.2,196.5,188.1,195.1Zm0,0-7.4-71.6-4.8-5.1a24.6,24.6,0,0,1-26.6.4l-4.7,3.8-7.8,74.2a13.6,13.6,0,0,0,3,10.1,12.2,12.2,0,0,0,3.7,2.7c.1-11.9.1-23.8.1-35.7a16.1,16.1,0,0,1,13-11.9h11.8a14.6,14.6,0,0,1,12.2,11.3l.3,36.2a13,13,0,0,0,3.9-3.1C188.7,202.1,188.2,196.5,188.1,195.1ZM170.8,181a8.7,8.7,0,0,0-8.4-8.7,8.8,8.8,0,0,0-9.2,8.5V231a9.1,9.1,0,0,0,8.9,8.9h0a9.1,9.1,0,0,0,9.1-9.1C171.1,214.2,170.9,197.6,170.8,181ZM162,91.9h0a7.2,7.2,0,0,0-.5,14.3,7.2,7.2,0,1,0,.5-14.3Zm0,0h0a7.2,7.2,0,0,0-.5,14.3,7.2,7.2,0,1,0,.5-14.3Zm8.8,89.1a8.7,8.7,0,0,0-8.4-8.7,8.8,8.8,0,0,0-9.2,8.5V231a9.1,9.1,0,0,0,8.9,8.9h0a9.1,9.1,0,0,0,9.1-9.1C171.1,214.2,170.9,197.6,170.8,181Zm17.3,14.1-7.4-71.6-4.8-5.1a24.6,24.6,0,0,1-26.6.4l-4.7,3.8-7.8,74.2a13.6,13.6,0,0,0,3,10.1,12.2,12.2,0,0,0,3.7,2.7c.1-11.9.1-23.8.1-35.7a16.1,16.1,0,0,1,13-11.9h11.8a14.6,14.6,0,0,1,12.2,11.3l.3,36.2a13,13,0,0,0,3.9-3.1C188.7,202.1,188.2,196.5,188.1,195.1Zm0,0-7.4-71.6-4.8-5.1a24.6,24.6,0,0,1-26.6.4l-4.7,3.8-7.8,74.2a13.6,13.6,0,0,0,3,10.1,12.2,12.2,0,0,0,3.7,2.7c.1-11.9.1-23.8.1-35.7a16.1,16.1,0,0,1,13-11.9h11.8a14.6,14.6,0,0,1,12.2,11.3l.3,36.2a13,13,0,0,0,3.9-3.1C188.7,202.1,188.2,196.5,188.1,195.1ZM170.8,181a8.7,8.7,0,0,0-8.4-8.7,8.8,8.8,0,0,0-9.2,8.5V231a9.1,9.1,0,0,0,8.9,8.9h0a9.1,9.1,0,0,0,9.1-9.1C171.1,214.2,170.9,197.6,170.8,181ZM162,91.9h0a7.2,7.2,0,0,0-.5,14.3,7.2,7.2,0,1,0,.5-14.3Zm0,0h0a7.2,7.2,0,0,0-.5,14.3,7.2,7.2,0,1,0,.5-14.3Zm8.8,89.1a8.7,8.7,0,0,0-8.4-8.7,8.8,8.8,0,0,0-9.2,8.5V231a9.1,9.1,0,0,0,8.9,8.9h0a9.1,9.1,0,0,0,9.1-9.1C171.1,214.2,170.9,197.6,170.8,181Zm17.3,14.1-7.4-71.6-4.8-5.1a24.6,24.6,0,0,1-26.6.4l-4.7,3.8-7.8,74.2a13.6,13.6,0,0,0,3,10.1,12.2,12.2,0,0,0,3.7,2.7c.1-11.9.1-23.8.1-35.7a16.1,16.1,0,0,1,13-11.9h11.8a14.6,14.6,0,0,1,12.2,11.3l.3,36.2a13,13,0,0,0,3.9-3.1C188.7,202.1,188.2,196.5,188.1,195.1Zm0,0-7.4-71.6-4.8-5.1a24.6,24.6,0,0,1-26.6.4l-4.7,3.8-7.8,74.2a13.6,13.6,0,0,0,3,10.1,12.2,12.2,0,0,0,3.7,2.7c.1-11.9.1-23.8.1-35.7a16.1,16.1,0,0,1,13-11.9h11.8a14.6,14.6,0,0,1,12.2,11.3l.3,36.2a13,13,0,0,0,3.9-3.1C188.7,202.1,188.2,196.5,188.1,195.1ZM170.8,181a8.7,8.7,0,0,0-8.4-8.7,8.8,8.8,0,0,0-9.2,8.5V231a9.1,9.1,0,0,0,8.9,8.9h0a9.1,9.1,0,0,0,9.1-9.1C171.1,214.2,170.9,197.6,170.8,181ZM162,91.9h0a7.2,7.2,0,0,0-.5,14.3,7.2,7.2,0,1,0,.5-14.3Zm0,0h0a7.2,7.2,0,0,0-.5,14.3,7.2,7.2,0,1,0,.5-14.3Zm8.8,89.1a8.7,8.7,0,0,0-8.4-8.7,8.8,8.8,0,0,0-9.2,8.5V231a9.1,9.1,0,0,0,8.9,8.9h0a9.1,9.1,0,0,0,9.1-9.1C171.1,214.2,170.9,197.6,170.8,181Zm17.3,14.1-7.4-71.6-4.8-5.1a24.6,24.6,0,0,1-26.6.4l-4.7,3.8-7.8,74.2a13.6,13.6,0,0,0,3,10.1,12.2,12.2,0,0,0,3.7,2.7c.1-11.9.1-23.8.1-35.7a16.1,16.1,0,0,1,13-11.9h11.8a14.6,14.6,0,0,1,12.2,11.3l.3,36.2a13,13,0,0,0,3.9-3.1C188.7,202.1,188.2,196.5,188.1,195.1Zm0,0-7.4-71.6-4.8-5.1a24.6,24.6,0,0,1-26.6.4l-4.7,3.8-7.8,74.2a13.6,13.6,0,0,0,3,10.1,12.2,12.2,0,0,0,3.7,2.7c.1-11.9.1-23.8.1-35.7a16.1,16.1,0,0,1,13-11.9h11.8a14.6,14.6,0,0,1,12.2,11.3l.3,36.2a13,13,0,0,0,3.9-3.1C188.7,202.1,188.2,196.5,188.1,195.1ZM170.8,181a8.7,8.7,0,0,0-8.4-8.7,8.8,8.8,0,0,0-9.2,8.5V231a9.1,9.1,0,0,0,8.9,8.9h0a9.1,9.1,0,0,0,9.1-9.1C171.1,214.2,170.9,197.6,170.8,181ZM162,91.9h0a7.2,7.2,0,0,0-.5,14.3,7.2,7.2,0,1,0,.5-14.3Z" />
    <path d="M12.8,399.4H0l11.4-47.3a9,9,0,0,1,1.9-3,7.5,7.5,0,0,1,4.3-2.3h9.3l5.4,28.5,20.6-28.5,14.8-.2Q61.4,372.8,54.9,399H42.1L49,371.6,32,395.3a4.6,4.6,0,0,1-2,.1c-3.1-.4-5.7-3.7-6.9-8.3s-1.9-11.9-2.9-17.8C17.8,379.3,15.3,389.3,12.8,399.4Z" />
    <path d="M110.9,374a17.3,17.3,0,0,0-3.7-9,12,12,0,0,0-4.1-3.5,15.3,15.3,0,0,0-6.6-1.8c-4.9-.5-7.8-.8-11.8,0a23.9,23.9,0,0,0-11.8,5.6,22.7,22.7,0,0,0-7,13.5,19.7,19.7,0,0,0,0,6.2,16.4,16.4,0,0,0,12.6,14.2,29.7,29.7,0,0,0,15-.5,24,24,0,0,0,12-7A22.9,22.9,0,0,0,110.9,374Zm-12.8,4.6a10.5,10.5,0,0,1-.9,3.3,12.1,12.1,0,0,1-3.1,3.9,11.4,11.4,0,0,1-5.3,2.1c-1.3.2-7.5,1.1-9.8-2.6s.3-7.7.7-8.4a10.1,10.1,0,0,1,3.5-3.8,11.4,11.4,0,0,1,6.4-1.9c2.6-.2,5.3-.3,7.1,1.5S98.2,377.6,98.1,378.6Z" />
    <path d="M185.8,374a17,17,0,0,0-3.6-9,13,13,0,0,0-4.1-3.5,15.3,15.3,0,0,0-6.6-1.8c-4.9-.5-7.8-.8-11.8,0a24.5,24.5,0,0,0-11.9,5.6,23.3,23.3,0,0,0-7,13.5,23.6,23.6,0,0,0,0,6.2,17.1,17.1,0,0,0,4.3,9.3,16.7,16.7,0,0,0,8.4,4.9,29.7,29.7,0,0,0,15-.5,24,24,0,0,0,12-7A22.5,22.5,0,0,0,185.8,374Zm-12.7,4.6a8,8,0,0,1-1,3.3,11,11,0,0,1-3,3.9,11.4,11.4,0,0,1-5.3,2.1c-1.4.2-7.5,1.1-9.8-2.6s.3-7.7.7-8.4a9.4,9.4,0,0,1,3.5-3.8,11.4,11.4,0,0,1,6.4-1.9c2.6-.2,5.3-.3,7,1.5S173.2,377.6,173.1,378.6Z" />
    <path d="M123.6,346.7h12.6c-1,4.3-2,8.6-3.1,12.9h9l-2.4,11.7h-9.5c-1,4.6-2.1,9.2-3.2,13.9a2.4,2.4,0,0,0,.2,2,2.4,2.4,0,0,0,1.9,1.2H135l-2.2,11.1H121.7l-1.5-.5c-4.7-2-6.2-7.2-6.3-7.5a10.3,10.3,0,0,1-.2-5.2C114.6,380.6,118.2,366,123.6,346.7Z" />
    <path d="M304.6,346.7h12.7c-1.1,4.3-2.1,8.6-3.1,12.9h9l-2.5,11.7h-9.4L308,385.2a3,3,0,0,0,.2,2,2.4,2.4,0,0,0,2,1.2H316l-2.1,11.1H302.8l-1.5-.5c-4.8-2-6.3-7.2-6.4-7.5a11.7,11.7,0,0,1-.2-5.2C295.6,380.6,299.2,366,304.6,346.7Z" fill="#153450"/>
    <path d="M185.8,399.4l11.4-46a12.3,12.3,0,0,1,13.5-6.5l23.1,27,6.4-27.4,12.2.2L240,399.4H227.5c.8-3.4,1.6-6.8,2.5-10.2L207.3,362c-3.1,12.4-6.1,24.8-9.2,37.2Z" fill="#163452"/>
    <path d="M286.5,399.4l2.7-11-25.1-.5a8.6,8.6,0,0,1-2.9-3.4c-1.2-2.9.1-5.7.7-7,2.4-5.2,8.2-6.8,9.2-7.1h9.8c-.2,1.1-.4,2.2-.7,3.3h-9.6c-3.4,1.4-5.7,4.2-5.6,7.2a6.6,6.6,0,0,0,1.2,3.5h23.7l3.8-14.5a8.1,8.1,0,0,0-1.3-6.8,7.7,7.7,0,0,0-5.7-3H268.9a20.7,20.7,0,0,0-9.5,3.3c-7.1,4.4-10.5,12.5-10.4,19.5a16,16,0,0,0,10.7,16Z" fill="#1c3057"/>
  </g>
</svg>
