<svg xmlns="http://www.w3.org/2000/svg" viewBox="0 0 123.6 122.6"><title>icon1Recurso 10</title><g id="Capa_2" data-name="Capa 2"><g id="Capa_1-2" data-name="Capa 1"><g id="_9xu5Vv" data-name="9xu5Vv"><path d="M0,16.5A18.5,18.5,0,0,1,6.7,7.8C9,6,11.1,4.1,13.3,2.2a8.7,8.7,0,0,1,11.3-.1,8.7,8.7,0,0,1,1.6,11,8.6,8.6,0,0,1-10.9,3c-1.1-.5-2-2-3.6-.5s-2.4,2.5-2,4.9C12,33.4,15.5,46,22.1,57.4a42,42,0,0,0,6.8,8.9c5.8,5.6,12.3,5.4,18.3,0s7.5-9.5,10-15c4.5-9.8,7.2-20.2,9.2-30.9.5-2.6-.8-3.9-2.6-5.1s-1.5,0-2.2.3C57.2,18,52.4,17,49.9,13A8.5,8.5,0,0,1,52.2,1.5C56-1.2,61-.2,64.1,3.7A8.1,8.1,0,0,0,66,5.5c1.6,1.2,3.2,2.2,4.7,3.4,4.5,3.5,5.8,7.9,4.8,13.6C73.1,34.9,69.8,47,64.1,58.4c-3.7,7.4-8.2,14.1-15.5,18.4C46.8,81,45,85.3,43.3,89.5c3,18.1,15,24.8,31.8,23.5,8.7-.7,16.2-3.8,20.9-11.7a81.9,81.9,0,0,0,3.6-7.8l-2.9-1.3c-8-3.7-12.5-12.5-10.7-20.7s9.6-15.4,18.8-15.4a18.9,18.9,0,0,1,18.3,15.3,6.1,6.1,0,0,0,.5,1.2v4.9L123,79a18.1,18.1,0,0,1-12.1,13.8c-1.8.6-2.3,1.6-2.7,3.2-3.4,12.9-11.4,21.4-24.4,24.9-2.8.7-5.7,1.1-8.5,1.7H67l-2.3-.6c-4.4-1.3-9-2.1-13-4.1C41,112.4,36.2,102.6,34,91.2a16.8,16.8,0,0,0-1.2-3.8c-1.3-2.8-2.6-5.6-4-8.3A8.8,8.8,0,0,0,27,76.6c-3.2-3.2-6.9-5.8-9.6-9.3-6.5-8.5-10.1-18.4-13-28.6C2.7,32.5,1.5,26.1,0,19.8ZM95,75a9.6,9.6,0,0,0,19.2.1A9.6,9.6,0,1,0,95,75Z" fill="#fff"/><path d="M104.6,79.6a4.6,4.6,0,1,1,0-9.2,4.6,4.6,0,1,1,0,9.2Z" fill="#fff"/></g></g></g></svg>