<svg xmlns="http://www.w3.org/2000/svg" viewBox="0 0 166.45 283.06"><title>MotoNetBWRecurso 8</title><g id="Capa_2" data-name="Capa 2"><g id="Capa_1-2" data-name="Capa 1"><path d="M31.37,176.34c-1.05,0,7.42,19,7.83,19,5.78,14.27,10.14,26,13,34,11.82,32.89,16,50.57,28.67,53.34a14,14,0,0,0,5.67.16c12.11-2.2,16.52-20.28,29-54.83,2.68-7.44,6.9-18.84,12.5-32.83l.08,0c.06-.13.1-.25.16-.37,1-2.06,3.23-7.23,3.42-7.78.81-2.43,4.23-10.21,4-10.21l26.84-69c2.71-8.88,7-27.56.5-48.66C153.44,28,123.11.59,84.7,0,43.81-.61,13.13,29.48,3.54,60.18A82.67,82.67,0,0,0,2,102.34Q16.71,139.35,31.37,176.34Z" fill="#e0001b"/><path d="M33.08,39.38a4.85,4.85,0,0,0,6.12.38C42,37,58.29,21,84.08,21.38c25.24.36,40.91,16.05,43.75,19a5.29,5.29,0,0,0,7.62-6.5c-3.07-3.23-22.2-22.7-52.75-22.25-29.28.44-47.4,18.86-50.62,22.25A4.85,4.85,0,0,0,33.08,39.38Z" fill="#fff"/><path d="M52.7,54.7A4.86,4.86,0,0,1,46.33,48c2.05-2.29,15.33-16.62,37.12-16.69,22.42-.07,36,15,37.94,17.25a5,5,0,0,1-6.81,6.25c-1.84-2-13-13.35-30.94-13.37S54.56,52.75,52.7,54.7Z" fill="#fff"/><path d="M60.08,62.63a4.89,4.89,0,0,0,6.37,6.42,22.46,22.46,0,0,1,33.84-.21,5.55,5.55,0,0,0,5.12-.5,5.26,5.26,0,0,0,2-5.43c-1-1.27-9.48-11.65-24-11.57C69.42,51.42,61.15,61.31,60.08,62.63Z" fill="#fff"/><path d="M125,91H105.7a23.54,23.54,0,0,0-44.25-.5l-21.56.13a8.73,8.73,0,0,0,0,16.37L61.64,107c.38,1.08.75,2.17,1.13,3.25a17.76,17.76,0,0,0-4.57,4.06A21,21,0,0,0,54.92,121c-1.37,5.19-4.72,34.6-8.22,75,0,1.05.42,17.8,11.75,23.34A17.06,17.06,0,0,0,65,221q.14,9.63.25,19.25a15.54,15.54,0,0,0,4.07,7.38,15.29,15.29,0,0,0,5.56,3.56l17,.19a16,16,0,0,0,9.87-10.88q.26-9.75.5-19.5a17.7,17.7,0,0,0,6.25-1.66c9.76-4.68,11.54-17,11.75-18.59q-3.61-39.49-7.25-79a15.93,15.93,0,0,0-3-7.25l-5.5-5.25c.34-.77.67-1.54,1-2.31H125.2A8.34,8.34,0,0,0,125,91Zm-41.68.88A7.14,7.14,0,1,1,75.89,99,7.25,7.25,0,0,1,83.27,91.89Zm.06,148A9.13,9.13,0,0,1,74.45,231V180.76a8.82,8.82,0,0,1,17.63.25q.18,24.88.37,49.75A9.12,9.12,0,0,1,83.33,239.89Zm26-44.75c.14,1.34.58,6.94-3.25,11.37a13.21,13.21,0,0,1-3.88,3.07q-.18-18.08-.37-36.13A14.57,14.57,0,0,0,89.7,162.14L77.83,162a16,16,0,0,0-12.94,11.88q0,17.88-.1,35.75a11.72,11.72,0,0,1-3.71-2.75c-3.53-3.94-3.12-9-3-10.13q3.9-37,7.81-74.12,2.31-1.92,4.63-3.83a24.6,24.6,0,0,0,26.65-.45l4.81,5.09Z" fill="#fff"/></g></g></svg>