<svg xmlns="http://www.w3.org/2000/svg" width="111.83mm" height="113.61mm" viewBox="0 0 317.01 322.03"><title>MotoNetBWRecurso 5</title><g id="Capa_2" data-name="Capa 2"><g id="Capa_1-2" data-name="Capa 1"><path d="M46.26,188.84a14.19,14.19,0,0,1,2.67-5.66c4.23-5.32,11.53-5.87,16.5-6.17,15.68-1,30-.85,38.67-.67l-29.34-74a82.79,82.79,0,0,1,1.5-42.16C85.86,29.48,116.53-.61,157.43,0c38.4.58,68.73,28,78.33,59.17,6.5,21.1,2.22,39.78-.5,48.66l-26.83,69,37.58.09a28.17,28.17,0,0,1,15.75,6.58Q289.39,244.92,317,306.34a15.24,15.24,0,0,1-3,9.25c-4.43,5.54-12.61,5.78-16.25,5.84-13.27.2-70.61.46-149.16.08-71.11.85-123,.59-131.71-.25a22.33,22.33,0,0,1-11.71-4.5,13.58,13.58,0,0,1-4.67-6.33,14.48,14.48,0,0,1-.16-7C1.69,297.47,20.14,251.49,46.26,188.84Zm.67,106a12.1,12.1,0,0,0,10,4l199.62-.12a13,13,0,0,0,10.25-3,12.53,12.53,0,0,0,3.88-7.25l-39.92-88.67A21.58,21.58,0,0,0,218,195.59l-17.25-.41c-5.6,14-9.81,25.39-12.5,32.83-12.47,34.55-16.88,52.63-29,54.83a14,14,0,0,1-5.66-.16c-12.67-2.77-16.86-20.45-28.67-53.34-2.87-8-7.22-19.73-13-34l-22.17.5a17,17,0,0,0-7.33,2,16.76,16.76,0,0,0-4,3l-34,84.67A11.85,11.85,0,0,0,46.93,294.88Z" fill="#e0001b"/><path d="M105.8,39.38a4.86,4.86,0,0,0,6.13.38C114.71,37,131,21,156.8,21.38c25.24.36,40.91,16.05,43.75,19a5.3,5.3,0,0,0,7.63-6.5c-3.07-3.23-22.2-22.7-52.75-22.25-29.28.44-47.41,18.86-50.63,22.25A4.85,4.85,0,0,0,105.8,39.38Z" fill="#fff"/><path d="M125.43,54.7A4.87,4.87,0,0,1,119.05,48c2.06-2.29,15.34-16.62,37.13-16.69,22.41-.07,36,15,37.94,17.25a5,5,0,0,1-6.82,6.25c-1.84-2-13-13.35-30.93-13.37S127.28,52.75,125.43,54.7Z" fill="#fff"/><path d="M132.8,62.63a4.9,4.9,0,0,0,6.38,6.42A22.45,22.45,0,0,1,173,68.84a5.57,5.57,0,0,0,5.13-.5,5.3,5.3,0,0,0,2-5.43c-1-1.27-9.48-11.65-24-11.57C142.15,51.42,133.87,61.31,132.8,62.63Z" fill="#fff"/><path d="M197.67,91H178.42a23.54,23.54,0,0,0-44.25-.5l-21.56.13a8.73,8.73,0,0,0,0,16.37l21.75-.06c.38,1.08.75,2.17,1.13,3.25a17.76,17.76,0,0,0-4.57,4.06,21,21,0,0,0-3.28,6.78c-1.37,5.19-4.72,34.6-8.22,75,0,1.05.42,17.8,11.75,23.34a17.06,17.06,0,0,0,6.5,1.66q.14,9.63.25,19.25a15.54,15.54,0,0,0,4.07,7.38,15.29,15.29,0,0,0,5.56,3.56l17,.19a16,16,0,0,0,9.87-10.88q.26-9.75.5-19.5a17.7,17.7,0,0,0,6.25-1.66c9.76-4.68,11.54-17,11.75-18.59q-3.61-39.49-7.25-79a15.93,15.93,0,0,0-3-7.25l-5.5-5.25c.34-.77.67-1.54,1-2.31h19.75A8.34,8.34,0,0,0,197.67,91ZM156,91.89A7.14,7.14,0,1,1,148.61,99,7.25,7.25,0,0,1,156,91.89Zm.06,148a9.13,9.13,0,0,1-8.88-8.88V180.76a8.82,8.82,0,0,1,17.63.25q.18,24.88.37,49.75A9.12,9.12,0,0,1,156.05,239.89Zm26-44.75c.14,1.34.58,6.94-3.25,11.37a13.21,13.21,0,0,1-3.88,3.07q-.18-18.08-.37-36.13a14.57,14.57,0,0,0-12.13-11.31L150.55,162a16,16,0,0,0-12.94,11.88q0,17.88-.1,35.75a11.72,11.72,0,0,1-3.71-2.75c-3.53-3.94-3.12-9-3-10.13q3.9-37,7.81-74.12,2.31-1.92,4.63-3.83a24.6,24.6,0,0,0,26.65-.45l4.81,5.09Z" fill="#fff"/></g></g></svg>