<svg xmlns="http://www.w3.org/2000/svg" viewBox="0 0 20 20"><defs><style>.cls-1{fill:#f7001d;}.cls-2{fill:#fff;}</style></defs><title>addFoto</title><g id="Capa_2" data-name="Capa 2"><g id="Capa_1-2" data-name="Capa 1"><rect class="cls-1" x="4.25" y="4.25" width="15.75" height="15.75" rx="2.67"/><path class="cls-1" d="M-2157.84,4012.23h1.13v-1h-1.13Zm-2.21-.92a3.12,3.12,0,0,0,2.21.92v-1a2.13,2.13,0,0,1-1.5-.63Zm-.91-2.2a3.13,3.13,0,0,0,.91,2.2l.71-.71a2.09,2.09,0,0,1-.62-1.5Zm0-10.13v10.12h1V3999Zm1-2.47a3.5,3.5,0,0,0-1,2.47h1a2.51,2.51,0,0,1,.73-1.77Zm2.47-1a3.5,3.5,0,0,0-2.47,1l.71.7a2.55,2.55,0,0,1,1.77-.73Zm10.13,0h-10.12v1h10.12Zm2.21.92a3.12,3.12,0,0,0-2.21-.92v1a2.16,2.16,0,0,1,1.5.62Zm.92,2.2a3.16,3.16,0,0,0-.92-2.2l-.71.7a2.18,2.18,0,0,1,.63,1.51Zm0,1.14,0-1.13-1,0,0,1.13Zm-12.47,12.49a.5.5,0,0,0,.5-.5.5.5,0,0,0-.5-.5Zm-1.13-.5v.5h0Zm-2.62-2.63h0Zm0-10.12h0Zm3-3v-.5h0Zm10.12,0v-.5h0Zm2.63,2.62h0Zm-.53,1.12a.52.52,0,0,0,.49.51.5.5,0,0,0,.51-.49Z" transform="translate(2160.96 -3995.48)"/><path class="cls-2" d="M-2149.34,4003.85v7.5h1v-7.5Zm0,7.5a.5.5,0,0,0,.5.5.5.5,0,0,0,.5-.5Zm1-7.5a.5.5,0,0,0-.5-.5.51.51,0,0,0-.5.5Z" transform="translate(2160.96 -3995.48)"/><path class="cls-2" d="M-2145.09,4007.1h-7.5v1h7.5Zm-7.5,0a.51.51,0,0,0-.5.5.5.5,0,0,0,.5.5Zm7.5,1a.5.5,0,0,0,.5-.5.5.5,0,0,0-.5-.5Z" transform="translate(2160.96 -3995.48)"/></g></g></svg>