<svg xmlns="http://www.w3.org/2000/svg" viewBox="0 0 108.03 117.2"><defs><style>.cls-1{fill:#fff;}</style></defs><title>clinicaautorizacion</title><g id="Capa_2" data-name="Capa 2"><g id="Capa_1-2" data-name="Capa 1"><g id="_1mYMrm" data-name="1mYMrm"><path class="cls-1" d="M80.94,43.34c.26-.28.34-.34.39-.41,2.33-3.61,4.66-7.21,7-10.83a2.46,2.46,0,0,0,.29-1.26c0-2.89,0-5.79,0-8.68a3.11,3.11,0,0,0-1-2.45Q78.22,10.35,68.86,1a3,3,0,0,0-2.28-1Q36.82,0,7.06,0A6.73,6.73,0,0,0,0,6.93C0,13.29,0,19.65,0,26q0,24.85,0,49.7c0,11.54,0,23.08,0,34.62a6.72,6.72,0,0,0,7,6.87H81.8a6.74,6.74,0,0,0,6.79-6.58c0-9.57,0-19.14,0-28.71a5.51,5.51,0,0,0-.12-.75l-.27.37c-2.29,3.51-4.6,7-6.86,10.55A2.81,2.81,0,0,0,81,93.52c0,5,0,9.92,0,14.88,0,.36,0,.73,0,1.09H7.73V7.7H63.15V8.87c0,4.52,0,9,0,13.55,0,2.53,1,3.52,3.53,3.52q6.54,0,13.07,0h1.19ZM72.3,76.54c.13-.25.2-.42.3-.57L81.22,62.8c2.55-3.91,5.12-7.82,7.67-11.74.74-1.14.64-1.57-.51-2.33l-2.24-1.46c-1.11-.71-1.56-.63-2.27.46q-12.42,19-24.83,38a2.86,2.86,0,0,0-.43,1.32c-.24,4.16-.46,8.32-.62,12.48a2.06,2.06,0,0,0,.54,1.56c.31.24,1.1.08,1.56-.15,3.65-1.78,7.3-3.59,10.92-5.45a4,4,0,0,0,1.44-1.29q6.49-9.83,12.92-19.7l11.79-18c.73-1.13.63-1.59-.52-2.33l-1.92-1.25c-1.52-1-1.8-.95-2.8.57Q84.71,64.51,77.48,75.56c-.66,1-1.33,2-2,3ZM95.38,30.81a5.3,5.3,0,0,0-1,.88q-3.7,5.6-7.36,11.23c-.58.89-.48,1.41.41,2q5.46,3.59,10.93,7.14a1.18,1.18,0,0,0,1.93-.41Q104,46,107.7,40.32a1.17,1.17,0,0,0-.4-1.92q-5.44-3.59-10.93-7.13A7.34,7.34,0,0,0,95.38,30.81ZM37.91,38.37H53.74c1.24,0,2.48,0,3.72,0a2.78,2.78,0,0,0,.25-5.52,7.19,7.19,0,0,0-1.23-.07l-25.36,0c-4,0-8,0-12,0a2.91,2.91,0,0,0-2.95,1.68,2.79,2.79,0,0,0,2.78,3.93C25.27,38.38,31.59,38.37,37.91,38.37ZM29.53,24.44H40.1c1.9,0,3.18-1.15,3.19-2.8S42,18.81,40.06,18.81H19a2.82,2.82,0,1,0-.15,5.63C22.41,24.46,26,24.44,29.53,24.44Zm.09,41.82c3.53,0,7.06,0,10.58,0A3.87,3.87,0,0,0,41.68,66a2.73,2.73,0,0,0,1.56-3.06,2.76,2.76,0,0,0-2.9-2.24q-10.68,0-21.35,0a2.81,2.81,0,0,0-3.09,2.76c0,1.69,1.23,2.8,3.15,2.8Zm0-13.92c3.53,0,7.05,0,10.58,0a2.82,2.82,0,1,0,0-5.6H31.6c-4.25,0-8.51,0-12.77,0a2.77,2.77,0,0,0-2.59,4.1A2.87,2.87,0,0,0,19,52.35Z"/><path class="cls-1" d="M80.94,43.34V25.93H79.75q-6.54,0-13.07,0c-2.51,0-3.52-1-3.53-3.52,0-4.52,0-9,0-13.55V7.7H7.73V109.49H80.94c0-.36,0-.73,0-1.09,0-5,0-9.92,0-14.88a2.81,2.81,0,0,1,.34-1.44c2.26-3.53,4.57-7,6.86-10.55l.27-.37a5.51,5.51,0,0,1,.12.75c0,9.57,0,19.14,0,28.71a6.74,6.74,0,0,1-6.79,6.58H7a6.72,6.72,0,0,1-7-6.87C0,98.79,0,87.25,0,75.71Q0,50.86,0,26C0,19.65,0,13.29,0,6.93A6.73,6.73,0,0,1,7.06,0Q36.82,0,66.58,0a3,3,0,0,1,2.28,1q9.36,9.39,18.75,18.75a3.11,3.11,0,0,1,1,2.45c0,2.89,0,5.79,0,8.68a2.46,2.46,0,0,1-.29,1.26c-2.3,3.62-4.63,7.22-7,10.83C81.28,43,81.2,43.06,80.94,43.34Z"/><path class="cls-1" d="M72.3,76.54l3.16,2c.69-1,1.36-2,2-3Q84.7,64.51,91.92,53.44c1-1.52,1.28-1.57,2.8-.57l1.92,1.25c1.15.74,1.25,1.2.52,2.33l-11.79,18q-6.45,9.85-12.92,19.7A4,4,0,0,1,71,95.49c-3.62,1.86-7.27,3.67-10.92,5.45-.46.23-1.25.39-1.56.15A2.06,2.06,0,0,1,58,99.53c.16-4.16.38-8.32.62-12.48A2.86,2.86,0,0,1,59,85.73q12.39-19,24.83-38c.71-1.09,1.16-1.17,2.27-.46l2.24,1.46c1.15.76,1.25,1.19.51,2.33C86.34,55,83.77,58.89,81.22,62.8L72.6,76C72.5,76.12,72.43,76.29,72.3,76.54Z"/><path class="cls-1" d="M95.38,30.81a7.34,7.34,0,0,1,1,.46q5.47,3.56,10.93,7.13a1.17,1.17,0,0,1,.4,1.92Q104,46,100.29,51.64a1.18,1.18,0,0,1-1.93.41q-5.48-3.55-10.93-7.14c-.89-.58-1-1.1-.41-2q3.66-5.62,7.36-11.23A5.3,5.3,0,0,1,95.38,30.81Z"/><path class="cls-1" d="M37.91,38.37c-6.32,0-12.64,0-19,0a2.79,2.79,0,0,1-2.78-3.93,2.91,2.91,0,0,1,2.95-1.68c4,0,8,0,12,0l25.36,0a7.19,7.19,0,0,1,1.23.07,2.78,2.78,0,0,1-.25,5.52c-1.24.06-2.48,0-3.72,0H37.91Z"/><path class="cls-1" d="M29.53,24.44c-3.56,0-7.12,0-10.68,0A2.82,2.82,0,1,1,19,18.8H40.06c2,0,3.24,1.13,3.23,2.83S42,24.43,40.1,24.44H29.53Z"/><path class="cls-1" d="M29.62,66.26H19.05c-1.92,0-3.16-1.11-3.15-2.8A2.81,2.81,0,0,1,19,60.7q10.68,0,21.35,0a2.76,2.76,0,0,1,2.9,2.24A2.73,2.73,0,0,1,41.68,66a3.87,3.87,0,0,1-1.48.25C36.68,66.27,33.15,66.26,29.62,66.26Z"/><path class="cls-1" d="M29.59,52.34H19a2.87,2.87,0,0,1-2.78-1.5,2.77,2.77,0,0,1,2.59-4.1c4.26,0,8.52,0,12.77,0h8.58a2.82,2.82,0,1,1,0,5.6C36.64,52.36,33.12,52.34,29.59,52.34Z"/></g></g></g></svg>