<svg xmlns="http://www.w3.org/2000/svg" viewBox="0 0 120 120"><title>clinica_ayuda</title><g id="Capa_2" data-name="Capa 2"><g id="Capa_1-2" data-name="Capa 1"><g id="Layer_2" data-name="Layer 2"><path class="cls-1" d="M60,41.54a9.23,9.23,0,1,1,9.23-9.23A9.23,9.23,0,0,1,60,41.54Z"/><path class="cls-1" d="M60,120a60,60,0,1,1,60-60A60,60,0,0,1,60,120ZM60,9.23A50.77,50.77,0,1,0,110.77,60,50.77,50.77,0,0,0,60,9.23Z"/><path class="cls-1" d="M60,96.92a9.23,9.23,0,0,1-9.23-9.23V60a9.23,9.23,0,0,1,18.46,0V87.69A9.23,9.23,0,0,1,60,96.92Z"/></g></g></g></svg>