<svg xmlns="http://www.w3.org/2000/svg" viewBox="0 0 123.59 122.56"><defs></defs><title>clinicaesteto</title><g id="Capa_2" data-name="Capa 2"><g id="Capa_1-2" data-name="Capa 1"><g id="_9xu5Vv" data-name="9xu5Vv"><path class="cls-1" d="M0,16.55A18.6,18.6,0,0,1,6.66,7.76C9,6,11.14,4.11,13.31,2.2a8.57,8.57,0,0,1,11.28-.11,8.48,8.48,0,0,1-9.27,14c-1.1-.51-2-2-3.58-.51s-2.48,2.48-2,4.88C12,33.41,15.49,46,22.06,57.43a40.58,40.58,0,0,0,6.85,8.84c5.83,5.61,12.33,5.46,18.32,0,4.57-4.15,7.46-9.44,10-15,4.49-9.87,7.2-20.27,9.22-30.89.5-2.63-.87-4-2.68-5.12-.45-.3-1.49,0-2.11.33C57.19,18,52.36,17,49.87,13A8.56,8.56,0,0,1,52.16,1.51C56-1.15,61-.21,64.08,3.69a11,11,0,0,0,2,1.82c1.53,1.15,3.15,2.19,4.67,3.36,4.5,3.5,5.83,8,4.75,13.6C73.11,34.92,69.81,47,64.13,58.4c-3.69,7.37-8.24,14.05-15.53,18.4L43.27,89.52c3,18.08,15.07,24.78,31.82,23.47,8.7-.68,16.23-3.77,20.92-11.64a79.05,79.05,0,0,0,3.57-7.84c-1.23-.55-2-.9-2.83-1.27-8-3.75-12.57-12.58-10.72-20.79,2.09-9.31,9.52-15.37,18.78-15.31a18.75,18.75,0,0,1,18.27,15.22,7.07,7.07,0,0,0,.51,1.21v5A13.16,13.16,0,0,0,123,79c-1.59,6.75-5.62,11.44-12.12,13.77a3.85,3.85,0,0,0-2.74,3.2c-3.34,13-11.33,21.45-24.36,24.91-2.81.75-5.71,1.13-8.57,1.68H67c-.77-.18-1.56-.32-2.32-.56-4.35-1.32-9-2.08-13-4.12C41,112.37,36.22,102.6,34.05,91.23a17.74,17.74,0,0,0-1.26-3.81q-1.89-4.23-4-8.36A9.53,9.53,0,0,0,27,76.55c-3.19-3.11-6.9-5.8-9.58-9.28-6.52-8.44-10.17-18.36-13-28.52C2.7,32.52,1.46,26.15,0,19.84ZM95,75a9.64,9.64,0,0,0,9.55,9.64,9.61,9.61,0,1,0,.07-19.21A9.64,9.64,0,0,0,95,75Z"/><path class="cls-1" d="M104.56,79.65a4.62,4.62,0,0,1,0-9.24,4.62,4.62,0,1,1,0,9.24Z"/></g></g></g></svg>