<svg xmlns="http://www.w3.org/2000/svg" viewBox="0 0 108 117.2"><title>icon2Recurso 11</title><g id="Capa_2" data-name="Capa 2"><g id="Capa_1-2" data-name="Capa 1"><g id="_1mYMrm" data-name="1mYMrm"><path d="M80.9,43.3c.3-.2.4-.3.4-.4,2.4-3.6,4.7-7.2,7-10.8a2.5,2.5,0,0,0,.3-1.3V22.2a3.3,3.3,0,0,0-1-2.5C81.3,13.5,75.1,7.2,68.9,1a3,3,0,0,0-2.3-1H7.1A6.8,6.8,0,0,0,0,6.9V110.3a6.8,6.8,0,0,0,7,6.9H81.8a6.7,6.7,0,0,0,6.8-6.6V81.9c0-.2-.1-.4-.1-.7l-.3.3c-2.3,3.5-4.6,7-6.8,10.6a2.3,2.3,0,0,0-.4,1.4v14.9a4.1,4.1,0,0,1-.1,1.1H7.7V7.7H63.2V8.9q-.2,6.8,0,13.5c0,2.5,1,3.5,3.5,3.5H80.9ZM72.3,76.5l.3-.5,8.6-13.2,7.7-11.7c.7-1.2.6-1.6-.5-2.4l-2.3-1.4c-1.1-.7-1.5-.7-2.2.4L59,85.7a3.3,3.3,0,0,0-.4,1.4L58,99.5a2.5,2.5,0,0,0,.5,1.6,1.9,1.9,0,0,0,1.6-.2L71,95.5a4.7,4.7,0,0,0,1.5-1.3L85.4,74.5c3.9-6,7.8-12,11.8-18,.7-1.2.6-1.6-.6-2.4l-1.9-1.2c-1.5-1-1.8-1-2.8.5L77.5,75.6l-2,3ZM95.4,30.8c-.4.3-.8.5-1,.9L87,42.9c-.6.9-.5,1.4.4,2l11,7.1c.8.6,1.3.5,1.9-.4,2.5-3.7,4.9-7.5,7.4-11.3a1.2,1.2,0,0,0-.4-1.9L96.4,31.3ZM37.9,38.4H57.5A2.6,2.6,0,0,0,60,35.7a2.7,2.7,0,0,0-2.3-2.9H19.1a2.8,2.8,0,1,0-.2,5.6Zm-8.4-14H40.1c1.9,0,3.2-1.1,3.2-2.8s-1.3-2.8-3.2-2.8H19a2.8,2.8,0,0,0-2.8,1.7,2.7,2.7,0,0,0,2.7,3.9C22.4,24.5,26,24.4,29.5,24.4Zm.1,41.9H40.2a8,8,0,0,0,1.5-.3,2.6,2.6,0,0,0,1.5-3.1,2.7,2.7,0,0,0-2.9-2.2H19a2.8,2.8,0,1,0,0,5.6Zm0-14c3.5,0,7,.1,10.6,0,1.9,0,3.1-1.1,3.1-2.8a2.9,2.9,0,0,0-3.1-2.8H18.8a2.8,2.8,0,0,0-2.6,4.1A2.8,2.8,0,0,0,19,52.3Z" fill="#fff"/><path d="M80.9,43.3V25.9H66.7c-2.5,0-3.5-1-3.5-3.5q-.2-6.7,0-13.5V7.7H7.7V109.5H80.9a4.1,4.1,0,0,0,.1-1.1V93.5a2.3,2.3,0,0,1,.4-1.4c2.2-3.6,4.5-7.1,6.8-10.6l.3-.3c0,.3.1.5.1.7v28.7a6.7,6.7,0,0,1-6.8,6.6H7a6.8,6.8,0,0,1-7-6.9V6.9A6.8,6.8,0,0,1,7.1,0H66.6a3,3,0,0,1,2.3,1L87.6,19.7a3.3,3.3,0,0,1,1,2.5v8.6a2.5,2.5,0,0,1-.3,1.3c-2.3,3.6-4.6,7.2-7,10.8C81.3,43,81.2,43.1,80.9,43.3Z" fill="#fff"/><path d="M72.3,76.5l3.2,2.1,2-3L91.9,53.4c1-1.5,1.3-1.5,2.8-.5l1.9,1.2c1.2.8,1.3,1.2.6,2.4-4,6-7.9,12-11.8,18L72.5,94.2A4.7,4.7,0,0,1,71,95.5l-10.9,5.4a1.9,1.9,0,0,1-1.6.2,2.5,2.5,0,0,1-.5-1.6l.6-12.4a3.3,3.3,0,0,1,.4-1.4l24.9-38c.7-1.1,1.1-1.1,2.2-.4l2.3,1.4c1.1.8,1.2,1.2.5,2.4L81.2,62.8,72.6,76Z" fill="#fff"/><path d="M95.4,30.8l1,.5,10.9,7.1a1.2,1.2,0,0,1,.4,1.9c-2.5,3.8-4.9,7.6-7.4,11.3-.6.9-1.1,1-1.9.4l-11-7.1c-.9-.6-1-1.1-.4-2l7.4-11.2C94.6,31.3,95,31.1,95.4,30.8Z" fill="#fff"/><path d="M37.9,38.4h-19a2.8,2.8,0,1,1,.2-5.6H57.7A2.7,2.7,0,0,1,60,35.7a2.6,2.6,0,0,1-2.5,2.6H37.9Z" fill="#fff"/><path d="M29.5,24.4c-3.5,0-7.1.1-10.6,0a2.7,2.7,0,0,1-2.7-3.9A2.8,2.8,0,0,1,19,18.8H40.1c1.9,0,3.2,1.1,3.2,2.8s-1.3,2.8-3.2,2.8H29.5Z" fill="#fff"/><path d="M29.6,66.3H19a2.8,2.8,0,1,1,0-5.6H40.3a2.7,2.7,0,0,1,2.9,2.2A2.6,2.6,0,0,1,41.7,66a8,8,0,0,1-1.5.3Z" fill="#fff"/><path d="M29.6,52.3H19a2.8,2.8,0,0,1-2.8-1.5,2.8,2.8,0,0,1,2.6-4.1H40.2a2.9,2.9,0,0,1,3.1,2.8c0,1.7-1.2,2.8-3.1,2.8C36.6,52.4,33.1,52.3,29.6,52.3Z" fill="#fff"/></g></g></g></svg>