<svg xmlns="http://www.w3.org/2000/svg" viewBox="0 0 324.1 426.5"><title>logoCompletoRecurso 3</title><g id="Capa_2" data-name="Capa 2"><g id="Capa_1-2" data-name="Capa 1"><path d="M176.6,281.1a19.1,19.1,0,0,1-27.1,0L25.3,156.9a19.1,19.1,0,0,1,0-27.1L149.5,5.6a19.1,19.1,0,0,1,27.1,0L300.8,129.8a19.1,19.1,0,0,1,0,27.1Z" fill="#2a4b80"/><path d="M141.1,129H100.5V102.7H75.7V129H48.1v24.7H75.7v28.2h24.8V153.7h41.3C139.5,150.7,138.5,131.9,141.1,129Z" fill="#b7b8bc"/><path d="M251.5,128.9V102.7H226.7v26.2H185.8c2.6,3,2.8,21.8.6,24.8h40.3v28.1h24.8V153.7h26.7V128.9Z" fill="#b7b8bc"/><path d="M149,174.2v32.5H121.3v24.7H149v28.2h24.8V231.4h26.7V206.7H173.8V173.6C170.8,176.2,152,176.5,149,174.2Z" fill="#b7b8bc"/><path d="M173.4,113.2V76h26.7V51.2H173.4V25H148.6V51.2H120.9V76h27.3v36.9C151.2,110.1,170.3,109.2,173.4,113.2Z" fill="#b7b8bc"/><path d="M199.2,128.9H166.6a3.1,3.1,0,0,1-2.9-2.8,12.5,12.5,0,0,0-2.9-24.6A12.6,12.6,0,0,0,148.2,114a12.4,12.4,0,0,0,10.2,12.1,3.3,3.3,0,0,1-2.9,2.8H124.3c-4.4,0-7.8,5.6-7.8,12.4s3.4,12.4,7.7,12.4H149V183c0,4.3,5.5,7.8,12.4,7.8s12.4-3.5,12.4-7.8V153.7h25.4c4.3,0,7.8-5.5,7.8-12.4S203.5,128.9,199.2,128.9Z" fill="#fff"/><path d="M119.4,343.8a12.7,12.7,0,0,1-8.9,3.7c-8.3,0-12.6-5.8-12.6-12.5s4.2-12.7,12.6-12.7a12.7,12.7,0,0,1,8.9,3.7l-1.3,1.1a10.6,10.6,0,0,0-7.6-3.1c-7.2,0-10.8,5.1-10.8,11s3.7,10.7,10.8,10.7a10.8,10.8,0,0,0,7.7-3.1Z" fill="#2a4b80"/><path d="M125.4,322.6v22.8h13.9v1.8H123.5V322.6Z" fill="#2a4b80"/><path d="M142.9,347.2V322.6h1.8v24.6Z" fill="#2a4b80"/><path d="M151,322.6l16.5,20.3V322.6h1.9v24.6h-.8l-16.5-20.3v20.3h-1.9V322.6Z" fill="#2a4b80"/><path d="M174.9,347.2V322.6h1.9v24.6Z" fill="#2a4b80"/><path d="M202.5,343.8a13.2,13.2,0,0,1-9,3.7c-8.3,0-12.6-5.8-12.6-12.5s4.2-12.7,12.6-12.7a13.2,13.2,0,0,1,9,3.7l-1.3,1.1a10.8,10.8,0,0,0-7.7-3.1c-7.2,0-10.8,5.1-10.8,11s3.7,10.7,10.8,10.7a10.8,10.8,0,0,0,7.7-3.1Z" fill="#2a4b80"/><path d="M225.4,347.2l-2.7-6.1H208l-2.7,6.1h-2l11-24.6h2.1l11,24.6Zm-3.5-7.8-6.6-15-6.6,15Z" fill="#2a4b80"/><path d="M27.4,365h7v37.4H30L10.4,377.2v25.2h-7V365H9.1l18.3,23.2Z" fill="#2a4b80"/><path d="M40.9,402.4V365h7v37.4Z" fill="#2a4b80"/><path d="M79,365h7.1v37.4H81.7L62.1,377.2v25.2h-7V365h5.7L79,388.2Zm-16.8-5.9c1.3-3.1,3.4-5.4,6.9-4.6s4.9,3.4,6.6.1l4.3,2c-1.6,4.1-4.3,5.3-6.8,4.7s-4.9-3.9-7,0Z" fill="#2a4b80"/><path d="M131.2,383.9c-.1,9.7-6,19.3-19.1,19.3S92.9,393.8,92.9,384s6.3-19.7,19.2-19.7S131.3,374.1,131.2,383.9Zm-31.4.2c.2,6.1,3.5,12.7,12.3,12.7s12.1-6.7,12.2-12.8-3.4-13.3-12.2-13.3S99.6,377.8,99.8,384.1Z" fill="#2a4b80"/><path d="M178.4,386.4c0,9.7-6.1,16.7-16.4,16.7s-16.3-5.7-16.3-16.3h6.9c0,6.4,3.1,9.7,9.4,9.7s9.4-4.4,9.4-10.1V371.6H160.2V365h18.2Z" fill="#2a4b80"/><path d="M212.9,402.4H185V365h27.9v6.9h-21v8.5h20.3V387H191.9v8.4h21Z" fill="#2a4b80"/><path d="M242.5,374c-1.3-2.1-4.8-4.1-8.9-4.1s-7.7,2.2-7.7,4.9,3.9,4.2,8.3,4.7c7.8,1,15.1,3,15.1,11.9s-7.4,11.9-15.7,11.9-13.5-2.3-16.3-9.2l5.9-3c1.7,4.1,6,5.9,10.5,5.9s8.6-1.5,8.6-5.6-3.7-4.9-8.7-5.5C226,385,219,383,219,374.6s7.6-10.8,14.4-10.8,11.9,1.6,14.7,7.4Z" fill="#2a4b80"/><path d="M287.5,365.1v21.4c0,11-6.8,16.7-16.2,16.7s-16.6-5.5-16.6-16.7V365.1h7v21.4c0,6.7,3.8,10.3,9.7,10.3s9.1-3.9,9.1-10.3V365.1Z" fill="#2a4b80"/><path d="M317.4,374c-1.3-2.1-4.8-4.1-8.9-4.1s-7.7,2.2-7.7,4.9,3.8,4.2,8.3,4.7c7.8,1,15,3,15,11.9s-7.3,11.9-15.6,11.9-13.5-2.3-16.3-9.2l5.9-3c1.6,4.1,5.9,5.9,10.5,5.9s8.6-1.5,8.6-5.6-3.7-4.9-8.7-5.5c-7.6-.9-14.6-2.9-14.6-11.3s7.5-10.8,14.4-10.8,11.8,1.6,14.7,7.4Z" fill="#2a4b80"/><path d="M11.2,414.6a5.6,5.6,0,0,0-.4-2.3,4.2,4.2,0,0,0-.9-1.6,3.4,3.4,0,0,0-1.4-.9,4.8,4.8,0,0,0-1.8-.3,6.4,6.4,0,0,0-2,.3,5.1,5.1,0,0,0-1.6.9,6.4,6.4,0,0,0-1,1.3,3.5,3.5,0,0,0-.4,1.7c0,.3.1.6.1.8a1.5,1.5,0,0,1-1-.3,1.6,1.6,0,0,1-.3-.9,2.4,2.4,0,0,1,.6-1.5,4.9,4.9,0,0,1,1.4-1.5l2.2-1a7.7,7.7,0,0,1,2.7-.4,6.6,6.6,0,0,1,2.5.4,5.1,5.1,0,0,1,1.6,1.3,4.4,4.4,0,0,1,1,1.9,8.5,8.5,0,0,1,.3,2.3,15.5,15.5,0,0,1-.4,3.1,11.1,11.1,0,0,1-1.2,2.7A14.6,14.6,0,0,1,9.5,423a12.4,12.4,0,0,1-2.2,1.8A13.4,13.4,0,0,1,4.9,426a7.8,7.8,0,0,1-2.6.4H1a2.5,2.5,0,0,1-1-.8c.1-.7.3-1.5.5-2.3s.5-1.6.7-2.5.5-1.6.8-2.5.5-1.5.7-2.3a18.9,18.9,0,0,1,.6-1.8l.5-1.3c0-.1.1-.2.2-.5l.4-.7.5-.6.6-.2.6.2c-.5,1.1-.9,2.2-1.4,3.5s-.9,2.6-1.3,3.9l-1.2,3.9c-.3,1.3-.6,2.5-.8,3.5h.9a6.4,6.4,0,0,0,2.3-.5,11.3,11.3,0,0,0,2.1-1.2l1.8-1.9a18.8,18.8,0,0,0,1.4-2.4,11.4,11.4,0,0,0,.9-2.6A8.4,8.4,0,0,0,11.2,414.6Z" fill="#2a4b80"/><path d="M15.9,417.2h.4c.1.1.1.2.1.4a2.7,2.7,0,0,1-.3.8c-.3.4-.5.9-.8,1.4a8,8,0,0,0-.8,1.6,4.1,4.1,0,0,0-.3,1.6c0,.5,0,.8.2,1a1.1,1.1,0,0,0,.8.3l.8-.2.8-.6a4.5,4.5,0,0,0,.9-1,7.6,7.6,0,0,0,.9-1.6l.2.2a13.8,13.8,0,0,1-.8,1.7,4.3,4.3,0,0,1-1.1,1.2,2.5,2.5,0,0,1-1.2.8l-1.2.2a1.7,1.7,0,0,1-1.3-.5,2,2,0,0,1-.4-1.3,3.8,3.8,0,0,1,.1-1,6.5,6.5,0,0,1,.4-1.3,7.8,7.8,0,0,1,.5-1.4,7.5,7.5,0,0,1,.7-1.2,2.2,2.2,0,0,1,.7-.9A1.1,1.1,0,0,1,15.9,417.2Zm1.2-2-.6-.2a.6.6,0,0,1-.3-.6.4.4,0,0,1,.2-.4l.3-.4.5-.2h.6l.5.2a.6.6,0,0,1,.2.5.8.8,0,0,1-.1.4l-.3.4-.5.2Z" fill="#2a4b80"/><path d="M24.1,423.2,23,423a8.1,8.1,0,0,1-1.6,1.6,3.4,3.4,0,0,1-1.7.7,1.4,1.4,0,0,1-1.3-.6,2.3,2.3,0,0,1-.4-1.4,3.4,3.4,0,0,1,.2-1.4,5.8,5.8,0,0,1,.5-1.4,4.3,4.3,0,0,1,.9-1,1.2,1.2,0,0,1,.9-.4h.4a2.1,2.1,0,0,0-.4.7l-.6,1c-.1.4-.3.8-.4,1.2a3.8,3.8,0,0,0-.1,1c0,.5,0,.8.2,1a.6.6,0,0,0,.6.3,1.9,1.9,0,0,0,1-.5,8,8,0,0,0,1.3-1.3,4.5,4.5,0,0,1-1-1.3,4.7,4.7,0,0,1-.3-1.7c0-.3.1-.7.1-1a4.1,4.1,0,0,1,.5-.9c.1-.2.4-.4.6-.6l.9-.2a1.4,1.4,0,0,1,1.2.5,2.1,2.1,0,0,1,.3,1.2,5,5,0,0,1-.4,1.9,8.7,8.7,0,0,1-1,1.9,1.1,1.1,0,0,0,.8.3h.6l.6-.3a1.5,1.5,0,0,0,.6-.5,1.8,1.8,0,0,0,.5-.7l.3.2a1.9,1.9,0,0,1-.5.9l-.7.6-.8.3Zm-2-3.5a6.9,6.9,0,0,0,.2,1.3,2.4,2.4,0,0,0,.6,1.1l.9-1.7a5.5,5.5,0,0,0,.3-1.7,2.2,2.2,0,0,0-.1-.9c-.2-.2-.3-.3-.5-.3a.6.6,0,0,0-.5.2c-.1.1-.3.2-.4.4l-.3.7A2.9,2.9,0,0,0,22.1,419.7Z" fill="#2a4b80"/><path d="M25.7,422.8a2.5,2.5,0,0,1,.2-1,1,1,0,0,1,.4-.5l.5-.3h.3l1.2-1.5a14,14,0,0,0,.9-1.7v-.3a1.6,1.6,0,0,1,.3-1.1.9.9,0,0,1,.6-.3c.2,0,.3.1.3.2v.4c-.1.1-.1.4-.1.6a4.3,4.3,0,0,0,.2,1.1,6.5,6.5,0,0,0,.4,1.3,10.3,10.3,0,0,0,.4,1.4,7.1,7.1,0,0,1,.1,1.4,3.7,3.7,0,0,1-.1,1.1,2.7,2.7,0,0,0,1.4-.7,4,4,0,0,0,1.3-1.7l.2.2a2.9,2.9,0,0,1-1.2,1.8,4.2,4.2,0,0,1-1.8.8,2.4,2.4,0,0,1-1.1,1.3,3.4,3.4,0,0,1-1.7.5,2.8,2.8,0,0,1-1.3-.3,2.7,2.7,0,0,1-.8-.7,1.9,1.9,0,0,1-.5-.9A3.4,3.4,0,0,1,25.7,422.8Zm2.8,2.1h.3l.3-.2c.2,0,.3-.1.4-.3a1.6,1.6,0,0,0,.3-.6,3.3,3.3,0,0,1-1.6-.7,3.8,3.8,0,0,1-1.1-1.1c-.3,0-.4.3-.4.8a2.2,2.2,0,0,0,.1.8l.3.6.6.5Zm1.5-2.4a14.9,14.9,0,0,0-.2-2.1c-.2-.6-.3-1.3-.5-1.9a8.6,8.6,0,0,1-1,1.6l-1.1,1.3a11.3,11.3,0,0,0,1,1.3,5.3,5.3,0,0,0,1.7.8.9.9,0,0,0,.1-.5Z" fill="#2a4b80"/><path d="M38.5,424.4l.2-.7a4.6,4.6,0,0,0,.5-1.4l.6-1.7A4.4,4.4,0,0,0,40,419l.4-.3H41a.5.5,0,0,1,.6.6,2.8,2.8,0,0,1-.2,1.1,15.4,15.4,0,0,1-.5,1.7,11.3,11.3,0,0,1,1-1.3,4.3,4.3,0,0,1,1.1-1.2l1.2-1a2.8,2.8,0,0,1,1.3-.3l.7.2.5.4.3.6c0,.3.1.5.1.8a2.9,2.9,0,0,1-.2.9l-.3.9-.3.8a2.2,2.2,0,0,0-.1.8c0,.3,0,.5.2.6s.2.2.4.2a1.6,1.6,0,0,0,.9-.3l.8-.8.7-1.1a7.5,7.5,0,0,0,.7-1.2l.2.3-.7,1.5-.9,1.2-1,.7a2.4,2.4,0,0,1-1.2.3,1.4,1.4,0,0,1-1.1-.4,1.8,1.8,0,0,1-.4-1c0-.2.1-.5.1-.7a1.9,1.9,0,0,0,.2-.8l.3-.7c0-.3.1-.6.1-.8a1.2,1.2,0,0,0-.3-.9l-.6-.2a2.2,2.2,0,0,0-1.4.6,4.4,4.4,0,0,0-1.3,1.4,10.9,10.9,0,0,0-1.3,1.7l-1,1.7H39A1,1,0,0,1,38.5,424.4Z" fill="#2a4b80"/><path d="M55.4,423.2l-1.1-.2a8.1,8.1,0,0,1-1.6,1.6,3.4,3.4,0,0,1-1.7.7,1.4,1.4,0,0,1-1.3-.6,2.3,2.3,0,0,1-.4-1.4,3.4,3.4,0,0,1,.2-1.4,5.8,5.8,0,0,1,.5-1.4,4.3,4.3,0,0,1,.9-1,1.2,1.2,0,0,1,.9-.4h.4a2.1,2.1,0,0,0-.4.7l-.6,1a5.6,5.6,0,0,1-.4,1.2,3.8,3.8,0,0,0-.1,1c0,.5,0,.8.2,1a.6.6,0,0,0,.6.3,2.5,2.5,0,0,0,1.1-.5l1.2-1.3a4.5,4.5,0,0,1-1-1.3,4.7,4.7,0,0,1-.3-1.7c0-.3.1-.7.1-1a4.1,4.1,0,0,1,.5-.9l.6-.6.9-.2a1.4,1.4,0,0,1,1.2.5,2.1,2.1,0,0,1,.3,1.2,5,5,0,0,1-.4,1.9,8.7,8.7,0,0,1-1,1.9,1.1,1.1,0,0,0,.8.3h.6l.6-.3.7-.5a4.3,4.3,0,0,0,.4-.7l.3.2a1.9,1.9,0,0,1-.5.9l-.7.6-.8.3Zm-2-3.5a6.9,6.9,0,0,0,.2,1.3,3.9,3.9,0,0,0,.6,1.1l.9-1.7a5.5,5.5,0,0,0,.3-1.7,2.2,2.2,0,0,0-.1-.9c-.2-.2-.3-.3-.5-.3a.6.6,0,0,0-.5.2c-.1.1-.3.2-.4.4l-.3.7A2.9,2.9,0,0,0,53.4,419.7Z" fill="#2a4b80"/><path d="M57,422.8a2.5,2.5,0,0,1,.2-1,1,1,0,0,1,.4-.5l.5-.3h.3l1.2-1.5a14,14,0,0,0,.9-1.7v-.3a1.6,1.6,0,0,1,.3-1.1.9.9,0,0,1,.6-.3c.2,0,.3.1.3.2v.4c-.1.1-.1.4-.1.6a4.3,4.3,0,0,0,.2,1.1,6.5,6.5,0,0,0,.4,1.3,10.3,10.3,0,0,0,.4,1.4,7.1,7.1,0,0,1,.1,1.4,3.7,3.7,0,0,1-.1,1.1,2.7,2.7,0,0,0,1.4-.7,4,4,0,0,0,1.3-1.7l.2.2a2.9,2.9,0,0,1-1.2,1.8,3.7,3.7,0,0,1-1.8.8,2.4,2.4,0,0,1-1.1,1.3,3.4,3.4,0,0,1-1.7.5,2.8,2.8,0,0,1-1.3-.3,2.7,2.7,0,0,1-.8-.7,1.9,1.9,0,0,1-.5-.9A3.4,3.4,0,0,1,57,422.8Zm2.8,2.1h.3l.4-.2q.2,0,.3-.3a1.6,1.6,0,0,0,.3-.6,3.3,3.3,0,0,1-1.6-.7,3.8,3.8,0,0,1-1.1-1.1c-.3,0-.4.3-.4.8a2.2,2.2,0,0,0,.1.8l.3.6.6.5Zm1.5-2.4a14.9,14.9,0,0,0-.2-2.1c-.2-.6-.3-1.3-.5-1.9a8.6,8.6,0,0,1-1,1.6l-1.1,1.3a11.3,11.3,0,0,0,1,1.3,5.3,5.3,0,0,0,1.7.8.9.9,0,0,0,.1-.5Z" fill="#2a4b80"/><path d="M77,417.7c-.1-.2-.4-.3-.8-.3a2,2,0,0,0-1.1.3,3.8,3.8,0,0,0-1.1.8l-.9,1.1a8.3,8.3,0,0,0-.7,1.3,5.6,5.6,0,0,0-.4,1.2,2,2,0,0,0-.2,1,1.5,1.5,0,0,0,.2.8.6.6,0,0,0,.6.3,1.9,1.9,0,0,0,1-.5,4.6,4.6,0,0,0,1.3-1.2,10.5,10.5,0,0,0,1.2-1.9,26.8,26.8,0,0,0,1.2-2.4l1.2-3.2,1.3-3a16.1,16.1,0,0,1,1.2-2.3c.4-.5.7-.8,1-.8h.4c0,.1.1.2.1.4a3.1,3.1,0,0,1-.4,1.2l-.9,2c-.4.7-.8,1.6-1.2,2.5a13.9,13.9,0,0,0-1.2,2.8c-.4.9-.7,1.8-1,2.7a11.2,11.2,0,0,0-.3,2.4v1a.5.5,0,0,0,.5.3,1.1,1.1,0,0,0,.7-.3l1-.6a3.9,3.9,0,0,0,.8-1,6.4,6.4,0,0,0,.8-1.4l.3.2a8,8,0,0,1-.8,1.6,6.5,6.5,0,0,1-1.1,1.2,4.2,4.2,0,0,1-1.2.8l-1.1.3h-.7l-.5-.4-.2-.5c0-.2-.1-.4-.1-.6s.1-.6.1-1l.3-1.3-1.1,1.6a6.9,6.9,0,0,1-1.1,1.3l-1.1.8-1.1.3h-.6l-.5-.3-.4-.6a1.9,1.9,0,0,1-.1-.8,7.8,7.8,0,0,1,.2-1.4l.7-1.4a13,13,0,0,1,1-1.5l1.2-1.2a6.7,6.7,0,0,1,1.4-.9,3.1,3.1,0,0,1,1.3-.3c.7,0,1,.2,1,.7h0C77.1,417.6,77.1,417.6,77,417.7Z" fill="#2a4b80"/><path d="M87,419.9h.6l.2.2c.1,0,.1.1.1.2a1.7,1.7,0,0,1-.2.5c-.1.3-.3.5-.4.8l-.5.9a2.4,2.4,0,0,0-.2.8,2.5,2.5,0,0,0,.2.7.6.6,0,0,0,.6.3,2.5,2.5,0,0,0,1.5-.9,8.4,8.4,0,0,0,2-2.6l.2.2a5.6,5.6,0,0,1-.9,1.7,6.3,6.3,0,0,1-1,1.2,4.2,4.2,0,0,1-1.2.8,2.7,2.7,0,0,1-1.2.3,1.4,1.4,0,0,1-1.2-.5,1.3,1.3,0,0,1-.4-1,1.3,1.3,0,0,1,.1-.6,15.6,15.6,0,0,1-1.7,1.8,2.5,2.5,0,0,1-1.6.7,1.7,1.7,0,0,1-1.2-.5,1.7,1.7,0,0,1-.4-1.3,6.8,6.8,0,0,1,.2-1.4,10.1,10.1,0,0,1,.7-1.5,7.1,7.1,0,0,1,1-1.4l1.3-1.3,1.4-.8a3.2,3.2,0,0,1,1.4-.3,2.1,2.1,0,0,1,1.4.4,1.4,1.4,0,0,1,.6,1.2,1,1,0,0,1-.3.8l-.8.2a2.5,2.5,0,0,0,.1-.8,2.9,2.9,0,0,0-.2-.9,1,1,0,0,0-.8-.3,2.3,2.3,0,0,0-1.1.3l-1,.8a3.8,3.8,0,0,0-.9,1.2,5.7,5.7,0,0,0-.8,1.3,7.8,7.8,0,0,0-.5,1.4,2.3,2.3,0,0,0-.2,1.1q0,.9.6.9a2.1,2.1,0,0,0,1.1-.5l1.3-1.3,1.2-1.6A8,8,0,0,0,87,419.9Z" fill="#2a4b80"/><path d="M103.7,410.5a7.4,7.4,0,0,1-.2,1.2l-.6,1.7-.9,1.9-1.2,2-1.4,1.8-1.5,1.5a5,5,0,0,0-.2,1.2,3.8,3.8,0,0,0-.1,1c0,1.2.3,1.7.9,1.7a1.6,1.6,0,0,0,.9-.3l.9-.8.7-1.1a5.4,5.4,0,0,0,.7-1.3l.3.2a9.7,9.7,0,0,1-1.9,2.9,2.8,2.8,0,0,1-2.2,1.1,1.4,1.4,0,0,1-1.3-.6,2.7,2.7,0,0,1-.4-1.6,8.1,8.1,0,0,1,.4-2.5,17.6,17.6,0,0,1,1-3,29.2,29.2,0,0,1,1.4-3.1,23.7,23.7,0,0,1,1.5-2.8l1.4-2c.5-.5.8-.7,1-.7h.4c0,.2.1.3.2.5a4.3,4.3,0,0,1,.1.5C103.6,410.2,103.7,410.3,103.7,410.5Zm-.9.1-.4.4a10.5,10.5,0,0,0-.8,1.1l-.9,1.6a11.4,11.4,0,0,0-1,1.9l-.9,2.2a17.2,17.2,0,0,0-.7,2.1,15.4,15.4,0,0,0,1.8-2.3,22.6,22.6,0,0,0,1.6-2.6,25.6,25.6,0,0,0,1.1-2.4,4.1,4.1,0,0,0,.4-1.6c0-.2,0-.2-.1-.3Z" fill="#2a4b80"/><path d="M107.4,419.9c0,.1.1.1.2.1h.3c.1.1.2.1.2.2s.1.1.1.2a.6.6,0,0,1-.2.5,3,3,0,0,1-.4.8,3.6,3.6,0,0,0-.4.9,1.2,1.2,0,0,0-.2.8,2,2,0,0,0,.1.7.9.9,0,0,0,.6.3,2.9,2.9,0,0,0,1.6-.9,10.2,10.2,0,0,0,1.9-2.6l.2.2a8.9,8.9,0,0,1-.8,1.7,6.5,6.5,0,0,1-1.1,1.2,4.2,4.2,0,0,1-1.2.8,2.7,2.7,0,0,1-1.2.3,1.7,1.7,0,0,1-1.2-.5,1.8,1.8,0,0,1-.4-1c0-.2.1-.4.1-.6a10,10,0,0,1-1.7,1.8,2.1,2.1,0,0,1-1.6.7,1.4,1.4,0,0,1-1.1-.5,1.7,1.7,0,0,1-.5-1.3,3.5,3.5,0,0,1,.3-1.4,4.7,4.7,0,0,1,.6-1.5,7.6,7.6,0,0,1,1.1-1.4l1.2-1.3,1.4-.8,1.4-.3a2,2,0,0,1,1.4.4,1.4,1.4,0,0,1,.6,1.2,1,1,0,0,1-.3.8l-.8.2a3.1,3.1,0,0,0,.2-.8,1.6,1.6,0,0,0-.3-.9c-.1-.2-.4-.3-.8-.3a2.3,2.3,0,0,0-1.1.3l-1,.8a6.2,6.2,0,0,0-.9,1.2,5.7,5.7,0,0,0-.8,1.3,7.8,7.8,0,0,0-.5,1.4,5.2,5.2,0,0,0-.2,1.1q0,.9.6.9a2.1,2.1,0,0,0,1.1-.5l1.3-1.3,1.2-1.6Z" fill="#2a4b80"/><path d="M126,421.3a3.1,3.1,0,0,1-1.1,1.5,2.1,2.1,0,0,1-1.1.4,1.7,1.7,0,0,1-1.2-.6,2.6,2.6,0,0,1-.6-1.5,6,6,0,0,1-.9,1.5l-1,1.4a5.3,5.3,0,0,1-1.2,1,1.4,1.4,0,0,1-1,.4,1,1,0,0,1-1-.7,4.2,4.2,0,0,1-.2-1.7v-.7a19.7,19.7,0,0,1,.1-2.1,5.4,5.4,0,0,1,.1-.8.6.6,0,0,1,.6-.3l.5.2a4.3,4.3,0,0,1,.1.5c0,.5-.1,1.1-.1,1.7a12.1,12.1,0,0,0-.1,1.8,2.5,2.5,0,0,0,.1,1c0,.2.2.3.4.3a1.5,1.5,0,0,0,.8-.5,4,4,0,0,0,1-1.2l1-1.5.7-1.6c.1-.5.1-.9.2-1.2a1.9,1.9,0,0,1,.2-.8l.3-.4h.3a.6.6,0,0,1,.6.3.7.7,0,0,1,.2.6.8.8,0,0,1-.1.4.8.8,0,0,0-.2.5l-.3.8a4.1,4.1,0,0,0-.1,1.2v.5c0,.2.1.4.1.6s.2.3.4.4h.5a1.6,1.6,0,0,0,.9-.3,10.5,10.5,0,0,0,.8-1.3Z" fill="#2a4b80"/><path d="M128.3,417.2h.4c.1.1.1.2.1.4a2.7,2.7,0,0,1-.3.8c-.3.4-.5.9-.8,1.4a8,8,0,0,0-.8,1.6,4.1,4.1,0,0,0-.3,1.6,2.2,2.2,0,0,0,.2,1,1.1,1.1,0,0,0,.8.3l.8-.2a2.1,2.1,0,0,0,.8-.6,4.5,4.5,0,0,0,.9-1,7.6,7.6,0,0,0,.9-1.6l.2.2a6.7,6.7,0,0,1-.8,1.7,6.3,6.3,0,0,1-1,1.2,4.2,4.2,0,0,1-1.2.8l-1.3.2a1.7,1.7,0,0,1-1.3-.5,2.8,2.8,0,0,1-.4-1.3c0-.3.1-.6.1-1l.4-1.3.5-1.4a7.5,7.5,0,0,1,.7-1.2,2.2,2.2,0,0,1,.7-.9Zm1.2-2-.6-.2a.6.6,0,0,1-.3-.6.8.8,0,0,1,.2-.4l.3-.4.6-.2h.5l.5.2c.2.1.2.2.2.5a.8.8,0,0,1-.1.4l-.3.4-.5.2Z" fill="#2a4b80"/><path d="M137,417.7c-.1-.2-.4-.3-.8-.3a2.7,2.7,0,0,0-1.2.3,3.5,3.5,0,0,0-1,.8l-.9,1.1a8.3,8.3,0,0,0-.7,1.3,6.1,6.1,0,0,0-.5,1.2,3.8,3.8,0,0,0-.1,1c0,.4,0,.6.2.8a.6.6,0,0,0,.6.3,2.3,2.3,0,0,0,1-.5,3.4,3.4,0,0,0,1.2-1.2,7,7,0,0,0,1.3-1.9,26.8,26.8,0,0,0,1.2-2.4l1.2-3.2,1.3-3a16.1,16.1,0,0,1,1.2-2.3c.4-.5.7-.8,1-.8h.3a.5.5,0,0,1,.2.4,7.9,7.9,0,0,1-.4,1.2,12.9,12.9,0,0,0-.9,2c-.4.7-.8,1.6-1.2,2.5a23.9,23.9,0,0,0-1.3,2.8l-.9,2.7a11.2,11.2,0,0,0-.3,2.4v1a.5.5,0,0,0,.5.3l.7-.3a2.4,2.4,0,0,0,.9-.6l.9-1a6.4,6.4,0,0,0,.8-1.4l.3.2a8.3,8.3,0,0,1-.9,1.6,4,4,0,0,1-1,1.2,4.2,4.2,0,0,1-1.2.8,2.7,2.7,0,0,1-1.2.3h-.6l-.5-.4c-.1-.2-.2-.3-.2-.5a1.3,1.3,0,0,1-.1-.6,3.8,3.8,0,0,1,.1-1l.3-1.3-1.1,1.6-1.1,1.3-1.2.8a1.9,1.9,0,0,1-1,.3h-.6l-.5-.3a2.1,2.1,0,0,1-.4-.6,1.9,1.9,0,0,1-.2-.8,3.9,3.9,0,0,1,.3-1.4l.7-1.4,1-1.5a6.8,6.8,0,0,1,1.2-1.2,10.1,10.1,0,0,1,1.3-.9,3.5,3.5,0,0,1,1.4-.3c.6,0,1,.2,1,.7s0,.1-.1.1Z" fill="#2a4b80"/><path d="M147,419.9h.5l.3.2a.3.3,0,0,1,.1.2,1.7,1.7,0,0,1-.2.5l-.5.8-.4.9a2.4,2.4,0,0,0-.2.8,2.5,2.5,0,0,0,.2.7.6.6,0,0,0,.6.3,2.7,2.7,0,0,0,1.5-.9,8.3,8.3,0,0,0,1.9-2.6l.3.2-.9,1.7a4.3,4.3,0,0,1-1.1,1.2,4.2,4.2,0,0,1-1.2.8,2.7,2.7,0,0,1-1.2.3,1.5,1.5,0,0,1-1.5-1.5v-.6a10,10,0,0,1-1.7,1.8,2.1,2.1,0,0,1-1.5.7,1.7,1.7,0,0,1-1.2-.5,1.7,1.7,0,0,1-.5-1.3,3.5,3.5,0,0,1,.3-1.4,10.1,10.1,0,0,1,.7-1.5,7.1,7.1,0,0,1,1-1.4,8,8,0,0,1,1.3-1.3l1.3-.8a4,4,0,0,1,1.5-.3,2.3,2.3,0,0,1,1.4.4,1.4,1.4,0,0,1,.6,1.2,1,1,0,0,1-.3.8l-.8.2a2.5,2.5,0,0,0,.1-.8,2.9,2.9,0,0,0-.2-.9,1.2,1.2,0,0,0-.9-.3,1.9,1.9,0,0,0-1,.3,3.9,3.9,0,0,0-1,.8,4,4,0,0,0-1,1.2,5.4,5.4,0,0,0-.7,1.3,8.4,8.4,0,0,0-.6,1.4,5.2,5.2,0,0,0-.2,1.1q0,.9.6.9a2.4,2.4,0,0,0,1.2-.5l1.2-1.3a9.5,9.5,0,0,0,1.2-1.6Z" fill="#2a4b80"/><path d="M151.9,423.9a7.7,7.7,0,0,0-.9,1.3l-.6,1.3c-.2-.1-.3-.2-.3-.4a.6.6,0,0,1-.1-.4,2.2,2.2,0,0,1,.1-.8l.3-.7a1.5,1.5,0,0,1,.4-.6l.5-.3.4.2A.8.8,0,0,1,151.9,423.9Z" fill="#2a4b80"/><path d="M159.5,424.4l.3-.7c.1-.4.3-.8.5-1.4a8.4,8.4,0,0,0,.5-1.7,4.5,4.5,0,0,0,.3-1.6l.4-.3h.6a.5.5,0,0,1,.6.6,8.9,8.9,0,0,1-.2,1.1,15.4,15.4,0,0,1-.5,1.7l.9-1.3,1.1-1.2,1.3-1a2.7,2.7,0,0,1,1.2-.3l.7.2a1,1,0,0,1,.5.4.9.9,0,0,1,.3.6,2.2,2.2,0,0,1,.1.8,2.8,2.8,0,0,1-.1.9l-.3.9-.3.8a2.4,2.4,0,0,0-.2.8.8.8,0,0,0,.2.6c.1.2.3.2.5.2a1.3,1.3,0,0,0,.8-.3,2,2,0,0,0,.8-.8,10.5,10.5,0,0,0,.8-1.1l.6-1.2.3.3-.8,1.5a9.4,9.4,0,0,1-.9,1.2l-1,.7a2,2,0,0,1-1.1.3,1.2,1.2,0,0,1-1.1-.4,1.3,1.3,0,0,1-.4-1,1.7,1.7,0,0,1,.1-.7,3.1,3.1,0,0,1,.2-.8c.1-.2.1-.5.2-.7a2.5,2.5,0,0,0,.1-.8,2,2,0,0,0-.2-.9l-.7-.2a1.9,1.9,0,0,0-1.3.6,6.2,6.2,0,0,0-1.4,1.4l-1.2,1.7-1,1.7H160Z" fill="#2a4b80"/><path d="M176.4,423.2l-1-.2a8.5,8.5,0,0,1-1.7,1.6,2.8,2.8,0,0,1-1.7.7,1.5,1.5,0,0,1-1.3-.6,3.3,3.3,0,0,1-.4-1.4,6.8,6.8,0,0,1,.2-1.4l.6-1.4a3.9,3.9,0,0,1,.8-1,1.2,1.2,0,0,1,.9-.4h.5l-.5.7a9.3,9.3,0,0,0-.5,1,5.6,5.6,0,0,0-.4,1.2,4.4,4.4,0,0,0-.2,1,2.2,2.2,0,0,0,.2,1,.9.9,0,0,0,.6.3,2.1,2.1,0,0,0,1.1-.5l1.2-1.3a3,3,0,0,1-.9-1.3,4.7,4.7,0,0,1-.3-1.7,3.4,3.4,0,0,1,.1-1,3.6,3.6,0,0,1,.4-.9l.7-.6.9-.2a1.4,1.4,0,0,1,1.2.5,2.1,2.1,0,0,1,.3,1.2,5,5,0,0,1-.4,1.9,9.3,9.3,0,0,1-1.1,1.9,1.6,1.6,0,0,0,.9.3h.5l.7-.3.6-.5a1.8,1.8,0,0,0,.5-.7l.3.2a3.5,3.5,0,0,1-.6.9l-.7.6-.7.3Zm-1.9-3.5a6.9,6.9,0,0,0,.2,1.3,3.7,3.7,0,0,0,.5,1.1,7,7,0,0,0,.9-1.7,3.8,3.8,0,0,0,.4-1.7,2,2,0,0,0-.2-.9.5.5,0,0,0-.4-.3.6.6,0,0,0-.5.2.8.8,0,0,0-.4.4,2.5,2.5,0,0,0-.4.7A2.8,2.8,0,0,0,174.5,419.7Z" fill="#2a4b80"/><path d="M178,422.8a2.5,2.5,0,0,1,.2-1c.2-.2.3-.4.5-.5l.4-.3h.3a7.9,7.9,0,0,0,1.2-1.5l1-1.7v-.3a1.6,1.6,0,0,1,.3-1.1.5.5,0,0,1,.5-.3c.3,0,.4.1.4.2a.8.8,0,0,1-.1.4v.6a4.1,4.1,0,0,0,.1,1.1,6.5,6.5,0,0,1,.4,1.3,5.7,5.7,0,0,1,.4,1.4,7.8,7.8,0,0,1,.2,1.4,3.7,3.7,0,0,1-.1,1.1,2.7,2.7,0,0,0,1.4-.7,4,4,0,0,0,1.3-1.7l.2.2a4.1,4.1,0,0,1-1.2,1.8,4.8,4.8,0,0,1-1.8.8,2.8,2.8,0,0,1-1.1,1.3,3.4,3.4,0,0,1-1.7.5,2.5,2.5,0,0,1-1.3-.3,3.1,3.1,0,0,1-.9-.7,1.9,1.9,0,0,1-.4-.9A3.6,3.6,0,0,1,178,422.8Zm2.8,2.1h.3l.4-.2a.5.5,0,0,0,.4-.3,1.6,1.6,0,0,0,.3-.6,2.9,2.9,0,0,1-1.6-.7,2.9,2.9,0,0,1-1.1-1.1c-.3,0-.5.3-.5.8s.1.5.1.8l.4.6a1,1,0,0,0,.6.5Zm1.6-2.4a7.6,7.6,0,0,0-.3-2.1c-.1-.6-.3-1.3-.4-1.9a9.1,9.1,0,0,1-1.1,1.6,14.7,14.7,0,0,1-1,1.3,3.8,3.8,0,0,0,1,1.3,4.5,4.5,0,0,0,1.7.8.9.9,0,0,1,.1-.5Z" fill="#2a4b80"/><path d="M191.9,423.2l-1.1-.2a8.1,8.1,0,0,1-1.6,1.6,3.1,3.1,0,0,1-1.7.7,1.4,1.4,0,0,1-1.3-.6,2.3,2.3,0,0,1-.4-1.4,6.8,6.8,0,0,1,.2-1.4,5.9,5.9,0,0,1,.6-1.4,3.9,3.9,0,0,1,.8-1,1.2,1.2,0,0,1,.9-.4h.5c-.2.1-.3.4-.5.7a3.1,3.1,0,0,0-.5,1,5.6,5.6,0,0,0-.4,1.2,4.4,4.4,0,0,0-.2,1,2.2,2.2,0,0,0,.2,1,.7.7,0,0,0,.6.3,2.1,2.1,0,0,0,1.1-.5l1.2-1.3a3,3,0,0,1-.9-1.3,3.3,3.3,0,0,1-.4-1.7,4.5,4.5,0,0,1,.6-1.9l.7-.6.9-.2a1.4,1.4,0,0,1,1.2.5,2.1,2.1,0,0,1,.3,1.2,8.1,8.1,0,0,1-.4,1.9l-1.1,1.9.8.3h.6l.7-.3.6-.5.5-.7.2.2a1.9,1.9,0,0,1-.5.9l-.7.6-.8.3Zm-1.9-3.5a3.2,3.2,0,0,0,.2,1.3,3.7,3.7,0,0,0,.5,1.1,7,7,0,0,0,.9-1.7,3.8,3.8,0,0,0,.4-1.7,2,2,0,0,0-.2-.9.5.5,0,0,0-.5-.3.4.4,0,0,0-.4.2l-.5.4-.3.7A2.8,2.8,0,0,0,190,419.7Z" fill="#2a4b80"/><path d="M200.6,418l-3.9.3h-.3a15.5,15.5,0,0,0-.8,2.3,6.7,6.7,0,0,0-.4,2.4,2.6,2.6,0,0,0,.3,1.4,1.3,1.3,0,0,0,.9.4,3.9,3.9,0,0,0,2.3-1,10.5,10.5,0,0,0,1.9-2.8l.3.2a10.4,10.4,0,0,1-1,1.8l-1.2,1.3a5.2,5.2,0,0,1-2.9,1.3c-1.3,0-1.9-.8-1.9-2.2a12,12,0,0,1,.3-2.4l.9-2.8h-.7v-.4h.9a16,16,0,0,1,1-2.3c.3-.7.7-1.4,1-2l1-1.3a1,1,0,0,1,.8-.5h.3c.1.1.2.2.2.3a2.3,2.3,0,0,1-.3.9l-.7,1.3-1,1.6-.9,1.9h3.9Z" fill="#2a4b80"/><path d="M200.2,421.8a14.4,14.4,0,0,0,.8-1.7c.3-.7.7-1.5,1-2.4a.7.7,0,0,1-.2-.6,1.3,1.3,0,0,1,.1-.6.8.8,0,0,1,.2-.4q.2-.3.3-.3h.3c.1,0,.2,0,.2.2a.4.4,0,0,1,.1.3.3.3,0,0,1-.1.2v.2a1639055161209.8,1639055161209.8,0,0,1-.2.4.5.5,0,0,0,.4.5l.7.6.8.8a1.8,1.8,0,0,1,.4,1.1,3.6,3.6,0,0,1-.2,1,10.4,10.4,0,0,1-.4,1,3.6,3.6,0,0,1-.4.9,2.5,2.5,0,0,0-.1.8c0,.2,0,.4.2.5h.4a2.3,2.3,0,0,0,1.1-.3l1.1-.8.9-1.1a2.7,2.7,0,0,0,.6-1l.3.2a10,10,0,0,1-.8,1.4,4.3,4.3,0,0,1-1.1,1.2,3.8,3.8,0,0,1-1.3.9,3.1,3.1,0,0,1-1.3.3,1.6,1.6,0,0,1-1.2-.4,1.2,1.2,0,0,1-.4-1,3.8,3.8,0,0,1,.1-1l.5-1.1a4.2,4.2,0,0,1,.4-1,4.4,4.4,0,0,0,.2-1c0-.2-.1-.4-.1-.6l-.3-.4-.4-.3-.5-.3a11.2,11.2,0,0,1-.5,1.3,11.7,11.7,0,0,1-.5,1.1,9.3,9.3,0,0,1-.5,1l-.4.8Z" fill="#2a4b80"/><path d="M213.7,423.2l-1.1-.2a8.1,8.1,0,0,1-1.6,1.6,3.4,3.4,0,0,1-1.7.7,1.4,1.4,0,0,1-1.3-.6,2.3,2.3,0,0,1-.4-1.4,3.4,3.4,0,0,1,.2-1.4,5.8,5.8,0,0,1,.5-1.4l.9-1a1.2,1.2,0,0,1,.9-.4h.4a2.1,2.1,0,0,0-.4.7l-.6,1a5.6,5.6,0,0,1-.4,1.2,3.8,3.8,0,0,0-.1,1,2.2,2.2,0,0,0,.2,1,.6.6,0,0,0,.6.3,2.5,2.5,0,0,0,1.1-.5l1.2-1.3a4.5,4.5,0,0,1-1-1.3,4.7,4.7,0,0,1-.3-1.7,3.6,3.6,0,0,1,.2-1,1.8,1.8,0,0,1,.4-.9c.1-.2.4-.4.6-.6l.9-.2a1.4,1.4,0,0,1,1.2.5,2.1,2.1,0,0,1,.3,1.2,5,5,0,0,1-.4,1.9,8.7,8.7,0,0,1-1,1.9,1.1,1.1,0,0,0,.8.3h.6l.6-.3a1.8,1.8,0,0,0,.7-.5,1.6,1.6,0,0,0,.4-.7l.3.2a1.9,1.9,0,0,1-.5.9l-.7.6-.8.3Zm-2-3.5a6.9,6.9,0,0,0,.2,1.3,3.9,3.9,0,0,0,.6,1.1,14,14,0,0,0,.9-1.7,5.5,5.5,0,0,0,.3-1.7,2.2,2.2,0,0,0-.1-.9c-.2-.2-.3-.3-.5-.3a.6.6,0,0,0-.5.2c-.1.1-.3.2-.4.4l-.3.7A2.9,2.9,0,0,0,211.7,419.7Z" fill="#2a4b80"/><path d="M215.3,422.8a2.5,2.5,0,0,1,.2-1,1,1,0,0,1,.4-.5l.5-.3h.3l1.2-1.5a14,14,0,0,0,.9-1.7v-.3a1.6,1.6,0,0,1,.3-1.1.9.9,0,0,1,.6-.3c.2,0,.3.1.3.2v.4c-.1.1-.1.4-.1.6a4.3,4.3,0,0,0,.2,1.1,6.5,6.5,0,0,0,.4,1.3,10.3,10.3,0,0,0,.4,1.4,7.1,7.1,0,0,1,.1,1.4,3.7,3.7,0,0,1-.1,1.1,2.7,2.7,0,0,0,1.4-.7,5.1,5.1,0,0,0,1.4-1.7v.2a2.9,2.9,0,0,1-1.2,1.8,3.7,3.7,0,0,1-1.8.8,2.4,2.4,0,0,1-1.1,1.3,3.4,3.4,0,0,1-1.7.5,2.8,2.8,0,0,1-1.3-.3,2.7,2.7,0,0,1-.8-.7,1.9,1.9,0,0,1-.5-.9A3.4,3.4,0,0,1,215.3,422.8Zm2.8,2.1h.3l.4-.2q.1,0,.3-.3a1.6,1.6,0,0,0,.3-.6,3.3,3.3,0,0,1-1.6-.7,2.6,2.6,0,0,1-1-1.1c-.4,0-.5.3-.5.8a2.2,2.2,0,0,0,.1.8l.3.6.6.5Zm1.5-2.4a14.9,14.9,0,0,0-.2-2.1,12.9,12.9,0,0,1-.4-1.9l-1.1,1.6-1.1,1.3a6.3,6.3,0,0,0,1.1,1.3,4,4,0,0,0,1.6.8.9.9,0,0,0,.1-.5Z" fill="#2a4b80"/><path d="M236.5,410.5a7.4,7.4,0,0,1-.2,1.2l-.6,1.7-.9,1.9-1.2,2-1.4,1.8-1.5,1.5a5,5,0,0,0-.2,1.2,3.8,3.8,0,0,0-.1,1c0,1.2.3,1.7,1,1.7l.8-.3.9-.8.7-1.1a5.4,5.4,0,0,0,.7-1.3l.3.2a9.7,9.7,0,0,1-1.9,2.9,2.8,2.8,0,0,1-2.2,1.1,1.5,1.5,0,0,1-1.3-.6,2.7,2.7,0,0,1-.4-1.6,8.1,8.1,0,0,1,.4-2.5c.3-1,.6-2,1-3a29.2,29.2,0,0,1,1.4-3.1,23.2,23.2,0,0,1,1.6-2.8,23.6,23.6,0,0,1,1.3-2c.5-.5.8-.7,1.1-.7h.3c0,.2.1.3.2.5a.7.7,0,0,1,.1.5A.9.9,0,0,1,236.5,410.5Zm-.9.1-.4.4-.8,1.1-.9,1.6c-.3.6-.7,1.2-1,1.9l-.9,2.2a17.2,17.2,0,0,0-.7,2.1,15.4,15.4,0,0,0,1.8-2.3,22.6,22.6,0,0,0,1.6-2.6,25.6,25.6,0,0,0,1.1-2.4,4.1,4.1,0,0,0,.4-1.6c0-.2,0-.2-.1-.3Z" fill="#2a4b80"/><path d="M240.2,419.9c0,.1.1.1.2.1h.3l.3.2v.2a1.1,1.1,0,0,1-.1.5l-.5.8-.4.9a2.4,2.4,0,0,0-.2.8,1.1,1.1,0,0,0,.2.7.5.5,0,0,0,.5.3,2.9,2.9,0,0,0,1.6-.9A8.3,8.3,0,0,0,244,421l.2.2a8.9,8.9,0,0,1-.8,1.7,6.5,6.5,0,0,1-1.1,1.2,4.2,4.2,0,0,1-1.2.8,2.7,2.7,0,0,1-1.2.3,1.7,1.7,0,0,1-1.2-.5,1.8,1.8,0,0,1-.4-1c0-.2.1-.4.1-.6a10,10,0,0,1-1.7,1.8,2.1,2.1,0,0,1-1.6.7,1.6,1.6,0,0,1-1.1-.5,1.7,1.7,0,0,1-.5-1.3,3.5,3.5,0,0,1,.3-1.4,5.1,5.1,0,0,1,.7-1.5,4.5,4.5,0,0,1,1-1.4l1.2-1.3,1.4-.8,1.4-.3a2.4,2.4,0,0,1,1.5.4,1.7,1.7,0,0,1,.5,1.2,1,1,0,0,1-.3.8l-.7.2c0-.3.1-.6.1-.8a1.6,1.6,0,0,0-.3-.9c-.1-.2-.4-.3-.8-.3a1.9,1.9,0,0,0-1,.3l-1.1.8a6.2,6.2,0,0,0-.9,1.2,5.7,5.7,0,0,0-.8,1.3,7.8,7.8,0,0,0-.5,1.4,5.2,5.2,0,0,0-.2,1.1q0,.9.6.9a2.1,2.1,0,0,0,1.1-.5,8,8,0,0,0,1.3-1.3l1.2-1.6Z" fill="#2a4b80"/><path d="M253.9,417.2h.8c.2.1.3.3.4.4l.3.5c0,.2.1.4.1.6a2,2,0,0,1-.3,1.1,1,1,0,0,1-.8.5.9.9,0,0,1-.7-.3c.3-.1.4-.4.6-.7a2,2,0,0,0,.2-1,.7.7,0,0,0-.1-.5h-.3a2.7,2.7,0,0,0-1.3.5,5.3,5.3,0,0,0-1.1,1.4,9.1,9.1,0,0,0-.9,1.7,5.5,5.5,0,0,0-.3,1.7,1.5,1.5,0,0,0,.1.7,1.4,1.4,0,0,0,.2.6,1,1,0,0,0,.5.4h.8a3,3,0,0,0,1.3-.2l1.3-.8a6.3,6.3,0,0,0,1.1-1.2,5.6,5.6,0,0,0,.9-1.7l.3.2a7.7,7.7,0,0,1-1,1.8,6.4,6.4,0,0,1-1.3,1.5,6,6,0,0,1-1.5.9,3.4,3.4,0,0,1-1.6.4,2.9,2.9,0,0,1-1.8-.7,3.3,3.3,0,0,1-.7-2.1,5.4,5.4,0,0,1,.5-2.1,5.9,5.9,0,0,1,1.1-1.9,5.8,5.8,0,0,1,1.5-1.3A4.1,4.1,0,0,1,253.9,417.2Z" fill="#2a4b80"/><path d="M262.3,418.7h.6l.3.2.2.2a1.5,1.5,0,0,1-.3.6l-.5,1.2-.5,1.4a6.9,6.9,0,0,0-.2,1.3,1.1,1.1,0,0,0,.2.6.5.5,0,0,0,.5.3,1.3,1.3,0,0,0,.8-.3,4.6,4.6,0,0,0,1-.7l1-1.1a9.9,9.9,0,0,0,.9-1.5l.2.2a6,6,0,0,1-.8,1.6,7.5,7.5,0,0,1-1.1,1.3l-1.2.8a2.7,2.7,0,0,1-1.2.3c-.6,0-1-.1-1.2-.5a1.5,1.5,0,0,1-.4-1.1,4.3,4.3,0,0,1,.1-.5,1.3,1.3,0,0,1,.1-.6l-.6,1-.7.9-.8.6-.8.2a1.1,1.1,0,0,1-1.1-.6,3,3,0,0,1-.5-1.6,10.4,10.4,0,0,1,.2-1.5,9.8,9.8,0,0,1,.5-1.6l.6-1.3c.3-.4.5-.5.6-.5h.4l.4.3a5.9,5.9,0,0,1-.4.8,11.7,11.7,0,0,0-.5,1.1c-.1.4-.3.8-.4,1.3a4.9,4.9,0,0,0-.1,1.2v.4a1.1,1.1,0,0,0,.1.5l.2.4h.5c.3,0,.6-.2,1-.6a9.1,9.1,0,0,0,1.1-1.6,11.4,11.4,0,0,0,1-1.9A11.5,11.5,0,0,0,262.3,418.7Z" fill="#2a4b80"/><path d="M268.9,417.2h.3a.5.5,0,0,1,.2.4,5.4,5.4,0,0,1-.4.8l-.8,1.4a7.7,7.7,0,0,0-.7,1.6,2.9,2.9,0,0,0-.4,1.6,1.3,1.3,0,0,0,.3,1c.1.2.4.3.8.3l.7-.2a1.6,1.6,0,0,0,.8-.6,4.5,4.5,0,0,0,.9-1,7.6,7.6,0,0,0,.9-1.6l.2.2a6.7,6.7,0,0,1-.8,1.7,4,4,0,0,1-1,1.2,4.2,4.2,0,0,1-1.2.8l-1.3.2a1.5,1.5,0,0,1-1.2-.5,2,2,0,0,1-.4-1.3,3.8,3.8,0,0,1,.1-1l.3-1.3.6-1.4.6-1.2a3.5,3.5,0,0,1,.7-.9A1.3,1.3,0,0,1,268.9,417.2Zm1.1-2-.6-.2a.6.6,0,0,1-.3-.6.8.8,0,0,1,.2-.4c.1-.1.2-.3.4-.4l.5-.2h.5l.6.2a.6.6,0,0,1,.2.5c0,.1-.1.2-.2.4a.5.5,0,0,1-.3.4l-.4.2Z" fill="#2a4b80"/><path d="M277.6,417.7a1.2,1.2,0,0,0-.9-.3,2.3,2.3,0,0,0-1.1.3,3.8,3.8,0,0,0-1.1.8l-.9,1.1-.7,1.3a5.6,5.6,0,0,0-.4,1.2,4.4,4.4,0,0,0-.2,1,1.5,1.5,0,0,0,.2.8.7.7,0,0,0,.6.3,1.9,1.9,0,0,0,1-.5,4.6,4.6,0,0,0,1.3-1.2,10.5,10.5,0,0,0,1.2-1.9,13.4,13.4,0,0,0,1.2-2.4c.4-1.1.8-2.1,1.3-3.2s.8-2.1,1.2-3l1.2-2.3c.4-.5.8-.8,1.1-.8h.3c0,.1.1.2.1.4a3.1,3.1,0,0,1-.4,1.2l-.9,2c-.4.7-.8,1.6-1.2,2.5l-1.2,2.8a14.3,14.3,0,0,0-.9,2.7,7.5,7.5,0,0,0-.4,2.4,2.5,2.5,0,0,0,.1,1c0,.2.1.3.4.3l.8-.3a2.4,2.4,0,0,0,.9-.6l.9-1c.2-.4.5-.9.7-1.4l.3.2a8,8,0,0,1-.8,1.6,4.3,4.3,0,0,1-1.1,1.2,2.5,2.5,0,0,1-1.2.8l-1.1.3h-.7l-.4-.4a1.3,1.3,0,0,1-.3-.5c0-.2-.1-.4-.1-.6a4.4,4.4,0,0,1,.2-1,3.5,3.5,0,0,1,.3-1.3l-1.1,1.6-1.2,1.3-1.1.8-1.1.3h-.6l-.5-.3-.4-.6a1.9,1.9,0,0,1-.1-.8,7.8,7.8,0,0,1,.2-1.4c.2-.4.4-.9.7-1.4l1-1.5,1.2-1.2,1.4-.9a3.1,3.1,0,0,1,1.3-.3c.7,0,1,.2,1,.7h0Z" fill="#2a4b80"/><path d="M287.5,419.9h.6c.1.1.2.1.2.2s.1.1.1.2a1.7,1.7,0,0,1-.2.5c-.1.3-.3.5-.4.8l-.5.9a2.2,2.2,0,0,0-.1.8,2,2,0,0,0,.1.7.6.6,0,0,0,.6.3,2.5,2.5,0,0,0,1.5-.9,8.4,8.4,0,0,0,2-2.6l.2.2a5.6,5.6,0,0,1-.9,1.7,6.3,6.3,0,0,1-1,1.2,4.2,4.2,0,0,1-1.2.8,2.7,2.7,0,0,1-1.2.3,1.5,1.5,0,0,1-1.2-.5,1.3,1.3,0,0,1-.4-1,1.3,1.3,0,0,1,.1-.6,15.6,15.6,0,0,1-1.7,1.8,2.3,2.3,0,0,1-1.6.7,1.7,1.7,0,0,1-1.2-.5,1.7,1.7,0,0,1-.4-1.3,6.8,6.8,0,0,1,.2-1.4,10.1,10.1,0,0,1,.7-1.5l1-1.4a15.9,15.9,0,0,1,1.3-1.3l1.4-.8a3.5,3.5,0,0,1,1.4-.3,2,2,0,0,1,1.4.4,1.4,1.4,0,0,1,.6,1.2,1,1,0,0,1-.3.8l-.8.2a2.5,2.5,0,0,0,.1-.8,1.5,1.5,0,0,0-.2-.9,1,1,0,0,0-.8-.3,2.3,2.3,0,0,0-1.1.3l-1,.8a6.2,6.2,0,0,0-.9,1.2,5.7,5.7,0,0,0-.8,1.3,7.8,7.8,0,0,0-.5,1.4,2.3,2.3,0,0,0-.2,1.1q0,.9.6.9a2.1,2.1,0,0,0,1.1-.5l1.3-1.3,1.2-1.6A8,8,0,0,0,287.5,419.9Z" fill="#2a4b80"/><path d="M296.6,425h-1v-.2c0-.1.1-.3.2-.7s.3-.9.5-1.4.3-1,.4-1.5a4.4,4.4,0,0,0,.3-1.4.8.8,0,0,0-.2-.6c0-.2-.2-.2-.4-.2a1.7,1.7,0,0,0-1.1.6,4.1,4.1,0,0,0-1.4,1.5,17.3,17.3,0,0,0-1.4,2,13.8,13.8,0,0,0-1,2.2h-1.1a.3.3,0,0,1-.1-.2l.2-.8a5.3,5.3,0,0,0,.5-1.5l.6-1.9a10,10,0,0,0,.2-1.6l.4-.3.6-.2a.5.5,0,0,1,.6.6,8.4,8.4,0,0,1-.2,1c-.1.4-.2.9-.4,1.5l1-1.5,1.2-1.3,1.2-1a2.8,2.8,0,0,1,1.2-.4c.5,0,.8.2.9.5a2.1,2.1,0,0,1,.3,1.2,2.2,2.2,0,0,1-.1.8,2.9,2.9,0,0,1-.2.9,1.9,1.9,0,0,1-.2.8c-.1.2-.1.4-.2.6a5.7,5.7,0,0,1,.8-1.3,3.9,3.9,0,0,1,.8-1,2.5,2.5,0,0,1,1-.8,1.9,1.9,0,0,1,1-.3,1.1,1.1,0,0,1,1,.4,1.7,1.7,0,0,1,.3,1,2.9,2.9,0,0,1-.2.9,3.6,3.6,0,0,1-.2,1l-.3.9a2.5,2.5,0,0,0-.1.8,1.3,1.3,0,0,0,.1.6l.5.2a1.2,1.2,0,0,0,.9-.4l.8-.8.7-1.1a6.1,6.1,0,0,0,.5-1.2l.3.3-.6,1.4-.9,1.3-1,.9a2.8,2.8,0,0,1-1.3.3,1.4,1.4,0,0,1-1.1-.4,2.1,2.1,0,0,1-.3-1.2,2.5,2.5,0,0,1,.1-.8,3.1,3.1,0,0,1,.2-.8,1.9,1.9,0,0,0,.2-.8,1.5,1.5,0,0,0,.1-.7.7.7,0,0,0-.2-.6h-.4a1.4,1.4,0,0,0-1.2.8l-1.7,2.4a5.4,5.4,0,0,0-.5,1.1A4.1,4.1,0,0,0,296.6,425Z" fill="#2a4b80"/><path d="M310.9,423.2l-1-.2a8.5,8.5,0,0,1-1.7,1.6,2.8,2.8,0,0,1-1.7.7,1.5,1.5,0,0,1-1.3-.6,3.3,3.3,0,0,1-.4-1.4,6.8,6.8,0,0,1,.2-1.4l.6-1.4a3.9,3.9,0,0,1,.8-1,1.2,1.2,0,0,1,.9-.4h.5l-.5.7-.5,1a5.6,5.6,0,0,0-.4,1.2,4.4,4.4,0,0,0-.2,1,2.2,2.2,0,0,0,.2,1l.6.3a2.1,2.1,0,0,0,1.1-.5l1.3-1.3a2.6,2.6,0,0,1-1-1.3,4.7,4.7,0,0,1-.3-1.7,3.4,3.4,0,0,1,.1-1,3.6,3.6,0,0,1,.4-.9l.7-.6.9-.2a1.4,1.4,0,0,1,1.2.5,2.1,2.1,0,0,1,.3,1.2,5,5,0,0,1-.4,1.9,9.3,9.3,0,0,1-1.1,1.9,1.6,1.6,0,0,0,.9.3h.6l.6-.3.6-.5a1.8,1.8,0,0,0,.5-.7l.3.2a3.5,3.5,0,0,1-.6.9l-.7.6-.7.3Zm-1.9-3.5a6.9,6.9,0,0,0,.2,1.3,3.7,3.7,0,0,0,.5,1.1l1-1.7a5.5,5.5,0,0,0,.3-1.7c0-.4,0-.7-.2-.9a.5.5,0,0,0-.4-.3.6.6,0,0,0-.5.2.8.8,0,0,0-.4.4,2.5,2.5,0,0,0-.4.7C309.1,419.1,309,419.4,309,419.7Z" fill="#2a4b80"/><path d="M312.6,422.8a2.8,2.8,0,0,1,.1-1c.2-.2.3-.4.5-.5l.4-.3h.3a7.9,7.9,0,0,0,1.2-1.5l1-1.7v-.3a1.6,1.6,0,0,1,.3-1.1.9.9,0,0,1,.6-.3c.2,0,.3.1.3.2a.8.8,0,0,1-.1.4v.6a4.1,4.1,0,0,0,.1,1.1,6.5,6.5,0,0,1,.4,1.3,5.7,5.7,0,0,1,.4,1.4,7.8,7.8,0,0,1,.2,1.4,3.7,3.7,0,0,1-.1,1.1,2.7,2.7,0,0,0,1.4-.7,4,4,0,0,0,1.3-1.7l.2.2a4.1,4.1,0,0,1-1.2,1.8,4.8,4.8,0,0,1-1.8.8,2.8,2.8,0,0,1-1.1,1.3,3.4,3.4,0,0,1-1.7.5,2.5,2.5,0,0,1-1.3-.3,1.9,1.9,0,0,1-.8-.7,1.3,1.3,0,0,1-.5-.9A3.4,3.4,0,0,1,312.6,422.8Zm2.7,2.1h.3a.5.5,0,0,0,.4-.2.5.5,0,0,0,.4-.3,1.6,1.6,0,0,0,.3-.6,2.9,2.9,0,0,1-1.6-.7A2.9,2.9,0,0,1,314,422c-.3,0-.5.3-.5.8a2.4,2.4,0,0,0,.2.8c0,.2.2.4.3.6s.3.4.6.5Zm1.6-2.4a7.6,7.6,0,0,0-.3-2.1c-.1-.6-.3-1.3-.4-1.9s-.7,1.1-1,1.6l-1.1,1.3a5.7,5.7,0,0,0,1,1.3,4.5,4.5,0,0,0,1.7.8c0-.2.1-.3.1-.5Z" fill="#2a4b80"/></g></g></svg>