<?xml version="1.0" encoding="utf-8"?>
<!-- Generator: Adobe Illustrator 17.0.0, SVG Export Plug-In . SVG Version: 6.00 Build 0)  -->
<!DOCTYPE svg PUBLIC "-//W3C//DTD SVG 1.1//EN" "http://www.w3.org/Graphics/SVG/1.1/DTD/svg11.dtd">
<svg version="1.1" id="Capa_1" xmlns="http://www.w3.org/2000/svg" xmlns:xlink="http://www.w3.org/1999/xlink" x="0px" y="0px"
	 width="30px" height="30px" viewBox="0 0 428.593 401" enable-background="new 0 0 428.593 401" xml:space="preserve">
<g id="UqwhMC_3_">
	<g>
		<path fill="#fff" d="M343.018,215.53c-3.934-63.173-46.162-117.297-106.805-135.386c-12.648-3.773-26.141-4.8-39.297-6.739
			c-4.422-0.652-9.82-0.643-10.109,5.596c-0.269,5.809,4.82,5.856,9.057,6.178c1.305,0.099,2.614,0.144,3.922,0.214
			c65.949,3.516,120.694,53.226,130.212,118.39c0.943,6.454,0.574,13.127,1.855,19.489c0.512,2.542,3.844,4.516,5.893,6.749
			c1.757-2.213,4.136-4.192,5.089-6.71C343.701,221.023,343.018,218.147,343.018,215.53z M196.728,115.211
			c-0.766,0-3.166-0.646-4.87,0.167c-2.046,0.975-4.759,3.119-4.865,4.894c-0.112,1.892,2.163,4.367,4.014,5.777
			c1.22,0.929,3.531,0.426,5.353,0.561c40.442,3.009,69.587,22.857,85.704,59.944c4.873,11.214,5.344,24.298,8.376,36.389
			c0.669,2.668,3.649,4.757,5.564,7.112c1.855-2.383,3.97-4.619,5.448-7.217c0.67-1.178,0.113-3.075,0.053-4.644
			C299.432,163.64,252.6,117.043,196.728,115.211z"/>
		<path fill="#fff" d="M30.848,137.471c4.453-27.422,21.284-47.068,40.706-65.179c13.891-12.953,28.097-14.235,42.966-2.385
			c18.105,14.427,31.437,32.996,42.161,53.257c6.645,12.553,3.693,22.102-7.205,31.107c-4.845,4.004-9.653,8.102-14.074,12.558
			c-10.865,10.95-12.055,24.789-1.406,35.842c24.37,25.294,49.221,50.147,74.524,74.506c10.599,10.204,24.519,8.936,35.234-1.535
			c4.675-4.568,8.939-9.583,13.137-14.606c8.672-10.377,17.226-13.507,28.992-7.61c22.201,11.128,42.141,25.633,57.14,45.775
			c9.155,12.294,7.926,27.243-2.749,38.028c-9.383,9.479-18.693,19.355-29.447,27.092c-31.458,22.632-64.12,19.44-95.783,0.581
			c-13.838-8.242-27.1-18.15-38.717-29.29c-32.354-31.025-63.774-63.027-95.438-94.767c-24.213-24.271-43.775-51.325-50.042-86.068
			C30.848,149.008,30.848,143.24,30.848,137.471z"/>
		<path fill="#fff" d="M384.828,227.146c-8.158,5.041-11.231,3.644-11.581-6.107c-1.432-39.914-13.483-76.079-38.341-107.485
			c-34.831-44.007-80.648-67.015-136.614-70.083c-4.613-0.253-11.539,1.545-11.382-5.884c0.154-7.306,6.937-5.634,11.628-5.549
			c94.496,1.703,176.33,78.117,185.026,172.636c0.161,1.746,0.831,3.445,1.264,5.167
			C384.828,215.609,384.828,221.378,384.828,227.146z"/>
		<path fill="#fff" d="M343.018,215.53c0,2.617,0.683,5.493-0.183,7.782c-0.953,2.518-3.331,4.496-5.089,6.71
			c-2.048-2.233-5.381-4.207-5.893-6.749c-1.281-6.362-0.912-13.035-1.855-19.489c-9.518-65.165-64.263-114.874-130.212-118.39
			c-1.307-0.07-2.617-0.114-3.922-0.214c-4.237-0.323-9.326-0.369-9.057-6.178c0.289-6.239,5.687-6.248,10.109-5.596
			c13.156,1.94,26.649,2.967,39.297,6.739C296.856,98.233,339.084,152.357,343.018,215.53z"/>
		<path fill="#fff" d="M196.728,115.211c55.873,1.833,102.704,48.429,104.778,102.983c0.06,1.569,0.617,3.466-0.053,4.644
			c-1.478,2.598-3.593,4.833-5.448,7.217c-1.916-2.356-4.895-4.444-5.564-7.112c-3.032-12.091-3.503-25.175-8.376-36.389
			c-16.117-37.087-45.262-56.935-85.704-59.944c-1.823-0.136-4.134,0.368-5.353-0.561c-1.851-1.409-4.126-3.885-4.014-5.777
			c0.105-1.775,2.819-3.919,4.865-4.894C193.562,114.565,195.962,115.211,196.728,115.211z"/>
	</g>
</g>
</svg>
