<?xml version="1.0" encoding="iso-8859-1"?>
<!-- Generator: Adobe Illustrator 18.0.0, SVG Export Plug-In . SVG Version: 6.00 Build 0)  -->
<!DOCTYPE svg PUBLIC "-//W3C//DTD SVG 1.1//EN" "http://www.w3.org/Graphics/SVG/1.1/DTD/svg11.dtd">
<svg version="1.1" id="Capa_1" xmlns="http://www.w3.org/2000/svg" xmlns:xlink="http://www.w3.org/1999/xlink" x="0px" y="0px"
	 viewBox="0 0 297 297" style="enable-background:new 0 0 297 297;" xml:space="preserve">
<g>
	<path d="M279.149,78.656c-2.022-2.589-5.039-3.942-8.088-3.942c-2.207,0-4.432,0.71-6.307,2.175L19.618,268.409
		c-4.463,3.487-5.254,9.932-1.768,14.395c2.022,2.589,5.039,3.941,8.088,3.941c2.207,0,4.432-0.709,6.307-2.174l245.137-191.52
		C281.845,89.563,282.636,83.119,279.149,78.656z"/>
	<path d="M234.931,81.972C222.214,34.814,179.116,0,128.013,0C66.942,0,17.259,49.703,17.259,110.797
		c0,39.28,18.574,78.152,40.029,109.962L234.931,81.972z M128.013,79.693c16.963,0,30.766,13.953,30.766,31.104
		c0,17.151-13.803,31.104-30.766,31.104s-30.766-13.953-30.766-31.104C97.247,93.646,111.05,79.693,128.013,79.693z"/>
	<path d="M87.37,259.721c17.744,20.373,32.299,33.342,33.865,34.721c1.936,1.705,4.357,2.559,6.777,2.559
		c2.42,0,4.842-0.853,6.777-2.559c3.711-3.27,80.399-71.627,99.617-149.597L87.37,259.721z"/>
</g>
<g>
</g>
<g>
</g>
<g>
</g>
<g>
</g>
<g>
</g>
<g>
</g>
<g>
</g>
<g>
</g>
<g>
</g>
<g>
</g>
<g>
</g>
<g>
</g>
<g>
</g>
<g>
</g>
<g>
</g>
</svg>
