<?xml version="1.0" encoding="UTF-8" standalone="no"?>
<!-- Created with Inkscape (http://www.inkscape.org/) -->

<svg
   xmlns:dc="http://purl.org/dc/elements/1.1/"
   xmlns:cc="http://creativecommons.org/ns#"
   xmlns:rdf="http://www.w3.org/1999/02/22-rdf-syntax-ns#"
   xmlns:svg="http://www.w3.org/2000/svg"
   xmlns="http://www.w3.org/2000/svg"
   xmlns:sodipodi="http://sodipodi.sourceforge.net/DTD/sodipodi-0.dtd"
   xmlns:inkscape="http://www.inkscape.org/namespaces/inkscape"
   width="30.233158mm"
   height="30.240566mm"
   viewBox="0 0 30.233158 30.240566"
   version="1.1"
   id="svg2855"
   inkscape:version="0.92.3 (2405546, 2018-03-11)"
   sodipodi:docname="ambulance.svg">
  <defs
     id="defs2849">
    <clipPath
       clipPathUnits="userSpaceOnUse"
       id="clipPath284">
      <path
         d="M 71.2603,414.763 H 129.39 V 355.928 H 71.2603 Z"
         id="path282"
         inkscape:connector-curvature="0" />
    </clipPath>
    <clipPath
       clipPathUnits="userSpaceOnUse"
       id="clipPath308">
      <path
         d="M 90.4834,414.765 H 113.129 V 387.279 H 90.4834 Z"
         id="path306"
         inkscape:connector-curvature="0" />
    </clipPath>
    <clipPath
       clipPathUnits="userSpaceOnUse"
       id="clipPath324">
      <path
         d="M 71.2578,395.541 H 98.7432 V 372.894 H 71.2578 Z"
         id="path322"
         inkscape:connector-curvature="0" />
    </clipPath>
    <clipPath
       clipPathUnits="userSpaceOnUse"
       id="clipPath32">
      <path
         d="m 172.846,419.929 h 63.413 v -64.416 h -63.413 z"
         id="path30"
         inkscape:connector-curvature="0" />
    </clipPath>
    <clipPath
       clipPathUnits="userSpaceOnUse"
       id="clipPath68">
      <path
         d="m 194.249,389.167 h 2.419 v -6.976 h -2.419 z"
         id="path66"
         inkscape:connector-curvature="0" />
    </clipPath>
    <clipPath
       clipPathUnits="userSpaceOnUse"
       id="clipPath88">
      <path
         d="m 182.895,419.764 h 13.774 v -34.621 h -13.774 z"
         id="path86"
         inkscape:connector-curvature="0" />
    </clipPath>
    <clipPath
       clipPathUnits="userSpaceOnUse"
       id="clipPath116">
      <path
         d="m 180.474,403.877 h 4.84 v -4.839 h -4.84 z"
         id="path114"
         inkscape:connector-curvature="0" />
    </clipPath>
    <clipPath
       clipPathUnits="userSpaceOnUse"
       id="clipPath1024">
      <path
         d="m 282.342,409.691 h 60.883 v -54.18 h -60.883 z"
         id="path1022"
         inkscape:connector-curvature="0" />
    </clipPath>
    <clipPath
       clipPathUnits="userSpaceOnUse"
       id="clipPath1052">
      <path
         d="m 283.202,406.331 h 32.976 v -25.352 h -32.976 z"
         id="path1050"
         inkscape:connector-curvature="0" />
    </clipPath>
    <clipPath
       clipPathUnits="userSpaceOnUse"
       id="clipPath152">
      <path
         d="m 390.112,408.137 h 59.493 v -52.266 h -59.493 z"
         id="path150"
         inkscape:connector-curvature="0" />
    </clipPath>
    <clipPath
       clipPathUnits="userSpaceOnUse"
       id="clipPath436">
      <path
         d="m 76.1875,311.719 h 52.4375 v -57.38 H 76.1875 Z"
         id="path434"
         inkscape:connector-curvature="0" />
    </clipPath>
    <clipPath
       clipPathUnits="userSpaceOnUse"
       id="clipPath362">
      <path
         d="m 174.225,300.873 h 60.873 V 254.25 h -60.873 z"
         id="path360"
         inkscape:connector-curvature="0" />
    </clipPath>
  </defs>
  <sodipodi:namedview
     id="base"
     pagecolor="#ffffff"
     bordercolor="#666666"
     borderopacity="1.0"
     inkscape:pageopacity="0.0"
     inkscape:pageshadow="2"
     inkscape:zoom="0.35"
     inkscape:cx="-570.05132"
     inkscape:cy="-234.26857"
     inkscape:document-units="mm"
     inkscape:current-layer="layer1"
     showgrid="false"
     fit-margin-top="1"
     fit-margin-right="1"
     fit-margin-bottom="1"
     fit-margin-left="1"
     inkscape:window-width="1853"
     inkscape:window-height="1025"
     inkscape:window-x="67"
     inkscape:window-y="27"
     inkscape:window-maximized="1" />
  <metadata
     id="metadata2852">
    <rdf:RDF>
      <cc:Work
         rdf:about="">
        <dc:format>image/svg+xml</dc:format>
        <dc:type
           rdf:resource="http://purl.org/dc/dcmitype/StillImage" />
        <dc:title></dc:title>
      </cc:Work>
    </rdf:RDF>
  </metadata>
  <g
     inkscape:label="Capa 1"
     inkscape:groupmode="layer"
     id="layer1"
     transform="translate(-84.680242,-56.609207)">
    <g
       transform="matrix(0.35277777,0,0,-0.35277777,30.454082,175.25188)"
       id="g4191">
      <g
         transform="translate(236.5776,293.4443)"
         id="g350">
        <path
           inkscape:connector-curvature="0"
           id="path352"
           style="fill:#253d48;fill-opacity:1;fill-rule:nonzero;stroke:none"
           d="m 0,0 c 0,-0.269 0,-0.529 -0.01,-0.799 -0.03,-1.436 -0.129,-2.844 -0.309,-4.241 -0.559,-4.461 -1.856,-8.693 -3.762,-12.575 -5.879,-11.987 -17.575,-20.59 -31.408,-22.135 -0.748,-0.101 -1.507,-0.151 -2.265,-0.201 -0.748,-0.049 -1.497,-0.07 -2.256,-0.07 -0.1,0 -0.21,0 -0.309,0.01 -2.116,0.011 -4.202,0.19 -6.238,0.53 -19.003,3.123 -33.474,19.61 -33.474,39.481 0,22.106 17.915,40.031 40.021,40.031 21.437,0 38.953,-16.886 39.97,-38.074 C -0.01,1.298 0,0.649 0,0" />
      </g>
      <path
         inkscape:connector-curvature="0"
         id="path354"
         style="fill:#253d48;fill-opacity:1;fill-rule:nonzero;stroke:none"
         d="m 210.995,291.208 h -2.459 v 0.791 h 2.459 z" />
      <g
         id="g356">
        <g
           id="g358" />
        <g
           id="g370">
          <g
             style="opacity:0.30000299"
             id="g368"
             clip-path="url(#clipPath362)">
            <g
               id="g366"
               transform="translate(174.2251,283.0928)">
              <path
                 inkscape:connector-curvature="0"
                 id="path364"
                 style="fill:#253d48;fill-opacity:1;fill-rule:nonzero;stroke:none"
                 d="m 0,0 30.307,-28.842 c 12.313,2.481 22.581,10.603 27.964,21.578 1.069,2.177 1.938,4.467 2.602,6.843 L 42.671,17.78 Z" />
            </g>
          </g>
        </g>
      </g>
      <g
         transform="translate(222.9717,289.8218)"
         id="g372">
        <path
           inkscape:connector-curvature="0"
           id="path374"
           style="fill:#ffffff;fill-opacity:1;fill-rule:nonzero;stroke:none"
           d="m 0,0 v -6.765 h -48.473 v 22.019 h 32.705 v -4.203 h 9.692 l 2.291,-8.859 z" />
      </g>
      <path
         inkscape:connector-curvature="0"
         id="path376"
         style="fill:#e54115;fill-opacity:1;fill-rule:nonzero;stroke:none"
         d="m 207.205,286.895 h -32.702 v 1.233 h 32.702 z" />
      <g
         transform="translate(219.1914,292.0107)"
         id="g378">
        <path
           inkscape:connector-curvature="0"
           id="path380"
           style="fill:#f1f2f2;fill-opacity:1;fill-rule:nonzero;stroke:none"
           d="m 0,0 -2.295,8.862 h -9.691 V -8.954 H 3.78 v 6.761 z" />
      </g>
      <g
         transform="translate(217.1704,293.1304)"
         id="g382">
        <path
           inkscape:connector-curvature="0"
           id="path384"
           style="fill:#253d48;fill-opacity:1;fill-rule:nonzero;stroke:none"
           d="m 0,0 h -8.634 v 6.03 h 7.488 z" />
      </g>
      <path
         inkscape:connector-curvature="0"
         id="path386"
         style="fill:#c93417;fill-opacity:1;fill-rule:nonzero;stroke:none"
         d="m 222.972,286.895 h -15.767 v 1.233 h 15.767 z" />
      <path
         inkscape:connector-curvature="0"
         id="path388"
         style="fill:#253d48;fill-opacity:1;fill-rule:nonzero;stroke:none"
         d="m 211.208,300.873 h -1.576 v 1.028 h 1.576 z" />
      <g
         transform="translate(210.4204,302.6895)"
         id="g390">
        <path
           inkscape:connector-curvature="0"
           id="path392"
           style="fill:#e54115;fill-opacity:1;fill-rule:nonzero;stroke:none"
           d="M 0,0 C -0.436,0 -0.788,-0.353 -0.788,-0.789 H 0.788 C 0.788,-0.353 0.435,0 0,0" />
      </g>
      <g
         transform="translate(196.5693,298.146)"
         id="g394">
        <path
           inkscape:connector-curvature="0"
           id="path396"
           style="fill:#d34418;fill-opacity:1;fill-rule:nonzero;stroke:none"
           d="M 0,0 H -3.462 V 3.461 H -7.464 V 0 h -3.463 v -4.003 h 3.463 v -3.46 h 4.002 v 3.46 H 0 Z" />
      </g>
      <g
         transform="translate(189.1143,283.0571)"
         id="g398">
        <path
           inkscape:connector-curvature="0"
           id="path400"
           style="fill:#253d48;fill-opacity:1;fill-rule:nonzero;stroke:none"
           d="m 0,0 h -9.462 c 0.8,1.82 2.62,3.081 4.725,3.081 C -2.621,3.081 -0.801,1.82 0,0" />
      </g>
      <g
         transform="translate(219.0938,283.0571)"
         id="g402">
        <path
           inkscape:connector-curvature="0"
           id="path404"
           style="fill:#253d48;fill-opacity:1;fill-rule:nonzero;stroke:none"
           d="m 0,0 h -9.461 c 0.8,1.82 2.621,3.081 4.725,3.081 C -2.62,3.081 -0.8,1.82 0,0" />
      </g>
      <g
         transform="translate(218.5259,280.9668)"
         id="g406">
        <path
           inkscape:connector-curvature="0"
           id="path408"
           style="fill:#231f20;fill-opacity:1;fill-rule:nonzero;stroke:none"
           d="m 0,0 c 0,-2.298 -1.864,-4.163 -4.163,-4.163 -2.299,0 -4.163,1.865 -4.163,4.163 0,2.299 1.864,4.163 4.163,4.163 C -1.864,4.163 0,2.299 0,0" />
      </g>
      <g
         transform="translate(215.9219,280.9668)"
         id="g410">
        <path
           inkscape:connector-curvature="0"
           id="path412"
           style="fill:#bcbec0;fill-opacity:1;fill-rule:nonzero;stroke:none"
           d="m 0,0 c 0,-0.86 -0.697,-1.559 -1.559,-1.559 -0.86,0 -1.559,0.699 -1.559,1.559 0,0.861 0.699,1.559 1.559,1.559 C -0.697,1.559 0,0.861 0,0" />
      </g>
      <g
         transform="translate(188.5454,280.9668)"
         id="g414">
        <path
           inkscape:connector-curvature="0"
           id="path416"
           style="fill:#231f20;fill-opacity:1;fill-rule:nonzero;stroke:none"
           d="m 0,0 c 0,-2.298 -1.864,-4.163 -4.163,-4.163 -2.298,0 -4.163,1.865 -4.163,4.163 0,2.299 1.865,4.163 4.163,4.163 C -1.864,4.163 0,2.299 0,0" />
      </g>
      <g
         transform="translate(185.9419,280.9668)"
         id="g418">
        <path
           inkscape:connector-curvature="0"
           id="path420"
           style="fill:#bcbec0;fill-opacity:1;fill-rule:nonzero;stroke:none"
           d="m 0,0 c 0,-0.86 -0.699,-1.559 -1.56,-1.559 -0.86,0 -1.558,0.699 -1.558,1.559 0,0.861 0.698,1.559 1.558,1.559 C -0.699,1.559 0,0.861 0,0" />
      </g>
      <path
         inkscape:connector-curvature="0"
         id="path422"
         style="fill:#253d48;fill-opacity:1;fill-rule:nonzero;stroke:none"
         d="m 177.346,301.593 h -1.839 v 1.839 h 1.839 z" />
      <path
         inkscape:connector-curvature="0"
         id="path424"
         style="fill:#d34418;fill-opacity:1;fill-rule:nonzero;stroke:none"
         d="m 179.652,301.593 h -1.84 v 1.839 h 1.84 z" />
    </g>
  </g>
</svg>
