<svg xmlns="http://www.w3.org/2000/svg" xmlns:xlink="http://www.w3.org/1999/xlink" viewBox="0 0 80.03 80.05"><defs><style>.cls-1{fill:none;}.cls-2{fill:#6abb67;}.cls-3{fill:#253d48;}.cls-4{clip-path:url(#clip-path);}.cls-5{opacity:0.3;}.cls-6{fill:#fff;}.cls-7{fill:#e54115;}.cls-8{fill:#f1f2f2;}.cls-9{fill:#c93417;}.cls-10{fill:#d34418;}.cls-11{fill:#231f20;}.cls-12{fill:#bcbec0;}</style><clipPath id="clip-path"><rect class="cls-1" x="17.68" y="32.6" width="60.87" height="46.62"/></clipPath></defs><title>servisoftsambulanciaverde</title><g id="Capa_2" data-name="Capa 2"><g id="svg2855"><g id="layer1"><g id="g4191"><g id="g350"><path id="path352" class="cls-2" d="M80,40c0,.27,0,.53,0,.8A40.11,40.11,0,0,1,76,57.65,40,40,0,0,1,44.54,79.78c-.75.1-1.51.15-2.26.2s-1.5.07-2.26.07h-.31a39.12,39.12,0,0,1-6.24-.53A40,40,0,1,1,80,38.07c0,.66,0,1.31,0,2"/></g><path id="path354" class="cls-3" d="M54.45,42.27H52v-.79h2.46Z"/><g id="g356"><g id="g370"><g class="cls-4"><g id="g368" class="cls-5"><g id="g366"><path id="path364" class="cls-3" d="M17.68,50.38,48,79.22A40,40,0,0,0,76,57.65a39.47,39.47,0,0,0,2.6-6.85L60.35,32.6Z"/></g></g></g></g></g><g id="g372"><path id="path374" class="cls-6" d="M66.43,43.65v6.77H18v-22H50.66v4.2h9.69l2.29,8.86Z"/></g><path id="path376" class="cls-7" d="M50.66,46.58H18V45.35h32.7Z"/><g id="g378"><path id="path380" class="cls-8" d="M62.64,41.46,60.35,32.6H50.66V50.42H66.42V43.66Z"/></g><g id="g382"><path id="path384" class="cls-3" d="M60.62,40.34H52v-6h7.49Z"/></g><path id="path386" class="cls-9" d="M66.43,46.58H50.66V45.35H66.43Z"/><path id="path388" class="cls-3" d="M54.66,32.6H53.09v-1h1.57Z"/><g id="g390"><path id="path392" class="cls-7" d="M53.87,30.79a.78.78,0,0,0-.78.78h1.57a.78.78,0,0,0-.79-.78"/></g><g id="g394"><path id="path396" class="cls-10" d="M40,35.33H36.56V31.87h-4v3.46H29.1v4h3.46v3.46h4V39.33H40Z"/></g><g id="g398"><path id="path400" class="cls-3" d="M32.57,50.42H23.11a5.17,5.17,0,0,1,9.46,0"/></g><g id="g402"><path id="path404" class="cls-3" d="M62.55,50.42H53.09a5.17,5.17,0,0,1,9.46,0"/></g><g id="g406"><path id="path408" class="cls-11" d="M62,52.51a4.17,4.17,0,1,1-4.16-4.16A4.16,4.16,0,0,1,62,52.51"/></g><g id="g410"><path id="path412" class="cls-12" d="M59.38,52.51A1.56,1.56,0,1,1,57.82,51a1.56,1.56,0,0,1,1.56,1.56"/></g><g id="g414"><path id="path416" class="cls-11" d="M32,52.51a4.17,4.17,0,1,1-4.16-4.16A4.16,4.16,0,0,1,32,52.51"/></g><g id="g418"><path id="path420" class="cls-12" d="M29.4,52.51A1.56,1.56,0,1,1,27.84,51a1.56,1.56,0,0,1,1.56,1.56"/></g><path id="path422" class="cls-3" d="M20.8,31.88H19V30H20.8Z"/><path id="path424" class="cls-10" d="M23.11,31.88H21.27V30h1.84Z"/></g></g></g></g></svg>