<svg xmlns="http://www.w3.org/2000/svg" viewBox="0 0 492 409.31">
	<title>
		arrow
	</title>
	<g id="Capa_2" data-name="Capa 2" fill="#fff">
		<g id="Layer_1" data-name="Layer 1">
			<path d="M0,204.66a26.76,26.76,0,0,0,7.86,19.1L185.54,401.44a27,27,0,0,0,38.08,0l16.14-16.09a26.67,26.67,0,0,0,0-37.81L134.93,243.12H465.42c14.85,0,26.58-12.8,26.58-27.65V192.66a26.27,26.27,0,0,0-26.58-26.48H136.1L239.76,62.3A27.27,27.27,0,0,0,247.62,43a26.73,26.73,0,0,0-7.86-19L223.63,7.86a27,27,0,0,0-38.09,0L7.86,185.54A26.76,26.76,0,0,0,0,204.66Z" />
		</g>
	</g>
</svg>
