<svg xmlns="http://www.w3.org/2000/svg" viewBox="0 0 19.5 19.5"><defs><style>.cls-1{fill:#212121;}</style></defs><title>ayuda</title><g id="Capa_2" data-name="Capa 2"><g id="Capa_1-2" data-name="Capa 1"><path class="cls-1" d="M-2128,1803.09l-.27,5.72a.75.75,0,0,1-.22.53.75.75,0,0,1-.53.22.75.75,0,0,1-.53-.22.75.75,0,0,1-.22-.53l-.27-5.72h0a1,1,0,0,1,.06-.4,1.15,1.15,0,0,1,.22-.35,1,1,0,0,1,.34-.23.9.9,0,0,1,.4-.08.92.92,0,0,1,.4.08.94.94,0,0,1,.33.23,1,1,0,0,1,.22.35,1.05,1.05,0,0,1,.07.4Zm-1,9.43a.94.94,0,0,1-.52-.16.9.9,0,0,1-.35-.42.91.91,0,0,1-.05-.54.94.94,0,0,1,.26-.48,1,1,0,0,1,.48-.26.91.91,0,0,1,.54,0,.9.9,0,0,1,.42.35.94.94,0,0,1,.16.52.91.91,0,0,1-.28.66A.91.91,0,0,1-2129,1812.52Zm0-15a9.76,9.76,0,0,0-9.75,9.75A9.76,9.76,0,0,0-2129,1817a9.76,9.76,0,0,0,9.75-9.75A9.76,9.76,0,0,0-2129,1797.52Z" transform="translate(2138.75 -1797.52)"/></g></g></svg>