<svg xmlns="http://www.w3.org/2000/svg" viewBox="0 0 22.5 21"><defs><style>.cls-1{fill:#212121;}</style></defs><title>inicio</title><g id="Capa_2" data-name="Capa 2"><g id="Capa_1-2" data-name="Capa 1"><path class="cls-1" d="M-2128.74,1536a.36.36,0,0,0-.26-.11.36.36,0,0,0-.26.11l-8.63,8.24a.57.57,0,0,0-.08.13.32.32,0,0,0,0,.14v7.74a1.49,1.49,0,0,0,.43,1.06,1.54,1.54,0,0,0,1.07.44h4.5a.75.75,0,0,0,.53-.22.75.75,0,0,0,.22-.53v-6.37a.39.39,0,0,1,.11-.27.39.39,0,0,1,.27-.11h3.75a.38.38,0,0,1,.26.11.39.39,0,0,1,.11.27V1553a.75.75,0,0,0,.22.53.75.75,0,0,0,.53.22h4.5a1.5,1.5,0,0,0,1.06-.44,1.5,1.5,0,0,0,.44-1.06v-7.74a.32.32,0,0,0,0-.14.57.57,0,0,0-.08-.13Z" transform="translate(2140.25 -1532.77)"/><path class="cls-1" d="M-2118,1542.72l-3.5-3.36v-5.09a.75.75,0,0,0-.22-.53.79.79,0,0,0-.53-.22h-2.25a.79.79,0,0,0-.54.22.74.74,0,0,0-.21.53v1.5l-2.72-2.59a1.44,1.44,0,0,0-1-.41,1.46,1.46,0,0,0-1,.41l-10,9.53a.76.76,0,0,0-.06,1,.88.88,0,0,0,.24.19.73.73,0,0,0,.29.07.63.63,0,0,0,.3,0,.71.71,0,0,0,.26-.16l9.72-9.29a.36.36,0,0,1,.26-.11.36.36,0,0,1,.26.11l9.73,9.29a.7.7,0,0,0,.53.21.72.72,0,0,0,.53-.23A.77.77,0,0,0-2118,1542.72Z" transform="translate(2140.25 -1532.77)"/></g></g></svg>