<svg xmlns="http://www.w3.org/2000/svg" viewBox="0 0 20 20">
  <title>addfoto</title>
  <g>
    <rect x="4.3" y="4.3" width="15.8" height="15.75" rx="2.7" fill="#e52029"/>
    <path d="M3.1,16.8H4.3v-1H3.1Zm-2.2-1a3.7,3.7,0,0,0,2.2,1v-1a3,3,0,0,1-1.5-.7ZM0,13.6a2.9,2.9,0,0,0,.9,2.2l.7-.7A2,2,0,0,1,1,13.6ZM0,3.5V13.6H1V3.5ZM1,1A3.9,3.9,0,0,0,0,3.5H1a2.9,2.9,0,0,1,.7-1.8ZM3.5,0A3.9,3.9,0,0,0,1,1l.7.7A2.9,2.9,0,0,1,3.5,1ZM13.6,0H3.5V1H13.6Zm2.2.9A2.9,2.9,0,0,0,13.6,0V1a2,2,0,0,1,1.5.6Zm.9,2.2A3.1,3.1,0,0,0,15.8.9l-.7.7a3,3,0,0,1,.7,1.5Zm0,1.2V3.1h-.9V4.2ZM4.3,16.8a.6.6,0,0,0,.5-.6c0-.2-.3-.4-.5-.4Zm-1.2-.6v.6h0ZM.5,13.6h0ZM.5,3.5h0Zm3-3V0h0ZM13.6.5V0h0Zm2.7,2.6h0Zm-.6,1.1a.5.5,0,0,0,.5.5.4.4,0,0,0,.5-.4Z" fill="#e52029"/>
    <path d="M11.6,8.4v7.5h1V8.4Zm0,7.5a.5.5,0,0,0,1,0Zm1-7.5a.5.5,0,0,0-1,0Z" fill="#fff"/>
    <path d="M15.9,11.6H8.4v1h7.5Zm-7.5,0a.5.5,0,0,0,0,1Zm7.5,1a.5.5,0,0,0,0-1Z" fill="#fff"/>
  </g>
</svg>
