<svg xmlns="http://www.w3.org/2000/svg" viewBox="0 0 141.7 141.7">
  <title>files</title>
  <g>
    <rect width="141.7" height="141.73" rx="35" fill="#4e56a2"/>
    <path d="M116.5,52.7h-.1a.1.1,0,0,1-.1-.1h0a.1.1,0,0,0-.1-.1h0a.1.1,0,0,0-.1-.1h0L83.3,19h0a.1.1,0,0,0-.1-.1h-.6a.1.1,0,0,0-.1-.1H38.9a7.4,7.4,0,0,0-7.4,7.4v76.9a7.4,7.4,0,0,0,6.6,7.3,7.3,7.3,0,0,0,6.6,6.5,7.3,7.3,0,0,0,7.3,6.6h57.2a7.3,7.3,0,0,0,7.3-7.3V52.8ZM96.9,36.9l14.4,14.4H101.2A4.3,4.3,0,0,1,96.9,47ZM34.6,102.8V25.9a4.3,4.3,0,0,1,4.3-4.3H81.6l3.5,3.5H45.4a7.3,7.3,0,0,0-7.3,7.3V107A4.4,4.4,0,0,1,34.6,102.8Zm6.5,6.5V32.4a4.4,4.4,0,0,1,4.3-4.3H88.1l3.5,3.5H52A7.4,7.4,0,0,0,44.6,39v74.5A4.3,4.3,0,0,1,41.1,109.3Zm68.1,10.8H52a4.2,4.2,0,0,1-4.3-4.2V39A4.3,4.3,0,0,1,52,34.7H93.8V47a7.4,7.4,0,0,0,7.4,7.4h12.3v61.5A4.2,4.2,0,0,1,109.2,120.1Z" fill="#fff"/>
  </g>
</svg>
