<svg xmlns="http://www.w3.org/2000/svg" viewBox="0 0 36 36">
  <title>gmas</title>
  <g>
    <rect width="36" height="36" rx="4" fill="#f44336"/>
    <path d="M380.8,655.1a4.7,4.7,0,0,1,3.9,2l2-2.1a7.9,7.9,0,0,0-5.9-2.7,7.7,7.7,0,1,0,0,15.4,7.7,7.7,0,0,0,7.7-7.7v-.7h-7v2.8h3.7a4.9,4.9,0,0,1-4.4,2.8,4.9,4.9,0,1,1,0-9.8Z" transform="translate(-367 -641)" fill="#fff"/>
    <polygon points="27.8 15.5 25 15.5 25 17.6 22.9 17.6 22.9 20.4 25 20.4 25 22.5 27.8 22.5 27.8 20.4 30 20.4 30 17.6 27.8 17.6 27.8 15.5" fill="#fff"/>
  </g>
</svg>
