<svg xmlns="http://www.w3.org/2000/svg" viewBox="0 0 21 21.6">
  <title>m-ajustes</title>
  <g>
    <circle cx="10.5" cy="10.8" r="2.3" fill="#202121"/>
    <path d="M14.2,11a3.1,3.1,0,0,1-.7,2,4,4,0,0,1-1.6,1.3,5.5,5.5,0,0,1-2.2.2,5.2,5.2,0,0,1-1.9-1.1,4,4,0,0,1-1-1.8A4.1,4.1,0,0,1,7,9.4,5.2,5.2,0,0,1,8.3,7.7a4.8,4.8,0,0,1,2-.7,4.5,4.5,0,0,1,1.6.3,5,5,0,0,1,1.2.8A3.8,3.8,0,0,1,14,9.4,2.9,2.9,0,0,1,14.2,11Zm6.3,1.8h0L19,11.7l-.2-.3V10.2l.2-.3,1.5-1.2h0A1.5,1.5,0,0,0,21,8a1.5,1.5,0,0,0-.2-.9l-2-3.5h0a1.5,1.5,0,0,0-.6-.5,1.4,1.4,0,0,0-.9,0h0l-1.8.7h-.3l-.3-.2-.5-.2-.3-.3c0-.1-.1-.2-.1-.3l-.3-1.8h0a1,1,0,0,0-.4-.7,1.1,1.1,0,0,0-.8-.3h-4a1.1,1.1,0,0,0-.8.3,1.3,1.3,0,0,0-.4.7h0L7,2.9c0,.2-.1.3-.1.4l-.3.2-.5.3H5.5L3.7,3.1h0a1.4,1.4,0,0,0-.9,0,1.5,1.5,0,0,0-.6.5h0L.2,7.1A1.5,1.5,0,0,0,0,8a1.2,1.2,0,0,0,.5.7h0L2,9.9l.2.3v1.2l-.2.3L.5,12.8h0a1.2,1.2,0,0,0-.5.7,1.5,1.5,0,0,0,.2.9l2,3.4h0a1.2,1.2,0,0,0,.6.6,1.4,1.4,0,0,0,.9,0h0l1.8-.7h.6l.5.3.3.2c0,.1.1.2.1.3l.2,1.9h.1a1.2,1.2,0,0,0,.4.8,1.1,1.1,0,0,0,.8.3h4a1.1,1.1,0,0,0,.8-.3,1.2,1.2,0,0,0,.4-.8h0l.3-1.9c0-.1.1-.2.1-.3l.3-.2.5-.3h.6l1.8.7h0a1,1,0,0,0,.9.1,1.2,1.2,0,0,0,.6-.6h0l2-3.5a1.1,1.1,0,0,0,.2-.8A1.4,1.4,0,0,0,20.5,12.8Z" fill="#202121"/>
  </g>
</svg>
