<svg xmlns="http://www.w3.org/2000/svg" viewBox="0 0 22.5 21">
  <title>m-home</title>
  <g>
    <path d="M11.5,3.2H11L2.4,11.5H2.3c0,.1-.1.1-.1.2v7.7a1.6,1.6,0,0,0,.5,1.1,1.8,1.8,0,0,0,1,.4H8.3l.5-.2.2-.5V13.9a.4.4,0,0,1,.1-.3h4.3a.4.4,0,0,1,.1.3v6.4l.2.5.6.2h4.5a1.8,1.8,0,0,0,1-.4,1.6,1.6,0,0,0,.5-1.1V11.8c0-.1-.1-.1-.1-.2h-.1Z" fill="#202121"/>
    <path d="M22.3,9.9,18.8,6.6V1.5a.5.5,0,0,0-.3-.5c-.1-.2-.3-.2-.5-.2H15.8a.7.7,0,0,0-.6.2.8.8,0,0,0-.2.5V3L12.3.4a1.3,1.3,0,0,0-1-.4,1.4,1.4,0,0,0-1.1.4L.2,9.9A.9.9,0,0,0,.2,11l.2.2H1l.3-.2L11,1.7h.5L21.2,11l.6.3c.2-.1.4-.1.5-.3A.8.8,0,0,0,22.3,9.9Z" fill="#202121"/>
  </g>
</svg>
