<svg xmlns="http://www.w3.org/2000/svg" viewBox="0 0 20 19">
  <title>m-regalo</title>
  <path d="M18,12H2V6H7.1L5,8.8,6.6,10,9,6.8l1-1.4,1,1.4L13.4,10,15,8.8,12.9,6H18Zm0,5H2V15H18ZM7,2A1.1,1.1,0,0,1,8,3,1,1,0,0,1,7,4,.9.9,0,0,1,6,3,1,1,0,0,1,7,2Zm6,0a1.1,1.1,0,0,1,1,1,1,1,0,0,1-1,1,.9.9,0,0,1-1-1A1,1,0,0,1,13,2Zm5,2H15.8A2.9,2.9,0,0,0,13,0a2.7,2.7,0,0,0-2.5,1.4L10,2l-.5-.7A3,3,0,0,0,7,0,2.9,2.9,0,0,0,4.2,4H2A2,2,0,0,0,0,6V17a2,2,0,0,0,2,2H18a2,2,0,0,0,2-2V6A2,2,0,0,0,18,4Z" fill="#202121"/>
</svg>
