<svg xmlns="http://www.w3.org/2000/svg" viewBox="0 0 16.9 13.5">
  <title>see</title>
  <g>
    <path d="M502.3,413.9l1.8,1.8h.1a2,2,0,0,0-.6-1.3,2.6,2.6,0,0,0-1.3-.6h0Zm-.6,4.2-1.8-1.8h-.1a2.6,2.6,0,0,0,.6,1.3,3.1,3.1,0,0,0,1.3.6h0Zm6.5,4.7h-.4l-12.4-12.4c-.1-.1-.1-.2-.1-.4a.6.6,0,0,1,.1-.4h.8l12.4,12.4a.4.4,0,0,1,.1.3c.1.1,0,.2,0,.3s-.1.2-.2.3Z" transform="translate(-493.6 -409.3)" fill="#fff"/>
    <path d="M502,419.4a2.8,2.8,0,0,1-1.5-.4,4.7,4.7,0,0,1-1.2-.9,3.5,3.5,0,0,1-.6-1.4,3.8,3.8,0,0,1,0-1.5h0l-2.4-2.4h-.2a12.5,12.5,0,0,0-2.3,2.7.7.7,0,0,0-.2.6,1.3,1.3,0,0,0,.1.6,13.4,13.4,0,0,0,3.5,3.6,9.2,9.2,0,0,0,4.8,1.4,6.9,6.9,0,0,0,2.5-.4h.1l-1.7-1.7H502Zm8.3-2.8a1.9,1.9,0,0,0,0-1.2,11.7,11.7,0,0,0-3.5-3.5,8.7,8.7,0,0,0-4.8-1.5,6.9,6.9,0,0,0-2.5.4h-.1l1.7,1.7h1.8a3.6,3.6,0,0,1,2.4,2.4,4.8,4.8,0,0,1,0,1.7h0l2.4,2.4h.2A15.5,15.5,0,0,0,510.3,416.6Z" transform="translate(-493.6 -409.3)" fill="#fff"/>
  </g>
</svg>
