<svg xmlns="http://www.w3.org/2000/svg" viewBox="0 0 141.7 141.7">
  <title>shared</title>
  <g>
    <rect width="141.7" height="141.73" rx="35" fill="#53b15b"/>
    <g>
      <polyline points="66.8 79 62.7 74.9 108.4 29.4 112.3 33.3 66.8 79" fill="#fff"/>
      <polyline points="113.4 58.6 107.4 58.6 107.4 34.4 83.1 34.4 83.1 28.3 113.4 28.3 113.4 58.6" fill="#fff"/>
      <path d="M98.1,113.4H37.4a9.1,9.1,0,0,1-9.1-9V43.6a9.1,9.1,0,0,1,9.1-9.1H70.9v6.1H37.4a3.1,3.1,0,0,0-3,3v60.8a3.1,3.1,0,0,0,3,3H98.1a3.2,3.2,0,0,0,3.1-3V70.9h6v33.5a8.9,8.9,0,0,1-9.1,9" fill="#fff"/>
    </g>
  </g>
</svg>
