<svg xmlns="http://www.w3.org/2000/svg" viewBox="0 0 22 20.5">
  <title>start</title>
  <path d="M6523.2,460.5l6.6-4.5-.6-.8-6.5,4.5Zm2.7,7-2.5-7.5-.9.3,2.5,7.5Zm-7.2-4.2,6.5,4.7.6-.8-6.5-4.7Zm-5.9,4.7,6.5-4.7-.6-.8-6.5,4.7Zm1.8-8-2.5,7.5.9.3,2.5-7.5Zm-6.4-4,6.6,4.5.5-.8-6.5-4.5Zm8.4-.9h-8.1v1h8.1Zm1.9-7.1-2.4,7.5.9.3,2.5-7.5Zm3.4,7.5-2.4-7.5-1,.3,2.5,7.5Zm7.6-.4h-8.1v1h8.1Zm-6.6,5-.2-.4a.5.5,0,0,0-.2.6Zm2.6,7.5-.3.4a.4.4,0,0,0,.6,0,.4.4,0,0,0,.1-.5Zm-6.5-4.7.3-.4a.6.6,0,0,0-.6,0Zm-6.5,4.7h-.4a.4.4,0,0,0,.1.5.4.4,0,0,0,.6,0Zm2.6-7.5.4.2a.5.5,0,0,0-.2-.6Zm-6.6-4.5v-.5a.7.7,0,0,0-.5.4c0,.2,0,.4.2.5Zm8.1,0v.5c.2,0,.4-.1.4-.3Zm2.4-7.5h.5a.5.5,0,0,0-1,0Zm2.4,7.5-.4.2c0,.2.2.3.4.3Zm8.1,0,.3.4c.2-.1.2-.3.2-.5a.7.7,0,0,0-.5-.4Z" transform="translate(-6508 -447.6)" fill="#484848"/>
</svg>
