<svg width="281" height="137" viewBox="0 0 281 137" fill="none" xmlns="http://www.w3.org/2000/svg">
<g clip-path="url(#clip0_1_17)">
<path fill-rule="evenodd" clip-rule="evenodd" d="M280.58 124.5H266.58L264.48 113C263.32 106.68 261.82 97.9 261.13 93.5C260.44 89.1 259.53 82.57 259.13 79C258.73 75.43 257.84 69.8 257.23 66.5C256.62 63.2 255.64 57.35 255.05 53.5C254.46 49.65 253.53 42.9 253 38.5C252.602 34.7952 251.96 31.1207 251.08 27.5C250.174 23.7126 249.509 19.8716 249.09 16C248.658 11.8786 247.973 7.7876 247.04 3.75L245.95 0H217.18L215.58 5.52C214.69 8.52 213.58 12.95 213.09 15.27C212.6 17.59 211.46 22.65 210.53 26.5C209.6 30.35 208.39 35.75 207.82 38.5C207.25 41.25 203.04 58.62 201.87 62.84C200.7 67.06 199.39 70.84 199 71.33C198.61 71.82 197.77 69.54 197.15 66.33C196.53 63.12 195.31 57.57 194.45 54C193.59 50.43 192.28 44.8 191.54 41.5C190.8 38.2 189.47 32.8 188.54 29.5C187.61 26.2 186.25 21.21 185.46 18.41C184.67 15.61 183.29 7.25 182.46 4.68L180.85 0H166.42C155.74 0 151.87 0.33 151.58 1.25C151.36 1.94 150.69 5.25 150.09 8.5C149.49 11.75 148.57 18.1 148.03 22.5C147.49 26.9 146.62 32.5 146.11 35C145.6 37.5 144.9 42 144.56 45C144.263 47.8668 143.755 50.7079 143.04 53.5C142.164 57.2902 141.523 61.1308 141.12 65C140.57 69.68 139.43 77.55 138.59 82.5C137.75 87.45 136.59 95.32 135.98 100C135.37 104.68 134.45 110.24 133.89 112.36L133.23 116.74L132.04 123.53L120.97 124.74H120.57C103.237 124.847 85.9033 124.92 68.57 124.96C47.43 125.007 26.29 125.007 5.15 124.96L2.57 130.4C1.58834 132.344 0.729977 134.348 0 136.4C0 136.71 36 136.96 79.91 136.96H159.81L160.43 131.71C160.77 128.82 161.75 121.28 162.61 114.96C163.47 108.64 165.04 98.32 166.04 92C167.04 85.68 168.2 77.43 168.55 73.67C168.9 69.91 169.42 67.09 169.71 67.38C170.369 68.7521 170.834 70.2095 171.09 71.71C171.55 73.79 172.57 78.43 173.35 82C174.13 85.57 175.35 90.75 175.99 93.5C176.63 96.25 177.9 101.2 178.74 104.5C179.58 107.8 180.92 113.43 181.74 117C182.56 120.57 183.74 126.43 184.39 130L185.55 136.5L198.8 136.78C208.91 136.99 212.13 136.78 212.39 135.78C212.58 135.08 213.73 130 214.94 124.5C216.15 119 217.64 112.7 218.23 110.5C218.82 108.3 219.92 103.57 220.69 100C221.46 96.43 222.5 91.32 223.01 88.65C223.52 85.98 224.36 82.38 224.89 80.65C225.594 78.0198 226.132 75.3478 226.5 72.65C227.05 68.65 227.39 68.03 228.58 69.02C229.44 69.73 230.01 72.02 230.01 74.83C230.196 79.0679 230.674 83.2879 231.44 87.46C232.23 91.86 233.44 99.46 234.05 104.46C234.66 109.46 235.61 116.61 236.05 120.46C236.355 123.816 236.833 127.153 237.48 130.46C237.89 132.46 238.3 134.12 238.59 135.21L280.71 136.86L280.58 124.5Z" />
<path fill-rule="evenodd" clip-rule="evenodd" d="M115.83 34.38C114.03 29.38 111.5 23.91 110.19 22.16C107.646 19.1751 104.852 16.4118 101.84 13.9C96.95 9.75 94.37 8.63 87.53 7.63C82.95 7 69.04 6.42 56.63 6.4H34.04V116.6L61.84 116.02C84.63 115.55 90.65 115.02 95.2 113.12C98.29 111.82 103.56 107.71 107.08 103.87C111.213 99.4917 114.339 94.2631 116.24 88.55C118.62 81.49 119.08 77.16 119.08 61.78C119.1 45.46 118.73 42.38 115.83 34.38ZM87.17 84.38C85.5126 87.1056 82.8936 89.1108 79.83 90C76.258 90.9212 72.5886 91.4113 68.9 91.46H62.84V59.17C62.84 28 62.04 28.5 65.23 29.08C67.54 29.5 69.04 29.5 72.04 30C74.35 30.48 77.83 32.19 80.27 33.35C83.0459 34.8252 85.4157 36.9615 87.17 39.57C89.31 43.08 89.66 46.31 89.66 61.98C89.66 77.65 89.31 80.89 87.17 84.4V84.38Z" fill="#FF0000"/>
</g>
<defs>
<clipPath id="clip0_1_17">
<rect width="280.73" height="137" fill="white"/>
</clipPath>
</defs>
</svg>
