<svg xmlns="http://www.w3.org/2000/svg" viewBox="0 0 21 21.56"><defs><style>.cls-1{fill:#212121;}</style></defs><title>configuracion</title><g id="Capa_2" data-name="Capa 2"><g id="Capa_1-2" data-name="Capa 1"><circle class="cls-1" cx="10.5" cy="10.78" r="2.25"/><path class="cls-1" d="M-2125.25,1873.45a3.76,3.76,0,0,1-.71,2,3.71,3.71,0,0,1-1.69,1.31,3.74,3.74,0,0,1-2.12.17,3.66,3.66,0,0,1-1.88-1,3.67,3.67,0,0,1-1-1.87,3.77,3.77,0,0,1,.17-2.13,3.77,3.77,0,0,1,1.31-1.69,3.67,3.67,0,0,1,2-.7,3.6,3.6,0,0,1,1.53.25,3.73,3.73,0,0,1,1.3.84,3.6,3.6,0,0,1,.84,1.3A3.83,3.83,0,0,1-2125.25,1873.45Zm6.3,1.88h0l-1.48-1.16a.74.74,0,0,1-.22-.28.84.84,0,0,1-.07-.35V1873a.84.84,0,0,1,.07-.35.82.82,0,0,1,.22-.27l1.48-1.16,0,0a1.22,1.22,0,0,0,.43-.75,1.27,1.27,0,0,0-.15-.85l-2-3.46h0a1.28,1.28,0,0,0-.67-.54,1.24,1.24,0,0,0-.85,0h0l-1.74.7a.83.83,0,0,1-.35,0,.81.81,0,0,1-.33-.11c-.15-.1-.31-.19-.47-.28a.61.61,0,0,1-.25-.23.8.8,0,0,1-.13-.32l-.26-1.86v0a1.27,1.27,0,0,0-.43-.74,1.31,1.31,0,0,0-.81-.29h-4a1.29,1.29,0,0,0-.82.3,1.29,1.29,0,0,0-.42.75v0l-.26,1.86a1,1,0,0,1-.12.32,1,1,0,0,1-.26.23c-.16.08-.32.18-.47.27a.76.76,0,0,1-.33.11.7.7,0,0,1-.35,0l-1.74-.7h0a1.27,1.27,0,0,0-.86,0,1.32,1.32,0,0,0-.67.54h0l-2,3.47a1.27,1.27,0,0,0-.15.85,1.25,1.25,0,0,0,.43.75l0,0,1.48,1.16a.71.71,0,0,1,.22.27.84.84,0,0,1,.07.35v.54a.84.84,0,0,1-.07.35.73.73,0,0,1-.22.27l-1.48,1.16,0,0a1.25,1.25,0,0,0-.43.75,1.27,1.27,0,0,0,.15.85l2,3.46h0a1.24,1.24,0,0,0,.67.54,1.19,1.19,0,0,0,.85,0h0l1.74-.7a.68.68,0,0,1,.34-.06.82.82,0,0,1,.34.12l.46.27a.73.73,0,0,1,.26.23.79.79,0,0,1,.13.33l.26,1.85v0a1.35,1.35,0,0,0,.44.74,1.26,1.26,0,0,0,.81.29h4a1.24,1.24,0,0,0,.82-.3,1.26,1.26,0,0,0,.42-.75v0l.26-1.86a.79.79,0,0,1,.13-.33.79.79,0,0,1,.25-.23,4.39,4.39,0,0,0,.47-.27.81.81,0,0,1,.33-.11.83.83,0,0,1,.35,0l1.74.7h0a1.24,1.24,0,0,0,.85,0,1.28,1.28,0,0,0,.67-.54h0l2-3.47a1.25,1.25,0,0,0,.15-.85A1.25,1.25,0,0,0-2118.95,1875.33Z" transform="translate(2139.5 -1862.49)"/></g></g></svg>