<svg xmlns="http://www.w3.org/2000/svg" viewBox="0 0 20 19"><defs><style>.cls-1{fill:#212121;}</style></defs><title>delivery</title><g id="Capa_2" data-name="Capa 2"><g id="Capa_1-2" data-name="Capa 1"><path class="cls-1" d="M-2122,1677.27h-16v-6h5.08l-2.08,2.83,1.62,1.17,2.38-3.24,1-1.36,1,1.36,2.38,3.24,1.62-1.17-2.08-2.83h5.08Zm0,5h-16v-2h16Zm-11-15a1,1,0,0,1,1,1,1,1,0,0,1-1,1,1,1,0,0,1-1-1A1,1,0,0,1-2133,1667.27Zm6,0a1,1,0,0,1,1,1,1,1,0,0,1-1,1,1,1,0,0,1-1-1A1,1,0,0,1-2127,1667.27Zm5,2h-2.18a3,3,0,0,0,.18-1,3,3,0,0,0-3-3,3,3,0,0,0-2.5,1.35l-.5.67-.5-.68a3,3,0,0,0-2.5-1.34,3,3,0,0,0-3,3,3,3,0,0,0,.18,1H-2138a2,2,0,0,0-2,2v11a2,2,0,0,0,2,2h16a2,2,0,0,0,2-2v-11A2,2,0,0,0-2122,1669.27Z" transform="translate(2140 -1665.27)"/></g></g></svg>