<svg xmlns="http://www.w3.org/2000/svg" viewBox="0 0 21 16.5"><defs><style>.cls-1{fill:#212121;}</style></defs><title>mensajeria</title><g id="Capa_2" data-name="Capa 2"><g id="Capa_1-2" data-name="Capa 1"><path class="cls-1" d="M-2121.79,1737.36l-6.75,5.25a.7.7,0,0,1-.46.16.7.7,0,0,1-.46-.16l-6.75-5.25a.7.7,0,0,1-.2-.22.66.66,0,0,1-.09-.28.7.7,0,0,1,0-.29.68.68,0,0,1,.13-.27,1,1,0,0,1,.22-.19.76.76,0,0,1,.28-.09,1,1,0,0,1,.3,0,.94.94,0,0,1,.26.14l6.29,4.89,6.29-4.89a.77.77,0,0,1,.55-.15.74.74,0,0,1,.49.29.76.76,0,0,1,.16.55A.79.79,0,0,1-2121.79,1737.36Zm.67-4.34h-15.76a2.63,2.63,0,0,0-1.85.77,2.63,2.63,0,0,0-.77,1.86v11.25a2.63,2.63,0,0,0,.77,1.85,2.63,2.63,0,0,0,1.85.77h15.76a2.63,2.63,0,0,0,1.85-.77,2.63,2.63,0,0,0,.77-1.85v-11.25a2.63,2.63,0,0,0-.77-1.86A2.63,2.63,0,0,0-2121.12,1733Z" transform="translate(2139.5 -1733.02)"/></g></g></svg>