<svg xmlns="http://www.w3.org/2000/svg" viewBox="0 0 20 13"><defs><style>.cls-1{fill:#212121;}</style></defs><title>transporte</title><g id="Capa_2" data-name="Capa 2"><g id="Capa_1-2" data-name="Capa 1"><path class="cls-1" d="M-2123.53,1614.27a2.5,2.5,0,0,1-2.5-2.5,2.5,2.5,0,0,1,2.5-2.5,2.5,2.5,0,0,1,2.5,2.5A2.5,2.5,0,0,1-2123.53,1614.27Zm-8.63-1.74a2.49,2.49,0,0,1-2.37,1.74,2.5,2.5,0,0,1-2.5-2.5,2.5,2.5,0,0,1,2.5-2.5,2.49,2.49,0,0,1,2.37,1.75H-2135v1.5Zm8.66-5.26h-.08l-4-4H-2132v2h3.59l2,2h-8.1a4.5,4.5,0,0,0-4.49,4.5,4.49,4.49,0,0,0,4.5,4.5,4.49,4.49,0,0,0,4.42-3.73l2.12-1.27a4.21,4.21,0,0,0,0,.5,4.49,4.49,0,0,0,4.5,4.5,4.49,4.49,0,0,0,4.5-4.5A4.49,4.49,0,0,0-2123.5,1607.27Z" transform="translate(2139 -1603.27)"/></g></g></svg>