<svg xmlns="http://www.w3.org/2000/svg" viewBox="0 0 141.73 141.73"><defs><style>.cls-1{fill:#c31c37;}.cls-2{fill:#fff;}</style></defs><title>Recurso 67</title><g id="Capa_2" data-name="Capa 2"><g id="Capa_1-2" data-name="Capa 1"><rect class="cls-1" width="141.73" height="141.73" rx="34.98"/><path class="cls-2" d="M100.92,32.16H98.14v-3a6.76,6.76,0,1,0-13.51,0v3H77.7v-3a6.76,6.76,0,1,0-13.51,0v3H57.26v-3a6.75,6.75,0,1,0-13.5,0v3H40.21A10.77,10.77,0,0,0,29.46,42.9v60.71a10.77,10.77,0,0,0,10.75,10.75h60.71a10.77,10.77,0,0,0,10.75-10.75V42.9A10.76,10.76,0,0,0,100.92,32.16Zm-13.79-5C87.13,25.38,89,24,91.38,24s4.26,1.42,4.26,3.17V39.51c0,1.74-1.91,3.16-4.26,3.16s-4.25-1.42-4.25-3.16Zm-20.43,0C66.7,25.38,68.6,24,71,24s4.25,1.42,4.25,3.17V39.51c0,1.74-1.91,3.16-4.25,3.16s-4.25-1.42-4.25-3.16Zm-20.44,0c0-1.75,1.9-3.17,4.25-3.17s4.25,1.42,4.25,3.17V39.51c0,1.74-1.91,3.16-4.25,3.16s-4.25-1.42-4.25-3.16Zm62.08,75.4a8.51,8.51,0,0,1-8.5,8.51H41.29a8.51,8.51,0,0,1-8.51-8.51V45h75.56Z"/><rect class="cls-2" x="41.47" y="59.16" width="11.62" height="10.34"/><rect class="cls-2" x="56.99" y="59.16" width="11.63" height="10.34"/><rect class="cls-2" x="72.51" y="59.16" width="11.62" height="10.34"/><rect class="cls-2" x="88.03" y="59.16" width="11.63" height="10.34"/><rect class="cls-2" x="41.47" y="72.97" width="11.62" height="10.34"/><rect class="cls-2" x="56.99" y="72.97" width="11.63" height="10.34"/><rect class="cls-2" x="72.51" y="72.97" width="11.62" height="10.34"/><rect class="cls-2" x="88.03" y="72.97" width="11.63" height="10.34"/><rect class="cls-2" x="41.47" y="86.77" width="11.62" height="10.34"/><rect class="cls-2" x="56.99" y="86.77" width="11.63" height="10.34"/><rect class="cls-2" x="72.51" y="86.77" width="11.62" height="10.34"/><rect class="cls-2" x="88.03" y="86.77" width="11.63" height="10.34"/></g></g></svg>