<svg xmlns="http://www.w3.org/2000/svg" viewBox="0 0 75.59 75.59">
	<g id="Capa_2" data-name="Capa 2">
		<g id="Capa_1-2" data-name="Capa 1">
			<path d="M69.92,28.35H67.84a1.87,1.87,0,0,1-1.75-1.22c-.23-.61-.48-1.2-.74-1.79a1.87,1.87,0,0,1,.38-2.11l1.48-1.48a5.69,5.69,0,0,0,0-8L61.86,8.4a5.69,5.69,0,0,0-8,0L52.36,9.88a1.86,1.86,0,0,1-2.11.38c-.58-.27-1.17-.52-1.78-.76a1.86,1.86,0,0,1-1.23-1.75V5.67A5.67,5.67,0,0,0,41.57,0H34a5.67,5.67,0,0,0-5.67,5.67V7.75A1.87,1.87,0,0,1,27.13,9.5c-.61.23-1.2.48-1.79.74a1.87,1.87,0,0,1-2.11-.38L21.75,8.38a5.69,5.69,0,0,0-8,0L8.4,13.74a5.69,5.69,0,0,0,0,8l1.48,1.48a1.87,1.87,0,0,1,.38,2.11c-.27.59-.52,1.18-.75,1.79a1.87,1.87,0,0,1-1.76,1.22H5.67A5.67,5.67,0,0,0,0,34v7.55a5.67,5.67,0,0,0,5.67,5.67H7.75A1.87,1.87,0,0,1,9.5,48.46c.23.61.48,1.2.74,1.79a1.87,1.87,0,0,1-.38,2.11L8.38,53.84a5.69,5.69,0,0,0,0,8l5.34,5.34a5.7,5.7,0,0,0,8,0l1.48-1.48a1.88,1.88,0,0,1,2.11-.38c.58.27,1.17.52,1.78.76a1.86,1.86,0,0,1,1.24,1.75v2.08A5.67,5.67,0,0,0,34,75.59h7.55a5.67,5.67,0,0,0,5.67-5.67V67.84a1.87,1.87,0,0,1,1.22-1.75c.61-.23,1.2-.48,1.79-.74a1.87,1.87,0,0,1,2.11.38l1.48,1.48a5.69,5.69,0,0,0,8,0l5.34-5.34a5.69,5.69,0,0,0,0-8l-1.48-1.49a1.86,1.86,0,0,1-.38-2.11c.27-.58.52-1.17.76-1.78a1.87,1.87,0,0,1,1.75-1.23h2.08a5.67,5.67,0,0,0,5.67-5.67V34A5.67,5.67,0,0,0,69.92,28.35Zm1.89,13.22a1.89,1.89,0,0,1-1.89,1.89H67.84a5.7,5.7,0,0,0-5.29,3.66c-.2.53-.42,1.05-.65,1.56A5.69,5.69,0,0,0,63,55l1.48,1.48a1.9,1.9,0,0,1,0,2.68h0l-5.34,5.34a1.88,1.88,0,0,1-2.67,0L55,63a5.68,5.68,0,0,0-6.34-1.14c-.52.24-1,.45-1.56.65a5.7,5.7,0,0,0-3.66,5.29v2.08a1.89,1.89,0,0,1-1.89,1.89H34a1.89,1.89,0,0,1-1.89-1.89V67.84a5.68,5.68,0,0,0-3.66-5.29c-.53-.2-1-.42-1.56-.65A5.69,5.69,0,0,0,20.57,63l-1.48,1.48a1.9,1.9,0,0,1-2.68,0h0l-5.34-5.33a1.88,1.88,0,0,1,0-2.67L12.55,55a5.68,5.68,0,0,0,1.14-6.34c-.24-.51-.45-1-.65-1.56a5.7,5.7,0,0,0-5.29-3.66H5.67a1.89,1.89,0,0,1-1.89-1.89V34a1.89,1.89,0,0,1,1.89-1.89H7.75A5.68,5.68,0,0,0,13,28.47c.2-.53.42-1,.65-1.56a5.69,5.69,0,0,0-1.13-6.34l-1.49-1.48a1.9,1.9,0,0,1,0-2.68h0l5.34-5.34a1.88,1.88,0,0,1,2.67,0l1.48,1.48a5.69,5.69,0,0,0,6.35,1.14c.51-.24,1-.45,1.56-.65a5.7,5.7,0,0,0,3.66-5.29V5.67A1.89,1.89,0,0,1,34,3.78h7.55a1.89,1.89,0,0,1,1.89,1.89V7.75A5.7,5.7,0,0,0,47.12,13c.53.2,1.05.42,1.56.65A5.69,5.69,0,0,0,55,12.56l1.48-1.48a1.91,1.91,0,0,1,2.68,0l5.34,5.34a1.88,1.88,0,0,1,0,2.67L63,20.57a5.68,5.68,0,0,0-1.14,6.34c.24.52.45,1,.65,1.56a5.68,5.68,0,0,0,5.29,3.66h2.08A1.89,1.89,0,0,1,71.81,34v7.55Z" />
			<path d="M54.77,37c0-.45-.06-.91-.11-1.36s-.13-1-.23-1.43c-.07-.31-.16-.61-.24-.92a11.77,11.77,0,0,0-.36-1.15l-.28-.78a17.94,17.94,0,0,0-.84-1.77l-.06-.13A16.24,16.24,0,0,0,51,27l-.18-.2a11.4,11.4,0,0,0-.81-.89c-.14-.16-.3-.3-.45-.45s-.38-.35-.57-.51l-.7-.58-.31-.23A16.91,16.91,0,0,0,37.8,20.79c-.19,0-.38,0-.57,0-.4,0-.81,0-1.21.08l-.65.08a16.79,16.79,0,0,0-1.83.34,17,17,0,0,0,0,33l.1,0a18.7,18.7,0,0,0,2,.38c.44,0,.88.07,1.32.09s.57.05.88.05a16,16,0,0,0,1.67-.09l.19,0c.45-.05.92-.12,1.39-.22.19,0,.37-.08.55-.12s.66-.16,1-.26l.78-.26.8-.29c.27-.11.49-.22.74-.34s.63-.29.94-.46h0a22.55,22.55,0,0,0,4.85-3.49,6.3,6.3,0,0,0,1-1.24,20.24,20.24,0,0,0,2.84-7.77c.06-.36.1-.73.13-1.1s.05-.68.06-1c0-.11,0-.21,0-.32C54.8,37.54,54.78,37.3,54.77,37ZM51,38.28c0,.15,0,.31,0,.47,0,.45-.1.91-.17,1.37a13.28,13.28,0,0,1-6.64,9.26c-.24.12-.47.24-.7.34l-.16.08a13.28,13.28,0,0,1-3.44,1l-.26,0c-.23,0-.47.06-.7.09s-.61,0-.92,0H37.6a11.9,11.9,0,0,1-1.34-.08l-.23,0a13.47,13.47,0,0,1-1.54-.29,13.23,13.23,0,0,1,0-25.63h0a13.86,13.86,0,0,1,3.33-.41,12.32,12.32,0,0,1,1.61.11l.43.06c.41.07.81.15,1.21.25l.39.1a13.73,13.73,0,0,1,2.88,1.21l.43.26a10.33,10.33,0,0,1,.87.6l.46.34a11.86,11.86,0,0,1,1.06.94c.14.14.26.29.39.43s.43.48.63.73l.41.54c.19.28.38.56.55.85l.28.47a12.36,12.36,0,0,1,.65,1.38c.08.19.14.38.21.57.12.35.23.7.32,1.05.05.19.1.36.14.54A13.49,13.49,0,0,1,51,36.55c0,.14,0,.28,0,.42A11.42,11.42,0,0,1,51,38.28Z" />
		</g>
	</g>
</svg>
