<svg xmlns="http://www.w3.org/2000/svg" viewBox="0 0 141.73 141.69">
	<g id="Capa_2" data-name="Capa 2">
		<g id="Capa_1-2" data-name="Capa 1">
			<path d="M136.7,19.59a5.52,5.52,0,0,0-6,5v0l-.8,8A69.9,69.9,0,0,0,8.4,38.39a5.6,5.6,0,0,0,9.9,5.1,58.91,58.91,0,0,1,102.4-4.9L112.8,33a5.51,5.51,0,0,0-7.69,1.19h0a5.6,5.6,0,0,0,1.3,7.8l23.9,17.1a5.5,5.5,0,0,0,8.7-4l2.7-29.5a5.5,5.5,0,0,0-4.95-6Z" />
			<path d="M130.9,95.79a5.71,5.71,0,0,0-7.5,2.5,58.7,58.7,0,0,1-102.3,4.8l7.8,5.7a5.6,5.6,0,1,0,7.7-8.13,5.75,5.75,0,0,0-1.2-.87l-24-17.1a5.51,5.51,0,0,0-8.7,4L0,116.19a5.6,5.6,0,0,0,11.1,1l.7-8.1a69.89,69.89,0,0,0,121.5-5.8A5.6,5.6,0,0,0,130.9,95.79Z" />
		</g>
	</g>
</svg>
