<svg xmlns="http://www.w3.org/2000/svg" viewBox="0 0 141.73 141.73">
	<defs>
		<style>
			.cls-2{fill:#fff;}
		</style>
	</defs>
	<title>
		reloadbox
	</title>
	<g id="Capa_2" data-name="Capa 2">
		<g id="Capa_1-2" data-name="Capa 1">
			<rect width="141.73" height="141.73" rx="34.98" />
			<path class="cls-2" d="M117,35a3.85,3.85,0,0,0-4.19,3.47v0l-.56,5.6a48.93,48.93,0,0,0-85,4.06,3.92,3.92,0,0,0,6.93,3.57,41.22,41.22,0,0,1,71.68-3.43l-5.53-3.92a3.84,3.84,0,0,0-5.38.83h0a3.93,3.93,0,0,0,.91,5.46l16.73,12a3.84,3.84,0,0,0,5.38-.87,3.72,3.72,0,0,0,.71-1.93l1.89-20.65A3.84,3.84,0,0,0,117,35Z" />
			<path class="cls-2" d="M112.89,88.33a4,4,0,0,0-5.25,1.75A41.09,41.09,0,0,1,36,93.44l5.46,4A3.92,3.92,0,1,0,46,91.13l-16.8-12a3.87,3.87,0,0,0-5.38.87A3.94,3.94,0,0,0,23.15,82l-1.89,20.65a3.92,3.92,0,0,0,7.77.7l.49-5.67a48.92,48.92,0,0,0,85.05-4.06A3.91,3.91,0,0,0,112.89,88.33Z" />
		</g>
	</g>
</svg>
