<svg xmlns="http://www.w3.org/2000/svg" viewBox="0 0 141.73 141.73">
	<title>
		tarifa
	</title>
	<g id="Capa_2" data-name="Capa 2">
		<g id="Capa_1-2" data-name="Capa 1">
			<rect class="cls-1" fill="#4e56a2" width="141.73" height="141.73" rx="34.98" />
			<path class="cls-2" fill="#ffffff" d="M44.86,115.42c6.23,0,16.78-1.15,16.78-5.45v-9.53c0-.11,0-.22,0-.33a1.43,1.43,0,0,0,0-.29V58.69c0-4.3-10.55-5.45-16.78-5.45s-16.79,1.15-16.79,5.45V110c0,4.3,10.55,5.45,16.79,5.45Zm14-48.17c-.41,1-5.56,3.18-13.95,3.18-9.45,0-13.57-1.53-14.08-2.27V61.93c3.56,1.68,9.78,2.21,14,2.21s10.46-.53,14-2.21Zm-25.17,5a55.62,55.62,0,0,0,11.22,1,40,40,0,0,0,11.26-1.48,16,16,0,0,0,2.69-1.06v7.49c-.41,1-5.56,3.18-13.95,3.18-9.45,0-13.57-1.54-14.08-2.27v-7.7a16,16,0,0,0,2.86.86Zm0,10.89a54.9,54.9,0,0,0,11.22,1,40,40,0,0,0,11.26-1.47,16.9,16.9,0,0,0,2.69-1.06V89c-.41,1-5.56,3.18-13.95,3.18-9.45,0-13.57-1.53-14.08-2.27V82.26a15.92,15.92,0,0,0,2.86.85Zm0,10.9a55.62,55.62,0,0,0,11.22,1,40,40,0,0,0,11.26-1.48,16,16,0,0,0,2.69-1.06v7.63c-.56,1-5.71,3-14,2.92-9.46-.14-13.57-1.74-14.06-2.48a.76.76,0,0,0,0-.15V93.15A15.71,15.71,0,0,0,33.7,94Zm11.16,18.64c-9,0-13.57-1.91-14-2.74v-6.17a16.45,16.45,0,0,0,2.82.88,55.59,55.59,0,0,0,11.21,1.15h.72a38.92,38.92,0,0,0,10.56-1.32,15.38,15.38,0,0,0,2.72-1v6.49c-.44.83-5,2.74-14,2.74Zm0-56.64c8.82,0,13.37,1.83,14,2.68-.61.86-5.16,2.69-14,2.69s-13.37-1.83-14-2.69C31.49,57.84,36,56,44.86,56Z" />
			<path class="cls-2" fill="#ffffff" d="M33.61,49.87l.29,0,21.4-4.58a2,2,0,0,0,1.42-.86l10.5-13.21,16.89,3.59a2,2,0,0,0,1.57-.35L104.79,20l-.57,5a1.38,1.38,0,0,0,1.21,1.53h.16A1.37,1.37,0,0,0,107,25.36l.89-7.77v-.15a1.84,1.84,0,0,0-.5-1.26l-.13-.13a1.79,1.79,0,0,0-1.07-.46l-7.65-1.38a1.38,1.38,0,0,0-1.65,1,1.39,1.39,0,0,0,1.06,1.65H98l5,.92L84.32,32,67,28.33h-.14a1.93,1.93,0,0,0-1.62.87L54.64,42.57,33.32,47.14a1.38,1.38,0,0,0-1.06,1.64A1.39,1.39,0,0,0,33.61,49.87Z" />
			<path class="cls-2" fill="#ffffff" d="M100,95.28V89.56a1.84,1.84,0,0,0,0-.33,1.43,1.43,0,0,0,0-.29V47.81c0-4.3-10.55-5.45-16.78-5.45s-16.78,1.15-16.78,5.45V110c0,4.3,10.55,5.45,16.78,5.45,1.3,0,3-.14,4.33-.27A16.54,16.54,0,1,0,100,95.28Zm-10.14,6.87a53.79,53.79,0,0,1-6.59.35,56,56,0,0,1-9.91-.92c-2.93-.6-4-1.3-4.14-1.57,0,0,0-.09,0-.14v-7a15.5,15.5,0,0,0,2.83.89,56.13,56.13,0,0,0,11.2,1.15h.72a38.87,38.87,0,0,0,10.56-1.32,15.78,15.78,0,0,0,2.73-1v3.61a16.55,16.55,0,0,0-7.38,6Zm7.38-45.78c-.41,1-5.57,3.18-14,3.18-9.45,0-13.57-1.53-14.08-2.27V51c3.56,1.69,9.78,2.22,14,2.22s10.46-.53,14-2.22ZM72,61.34a55.62,55.62,0,0,0,11.22,1,40,40,0,0,0,11.26-1.48,16.45,16.45,0,0,0,2.7-1.06v7.49c-.41,1-5.57,3.18-14,3.18-9.45,0-13.57-1.54-14.08-2.27v-7.7a16.2,16.2,0,0,0,2.86.86Zm0,10.89a55.62,55.62,0,0,0,11.22,1,39.6,39.6,0,0,0,11.26-1.48,15.6,15.6,0,0,0,2.7-1.06v7.49c-.41,1-5.57,3.18-14,3.18-9.45,0-13.57-1.53-14.08-2.27V71.38A16.17,16.17,0,0,0,72,72.23Zm0,10.9a55.62,55.62,0,0,0,11.22,1,40,40,0,0,0,11.26-1.48,16.45,16.45,0,0,0,2.7-1.06v7.62c-.57,1-5.71,3-14,2.93-9.46-.14-13.56-1.74-14.06-2.48a.76.76,0,0,0,0-.15V82.27a16,16,0,0,0,2.86.86Zm11.16-38c8.82,0,13.37,1.84,14,2.69-.61.86-5.16,2.69-14,2.69s-13.37-1.83-14-2.69C69.83,47,74.37,45.12,83.2,45.12Zm0,67.53c-9,0-13.57-1.91-14-2.74v-6.68a15.5,15.5,0,0,0,2.83.89,55.48,55.48,0,0,0,11.2,1.14h.62c1.41,0,3-.07,4.42-.19A16.14,16.14,0,0,0,87,111.21c0,.41,0,.81,0,1.2-1.28.12-2.77.24-3.89.24Zm34.29-1.43a13.85,13.85,0,1,1-13.85-13.58A13.73,13.73,0,0,1,117.49,111.22Z" />
			<path class="cls-2" fill="#ffffff" d="M102.49,102v.69a4.37,4.37,0,0,0-2,1.1,5.25,5.25,0,0,0-1.45,3.74,4.38,4.38,0,0,0,1,2.76,4.86,4.86,0,0,0,2.83,1.61l.19,0,.44.08.26.08h0l0,0,.28.1h0l.24.13.16.1,0,0c.15.09,1.48.93,1.53,2.06a1.88,1.88,0,0,1-.49,1.51,3,3,0,0,1-2.12.71c-.7,0-2.13-.65-2.24-1.7a1.38,1.38,0,1,0-2.75.31h0a5,5,0,0,0,3.92,4v.52a1.38,1.38,0,1,0,2.76,0v-.58a5.26,5.26,0,0,0,2.39-1.31,4.68,4.68,0,0,0,1.29-3.59,5.69,5.69,0,0,0-2.86-4.3l0,0-.06,0-.15-.09-.37-.2-.29-.13-.26-.1-.29-.1a4.32,4.32,0,0,0-.54-.14l-.43-.09-.19,0a1.86,1.86,0,0,1-1.65-1.7,2.45,2.45,0,0,1,.62-1.72,2,2,0,0,1,1.59-.48,2.51,2.51,0,0,1,2.43,1.79,1.38,1.38,0,0,0,2.68-.66,5.26,5.26,0,0,0-3.88-3.74V102a1.38,1.38,0,1,0-2.76,0Z" />
		</g>
	</g>
</svg>
