<svg xmlns="http://www.w3.org/2000/svg" viewBox="0 0 100.9 99.3"><title>icon7Recurso 16</title><g id="Capa_2" data-name="Capa 2"><g id="Capa_1-2" data-name="Capa 1"><g id="UqwhMC"><path d="M89,52.4A42.8,42.8,0,0,0,58.5,13.8c-3.6-1.1-7.4-1.4-11.2-1.9-1.2-.2-2.8-.2-2.8,1.6s1.3,1.6,2.5,1.7h1.2A39.6,39.6,0,0,1,85.3,49a50.7,50.7,0,0,0,.5,5.6c.1.7,1.1,1.3,1.7,1.9a6.2,6.2,0,0,0,1.4-1.9A5.5,5.5,0,0,0,89,52.4ZM47.3,23.8a3.2,3.2,0,0,0-1.4,0c-.6.3-1.4.9-1.4,1.4a2.5,2.5,0,0,0,1.2,1.7c.3.2,1,.1,1.5.1,11.5.9,19.8,6.5,24.4,17.1C73,47.3,73.1,51,74,54.5c.2.7,1,1.3,1.6,2s1.1-1.3,1.5-2a3.2,3.2,0,0,0,.1-1.4C76.6,37.6,63.2,24.3,47.3,23.8Z" fill="#fff"/><path d="M0,30.1c1.3-7.8,6.1-13.4,11.6-18.6,4-3.7,8-4,12.3-.6A48.9,48.9,0,0,1,35.9,26c1.9,3.6,1,6.3-2.1,8.9a44.8,44.8,0,0,0-4,3.6c-3.1,3.1-3.4,7.1-.4,10.2,6.9,7.2,14,14.3,21.2,21.2,3.1,2.9,7,2.6,10.1-.4a50.4,50.4,0,0,0,3.7-4.2c2.5-2.9,4.9-3.8,8.3-2.1A44.8,44.8,0,0,1,89,76.2a8.1,8.1,0,0,1-.8,10.9,67.9,67.9,0,0,1-8.4,7.7c-9,6.4-18.3,5.5-27.3.1a58.8,58.8,0,0,1-11-8.3c-9.3-8.8-18.2-18-27.2-27C7.4,52.7,1.8,45,0,35.1Z" fill="#fff"/><path d="M100.9,55.7c-2.3,1.4-3.2,1-3.3-1.8A51,51,0,0,0,86.7,23.3c-10-12.5-23-19.1-39-20-1.3,0-3.3.5-3.2-1.7S46.5,0,47.8.1c26.9.4,50.3,22.2,52.7,49.2.1.5.3,1,.4,1.4Z" fill="#fff"/><path d="M89,52.4a5.5,5.5,0,0,1-.1,2.2,6.2,6.2,0,0,1-1.4,1.9c-.6-.6-1.6-1.2-1.7-1.9a50.7,50.7,0,0,1-.5-5.6A39.6,39.6,0,0,0,48.2,15.3H47c-1.2-.1-2.6-.1-2.5-1.7s1.6-1.8,2.8-1.6c3.8.5,7.6.8,11.2,1.9A42.8,42.8,0,0,1,89,52.4Z" fill="#fff"/><path d="M47.3,23.8c15.9.5,29.3,13.8,29.9,29.3a3.2,3.2,0,0,1-.1,1.4c-.4.7-1,1.3-1.5,2s-1.4-1.3-1.6-2c-.9-3.5-1-7.2-2.4-10.4C67,33.5,58.7,27.9,47.2,27c-.5,0-1.2.1-1.5-.1a2.5,2.5,0,0,1-1.2-1.7c0-.5.8-1.1,1.4-1.4A3.2,3.2,0,0,1,47.3,23.8Z" fill="#fff"/></g></g></g></svg>