<svg xmlns="http://www.w3.org/2000/svg"   viewBox="0 0 361.92 233.4"><title>glupRecurso 1adas</title><g id="Capa_2" data-name="Capa 2"><g id="Capa_1-2" data-name="Capa 1"><path d="M95,58.89c0,4.42,0,9.63,2.38,10.5,3.19,1.2,8.64-6.51,9.33-7.5,3.71-12,9-32.52,5.5-45.16-.67-2.42-2.06-7.44-4.66-7.67s-5,4.53-5.34,5.33a36,36,0,0,0-15.33-4c-41.8-1-71.1,79.16-74.33,88-7.79,21.3-19,53.18-8,88.67,3.46,11.23,9.46,30.64,28,40,12.74,6.43,31.13,8,43.66-.67,13.73-9.46,17.38-29,18.34-28.66s-7.12,14.92-1.67,27.66c.25.6,3.62,8.27,7.67,8,2.6-.17,4.53-3.56,6.33-8C112,212.87,112,202,112.58,190.73c.66-12.76,1.15-8.4,2.33-26.34.68-10.37,1.21-22.22,1.33-35.33,1-.41,6.31-2.68,6.34-5.67s-5.4-6.51-14-7.33c-4.56-.22-10.44-.47-17.34-.67-8-.23-11.22-.22-14.33,2-2.79,2-5.59,5.86-4.67,8.67,1.15,3.53,8.16,5.51,17.34,3.67q.49,19.17,1,38.33c.32,4.35.84,18.64-9,30.67-1.55,1.89-12.78,15.6-25.67,13.33-6.08-1.07-10-5.25-11.33-6.67-13.75-14.65-12.53-54.67,1.66-101,9.88-32.23,29.45-79.85,43.34-77.66,2.88.45,5.9,3.25,7.33,6C100.17,39,95,44.74,95,58.89Z" fill="#fff"/><path d="M128.91,175.06a12.42,12.42,0,0,0,6.33,3.67c1.41.3,4.14.89,6-.34,3-2,2.07-7.65,1.34-16.83-.49-6-.46-12-.84-18a262.08,262.08,0,0,1,0-27.5c.63-11.3,2.13-19.49,4.67-33.33,1.75-9.53,3-19.15,4.83-28.67,1.23-6.47,2.62-13.27-.5-20.5-.77-1.79-3.29-7.63-7.5-8-4.41-.39-8.09,5.48-9.66,8-5.94,9.48-6,19.5-6,23.17-.31,26.23-5,21.79-6,58.5-.43,14.68.52,8.1.66,31.16,0,0,0,4.4,2.34,18.17C125.18,168.16,125.9,171.94,128.91,175.06Z" fill="#fff"/><path d="M361.24,15c-.5-2.36-2.75-13.06-9.62-14.75-4.42-1.08-8.63,2.09-9,2.38C338,6.21,336.87,15,334.87,32.47c-.22,1.86-.4,3.65-.82,6.37-.82,5.35-1.56,7.86-2.18,14.63-.42,4.54-.54,7.51-1.25,12.63a131.75,131.75,0,0,1-2.88,14.62l-6.44.07-7.64.1a31.88,31.88,0,0,0,1.58-18.42c-2-8.84-8.92-20.61-20.12-22-7.61-.94-13.61,3.08-15.38,4.25a26.23,26.23,0,0,0-9.81,12.43l-.19,0c-.24-.07-.69-12-4.12-17.88-1.71-2.93-5.55-6.73-9.25-6.5-9.8.63-15.23,29.32-16,33.38-3.85,20.33.68,23.87-2.88,41.75S225,144.92,219.62,144.1c-4.6-.71-7.6-16.56-5.38-29.75,1.36-8.07,3.48-8.09,5.25-18.13,1.56-8.81,3.15-18.64-2.5-26.62-1.1-1.57-5.61-7.93-10.75-7.38-10.49,1.14-15.07,30.19-15.5,33-1.66,11.06.23,12.31-2,21.13-3.22,12.77-11.29,26.38-16.12,25.37-4-.83-6.57-12-5-20.75,1-5.56,3.15-7.5,4.75-16.25a44.06,44.06,0,0,0,1-10.87c-.42-7.91-3.8-18.92-8.63-19.38-3.86-.36-7.4,6.19-9.33,9.75-3.46,6.4-4.32,11.81-5.83,34.84-.86,13-.87,15.63.83,19.33,1,2.08,5.3,10.69,14.67,12.5,7.06,1.36,13.87-1.74,17.83-5.67,5.37-5.32,5.67-12.33,8-12.16,1.6.11,1.82,3.44,3.67,6.83,4.24,7.8,15.3,12.7,23.5,11.33,10.87-1.8,15.74-14.46,18.16-13.16s-5.85,13.94-2,28.16c2.32,8.56,9.13,17.69,15,17,3-.34,5-3.14,5.84-4.33,4.1-5.73,2.88-12.86,2.33-17.5a105.5,105.5,0,0,1,1-30.17,29.48,29.48,0,0,0,16.33,1.63c8.95-1.81,14.32-7.77,19.88-14.13a85.89,85.89,0,0,0,17.25-31.25,10.82,10.82,0,0,1,.29-1.33s0,0,0,.13l15,.83c0,1.43-.11,3.76-.29,6.62-1.84,28.17-10.1,38.61-5.34,54.38.65,2.15,3.11,10.3,8,11,2.81.4,5.26-1.82,5.88-2.38,6.28-5.68,4.86-17,4.5-20.75-.57-5.81,3.12-21.71,10.5-53.5,4.17-18,6.89-36.24,10.87-54.25A32.11,32.11,0,0,0,361.24,15Zm-81.5,97.59c-2,3.77-5.5,10.43-9.66,10-2.1-.22-3.84-2.18-4.5-4-1.46-4,1.93-8.27,4.5-11.5,3.88-4.9,11.13-11.48,13.5-9.84S282,108.28,279.74,112.56Zm11.5-39.17c-.41,7-.61,10.46-1.83,12.33-2.26,3.47-4.85,3.06-14.33,7.67-9,4.36-11,6.85-12.5,5.83-3.36-2.29,3.4-17.45,5.5-22.16,4.9-11,14.91-29.55,19.66-28,1.68.55,2.18,3.7,3.17,10A61.31,61.31,0,0,1,291.24,73.39Z" fill="#fff"/><path d="M315.16,172.14c.11-.36,1.91-6,7.5-7.25a10.52,10.52,0,0,1,8.75,2.25c3.33,2.91,4.45,7.9,2.75,11.5-1.24,2.62-3.64,3.82-6,5s-4.82,2.41-7.25,1.75C316.58,184.22,313.52,177.59,315.16,172.14Z" fill="#fff"/><path d="M58.66,46.58A4,4,0,0,1,59,46.2c.64-.63,1.82-1.3,2.68-1,1.17.41,1.39,2.51,1.12,3.87-.18,1-.86,2.8-2.06,2.88-1,.07-2.34-1.23-2.62-3.25" fill="#fff"/></g></g></svg>