<svg xmlns="http://www.w3.org/2000/svg" viewBox="0 0 14.63 14.63"><defs><style>.cls-1{fill:#484848;}</style></defs><title>relojHora</title><g id="Capa_2" data-name="Capa 2"><g id="Capa_1-2" data-name="Capa 1"><path class="cls-1" d="M1687.88,3013.39h-3.38a.55.55,0,0,1-.56-.56v-5.06a.59.59,0,0,1,.16-.4.58.58,0,0,1,.8,0,.59.59,0,0,1,.16.4v4.5h2.82a.57.57,0,0,1,.39.16.56.56,0,0,1,0,.8A.57.57,0,0,1,1687.88,3013.39Zm-3.38-8.43a7.31,7.31,0,1,0,7.31,7.31A7.31,7.31,0,0,0,1684.5,3005Z" transform="translate(-1677.19 -3004.96)"/></g></g></svg>