<svg xmlns="http://www.w3.org/2000/svg" viewBox="0 0 19.5 19.5"><defs><style>.cls-1{fill:#fff;}</style></defs><title>addicon</title><g id="Capa_2" data-name="Capa 2"><g id="Capa_1-2" data-name="Capa 1"><path class="cls-1" d="M-1942.46,3366.48h-3v3a.75.75,0,0,1-.22.53.75.75,0,0,1-.53.22.75.75,0,0,1-.53-.22.75.75,0,0,1-.22-.53v-3h-3a.75.75,0,0,1-.53-.22.75.75,0,0,1-.22-.53.75.75,0,0,1,.22-.53.75.75,0,0,1,.53-.22h3v-3a.75.75,0,0,1,.22-.53.75.75,0,0,1,.53-.22.75.75,0,0,1,.53.22.75.75,0,0,1,.22.53v3h3a.75.75,0,0,1,.53.22.75.75,0,0,1,.22.53.75.75,0,0,1-.22.53A.75.75,0,0,1-1942.46,3366.48Zm-3.75-10.5a9.76,9.76,0,0,0-9.75,9.75,9.76,9.76,0,0,0,9.75,9.75,9.76,9.76,0,0,0,9.75-9.75A9.76,9.76,0,0,0-1946.21,3356Z" transform="translate(1955.96 -3355.98)"/></g></g></svg>