<svg width="40" height="41" viewBox="0 0 40 41" fill="none" xmlns="http://www.w3.org/2000/svg">
    <path d="M18.1641 1.23173C19.3281 0.690985 20.6719 0.690985 21.8359 1.23173L38.9141 9.14702C39.5781 9.45266 40 10.1188 40 10.8555C40 11.5921 39.5781 12.2583 38.9141 12.5639L21.8359 20.4792C20.6719 21.0199 19.3281 21.0199 18.1641 20.4792L1.08594 12.5639C0.421875 12.2504 0 11.5843 0 10.8555C0 10.1266 0.421875 9.45266 1.08594 9.14702L18.1641 1.23173ZM34.7578 17.2504L38.9141 19.1783C39.5781 19.4839 40 20.15 40 20.8867C40 21.6234 39.5781 22.2895 38.9141 22.5952L21.8359 30.5104C20.6719 31.0512 19.3281 31.0512 18.1641 30.5104L1.08594 22.5952C0.421875 22.2817 0 21.6156 0 20.8867C0 20.1579 0.421875 19.4839 1.08594 19.1783L5.24219 17.2504L17.1172 22.7519C18.9453 23.5983 21.0547 23.5983 22.8828 22.7519L34.7578 17.2504ZM22.8828 32.7832L34.7578 27.2816L38.9141 29.2095C39.5781 29.5152 40 30.1813 40 30.918C40 31.6546 39.5781 32.3208 38.9141 32.6264L21.8359 40.5417C20.6719 41.0824 19.3281 41.0824 18.1641 40.5417L1.08594 32.6264C0.421875 32.3129 0 31.6468 0 30.918C0 30.1891 0.421875 29.5152 1.08594 29.2095L5.24219 27.2816L17.1172 32.7832C18.9453 33.6295 21.0547 33.6295 22.8828 32.7832Z" fill="white"/>
    </svg>
    