<svg width="28" height="29" viewBox="0 0 28 29" fill="none" xmlns="http://www.w3.org/2000/svg">
<path fill-rule="evenodd" clip-rule="evenodd" d="M28 6.90805H0C0 5.17457 1.39514 3.7652 3.11111 3.7652H24.8889C26.6049 3.7652 28 5.17457 28 6.90805ZM0 22.6223V8.47948H28V22.6223C28 24.3558 26.6049 25.7652 24.8889 25.7652H3.11111C1.39514 25.7652 0 24.3558 0 22.6223ZM17.8889 11.6223C17.4611 11.6223 17.1111 11.9759 17.1111 12.4081C17.1111 12.8402 17.4611 13.1938 17.8889 13.1938H24.1111C24.5389 13.1938 24.8889 12.8402 24.8889 12.4081C24.8889 11.9759 24.5389 11.6223 24.1111 11.6223H17.8889ZM17.8889 14.7652C17.4611 14.7652 17.1111 15.1188 17.1111 15.5509C17.1111 15.9831 17.4611 16.3366 17.8889 16.3366H24.1111C24.5389 16.3366 24.8889 15.9831 24.8889 15.5509C24.8889 15.1188 24.5389 14.7652 24.1111 14.7652H17.8889ZM17.8889 17.9081C17.4611 17.9081 17.1111 18.2616 17.1111 18.6938C17.1111 19.1259 17.4611 19.4795 17.8889 19.4795H24.1111C24.5389 19.4795 24.8889 19.1259 24.8889 18.6938C24.8889 18.2616 24.5389 17.9081 24.1111 17.9081H17.8889ZM15 11H2V20H15V11Z" fill="#666666"/>
<mask id="path-2-inside-1_2892_4451" fill="white">
<path d="M7.8125 12.0016C7.58391 12.0016 7.4 12.1687 7.4 12.3765C7.4 12.5842 7.58391 12.7514 7.8125 12.7514H8.80422L9.08609 13.2247L7.4 14.501L6.62141 13.7933C6.41516 13.6059 6.135 13.5012 5.84281 13.5012H4.1C3.79578 13.5012 3.55 13.7246 3.55 14.0011V14.501H5.2C6.71937 14.501 7.95 15.6195 7.95 17.0004C7.95 17.1723 7.93109 17.3394 7.895 17.5003H9.105C9.06891 17.3394 9.05 17.1723 9.05 17.0004C9.05 16.185 9.47969 15.4602 10.1448 15.004L10.4095 15.4508C9.91625 15.8179 9.6 16.3756 9.6 17.0004C9.6 18.1049 10.5848 19 11.8 19C13.0152 19 14 18.1049 14 17.0004C14 15.896 13.0152 15.0009 11.8 15.0009C11.568 15.0009 11.3445 15.0337 11.1348 15.0946L10.1878 13.5012H11.25C11.5542 13.5012 11.8 13.2778 11.8 13.0013V12.5015C11.8 12.2249 11.5542 12.0016 11.25 12.0016H10.8994C10.7705 12.0016 10.6467 12.0422 10.547 12.1172L9.73234 12.7342L9.49172 12.3281C9.37141 12.1265 9.13937 12 8.88672 12H7.8125V12.0016ZM10.9527 16.3631L11.4373 17.1785C11.5456 17.3613 11.7966 17.4285 11.9959 17.3301C12.1953 17.2316 12.2709 17.0036 12.1627 16.8224L11.678 16.0069C11.7175 16.0022 11.7587 16.0007 11.8 16.0007C12.4067 16.0007 12.9 16.449 12.9 17.0004C12.9 17.5519 12.4067 18.0002 11.8 18.0002C11.1933 18.0002 10.7 17.5519 10.7 17.0004C10.7 16.7583 10.7945 16.5365 10.9527 16.3631ZM6.21922 17.3754C6.05594 17.7425 5.66062 18.0002 5.2 18.0002C4.59328 18.0002 4.1 17.5519 4.1 17.0004C4.1 16.449 4.59328 16.0007 5.2 16.0007C5.66234 16.0007 6.05766 16.2584 6.21922 16.6255H7.36047C7.16797 15.7007 6.27422 15.0009 5.2 15.0009C3.98484 15.0009 3 15.896 3 17.0004C3 18.1049 3.98484 19 5.2 19C6.27422 19 7.16797 18.3002 7.36219 17.3754H6.21922ZM5.2 17.5003C5.34587 17.5003 5.48576 17.4477 5.58891 17.3539C5.69205 17.2602 5.75 17.133 5.75 17.0004C5.75 16.8679 5.69205 16.7407 5.58891 16.647C5.48576 16.5532 5.34587 16.5006 5.2 16.5006C5.05413 16.5006 4.91424 16.5532 4.81109 16.647C4.70795 16.7407 4.65 16.8679 4.65 17.0004C4.65 17.133 4.70795 17.2602 4.81109 17.3539C4.91424 17.4477 5.05413 17.5003 5.2 17.5003Z"/>
</mask>
<path d="M7.8125 12.0016V32.0016H27.8125V12.0016H7.8125ZM8.80422 12.7514L25.988 2.51824L20.1717 -7.24861H8.80422V12.7514ZM9.08609 13.2247L21.1568 29.1714L35.4275 18.3693L26.2699 2.99157L9.08609 13.2247ZM7.4 14.501L-6.05181 29.3013L6.23366 40.4674L19.4707 30.4477L7.4 14.501ZM6.62141 13.7933L20.0732 -1.00695L6.62141 13.7933ZM3.55 14.501H-16.45V34.501H3.55V14.501ZM7.895 17.5003L-11.62 13.1227L-17.0885 37.5003H7.895V17.5003ZM9.105 17.5003V37.5003H34.0885L28.62 13.1227L9.105 17.5003ZM10.1448 15.004L27.3518 4.80991L16.4587 -13.577L-1.16642 -1.49009L10.1448 15.004ZM10.4095 15.4508L22.35 31.4953L36.7933 20.7464L27.6165 5.25669L10.4095 15.4508ZM11.1348 15.0946L-6.05773 25.313L1.85075 38.6191L16.715 34.3004L11.1348 15.0946ZM10.1878 13.5012V-6.49877H-24.965L-7.00476 23.7196L10.1878 13.5012ZM10.547 12.1172L-1.47529 -3.86607L-1.50188 -3.84607L-1.52841 -3.82598L10.547 12.1172ZM9.73234 12.7342L-7.47464 22.9283L3.94615 42.2059L21.8078 28.6774L9.73234 12.7342ZM9.49172 12.3281L26.6987 2.13396L26.6814 2.10476L26.664 2.07563L9.49172 12.3281ZM7.8125 12V-8H-12.1875V12H7.8125ZM10.9527 16.3631L28.145 6.14424L14.3573 -17.0522L-3.82535 2.8868L10.9527 16.3631ZM11.4373 17.1785L28.6443 6.98443L28.637 6.97205L28.6296 6.95968L11.4373 17.1785ZM12.1627 16.8224L-5.02964 27.0412L-5.01772 27.0613L-5.00575 27.0813L12.1627 16.8224ZM11.678 16.0069L9.32344 -3.854L-21.2397 -0.230727L-5.51433 26.2258L11.678 16.0069ZM6.21922 17.3754V-2.62464H-6.77426L-12.0547 9.24747L6.21922 17.3754ZM6.21922 16.6255L-12.0864 24.6818L-6.83001 36.6255H6.21922V16.6255ZM7.36047 16.6255V36.6255H31.9522L26.9408 12.5498L7.36047 16.6255ZM7.36219 17.3754L26.9352 21.486L31.9987 -2.62464H7.36219V17.3754ZM4.65 17.0004H-15.35H4.65ZM7.8125 -7.99844C-1.62092 -7.99844 -12.6 -0.63208 -12.6 12.3765H27.4C27.4 24.9695 16.7887 32.0016 7.8125 32.0016V-7.99844ZM-12.6 12.3765C-12.6 25.385 -1.62092 32.7514 7.8125 32.7514V-7.24861C16.7887 -7.24861 27.4 -0.216552 27.4 12.3765H-12.6ZM7.8125 32.7514H8.80422V-7.24861H7.8125V32.7514ZM-8.37957 22.9845L-8.09769 23.4579L26.2699 2.99157L25.988 2.51824L-8.37957 22.9845ZM-2.98465 -2.72197L-4.67075 -1.44569L19.4707 30.4477L21.1568 29.1714L-2.98465 -2.72197ZM20.8518 -0.299291L20.0732 -1.00695L-6.83041 28.5936L-6.05181 29.3013L20.8518 -0.299291ZM20.0732 -1.00695C15.971 -4.73536 10.8116 -6.49877 5.84281 -6.49877V33.5012C1.45837 33.5012 -3.14073 31.9471 -6.83041 28.5936L20.0732 -1.00695ZM5.84281 -6.49877H4.1V33.5012H5.84281V-6.49877ZM4.1 -6.49877C-5.40906 -6.49877 -16.45 0.923836 -16.45 14.0011H23.55C23.55 26.5254 13.0006 33.5012 4.1 33.5012V-6.49877ZM-16.45 14.0011V14.501H23.55V14.0011H-16.45ZM3.55 34.501H5.2V-5.49899H3.55V34.501ZM5.2 34.501C-2.48546 34.501 -12.05 28.4203 -12.05 17.0004H27.95C27.95 2.81872 15.9242 -5.49899 5.2 -5.49899V34.501ZM-12.05 17.0004C-12.05 15.6993 -11.9062 14.3983 -11.62 13.1227L27.41 21.878C27.7684 20.2805 27.95 18.6453 27.95 17.0004H-12.05ZM7.895 37.5003H9.105V-2.49967H7.895V37.5003ZM28.62 13.1227C28.9062 14.3983 29.05 15.6993 29.05 17.0004H-10.95C-10.95 18.6453 -10.7684 20.2805 -10.41 21.878L28.62 13.1227ZM29.05 17.0004C29.05 23.5383 25.5717 28.6757 21.4561 31.4981L-1.16642 -1.49009C-6.61235 2.24461 -10.95 8.83167 -10.95 17.0004H29.05ZM-7.06214 25.1981L-6.79745 25.6449L27.6165 5.25669L27.3518 4.80991L-7.06214 25.1981ZM-1.53095 -0.593677C-6.47845 3.08831 -10.4 9.32288 -10.4 17.0004H29.6C29.6 23.4283 26.3109 28.5475 22.35 31.4953L-1.53095 -0.593677ZM-10.4 17.0004C-10.4 30.9057 1.38001 39 11.8 39V-1C19.7897 -1 29.6 5.3041 29.6 17.0004H-10.4ZM11.8 39C22.22 39 34 30.9057 34 17.0004H-6C-6 5.3041 3.81033 -1 11.8 -1V39ZM34 17.0004C34 3.09521 22.22 -4.99911 11.8 -4.99911V35.0009C3.81033 35.0009 -6 28.6968 -6 17.0004H34ZM11.8 -4.99911C9.67795 -4.99911 7.57588 -4.6984 5.55468 -4.11115L16.715 34.3004C15.1132 34.7658 13.458 35.0009 11.8 35.0009V-4.99911ZM28.3274 4.87624L27.3804 3.28285L-7.00476 23.7196L-6.05773 25.313L28.3274 4.87624ZM10.1878 33.5012H11.25V-6.49877H10.1878V33.5012ZM11.25 33.5012C20.7591 33.5012 31.8 26.0786 31.8 13.0013H-8.2C-8.2 0.477057 2.34938 -6.49877 11.25 -6.49877V33.5012ZM31.8 13.0013V12.5015H-8.2V13.0013H31.8ZM31.8 12.5015C31.8 -0.575834 20.7591 -7.99844 11.25 -7.99844V32.0016C2.34938 32.0016 -8.2 25.0257 -8.2 12.5015H31.8ZM11.25 -7.99844H10.8994V32.0016H11.25V-7.99844ZM10.8994 -7.99844C6.58653 -7.99844 2.21065 -6.63858 -1.47529 -3.86607L22.5694 28.1004C19.0828 30.7229 14.9544 32.0016 10.8994 32.0016V-7.99844ZM-1.52841 -3.82598L-2.3431 -3.20893L21.8078 28.6774L22.6225 28.0603L-1.52841 -3.82598ZM26.9393 2.54012L26.6987 2.13396L-7.71527 22.5221L-7.47464 22.9283L26.9393 2.54012ZM26.664 2.07563C22.6445 -4.65688 15.5956 -8 8.88672 -8V32C2.68313 32 -3.90168 28.9099 -7.68058 22.5805L26.664 2.07563ZM8.88672 -8H7.8125V32H8.88672V-8ZM-12.1875 12V12.0016H27.8125V12H-12.1875ZM-6.23964 26.5819L-5.75496 27.3974L28.6296 6.95968L28.145 6.14424L-6.23964 26.5819ZM-5.76964 27.3726C0.121501 37.3165 12.0957 39.5847 20.8486 35.2641L3.14331 -0.604015C11.4974 -4.72777 22.9697 -2.59389 28.6443 6.98443L-5.76964 27.3726ZM20.8486 35.2641C30.397 30.5508 36.0519 17.8108 29.3311 6.56343L-5.00575 27.0813C-11.51 16.1964 -6.0064 3.91247 3.14331 -0.604015L20.8486 35.2641ZM29.355 6.60352L28.8703 5.78807L-5.51433 26.2258L-5.02964 27.0412L29.355 6.60352ZM14.0325 35.8678C13.0216 35.9877 12.218 36.0007 11.8 36.0007V-3.99933C11.2995 -3.99933 10.4134 -3.98322 9.32344 -3.854L14.0325 35.8678ZM11.8 36.0007C3.20187 36.0007 -7.1 29.2498 -7.1 17.0004H32.9C32.9 3.64823 21.6116 -3.99933 11.8 -3.99933V36.0007ZM-7.1 17.0004C-7.1 4.7511 3.20188 -1.99978 11.8 -1.99978V38.0002C21.6116 38.0002 32.9 30.3527 32.9 17.0004H-7.1ZM11.8 -1.99978C20.3981 -1.99978 30.7 4.7511 30.7 17.0004H-9.3C-9.3 30.3527 1.98845 38.0002 11.8 38.0002V-1.99978ZM30.7 17.0004C30.7 22.147 28.6506 26.6374 25.7307 29.8394L-3.82535 2.8868C-7.0615 6.43553 -9.3 11.3696 -9.3 17.0004H30.7ZM-12.0547 9.24747C-8.77373 1.87078 -1.65125 -1.99978 5.2 -1.99978V38.0002C12.9725 38.0002 20.8856 33.6142 24.4932 25.5033L-12.0547 9.24747ZM5.2 -1.99978C13.7981 -1.99978 24.1 4.75109 24.1 17.0004H-15.9C-15.9 30.3527 -4.61155 38.0002 5.2 38.0002V-1.99978ZM24.1 17.0004C24.1 29.2498 13.7981 36.0007 5.2 36.0007V-3.99933C-4.61156 -3.99933 -15.9 3.64822 -15.9 17.0004H24.1ZM5.2 36.0007C-1.61307 36.0007 -8.79793 32.154 -12.0864 24.6818L24.5249 8.56925C20.9132 0.362876 12.9378 -3.99933 5.2 -3.99933V36.0007ZM6.21922 36.6255H7.36047V-3.37447H6.21922V36.6255ZM26.9408 12.5498C24.5961 1.28593 14.6192 -4.99911 5.2 -4.99911V35.0009C-2.07078 35.0009 -10.2602 30.1155 -12.2198 20.7013L26.9408 12.5498ZM5.2 -4.99911C-5.21999 -4.99911 -17 3.09522 -17 17.0004H23C23 28.6968 13.1897 35.0009 5.2 35.0009V-4.99911ZM-17 17.0004C-17 30.9057 -5.21999 39 5.2 39V-1C13.1897 -1 23 5.3041 23 17.0004H-17ZM5.2 39C14.6287 39 24.5776 32.7121 26.9352 21.486L-12.2108 13.2648C-10.2416 3.88821 -2.08028 -1 5.2 -1V39ZM7.36219 -2.62464H6.21922V37.3754H7.36219V-2.62464ZM5.2 37.5003C10.0663 37.5003 15.0725 35.7609 19.0407 32.1542L-7.8629 2.55363C-4.10097 -0.865549 0.625445 -2.49967 5.2 -2.49967V37.5003ZM19.0407 32.1542C23.0725 28.4898 25.75 23.0874 25.75 17.0004H-14.25C-14.25 11.1786 -11.6884 6.03057 -7.8629 2.55363L19.0407 32.1542ZM25.75 17.0004C25.75 10.9135 23.0725 5.51113 19.0407 1.84668L-7.8629 31.4473C-11.6884 27.9703 -14.25 22.8223 -14.25 17.0004H25.75ZM19.0407 1.84668C15.0725 -1.76002 10.0663 -3.49944 5.2 -3.49944V36.5006C0.62548 36.5006 -4.10095 34.8665 -7.8629 31.4473L19.0407 1.84668ZM5.2 -3.49944C0.333749 -3.49944 -4.67247 -1.76002 -8.64072 1.84668L18.2629 31.4473C14.5009 34.8665 9.77451 36.5006 5.2 36.5006V-3.49944ZM-8.64072 1.84668C-12.6725 5.51114 -15.35 10.9135 -15.35 17.0004H24.65C24.65 22.8222 22.0884 27.9703 18.2629 31.4473L-8.64072 1.84668ZM-15.35 17.0004C-15.35 23.0874 -12.6725 28.4898 -8.64072 32.1542L18.2629 2.55363C22.0884 6.03059 24.65 11.1786 24.65 17.0004H-15.35ZM-8.64072 32.1542C-4.67249 35.7609 0.333713 37.5003 5.2 37.5003V-2.49967C9.77455 -2.49967 14.501 -0.865554 18.2629 2.55363L-8.64072 32.1542Z" fill="#666666" mask="url(#path-2-inside-1_2892_4451)"/>
</svg>
