<svg width="28" height="29" viewBox="0 0 28 29" fill="none" xmlns="http://www.w3.org/2000/svg">
<path d="M0 7.14286H28C28 5.40938 26.6049 4 24.8889 4H3.11111C1.39514 4 0 5.40938 0 7.14286ZM0 8.71429V22.8571C0 24.5906 1.39514 26 3.11111 26H24.8889C26.6049 26 28 24.5906 28 22.8571V8.71429H0ZM3.11111 22.3317C3.11111 20.883 4.27292 19.7143 5.70208 19.7143H11.409C12.8431 19.7143 14 20.8879 14 22.3317C14 22.6214 13.7667 22.8571 13.4799 22.8571H3.63125C3.34444 22.8571 3.11111 22.6214 3.11111 22.3317ZM8.55556 11.8571C9.38067 11.8571 10.172 12.1883 10.7554 12.7777C11.3389 13.3671 11.6667 14.1665 11.6667 15C11.6667 15.8335 11.3389 16.6329 10.7554 17.2223C10.172 17.8117 9.38067 18.1429 8.55556 18.1429C7.73044 18.1429 6.93911 17.8117 6.35567 17.2223C5.77222 16.6329 5.44444 15.8335 5.44444 15C5.44444 14.1665 5.77222 13.3671 6.35567 12.7777C6.93911 12.1883 7.73044 11.8571 8.55556 11.8571ZM17.1111 12.6429C17.1111 12.2107 17.4611 11.8571 17.8889 11.8571H24.1111C24.5389 11.8571 24.8889 12.2107 24.8889 12.6429C24.8889 13.075 24.5389 13.4286 24.1111 13.4286H17.8889C17.4611 13.4286 17.1111 13.075 17.1111 12.6429ZM17.1111 15.7857C17.1111 15.3536 17.4611 15 17.8889 15H24.1111C24.5389 15 24.8889 15.3536 24.8889 15.7857C24.8889 16.2179 24.5389 16.5714 24.1111 16.5714H17.8889C17.4611 16.5714 17.1111 16.2179 17.1111 15.7857ZM17.1111 18.9286C17.1111 18.4964 17.4611 18.1429 17.8889 18.1429H24.1111C24.5389 18.1429 24.8889 18.4964 24.8889 18.9286C24.8889 19.3607 24.5389 19.7143 24.1111 19.7143H17.8889C17.4611 19.7143 17.1111 19.3607 17.1111 18.9286Z" fill="#666666"/>
</svg>
