<svg width="40" height="41" viewBox="0 0 40 41" fill="none" xmlns="http://www.w3.org/2000/svg">
<path d="M39.2664 18.8704L21.7719 1.37616C20.7938 0.39805 19.207 0.39805 18.2281 1.37616L0.733594 18.8704C-0.244531 19.8493 -0.244531 21.4352 0.733594 22.4141L18.2281 39.9084C19.2063 40.8873 20.793 40.8873 21.7719 39.9084L39.2664 22.4141C40.2445 21.4352 40.2445 19.8493 39.2664 18.8704ZM31.3773 19.8517L24.7984 25.9242C24.3984 26.2938 23.7492 26.0102 23.7492 25.4649V21.2673H16.2492V26.2672C16.2492 26.6125 15.9695 26.8922 15.6242 26.8922H13.1242C12.7789 26.8922 12.4992 26.6125 12.4992 26.2672V20.0173C12.4992 18.6368 13.6188 17.5173 14.9992 17.5173H23.7492V13.3197C23.7492 12.7752 24.3977 12.4908 24.7984 12.8604L31.3773 18.9329C31.6453 19.1806 31.6453 19.604 31.3773 19.8517Z" fill="white"/>
</svg>
