<svg width="27" height="27" viewBox="0 0 27 27" fill="none" xmlns="http://www.w3.org/2000/svg">
<path d="M12.6622 0.279569C10.6124 0.455609 9.00776 0.90597 7.34618 1.77564C4.934 3.03357 2.88416 5.11446 1.66268 7.54716C0.71525 9.43662 0.27002 11.3312 0.27002 13.5001C0.27002 15.6639 0.71525 17.5687 1.65728 19.4477C2.73917 21.5958 4.55087 23.5576 6.63176 24.8258C10.9747 27.4761 16.5445 27.3571 20.8043 24.5256C26.3069 20.866 28.2739 13.7744 25.4424 7.80609C24.7798 6.42396 23.9828 5.30076 22.8388 4.15164C20.7217 2.03457 18.2369 0.802559 15.2504 0.378119C14.7121 0.300359 13.1072 0.238259 12.6622 0.279569ZM11.016 6.14451C12.2532 6.36186 13.3299 6.82788 13.9304 7.41783C14.3548 7.83201 14.4998 8.13738 14.4998 8.60826C14.4998 8.91363 14.4739 9.01731 14.3446 9.25005C13.9045 10.042 12.771 10.6891 11.218 11.0204C10.5657 11.1603 8.95592 11.2119 8.16914 11.1187C6.39362 10.9116 4.91321 10.2129 4.38536 9.33807C4.2455 9.10506 4.20419 8.97573 4.1834 8.68575C4.16261 8.35446 4.17314 8.29236 4.32326 7.99212C4.80467 7.00851 6.311 6.2787 8.34518 6.04596C8.96105 5.97873 10.3173 6.02544 11.016 6.14451ZM19.4535 6.36699C19.7176 6.44475 20.0748 6.76038 20.1833 7.01391C20.2352 7.12272 20.8408 9.01191 21.5395 11.217C22.4403 14.0539 22.8077 15.2962 22.8077 15.4671C22.8077 15.7881 22.5955 16.2125 22.3315 16.3988C22.2226 16.4817 21.8603 16.6318 21.5239 16.7353C21.1926 16.8387 18.0973 17.8171 14.6497 18.9093C11.2023 20.0014 8.26742 20.923 8.13809 20.9591C7.62563 21.0885 7.00976 20.7882 6.79754 20.2966C6.70412 20.0946 4.94939 14.5766 4.94939 14.494C4.94939 14.4681 5.22371 14.5871 5.555 14.7529C6.57479 15.2602 7.88429 15.5189 9.4268 15.5189C10.6486 15.5189 11.725 15.3326 12.6671 14.9495C13.7695 14.5094 14.4631 13.9764 14.7893 13.319C15.0223 12.8478 15.0585 12.2527 14.8927 11.7918L14.7787 11.4813L14.8822 11.1913C15.0271 10.8133 15.0271 10.2388 14.8873 9.83001C14.789 9.52977 14.789 9.52977 14.8873 9.26058C15.0271 8.89311 15.0271 8.31855 14.8822 7.93542C14.8201 7.77504 14.7839 7.63518 14.7941 7.62492C14.8098 7.60953 18.3606 6.48093 18.7178 6.38265C19.0186 6.29463 19.2051 6.2895 19.4535 6.36699ZM4.57166 10.2958C4.73717 10.4407 5.02202 10.6478 5.20832 10.7564C6.90608 11.74 10.074 11.9833 12.1808 11.2948C12.771 11.1033 13.6715 10.653 14.0805 10.3422C14.272 10.1972 14.448 10.0938 14.4688 10.1092C14.4842 10.13 14.4998 10.3111 14.4998 10.5128C14.4947 10.8182 14.4688 10.9373 14.3497 11.1652C13.884 12.0659 12.3879 12.8165 10.6175 13.039C9.94979 13.1218 8.54687 13.1113 7.91534 13.013C6.50216 12.8008 5.37896 12.3297 4.73717 11.6879C4.38509 11.3409 4.22471 11.0461 4.18853 10.6786C4.16261 10.4302 4.19879 10.0317 4.25063 10.0317C4.26089 10.032 4.40588 10.151 4.57166 10.2958ZM14.4998 12.4285C14.4947 12.7079 14.4637 12.8632 14.3756 13.0444C13.9925 13.8311 12.9055 14.4835 11.4199 14.8148C8.85764 15.3842 5.82959 14.8096 4.65455 13.5363C4.30247 13.1583 4.20419 12.915 4.19906 12.4544C4.19906 12.2371 4.21445 12.0454 4.23524 12.0248C4.25603 12.004 4.39049 12.0921 4.53035 12.2163C4.86164 12.5165 6.01589 13.0962 6.6215 13.2671C7.5584 13.5312 7.94153 13.5776 9.29774 13.5776C10.6229 13.5776 10.9129 13.5466 11.8341 13.3136C12.8331 13.0652 13.7857 12.5837 14.236 12.1075C14.4429 11.8901 14.4998 11.9627 14.4998 12.4285Z" fill="white"/>
<path d="M18.0455 8.0132C17.8022 8.09609 17.2587 8.27213 16.8292 8.40659C15.9233 8.69117 15.7681 8.79998 15.7681 9.15719C15.7681 9.33836 16.1976 10.8085 16.472 11.5694C16.5702 11.8334 16.8084 12.0508 17.0103 12.0508C17.0881 12.0508 17.7091 11.8747 18.3873 11.6625C19.4484 11.3312 19.6453 11.2535 19.7695 11.119C19.8677 11.0051 19.9093 10.9068 19.9093 10.7669C19.9093 10.5547 19.1741 8.20463 19.0707 8.08043C18.9878 7.98215 18.7084 7.85795 18.579 7.86308C18.5269 7.86308 18.2888 7.93031 18.0455 8.0132Z" fill="white"/>
<path d="M12.2999 16.5994L7.61542 18.085L7.60516 18.2351C7.5895 18.4371 7.85356 19.2444 7.95211 19.3065C8.00908 19.3426 9.40147 18.9233 12.7662 17.8571C18.2059 16.1337 17.6419 16.4029 17.3935 15.6574C17.2382 15.1811 17.1915 15.1036 17.0673 15.1088C17.0206 15.1088 14.8776 15.7816 12.2999 16.5994Z" fill="white"/>
</svg>
