<svg width="30" height="31" viewBox="0 0 30 31" fill="none" xmlns="http://www.w3.org/2000/svg">
<path d="M9.66168 1.9954C9.21053 0.905603 8.02113 0.32555 6.88446 0.636083L1.72844 2.04227C0.708953 2.32351 0 3.24925 0 4.30389C0 18.7993 11.7534 30.5527 26.2488 30.5527C27.3035 30.5527 28.2292 29.8438 28.5105 28.8243L29.9166 23.6683C30.2272 22.5316 29.6471 21.3422 28.5573 20.891L22.9326 18.5474C21.9775 18.149 20.8702 18.4244 20.2198 19.2271L17.8527 22.1156C13.7279 20.1645 10.3882 16.8248 8.43713 12.7L11.3257 10.3388C12.1284 9.68256 12.4037 8.58104 12.0053 7.62601L9.66168 2.00126V1.9954Z" fill="#FA790E"/>
</svg>
