<svg width="37" height="35" viewBox="0 0 37 35" fill="none" xmlns="http://www.w3.org/2000/svg">
<path d="M34.6158 0.09375H8.27708C7.41496 0.09375 6.71429 0.80093 6.71429 1.67034V6.03644H26.9551C28.4666 6.03644 29.6964 7.27668 29.6964 8.80157V23.8645H30.631L36.1786 29.4589V1.67034C36.1786 0.80093 35.4779 0.09375 34.6158 0.09375Z" fill="#99CC00"/>
<path d="M26.9551 7.22461H2.3842C1.52207 7.22461 0.821411 7.93179 0.821411 8.8012V34.807L6.36895 29.2126H26.9551C27.8172 29.2126 28.5178 28.5054 28.5178 27.636V8.8012C28.5178 7.93179 27.8172 7.22461 26.9551 7.22461ZM7.30355 13.1673H14.375C14.7009 13.1673 14.9643 13.4335 14.9643 13.7616C14.9643 14.0896 14.7009 14.3558 14.375 14.3558H7.30355C6.97768 14.3558 6.71427 14.0896 6.71427 13.7616C6.71427 13.4335 6.97768 13.1673 7.30355 13.1673ZM22.0357 22.6756H7.30355C6.97768 22.6756 6.71427 22.4094 6.71427 22.0813C6.71427 21.7533 6.97768 21.4871 7.30355 21.4871H22.0357C22.3616 21.4871 22.625 21.7533 22.625 22.0813C22.625 22.4094 22.3616 22.6756 22.0357 22.6756ZM22.0357 18.5157H7.30355C6.97768 18.5157 6.71427 18.2495 6.71427 17.9214C6.71427 17.5934 6.97768 17.3272 7.30355 17.3272H22.0357C22.3616 17.3272 22.625 17.5934 22.625 17.9214C22.625 18.2495 22.3616 18.5157 22.0357 18.5157Z" fill="#99CC00"/>
</svg>
