<svg width="123" height="95" viewBox="0 0 123 95" fill="none" xmlns="http://www.w3.org/2000/svg">
<g clip-path="url(#clip0_2621_4343)">
<path fill-rule="evenodd" clip-rule="evenodd" d="M0 41.1601H24.83V85.3401H0V41.1601ZM36 11.7601L71.01 0.100134C71.43 -0.0398662 71.87 -0.0298662 72.25 0.110134V0.100134L107.72 12.2501C108.59 12.5501 109.12 13.3901 109.04 14.2701C109.05 14.3101 109.05 14.3601 109.05 14.4101V51.4501L110.61 50.6801C120.21 47.5201 127.04 57.5601 119.96 64.5501C106.06 74.6601 91.81 82.9801 77.23 89.7001C66.64 96.1401 56.05 95.9201 45.47 89.7001L29.84 81.6301V44.7101H34.32V13.7001C34.31 12.7101 35.04 11.8901 36 11.7601ZM46.44 44.7101C53.48 45.9701 60.52 49.7901 67.56 54.2201H69.03V33.8801L38.97 21.0501V44.7101H46.44ZM74.43 54.2201H80.47C86.31 54.5701 89.37 60.4901 83.69 64.3801C81.02 66.3401 77.85 67.0801 74.43 67.2401V72.1301C80.83 71.7701 86.1 70.0001 89.49 64.7001L91.42 60.1901L104.39 53.7601V20.7801L74.43 33.9001V54.2201ZM69.04 67.1201C68.39 67.0701 67.73 67.0201 67.08 66.9601C62.86 66.7501 62.68 72.4201 67.08 72.4401C67.72 72.4901 68.38 72.4601 69.04 72.4001V70.9001V67.1201ZM71.6 5.49013L41.78 15.4301L71.74 29.0201L101.71 15.8101L71.6 5.49013Z" />
</g>
<defs>
<clipPath id="clip0_2621_4343">
<rect width="122.88" height="94.45" fill="white"/>
</clipPath>
</defs>
</svg>
