<svg width="40" height="41" viewBox="0 0 40 41" fill="none" xmlns="http://www.w3.org/2000/svg">
<path d="M39.2664 19.0226L21.7719 1.38041C20.7938 0.39403 19.207 0.39403 18.2281 1.38041L0.733594 19.0226C-0.244531 20.0098 -0.244531 21.6091 0.733594 22.5963L18.2281 40.2385C19.2063 41.2257 20.793 41.2257 21.7719 40.2385L39.2664 22.5963C40.2445 21.6091 40.2445 20.0098 39.2664 19.0226ZM31.3773 20.0121L24.7984 26.1361C24.3984 26.5087 23.7492 26.2227 23.7492 25.6728V21.4397H16.2492V26.4819C16.2492 26.8302 15.9695 27.1122 15.6242 27.1122H13.1242C12.7789 27.1122 12.4992 26.8302 12.4992 26.4819V20.1792C12.4992 18.7871 13.6188 17.6581 14.9992 17.6581H23.7492V13.425C23.7492 12.8759 24.3977 12.5891 24.7984 12.9617L31.3773 19.0856C31.6453 19.3354 31.6453 19.7624 31.3773 20.0121Z" fill="#99CC00"/>
</svg>
