<svg width="150" height="160" viewBox="0 0 150 160" fill="none" xmlns="http://www.w3.org/2000/svg">
<path d="M98.922 153.146C98.922 154.189 98.7843 155.083 98.5089 155.827C98.2394 156.565 97.8498 157.169 97.34 157.638C96.8302 158.106 96.2091 158.452 95.4767 158.675C94.7502 158.892 93.883 159 92.8752 159H90.1593C89.966 159 89.8019 158.944 89.6671 158.833C89.5382 158.716 89.4738 158.528 89.4738 158.271V148.356C89.4738 148.099 89.5382 147.914 89.6671 147.803C89.8019 147.686 89.966 147.627 90.1593 147.627H93.0773C94.091 147.627 94.9494 147.747 95.6525 147.987C96.3615 148.222 96.9562 148.573 97.4367 149.042C97.923 149.505 98.2921 150.079 98.5441 150.765C98.7961 151.45 98.922 152.244 98.922 153.146ZM96.5314 153.226C96.5314 152.687 96.4669 152.186 96.338 151.723C96.215 151.26 96.0128 150.858 95.7316 150.519C95.4562 150.179 95.0988 149.915 94.6593 149.728C94.2257 149.534 93.6544 149.438 92.9455 149.438H91.7765V157.172H92.9806C93.6134 157.172 94.1466 157.09 94.5802 156.926C95.0138 156.762 95.3742 156.516 95.6613 156.188C95.9543 155.854 96.1711 155.44 96.3117 154.948C96.4582 154.456 96.5314 153.882 96.5314 153.226ZM109.267 158.701C109.267 158.766 109.255 158.821 109.232 158.868C109.208 158.909 109.152 158.944 109.065 158.974C108.977 159.003 108.848 159.023 108.678 159.035C108.508 159.047 108.277 159.053 107.984 159.053C107.737 159.053 107.541 159.047 107.395 159.035C107.248 159.023 107.131 159.003 107.043 158.974C106.961 158.938 106.902 158.897 106.867 158.851C106.832 158.798 106.803 158.736 106.779 158.666L105.76 156.126C105.637 155.839 105.517 155.584 105.4 155.361C105.282 155.139 105.151 154.954 105.004 154.808C104.863 154.655 104.699 154.541 104.512 154.465C104.324 154.389 104.108 154.351 103.861 154.351H103.141V158.684C103.141 158.742 103.12 158.795 103.079 158.842C103.044 158.889 102.983 158.927 102.895 158.956C102.807 158.985 102.69 159.009 102.543 159.026C102.397 159.044 102.209 159.053 101.981 159.053C101.758 159.053 101.57 159.044 101.418 159.026C101.272 159.009 101.154 158.985 101.067 158.956C100.979 158.927 100.917 158.889 100.882 158.842C100.847 158.795 100.829 158.742 100.829 158.684V148.356C100.829 148.099 100.894 147.914 101.023 147.803C101.157 147.686 101.321 147.627 101.515 147.627H104.459C104.758 147.627 105.004 147.633 105.197 147.645C105.391 147.656 105.567 147.671 105.725 147.688C106.182 147.753 106.592 147.864 106.955 148.022C107.324 148.181 107.635 148.389 107.887 148.646C108.145 148.898 108.341 149.2 108.476 149.552C108.611 149.897 108.678 150.296 108.678 150.747C108.678 151.128 108.628 151.477 108.528 151.793C108.435 152.104 108.294 152.382 108.107 152.628C107.919 152.874 107.688 153.088 107.412 153.27C107.137 153.451 106.823 153.598 106.472 153.709C106.642 153.791 106.8 153.891 106.946 154.008C107.099 154.125 107.239 154.269 107.368 154.438C107.503 154.603 107.629 154.793 107.746 155.01C107.863 155.221 107.978 155.461 108.089 155.73L109.047 157.972C109.135 158.194 109.194 158.358 109.223 158.464C109.252 158.563 109.267 158.643 109.267 158.701ZM106.287 150.984C106.287 150.609 106.202 150.293 106.032 150.035C105.862 149.777 105.584 149.596 105.197 149.49C105.08 149.461 104.945 149.438 104.793 149.42C104.647 149.402 104.442 149.394 104.178 149.394H103.141V152.619H104.319C104.647 152.619 104.934 152.581 105.18 152.505C105.426 152.423 105.631 152.312 105.795 152.171C105.959 152.024 106.082 151.852 106.164 151.652C106.246 151.453 106.287 151.23 106.287 150.984ZM113.292 158.684C113.292 158.742 113.272 158.795 113.231 158.842C113.195 158.889 113.134 158.927 113.046 158.956C112.958 158.985 112.841 159.009 112.694 159.026C112.548 159.044 112.361 159.053 112.132 159.053C111.909 159.053 111.722 159.044 111.569 159.026C111.423 159.009 111.306 158.985 111.218 158.956C111.13 158.927 111.066 158.889 111.025 158.842C110.989 158.795 110.972 158.742 110.972 158.684V147.943C110.972 147.885 110.989 147.832 111.025 147.785C111.066 147.738 111.13 147.7 111.218 147.671C111.312 147.642 111.432 147.618 111.578 147.601C111.725 147.583 111.909 147.574 112.132 147.574C112.361 147.574 112.548 147.583 112.694 147.601C112.841 147.618 112.958 147.642 113.046 147.671C113.134 147.7 113.195 147.738 113.231 147.785C113.272 147.832 113.292 147.885 113.292 147.943V158.684ZM121.431 158.596C121.402 158.695 121.363 158.777 121.317 158.842C121.27 158.9 121.194 158.947 121.088 158.982C120.983 159.012 120.839 159.029 120.657 159.035C120.476 159.047 120.238 159.053 119.945 159.053C119.711 159.053 119.509 159.05 119.339 159.044C119.175 159.044 119.034 159.038 118.917 159.026C118.8 159.015 118.703 158.997 118.627 158.974C118.557 158.95 118.495 158.921 118.443 158.886C118.396 158.851 118.358 158.81 118.328 158.763C118.305 158.71 118.281 158.646 118.258 158.569L114.874 148.488C114.804 148.277 114.76 148.11 114.742 147.987C114.731 147.864 114.76 147.773 114.83 147.715C114.906 147.65 115.032 147.612 115.208 147.601C115.384 147.583 115.63 147.574 115.946 147.574C116.216 147.574 116.427 147.58 116.579 147.592C116.732 147.604 116.849 147.624 116.931 147.653C117.013 147.683 117.069 147.727 117.098 147.785C117.133 147.844 117.165 147.917 117.194 148.005L119.963 156.776H119.972L122.688 148.049C122.711 147.949 122.74 147.87 122.776 147.812C122.811 147.747 122.869 147.697 122.951 147.662C123.039 147.627 123.162 147.604 123.32 147.592C123.479 147.58 123.695 147.574 123.971 147.574C124.24 147.574 124.448 147.583 124.595 147.601C124.747 147.618 124.85 147.662 124.902 147.732C124.961 147.797 124.979 147.891 124.955 148.014C124.938 148.137 124.894 148.301 124.823 148.506L121.431 158.596ZM133.164 158.095C133.164 158.265 133.155 158.408 133.138 158.525C133.126 158.637 133.106 158.728 133.076 158.798C133.047 158.868 133.009 158.921 132.962 158.956C132.921 158.985 132.874 159 132.821 159H127.109C126.915 159 126.751 158.944 126.616 158.833C126.487 158.716 126.423 158.528 126.423 158.271V148.356C126.423 148.099 126.487 147.914 126.616 147.803C126.751 147.686 126.915 147.627 127.109 147.627H132.786C132.839 147.627 132.886 147.642 132.927 147.671C132.968 147.7 133.003 147.753 133.032 147.829C133.062 147.899 133.082 147.993 133.094 148.11C133.111 148.222 133.12 148.365 133.12 148.541C133.12 148.705 133.111 148.846 133.094 148.963C133.082 149.074 133.062 149.165 133.032 149.235C133.003 149.306 132.968 149.358 132.927 149.394C132.886 149.423 132.839 149.438 132.786 149.438H128.726V152.215H132.162C132.215 152.215 132.262 152.232 132.303 152.268C132.35 152.297 132.388 152.347 132.417 152.417C132.446 152.481 132.467 152.572 132.479 152.689C132.496 152.801 132.505 152.938 132.505 153.103C132.505 153.272 132.496 153.413 132.479 153.524C132.467 153.636 132.446 153.727 132.417 153.797C132.388 153.861 132.35 153.908 132.303 153.938C132.262 153.967 132.215 153.981 132.162 153.981H128.726V157.189H132.821C132.874 157.189 132.921 157.207 132.962 157.242C133.009 157.271 133.047 157.321 133.076 157.392C133.106 157.462 133.126 157.556 133.138 157.673C133.155 157.784 133.164 157.925 133.164 158.095ZM143.65 158.701C143.65 158.766 143.638 158.821 143.614 158.868C143.591 158.909 143.535 158.944 143.447 158.974C143.36 159.003 143.231 159.023 143.061 159.035C142.891 159.047 142.659 159.053 142.366 159.053C142.12 159.053 141.924 159.047 141.777 159.035C141.631 159.023 141.514 159.003 141.426 158.974C141.344 158.938 141.285 158.897 141.25 158.851C141.215 158.798 141.186 158.736 141.162 158.666L140.143 156.126C140.02 155.839 139.9 155.584 139.782 155.361C139.665 155.139 139.533 154.954 139.387 154.808C139.246 154.655 139.082 154.541 138.895 154.465C138.707 154.389 138.49 154.351 138.244 154.351H137.524V158.684C137.524 158.742 137.503 158.795 137.462 158.842C137.427 158.889 137.365 158.927 137.277 158.956C137.19 158.985 137.072 159.009 136.926 159.026C136.779 159.044 136.592 159.053 136.363 159.053C136.141 159.053 135.953 159.044 135.801 159.026C135.654 159.009 135.537 158.985 135.449 158.956C135.361 158.927 135.3 158.889 135.265 158.842C135.23 158.795 135.212 158.742 135.212 158.684V148.356C135.212 148.099 135.277 147.914 135.405 147.803C135.54 147.686 135.704 147.627 135.898 147.627H138.842C139.141 147.627 139.387 147.633 139.58 147.645C139.774 147.656 139.949 147.671 140.108 147.688C140.565 147.753 140.975 147.864 141.338 148.022C141.707 148.181 142.018 148.389 142.27 148.646C142.527 148.898 142.724 149.2 142.859 149.552C142.993 149.897 143.061 150.296 143.061 150.747C143.061 151.128 143.011 151.477 142.911 151.793C142.818 152.104 142.677 152.382 142.489 152.628C142.302 152.874 142.07 153.088 141.795 153.27C141.52 153.451 141.206 153.598 140.855 153.709C141.025 153.791 141.183 153.891 141.329 154.008C141.482 154.125 141.622 154.269 141.751 154.438C141.886 154.603 142.012 154.793 142.129 155.01C142.246 155.221 142.361 155.461 142.472 155.73L143.43 157.972C143.518 158.194 143.576 158.358 143.606 158.464C143.635 158.563 143.65 158.643 143.65 158.701ZM140.67 150.984C140.67 150.609 140.585 150.293 140.415 150.035C140.245 149.777 139.967 149.596 139.58 149.49C139.463 149.461 139.328 149.438 139.176 149.42C139.029 149.402 138.824 149.394 138.561 149.394H137.524V152.619H138.701C139.029 152.619 139.317 152.581 139.563 152.505C139.809 152.423 140.014 152.312 140.178 152.171C140.342 152.024 140.465 151.852 140.547 151.652C140.629 151.453 140.67 151.23 140.67 150.984Z" fill="#FA790E"/>
<path d="M47.3166 140.845C47.3166 144.67 47.2756 148.536 47.3576 152.361C47.3985 153.419 47.0299 153.745 46.0058 153.663C45.0636 153.582 44.1215 153.582 43.1384 153.663C42.1143 153.745 41.8685 153.338 41.8685 152.361C41.9505 146.298 41.9505 140.235 41.9505 134.212C41.9505 130.632 41.9914 127.091 41.9505 123.51C41.9505 122.819 42.1143 122.412 42.7288 122.045C47.9311 118.709 53.4201 117.814 59.3597 119.767C63.7837 121.272 66.9379 125.667 67.1017 130.306C67.2246 135.23 65.3813 139.136 60.9163 141.293C56.4923 143.45 51.9045 143.531 47.5624 140.845C47.4395 140.845 47.3985 140.845 47.3166 140.845ZM47.2756 130.062C47.2756 131.567 47.2756 133.073 47.2756 134.619C47.2347 135.108 47.4395 135.555 47.7672 135.922C50.1431 138.363 54.7309 139.136 57.8031 137.671C62.2271 135.596 63.0874 129.37 59.9332 125.789C56.7791 122.208 50.9623 122.819 47.7262 124.568C47.2756 124.813 47.2756 125.219 47.2756 125.626C47.2756 127.132 47.2756 128.597 47.2756 130.062Z" fill="#FA790E"/>
<path d="M134.486 131.527C131.619 131.527 128.751 131.567 125.925 131.527C125.023 131.527 124.86 131.771 125.064 132.666C126.211 137.631 130.963 139.299 135.264 138.2C137.026 137.753 138.664 136.857 139.975 135.596C140.344 135.23 140.548 135.189 140.958 135.596C141.695 136.328 142.556 137.02 143.375 137.631C143.948 138.078 143.866 138.363 143.375 138.851C140.876 141.008 138.009 142.392 134.732 142.717C131.086 143.083 127.563 142.636 124.491 140.479C120.845 137.956 119.534 134.335 119.575 130.021C119.616 124.731 123.385 120.214 128.587 119.156C133.953 118.058 139.647 119.238 142.719 124.69C143.744 126.481 144.112 128.434 144.194 130.428C144.235 131.283 143.907 131.527 143.088 131.527C140.18 131.527 137.312 131.527 134.486 131.527ZM131.782 127.539C133.708 127.539 135.674 127.498 137.599 127.58C138.664 127.62 138.623 127.254 138.255 126.481C137.394 124.772 136.002 123.795 134.24 123.185C130.84 122.005 126.867 123.632 125.392 126.766C125.064 127.498 125.269 127.58 125.925 127.58C127.891 127.539 129.816 127.539 131.782 127.539Z" fill="#FA790E"/>
<path d="M83.6918 131.527C80.9063 131.527 78.1208 131.567 75.3353 131.486C74.4342 131.445 74.0655 131.567 74.2703 132.625C74.9667 135.799 77.6293 138.119 80.8244 138.404C84.0195 138.648 86.7231 137.753 89.017 135.555C89.3447 135.23 89.5905 135.026 90.0411 135.433C90.8603 136.206 91.7615 136.898 92.6217 137.631C93.0723 137.997 93.1133 138.241 92.6627 138.648C88.8941 141.863 84.552 143.205 79.5955 142.554C76.1136 142.066 73.1233 140.723 71.0342 137.834C66.9789 132.178 68.1258 123.144 75.2125 119.97C80.0461 117.813 84.8797 118.017 89.1808 121.313C92.1711 123.592 93.3181 126.847 93.4 130.55C93.441 131.283 93.0314 131.405 92.376 131.405C89.4676 131.527 86.5592 131.527 83.6918 131.527ZM81.1111 127.539C82.9954 127.539 84.9207 127.498 86.846 127.58C87.952 127.62 87.87 127.091 87.5014 126.44C86.6821 124.813 85.2484 123.632 83.487 123.185C80.128 122.208 76.2365 123.307 74.639 126.766C74.3113 127.458 74.5161 127.58 75.1715 127.58C77.1377 127.498 79.1039 127.539 81.1111 127.539Z" fill="#FA790E"/>
<path d="M34.9867 128.638C34.618 126.481 34.5361 124.446 32.2832 123.633C31.0543 123.185 29.8254 122.819 28.5146 123.022C26.6712 123.307 24.8689 123.633 23.1894 124.568C22.6569 124.853 22.4111 124.813 22.1653 124.243C21.8376 123.51 21.428 122.859 21.0593 122.168C20.3629 120.906 20.3629 120.906 21.6737 120.377C25.5243 118.79 29.4977 118.22 33.553 119.36C37.0349 120.296 39.9842 122.941 39.8204 127.213C39.6975 131.12 39.7794 135.026 39.7794 138.933C39.7794 139.665 39.6155 140.072 38.8782 140.438C34.1265 142.717 29.2109 143.694 24.0906 142.066C19.6666 140.642 17.1268 137.183 18.11 132.381C18.6425 129.736 20.5677 128.149 22.9026 127.213C26.0568 125.993 29.3338 125.749 32.5699 127.091C33.4301 127.417 34.1265 127.987 34.9867 128.638ZM34.5361 134.986C34.5361 132.707 34.4542 132.381 33.3072 131.649C30.8904 130.184 28.3097 129.574 25.5243 130.632C22.6978 131.69 21.9605 135.148 24.2954 137.102C26.6712 139.096 29.4567 138.811 32.2012 138.16C34.5771 137.549 34.5361 137.387 34.5361 134.986Z" fill="#FA790E"/>
<path d="M119.289 119.36C115.725 122.534 112.325 125.504 108.884 128.475C108.27 129.004 108.27 129.329 108.843 129.94C112.325 133.683 115.807 137.468 119.248 141.252C119.493 141.537 119.862 141.741 119.862 142.27C117.937 142.27 115.971 142.229 114.045 142.31C113.431 142.31 113.144 141.944 112.816 141.578C110.359 138.77 107.901 135.962 105.402 133.195C105.074 132.829 104.829 131.974 104.009 132.3C103.149 132.625 102.658 133.236 102.699 134.335C102.821 136.613 102.78 138.933 102.862 141.252C102.903 142.107 102.617 142.31 101.838 142.27C100.773 142.188 99.7083 142.188 98.6432 142.27C97.742 142.351 97.5782 142.025 97.5782 141.212C97.6191 135.637 97.6191 130.021 97.6191 124.406C97.6191 121.394 97.6601 118.343 97.5782 115.331C97.5782 114.517 97.824 114.233 98.6023 114.273C99.6673 114.314 100.732 114.355 101.797 114.273C102.576 114.233 102.74 114.558 102.74 115.291C102.699 119.401 102.658 123.47 102.658 127.539C102.658 127.742 102.576 127.987 102.821 128.231C104.132 127.01 105.443 125.789 106.754 124.568C108.433 122.981 110.154 121.435 111.833 119.889C112.079 119.645 112.325 119.441 112.694 119.441C114.865 119.36 116.954 119.36 119.289 119.36Z" fill="#FA790E"/>
<path d="M14.9149 126.278C14.9149 131.283 14.8739 136.288 14.9558 141.252C14.9558 142.066 14.7101 142.188 14.0137 142.188C12.7848 142.148 11.5559 142.107 10.368 142.188C9.50775 142.229 9.38486 141.903 9.38486 141.13C9.42582 131.283 9.38486 121.435 9.42582 111.588C9.42582 110.448 9.18005 110.123 7.99212 110.163C5.61626 110.285 3.28137 110.163 0.905517 110.204C0.209146 110.204 -0.0366321 110.041 0.00433094 109.309C0.045294 108.292 0.045294 107.274 0.00433094 106.257C0.00433094 105.687 0.209146 105.443 0.823591 105.443C8.44271 105.484 16.0618 105.484 23.681 105.443C24.2954 105.443 24.5002 105.606 24.5002 106.257C24.4593 107.274 24.4593 108.292 24.5002 109.309C24.5412 110.001 24.2544 110.204 23.599 110.204C21.1003 110.163 18.5606 110.245 16.0618 110.163C15.2016 110.123 14.9558 110.367 14.9558 111.221C14.9558 116.267 14.9149 121.313 14.9149 126.278Z" fill="#FA790E"/>
<path fill-rule="evenodd" clip-rule="evenodd" d="M53.0627 0.132136C42.0175 1.25815 32.1255 8.16095 27.2563 18.1402C25.8006 21.1235 25.0187 23.5108 24.3367 27.0538L24.0442 28.5724L24 52.3419C23.9505 78.94 23.917 77.8279 24.8808 81.6576C25.5044 84.1352 26.1031 85.7703 27.2501 88.1282C28.5435 90.7867 31.4582 95.0697 31.7953 94.8069C35.6585 91.7944 36.6928 91.047 37.2174 90.8886C37.7253 90.7352 38.0641 90.7382 39.5253 90.9091C40.4673 91.0191 41.3469 91.0746 41.4801 91.0322C41.8285 90.9213 47.185 84.3405 47.41 83.747C47.4955 83.5213 47.4273 83.1935 47.1468 82.4839C46.3508 80.4697 46.3122 79.1542 47.0064 77.6954C47.4623 76.7373 48.5529 75.5477 49.3816 75.1046L49.9685 74.7909L77.9472 74.8371C103.621 74.8793 105.963 74.9011 106.378 75.1012C106.627 75.221 106.949 75.482 107.094 75.6812C107.346 76.0261 107.348 76.0648 107.14 76.5016C106.674 77.4817 106.747 77.4612 96.5746 79.4819C91.4348 80.5028 86.6144 81.4815 85.8628 81.6564C82.5145 82.4359 80.7846 82.6137 75.3995 82.7312L71.2122 82.8227L70.4651 83.2763C68.4888 84.4767 66.6279 85.2353 63.8695 85.965C62.3216 86.3745 61.582 86.7537 61.0515 87.4094C60.8939 87.6042 59.9207 88.6676 58.8888 89.7727C57.8568 90.8775 57.0126 91.8892 57.0126 92.0206C57.0126 92.1521 57.1163 92.3079 57.243 92.3671C57.3698 92.4261 59.3795 92.5068 61.7092 92.5463C65.5382 92.6111 65.9302 92.6381 65.7908 92.8265C65.644 93.025 63.3938 94.8175 53.9527 102.257C51.228 104.404 49.8327 105.583 49.943 105.645C50.0362 105.697 50.7909 105.848 51.6204 105.98C53.0367 106.205 54.5873 106.219 77.0914 106.219C103.607 106.219 101.866 106.271 105.536 105.369C114.897 103.068 122.786 96.681 126.993 87.9962C128.383 85.1262 129.174 82.6889 129.852 79.1803L130.139 77.696L130.183 53.9925C130.222 33.0985 130.203 30.0856 130.021 28.5724C129.218 21.8946 126.385 15.6938 121.835 10.6549C116.389 4.62404 108.871 0.859217 100.791 0.116288C98.9999 -0.048382 54.6888 -0.0337228 53.0627 0.132136ZM74.4253 3.43927C75.1409 3.68264 75.6684 3.72939 78.4739 3.79871C81.8074 3.88112 82.138 3.93711 82.4208 4.46703C82.6325 4.86372 82.581 5.33172 82.2408 6.10317C81.61 7.53357 80.7173 8.17019 79.3418 8.17019C78.7368 8.17019 78.6055 8.42836 78.6055 9.61829C78.6055 12.3429 76.6572 14.7816 73.906 15.5002C70.411 16.4132 66.7589 13.9479 66.1951 10.2951C65.892 8.33064 66.5563 6.35618 67.9985 4.9349C69.7551 3.20382 72.1163 2.65434 74.4253 3.43927ZM92.7937 17.1755C93.4406 17.4791 93.8844 17.9948 95.1577 19.9229C97.8924 24.0635 101.157 31.0634 103.688 38.2122C104.879 41.5765 105.333 43.2947 105.333 44.4313C105.333 45.2694 105.389 45.5144 105.717 46.1044C105.928 46.4845 106.254 47.289 106.441 47.892C106.894 49.3498 106.921 51.3949 106.505 52.7572C105.287 56.7494 101.913 59.3169 97.8944 59.3111C96.3478 59.3089 95.253 59.0569 93.9651 58.4069C92.096 57.4638 90.7844 56.1413 89.9143 54.3227C89.1422 52.7091 88.9861 51.9486 89.0327 50.031L89.0729 48.3803H87.9315C87.3037 48.3803 86.7425 48.4281 86.6845 48.4865C86.6264 48.545 86.5461 49.2353 86.5059 50.0208C86.44 51.3108 86.3947 51.5113 86.0365 52.0935C85.4512 53.0453 84.4767 53.5964 83.3789 53.5964C82.7929 53.5964 82.3802 53.5135 81.9906 53.3174C80.6926 52.6641 80.3135 51.9702 80.1671 49.9797C80.1089 49.1889 80.0251 48.5055 79.9809 48.4611C79.9367 48.4166 77.7778 48.3633 75.1832 48.3425L70.4659 48.3048L70.4803 50.0592C70.4908 51.3352 70.4334 52.0428 70.2699 52.6539C69.6368 55.0207 67.8071 57.2925 65.7009 58.327C64.2023 59.063 63.2801 59.2811 61.6208 59.2921C59.9383 59.3032 58.9242 59.0624 57.4734 58.3078C56.3398 57.718 54.8999 56.4144 54.1382 55.2882C53.1093 53.7667 52.5902 51.5937 52.7498 49.4745L52.8371 48.3143H51.0643C49.0681 48.3143 48.4121 48.1602 47.6197 47.5049C47.3496 47.2817 46.9827 46.8099 46.8041 46.4565L46.4794 45.814L46.4838 32.0431C46.488 19.0465 46.5013 18.2564 46.7221 17.9915C47.326 17.2667 47.135 17.2818 55.6362 17.2818C64.3143 17.2818 63.9359 17.2457 64.4666 18.1251C64.702 18.5151 64.7172 18.9893 64.7577 27.2855C64.8078 37.5241 64.5555 36.3851 66.7424 36.2433C67.5047 36.1939 68.1435 36.1381 68.1622 36.1194C68.1808 36.1007 68.2358 32.3151 68.2842 27.707C68.3665 19.8879 68.3889 19.2958 68.6187 18.8362C69.0715 17.9306 69.3194 17.874 72.7465 17.8921C74.8812 17.9033 76.5324 17.9924 78.3422 18.1943C82.9672 18.7101 86.8246 19.2419 87.3758 19.4399L87.9171 19.6341L88.2956 18.8395C89.1517 17.0434 91.0308 16.3481 92.7937 17.1755ZM78.0789 28.3602C78.0789 32.9217 78.1022 33.5051 78.2872 33.5762C78.4017 33.6203 79.6197 33.6564 80.9938 33.6564C82.3798 33.6564 83.7491 33.7212 84.0695 33.8022C84.7715 33.9795 85.6322 34.6917 85.9866 35.3887C86.1309 35.6722 86.3063 36.3589 86.3766 36.9147C86.4469 37.4704 86.5228 37.9435 86.5453 37.9661C86.5677 37.9887 86.7987 37.7264 87.0585 37.3833C87.3184 37.0403 88.544 35.4226 89.7819 33.7884C91.5518 31.4522 92.0321 30.7326 92.0294 30.4211C92.0231 29.7021 91.4328 25.3491 91.3272 25.2429C91.2702 25.1857 89.1727 25.1193 86.6658 25.0951C81.534 25.0459 81.555 25.0497 80.7435 24.0362C80.2685 23.4429 79.7236 23.2262 78.7043 23.225L78.0789 23.2242V28.3602ZM60.233 47.4384C59.0339 47.9983 58.4609 48.95 58.4609 50.3812C58.4609 52.3419 59.7579 53.6017 61.7678 53.5935C62.6744 53.5898 63.3967 53.2577 64.0296 52.5537C64.6801 51.83 64.7808 51.5344 64.7808 50.3472C64.7808 49.171 64.5229 48.5656 63.733 47.8875C62.7769 47.0666 61.4056 46.8907 60.233 47.4384ZM96.7536 47.3021C94.2774 48.2307 93.9298 51.738 96.1759 53.1308C96.7553 53.4901 96.9287 53.5304 97.8944 53.5304C98.86 53.5304 99.0334 53.4901 99.6128 53.1308C100.759 52.4201 101.334 51.0206 101.068 49.5939C100.939 48.9084 100.239 47.9534 99.5819 47.5669C98.8674 47.1468 97.5073 47.0195 96.7536 47.3021ZM124.32 62.3565C124.867 62.6272 124.975 64.4153 124.477 64.9689C124.211 65.2639 119.845 68.4857 119.29 68.7965C118.805 69.0674 35.5755 69.1439 35.0357 68.8738C34.5202 68.6159 30.5918 65.7648 29.9633 65.1926C29.4296 64.7067 29.4289 64.7047 29.4473 63.7711C29.4663 62.8055 29.5974 62.5031 30.0826 62.305C30.4346 62.1613 124.028 62.2124 124.32 62.3565Z" fill="#EC7004"/>
</svg>
