<svg width="150" height="150" viewBox="0 0 150 150" fill="none" xmlns="http://www.w3.org/2000/svg">
<path fill-rule="evenodd" clip-rule="evenodd" d="M41.0694 0.186597C25.4718 1.77671 11.5028 11.5246 4.62667 25.6169C2.57101 29.8299 1.46677 33.2011 0.50364 38.2043L0.0906847 40.3488L0.0282119 73.9153C-0.0416983 111.476 -0.0889245 109.906 1.27209 115.314C2.15267 118.813 2.9981 121.122 4.61793 124.451C6.44434 128.206 10.5605 134.254 11.0365 133.883C16.4919 129.629 17.9526 128.573 18.6933 128.35C19.4106 128.133 19.8891 128.137 21.9525 128.379C23.2827 128.534 24.5249 128.612 24.713 128.552C25.205 128.396 32.7693 119.103 33.087 118.264C33.2077 117.946 33.1114 117.483 32.7154 116.481C31.5912 113.636 31.5367 111.779 32.517 109.719C33.1609 108.366 34.7009 106.686 35.8712 106.06L36.7001 105.617L76.2105 105.682C112.466 105.742 115.774 105.773 116.36 106.055C116.711 106.224 117.166 106.593 117.371 106.874C117.726 107.361 117.729 107.416 117.436 108.033C116.778 109.417 116.88 109.388 102.515 112.241C95.2572 113.683 88.45 115.065 87.3885 115.312C82.6603 116.413 80.2173 116.664 72.6127 116.83L66.6996 116.959L65.6446 117.6C62.8537 119.295 60.2258 120.366 56.3305 121.397C54.1445 121.975 53.1001 122.51 52.351 123.436C52.1285 123.711 50.7541 125.213 49.2969 126.774C47.8396 128.334 46.6474 129.763 46.6474 129.948C46.6474 130.134 46.7939 130.354 46.9728 130.437C47.1518 130.521 49.9899 130.635 53.2798 130.69C58.687 130.782 59.2405 130.82 59.0436 131.086C58.8363 131.366 55.6588 133.898 42.3263 144.404C38.4787 147.436 36.5082 149.101 36.664 149.188C36.7956 149.262 37.8614 149.475 39.0328 149.661C41.0328 149.979 43.2225 149.999 75.002 149.999C112.447 149.999 109.987 150.073 115.171 148.798C128.39 145.549 139.53 136.529 145.471 124.265C147.435 120.212 148.551 116.77 149.508 111.816L149.913 109.719L149.976 76.2463C150.031 46.7405 150.004 42.4857 149.747 40.3488C148.613 30.9187 144.613 22.1622 138.187 15.0465C130.496 6.52991 119.88 1.21336 108.47 0.164218C105.94 -0.0683233 43.3659 -0.0476221 41.0694 0.186597ZM71.237 4.85681C72.2476 5.20049 72.9924 5.2665 76.9542 5.36441C81.6617 5.48077 82.1285 5.55984 82.5279 6.30818C82.8269 6.86837 82.7542 7.52925 82.2737 8.61867C81.3829 10.6386 80.1223 11.5376 78.1799 11.5376C77.3255 11.5376 77.1402 11.9022 77.1402 13.5826C77.1402 17.4302 74.3888 20.874 70.5037 21.8888C65.5682 23.1781 60.4108 19.6967 59.6146 14.5383C59.1866 11.7642 60.1246 8.97597 62.1613 6.96888C64.6419 4.52431 67.9763 3.74837 71.237 4.85681ZM97.1762 24.2547C98.0896 24.6834 98.7164 25.4116 100.515 28.1344C104.376 33.9817 108.987 43.8666 112.561 53.9619C114.242 58.7129 114.884 61.1392 114.884 62.7442C114.884 63.9278 114.963 64.2737 115.426 65.1069C115.724 65.6438 116.184 66.7798 116.448 67.6313C117.088 69.69 117.126 72.578 116.539 74.5018C114.818 80.1394 110.055 83.7652 104.379 83.757C102.195 83.7538 100.649 83.398 98.8304 82.4801C96.1909 81.1483 94.3387 79.2807 93.11 76.7125C92.0197 74.4339 91.7992 73.3599 91.865 70.6519L91.9217 68.3209H90.3099C89.4234 68.3209 88.6309 68.3884 88.5489 68.4708C88.4669 68.5534 88.3535 69.5283 88.2968 70.6375C88.2037 72.4592 88.1397 72.7423 87.634 73.5645C86.8073 74.9087 85.4312 75.6868 83.8809 75.6868C83.0534 75.6868 82.4707 75.5697 81.9205 75.2928C80.0874 74.3703 79.5521 73.3903 79.3453 70.5795C79.2631 69.4627 79.1449 68.4977 79.0824 68.435C79.0199 68.3722 75.9712 68.2968 72.3073 68.2675L65.6457 68.2142L65.666 70.6918C65.6808 72.4937 65.5998 73.4929 65.3688 74.3559C64.4749 77.6982 61.891 80.9064 58.9166 82.3673C56.8004 83.4066 55.4981 83.7146 53.155 83.7301C50.779 83.7458 49.3469 83.4058 47.2982 82.3401C45.6973 81.5073 43.6639 79.6663 42.5883 78.076C41.1353 75.9274 40.4023 72.8587 40.6277 69.8661L40.7509 68.2276H38.2474C35.4285 68.2276 34.5022 68.01 33.383 67.0847C33.0017 66.7695 32.4835 66.1033 32.2314 65.6042L31.7729 64.6968L31.779 45.2501C31.785 26.8967 31.8037 25.781 32.1155 25.4069C32.9684 24.3833 32.6986 24.4048 44.7037 24.4048C56.9586 24.4048 56.4242 24.3537 57.1737 25.5956C57.5062 26.1463 57.5276 26.816 57.5848 38.5316C57.6555 52.9902 57.2992 51.3818 60.3876 51.1815C61.4639 51.1117 62.3661 51.0329 62.3925 51.0066C62.4187 50.9801 62.4964 45.6342 62.5648 39.1268C62.681 28.085 62.7126 27.2488 63.0371 26.5998C63.6765 25.321 64.0266 25.241 68.8662 25.2665C71.8807 25.2824 74.2125 25.4082 76.7683 25.6934C83.2995 26.4218 88.7468 27.1727 89.5253 27.4522L90.2896 27.7266L90.8242 26.6045C92.0331 24.068 94.6867 23.0862 97.1762 24.2547ZM76.3964 40.0492C76.3964 46.4908 76.4294 47.3146 76.6906 47.4151C76.8523 47.4774 78.5724 47.5283 80.5128 47.5283C82.4701 47.5283 84.4038 47.6199 84.8562 47.7342C85.8475 47.9846 87.063 48.9903 87.5635 49.9746C87.7673 50.375 88.0149 51.3447 88.1142 52.1295C88.2135 52.9143 88.3206 53.5824 88.3524 53.6143C88.384 53.6462 88.7103 53.2758 89.0772 52.7914C89.4442 52.3069 91.1748 50.0225 92.923 47.7148C95.4225 44.4156 96.1007 43.3995 96.0968 42.9596C96.0879 41.9442 95.2544 35.797 95.1053 35.6471C95.0247 35.5664 92.0627 35.4726 88.5225 35.4384C81.2757 35.3689 81.3052 35.3743 80.1593 33.9431C79.4885 33.1052 78.7191 32.7992 77.2796 32.7975L76.3964 32.7964V40.0492ZM51.1951 66.9907C49.5018 67.7814 48.6926 69.1253 48.6926 71.1464C48.6926 73.9153 50.5243 75.6943 53.3625 75.6827C54.6428 75.6775 55.6628 75.2085 56.5566 74.2144C57.4751 73.1925 57.6174 72.775 57.6174 71.0985C57.6174 69.4375 57.2531 68.5825 56.1377 67.6249C54.7875 66.4658 52.851 66.2174 51.1951 66.9907ZM102.768 66.7983C99.2714 68.1096 98.7806 73.0625 101.952 75.0293C102.771 75.5367 103.016 75.5936 104.379 75.5936C105.743 75.5936 105.988 75.5367 106.806 75.0293C108.424 74.0257 109.237 72.0494 108.86 70.0346C108.679 69.0666 107.691 67.718 106.762 67.1722C105.753 66.579 103.833 66.3992 102.768 66.7983ZM141.696 88.0576C142.469 88.4399 142.621 90.965 141.918 91.7467C141.543 92.1633 135.377 96.713 134.593 97.1518C133.909 97.5345 16.3748 97.6425 15.6124 97.2611C14.8845 96.8969 9.33688 92.8706 8.44943 92.0626C7.69566 91.3764 7.69473 91.3736 7.72076 90.0551C7.74753 88.6916 7.93272 88.2646 8.61788 87.9848C9.11487 87.782 141.284 87.8541 141.696 88.0576Z" fill="#EC7004"/>
</svg>
