<svg width="44" height="70" viewBox="0 0 44 70" fill="none" xmlns="http://www.w3.org/2000/svg">
<path d="M44 21.9685C44 30.3336 39.318 37.6066 32.428 41.3172C29.3246 42.9885 25.7732 43.937 22 43.937C18.2268 43.937 14.6754 42.9885 11.572 41.3172C4.68203 37.6066 0 30.3336 0 21.9685C0 9.83564 9.84974 0 22 0C34.1503 0 44 9.83564 44 21.9685Z" fill="#FA790E"/>
<path d="M22 43.937C18.2268 43.937 14.6754 42.9885 11.572 41.3172C19.1859 56.1705 21.1304 72.521 22 69.05C22.8696 65.579 24.8664 55.3727 32.428 41.3172C29.3246 42.9885 25.7732 43.937 22 43.937Z" fill="#FA790E"/>
<path fill-rule="evenodd" clip-rule="evenodd" d="M11.3573 13.8525C11.2117 13.8748 11.0493 14.0442 10.9928 14.2329C10.9534 14.3645 10.9578 14.406 11.0234 14.5179C11.1816 14.7881 11.2711 14.8203 11.8544 14.817C12.2795 14.8145 12.4081 14.7996 12.5351 14.7378C12.8964 14.562 12.8712 14.0367 12.4941 13.8859C12.3463 13.8267 11.6579 13.8065 11.3573 13.8525ZM9.69709 15.9778C9.24147 16.0074 9.19743 16.024 9.08283 16.2095C8.93322 16.4515 8.9884 16.6839 9.23118 16.8339C9.34277 16.9029 9.46281 16.9168 10.1283 16.9376C10.5509 16.9508 11.1426 16.9449 11.443 16.9245L11.9893 16.8874L12.1241 16.7314C12.3165 16.5088 12.3101 16.3402 12.1016 16.1418L11.9441 15.992L11.3225 15.9652C10.6502 15.936 10.2978 15.9388 9.69709 15.9778ZM10.9605 20.2466C10.7289 20.2747 10.6829 20.2957 10.5594 20.4305C10.4383 20.5626 10.423 20.6023 10.4438 20.7299C10.4717 20.9024 10.5803 21.0619 10.7176 21.1325C10.8632 21.2073 11.6047 21.1998 11.7608 21.1219C11.9065 21.0492 12.0313 20.7814 11.9955 20.6182C11.9221 20.2839 11.6019 20.169 10.9605 20.2466ZM15.4297 21.9522C14.9133 22.1189 14.6547 22.5559 14.8035 23.0105C14.883 23.2536 15.0062 23.3863 15.2685 23.511L15.4628 23.6034L18.7307 23.5786C20.528 23.5649 24.2576 23.5512 27.0186 23.5481L32.0388 23.5424L32.2336 23.335C32.3515 23.2094 32.4457 23.063 32.4724 22.9641C32.5641 22.6235 32.3615 22.2143 32.0085 22.0274L31.8396 21.9379L23.6861 21.9284C19.2017 21.9232 15.4863 21.9339 15.4297 21.9522ZM9.12777 23.1537C9.12777 23.3837 9.14456 23.5078 9.1786 23.5299C9.20658 23.548 9.58627 23.5719 10.0224 23.5831L10.8154 23.6034L10.8392 26.4906C10.8524 28.0785 10.8661 29.3823 10.8697 29.3879C10.8734 29.3935 11.0752 29.3981 11.3182 29.3981H11.76L11.7858 29.2094C11.8001 29.1057 11.8117 27.7973 11.8117 26.3019V23.5831H12.2731C12.5269 23.5831 12.902 23.5712 13.1068 23.5567L13.479 23.5303V23.1704V22.8105H11.3034H9.12777V23.1537ZM27.0411 24.4511C26.9613 24.5106 26.9597 24.5592 26.9597 26.9283C26.9597 28.7032 26.9722 29.36 27.0069 29.402C27.043 29.4455 27.1465 29.456 27.4433 29.4461L27.8324 29.4332L27.8434 28.5922L27.8544 27.7513L28.0087 27.6699L28.1631 27.5885L28.3137 27.754C28.3966 27.845 28.565 28.035 28.688 28.1764C29.1823 28.7442 29.7587 29.3794 29.8041 29.406C29.8565 29.4369 30.8364 29.4592 30.8653 29.4303C30.8878 29.4078 29.818 28.2111 28.9409 27.2774C28.8407 27.1708 28.8113 27.1114 28.8364 27.0665C28.8556 27.0321 29.0909 26.8089 29.3592 26.5704C29.6275 26.332 29.9568 26.0388 30.091 25.9189C30.2252 25.799 30.4209 25.6288 30.5258 25.5407C30.7019 25.393 30.7098 25.3787 30.6275 25.3567C30.5784 25.3435 30.3349 25.3325 30.0863 25.3322L29.6343 25.3317L29.3079 25.6265C29.1285 25.7886 28.732 26.1546 28.4269 26.4398C28.1218 26.7249 27.859 26.9582 27.8429 26.9582C27.8268 26.9582 27.8191 26.4138 27.8257 25.7485C27.8333 24.986 27.8226 24.5163 27.7969 24.4781C27.7372 24.3893 27.1517 24.3684 27.0411 24.4511ZM13.7279 25.289C13.6523 25.308 13.5517 25.3417 13.5043 25.3638C13.4568 25.3859 13.3357 25.4259 13.235 25.4527C13.1344 25.4794 13.0109 25.5276 12.9605 25.5597L12.8691 25.6182L13.0339 25.946C13.1343 26.1458 13.2178 26.2656 13.2474 26.2526C13.8387 25.9926 13.8991 25.9774 14.3569 25.973C14.748 25.9692 14.8331 25.9809 14.9985 26.061C15.1034 26.1117 15.2369 26.2159 15.2953 26.2924C15.3863 26.4117 15.5096 26.7854 15.5116 26.9481C15.5126 27.0203 15.3697 27.0111 15.3065 26.9349C15.2319 26.8451 14.9593 26.7116 14.7193 26.6475C14.429 26.57 13.9888 26.5796 13.6302 26.6713C13.3528 26.7423 13.2655 26.7789 12.9824 26.9433C12.8402 27.0259 12.6266 27.2556 12.5431 27.4159C12.4981 27.5021 12.4402 27.6957 12.4145 27.846C12.3722 28.0921 12.3765 28.1486 12.4568 28.4131C12.6685 29.1098 13.4356 29.5594 14.4143 29.5604C14.8232 29.5608 15.4312 29.4428 15.7766 29.296C15.9861 29.2069 16.0602 29.1816 16.0918 29.1883C16.1086 29.1919 16.1223 29.1784 16.1223 29.1585C16.1223 29.1385 16.168 29.1107 16.2239 29.0967L16.3256 29.0712L16.3244 27.9436C16.3231 26.7603 16.2885 26.3115 16.1815 26.0859C16.0516 25.8123 15.8421 25.6208 15.4781 25.4434L15.126 25.2717L14.4957 25.2631C14.149 25.2584 13.8035 25.27 13.7279 25.289ZM18.0132 25.3267C17.6136 25.4492 17.1722 25.6492 16.9635 25.8024L16.7679 25.9461L16.7805 28.7105C16.7916 31.1142 16.8012 31.48 16.8543 31.5135C16.8878 31.5347 17.0846 31.5523 17.2914 31.5527L17.6676 31.5533V30.4011C17.6676 29.7674 17.6786 29.2379 17.6921 29.2244C17.7057 29.2109 17.82 29.2531 17.9463 29.3182C18.3056 29.5036 18.8318 29.5985 19.2536 29.554C19.6316 29.5142 20.1318 29.3613 20.3282 29.2257C20.5297 29.0867 20.8548 28.7816 20.9219 28.6688C20.9559 28.6114 21.0143 28.5187 21.0515 28.4628C21.137 28.3342 21.2755 27.8356 21.3098 27.5333C21.3641 27.0534 21.0833 26.3091 20.7054 25.9313C20.4665 25.6924 20.4307 25.6687 19.9449 25.4289L19.6399 25.2783L18.9486 25.2652C18.3672 25.2541 18.2184 25.2639 18.0132 25.3267ZM23.3201 25.2744C23.2866 25.287 23.2317 25.308 23.1981 25.321C23.1646 25.334 23.1231 25.3415 23.1059 25.3379C23.0888 25.3342 22.961 25.3886 22.8219 25.4588C22.4557 25.6437 22.0626 26.04 21.8706 26.418L21.7138 26.7268L21.7147 27.2796C21.7156 27.855 21.7249 27.9205 21.8567 28.2708C22.0185 28.7013 22.4737 29.1418 22.9844 29.3622C23.3221 29.508 23.8745 29.5918 24.2397 29.5528C24.6465 29.5092 25.1909 29.3637 25.2188 29.291C25.2305 29.2605 25.2839 29.2354 25.3374 29.2354C25.391 29.2354 25.4714 29.1988 25.5161 29.1541C25.5608 29.1094 25.5974 29.0826 25.5974 29.0947C25.5974 29.1205 25.6424 29.0865 25.8617 28.8946L26.0244 28.7524L25.7845 28.5364C25.6526 28.4177 25.522 28.307 25.4943 28.2905C25.4642 28.2726 25.3644 28.3238 25.2462 28.4179C24.4508 29.0503 23.2472 28.9345 22.7726 28.1799C22.6696 28.0161 22.5682 27.6381 22.603 27.5474C22.6231 27.4951 22.8619 27.4869 24.3558 27.4869H26.0854V27.2665C26.0854 26.7769 25.8241 26.1662 25.4581 25.8001C25.3657 25.7078 25.1351 25.553 24.9456 25.4561L24.6011 25.2801L23.9911 25.2657C23.6556 25.2578 23.3537 25.2617 23.3201 25.2744ZM32.5513 25.2801C32.473 25.2893 32.3915 25.3138 32.3703 25.3345C32.3491 25.3553 32.3002 25.3723 32.2618 25.3723C32.2235 25.3723 32.186 25.386 32.1785 25.4028C32.171 25.4196 32.0801 25.4759 31.9765 25.528C31.6637 25.685 31.088 26.325 31.0875 26.5161C31.0874 26.5525 31.0596 26.6484 31.0259 26.7293C30.921 26.9802 30.9008 27.5647 30.9859 27.8832C31.1447 28.4776 31.4477 28.8964 31.9413 29.204C32.2426 29.3917 32.4313 29.4609 32.8074 29.5214C33.6186 29.6521 34.5724 29.4066 35.0929 28.9333L35.2962 28.7484L35.1822 28.6564C35.1196 28.6058 34.988 28.4945 34.8899 28.4091L34.7115 28.2537L34.5076 28.4091C34.1689 28.6671 34.0268 28.7412 33.7845 28.786C33.4766 28.8429 32.9506 28.8404 32.8081 28.7814C32.7451 28.7552 32.6844 28.7321 32.6733 28.7299C32.6621 28.7277 32.6301 28.7113 32.6021 28.6936C32.5742 28.6758 32.5513 28.673 32.5513 28.6873C32.5513 28.7016 32.4499 28.6166 32.326 28.4983C32.0579 28.2424 31.8474 27.8509 31.8671 27.6446L31.8803 27.5072L33.6246 27.4966L35.3688 27.486L35.3429 27.2119C35.3128 26.8947 35.185 26.412 35.1423 26.4547C35.1263 26.4707 35.1132 26.4378 35.1132 26.3816C35.1132 26.3254 35.0812 26.2415 35.042 26.1952C35.0029 26.1489 34.8981 26.018 34.809 25.9043C34.72 25.7906 34.6262 25.6976 34.6005 25.6976C34.5748 25.6976 34.5314 25.6705 34.5039 25.6375C34.4411 25.5618 34.2692 25.4731 33.9431 25.3481C33.7191 25.2622 33.6276 25.2511 33.1908 25.2568C32.9173 25.2604 32.6295 25.2709 32.5513 25.2801ZM24.4994 26.0605C24.6001 26.1118 24.7435 26.2112 24.8182 26.2815C24.9707 26.4251 25.1251 26.6966 25.0882 26.7563C25.0735 26.7801 24.5995 26.7956 23.8858 26.7956C22.8803 26.7956 22.7042 26.7867 22.6844 26.7351C22.6493 26.6436 22.9118 26.3046 23.1335 26.1551C23.4034 25.973 23.5278 25.9426 23.9504 25.9558C24.236 25.9647 24.3567 25.9877 24.4994 26.0605ZM33.78 26.0955C33.9463 26.1774 34.0989 26.2893 34.1744 26.3845C34.304 26.5481 34.3906 26.732 34.3548 26.7677C34.3163 26.8063 32.0446 26.797 31.9844 26.7581C31.9356 26.7266 31.9458 26.6882 32.0454 26.528C32.3965 25.9635 33.1369 25.7789 33.78 26.0955ZM19.5789 26.15C19.8547 26.2789 20.0913 26.5064 20.244 26.7898C20.3553 26.9965 20.3595 27.0239 20.3455 27.4596C20.3325 27.8649 20.3192 27.9339 20.2215 28.1002C19.9058 28.6377 19.3496 28.8698 18.6635 28.7504C18.349 28.6956 18.1296 28.5957 17.8811 28.3942L17.7083 28.254L17.7089 27.3113C17.7092 26.7928 17.7229 26.3483 17.7394 26.3235C17.7842 26.2556 18.0056 26.151 18.2463 26.0839C18.3898 26.0438 18.6082 26.0277 18.9079 26.0348C19.2893 26.044 19.3882 26.0609 19.5789 26.15ZM14.8503 27.397C14.9671 27.4416 15.1372 27.5372 15.2283 27.6094L15.3941 27.7406L15.3874 28.1568C15.381 28.5602 15.3775 28.5748 15.2737 28.6354C15.0843 28.7459 14.549 28.8417 14.2675 28.8154C13.4111 28.7354 12.9978 28.0521 13.5013 27.5486C13.5787 27.4712 13.7289 27.38 13.835 27.3459C14.0866 27.2651 14.5684 27.2893 14.8503 27.397Z" fill="white"/>
<path d="M21.8538 9.26481C21.2504 9.46191 20.883 10.0791 21.0195 10.6664C21.0492 10.7942 21.1032 10.9316 21.1395 10.9717C21.1758 11.0118 21.2055 11.0606 21.2055 11.0801C21.2055 11.0997 21.2614 11.1734 21.3298 11.2439L21.4541 11.3721L21.34 11.4119C21.2772 11.4337 21.1069 11.4943 20.9615 11.5463L20.6972 11.6409L17.5659 11.6697C15.8437 11.6856 14.3469 11.7123 14.2397 11.7291C14.0252 11.7627 13.8231 11.9253 13.7794 12.0994C13.7435 12.2426 13.8312 12.4209 14.0018 12.5514L14.15 12.6648L16.3561 12.6769C17.5695 12.6836 18.5622 12.7042 18.5622 12.7227C18.5622 12.7413 18.4204 12.8813 18.2471 13.0339C18.0737 13.1865 17.8102 13.4266 17.6614 13.5675L17.3908 13.8237C16.7015 13.8237 16.3151 13.8237 15.6258 13.8237H13.8608L13.7216 13.9264C13.4641 14.1164 13.4146 14.3259 13.572 14.5598C13.7381 14.8065 13.7688 14.8114 15.2592 14.8324C16.004 14.8429 16.6081 14.864 16.6017 14.8794C16.5952 14.8948 16.472 15.1394 16.3277 15.4228L16.0656 15.9382L14.9044 15.94C14.2658 15.941 13.6616 15.9576 13.5616 15.9768C13.3462 16.0184 13.113 16.2418 13.113 16.4066C13.113 16.5869 13.2219 16.7832 13.364 16.8592C13.4816 16.922 13.642 16.9336 14.5872 16.9475C15.1854 16.9563 15.6746 16.9753 15.6742 16.9897C15.6738 17.004 15.6284 17.208 15.5733 17.4428C15.5182 17.6776 15.4728 17.9097 15.4724 17.9586L15.4716 18.0473L13.4485 18.0602C11.5499 18.0723 11.4157 18.0779 11.2681 18.1512C11.0936 18.2378 10.958 18.4258 10.958 18.5814C10.958 18.7114 11.0888 18.9267 11.2097 18.9956C11.2822 19.0369 11.7564 19.0536 13.3028 19.0694C14.4026 19.0806 15.3156 19.1031 15.3319 19.1194C15.3483 19.1357 15.3765 19.3279 15.3947 19.5464C15.4129 19.7649 15.4331 19.9986 15.4395 20.0656L15.4513 20.1876L14.5973 20.2105C14.1153 20.2233 13.6969 20.253 13.6368 20.2786C13.3469 20.4019 13.2603 20.7872 13.4717 21.0134C13.6688 21.2244 13.799 21.2379 15.3293 21.2066C16.7324 21.1778 16.9827 21.1551 18.5012 20.919C18.7249 20.8843 19.1275 20.8279 19.3959 20.7938C19.6643 20.7597 20.1218 20.6954 20.4125 20.6509C20.7033 20.6064 21.0693 20.5547 21.2258 20.536C22.2914 20.4085 22.6591 20.3579 22.7305 20.3288C22.7752 20.3106 22.9491 20.2847 23.1168 20.2713C23.3896 20.2495 24.3958 20.1156 25.5974 19.9412C25.8323 19.9071 26.2634 19.846 26.5555 19.8055C26.8476 19.765 29.655 19.3571 29.7192 19.3259C30.0039 19.2649 31.0136 19.0938 31.2209 18.988C31.6275 18.7807 31.4969 18.8051 31.3127 17.8698C31.1851 17.222 31.1296 17.0017 31.026 16.7312C30.966 16.5746 30.9073 16.3953 30.8955 16.3326C30.8337 16.004 30.0415 14.6185 29.6505 14.1553C29.5684 14.0582 29.5013 13.9621 29.5013 13.9418C29.5013 13.9216 29.4785 13.9043 29.4505 13.9035C29.4226 13.9026 29.3356 13.8193 29.2573 13.7183C29.017 13.4082 28.452 12.9113 27.979 12.5942C27.821 12.4883 27.6734 12.3876 27.651 12.3705C27.6287 12.3535 27.5555 12.3121 27.4884 12.2785C27.4213 12.245 27.3572 12.2084 27.346 12.1972C27.3349 12.186 27.1793 12.1053 27.0004 12.0179C26.8215 11.9305 26.611 11.8274 26.5327 11.7887C26.4544 11.75 26.2257 11.668 26.0244 11.6065C25.8231 11.5449 25.6218 11.479 25.5771 11.46C25.4932 11.4244 24.9286 11.293 24.6422 11.2425C24.553 11.2267 24.2008 11.2003 23.8596 11.1838C23.5184 11.1673 23.2275 11.1422 23.2133 11.128C23.1991 11.1138 23.2183 11.0372 23.2559 10.9579C23.2935 10.8786 23.3435 10.705 23.3669 10.5722C23.4039 10.3618 23.3982 10.297 23.3227 10.0699C23.1551 9.56645 22.7639 9.26635 22.2452 9.2435C22.0871 9.2365 21.911 9.2461 21.8538 9.26481Z" fill="white"/>
</svg>