<svg width="28" height="28" viewBox="0 0 28 28" fill="none" xmlns="http://www.w3.org/2000/svg">
<path d="M26.4256 16.2643L26.3973 16.2419L24.4949 14.7778C24.3744 14.6843 24.2783 14.5641 24.2144 14.427C24.1504 14.2899 24.1206 14.1399 24.1272 13.9893V13.3055C24.1212 13.1559 24.1514 13.007 24.2154 12.871C24.2794 12.7351 24.3754 12.616 24.4955 12.5236L26.3973 11.0589L26.4256 11.0365C26.7189 10.7967 26.9157 10.4624 26.9809 10.0933C27.0461 9.72416 26.9753 9.34435 26.7813 9.02174L24.2068 4.6504C24.2038 4.64627 24.2012 4.64192 24.1989 4.63738C24.0039 4.31924 23.7014 4.07819 23.3441 3.95609C22.9867 3.83398 22.5971 3.83854 22.2429 3.96897L22.2218 3.97665L19.9854 4.8598C19.8443 4.9158 19.6916 4.93809 19.54 4.92482C19.3883 4.91155 19.242 4.86311 19.1132 4.78349C18.9155 4.66124 18.7146 4.5457 18.5104 4.43686C18.3781 4.36643 18.2644 4.26645 18.1787 4.145C18.0929 4.02356 18.0374 3.88403 18.0167 3.73768L17.6798 1.39585L17.6725 1.35326C17.5992 0.990534 17.4008 0.663644 17.1108 0.427521C16.8208 0.191398 16.4568 0.0604353 16.08 0.0566406H10.9249C10.5428 0.0578405 10.1734 0.19134 9.88171 0.43362C9.59005 0.6759 9.39488 1.01142 9.33057 1.38106L9.32515 1.41418L8.9894 3.76075C8.9688 3.90668 8.91377 4.04588 8.82869 4.16726C8.74362 4.28864 8.63083 4.38886 8.49933 4.45993C8.29459 4.56814 8.09355 4.68296 7.89654 4.80419C7.76794 4.88333 7.62205 4.9314 7.47084 4.94446C7.31964 4.95752 7.16743 4.93519 7.02672 4.87932L4.78857 3.99203L4.76747 3.98375C4.41271 3.85319 4.02253 3.8488 3.66481 3.97136C3.30709 4.09392 3.00448 4.33566 2.80962 4.65454L2.80178 4.66755L0.223663 9.04185C0.0293427 9.36479 -0.041581 9.74502 0.0235748 10.1146C0.0887306 10.4841 0.285717 10.8189 0.579308 11.0589L0.607639 11.0814L2.51004 12.5454C2.63051 12.639 2.72665 12.7592 2.79058 12.8963C2.8545 13.0333 2.88437 13.1833 2.87774 13.3339V14.0177C2.88377 14.1674 2.85353 14.3163 2.78951 14.4522C2.72548 14.5882 2.62949 14.7073 2.50943 14.7997L0.607639 16.2643L0.579308 16.2868C0.286007 16.5266 0.0891813 16.8609 0.0240257 17.23C-0.0411299 17.5991 0.029634 17.9789 0.223663 18.3015L2.79817 22.6729C2.80113 22.677 2.80375 22.6814 2.806 22.6859C3.00108 23.004 3.30354 23.2451 3.66086 23.3672C4.01818 23.4893 4.40779 23.4847 4.76205 23.3543L4.78315 23.3466L7.01768 22.4635C7.15883 22.4075 7.31152 22.3852 7.46317 22.3985C7.61482 22.4117 7.76108 22.4602 7.88991 22.5398C8.08763 22.6624 8.28856 22.778 8.4927 22.8864C8.62506 22.9569 8.7387 23.0568 8.82445 23.1783C8.9102 23.2997 8.96567 23.4392 8.98638 23.5856L9.32153 25.9274L9.32876 25.97C9.40225 26.3333 9.60113 26.6607 9.89189 26.8969C10.1827 27.1331 10.5475 27.2637 10.9249 27.2666H16.08C16.4621 27.2654 16.8316 27.1319 17.1232 26.8897C17.4149 26.6474 17.6101 26.3119 17.6744 25.9422L17.6798 25.9091L18.0155 23.5625C18.0365 23.4163 18.0919 23.2769 18.1776 23.1555C18.2632 23.0341 18.3765 22.9341 18.5086 22.8633C18.7148 22.7545 18.9161 22.6392 19.1114 22.5191C19.24 22.4399 19.3859 22.3919 19.5371 22.3788C19.6883 22.3658 19.8405 22.3881 19.9812 22.444L22.2194 23.3283L22.2405 23.3366C22.5952 23.4674 22.9855 23.4719 23.3433 23.3493C23.701 23.2267 24.0036 22.9848 24.1983 22.6658C24.2007 22.6613 24.2033 22.657 24.2062 22.6528L26.7807 18.282C26.9753 17.9591 27.0465 17.5788 26.9815 17.2091C26.9164 16.8394 26.7194 16.5045 26.4256 16.2643ZM18.3193 13.8841C18.2754 14.8001 17.9613 15.6838 17.415 16.4279C16.8688 17.1719 16.114 17.7442 15.2425 18.0751C14.3709 18.406 13.4202 18.4813 12.5059 18.2918C11.5915 18.1023 10.753 17.6562 10.0923 17.0077C9.43153 16.3592 8.97702 15.5363 8.78403 14.6391C8.59103 13.7418 8.66786 12.8089 9.00517 11.9537C9.34248 11.0985 9.92575 10.3578 10.684 9.8219C11.4423 9.28595 12.343 8.97776 13.2764 8.93479C13.9466 8.90584 14.6155 9.01404 15.2408 9.25253C15.866 9.49102 16.4338 9.85457 16.9081 10.3201C17.3824 10.7856 17.7528 11.3428 17.9958 11.9564C18.2387 12.57 18.3489 13.2264 18.3193 13.8841Z" fill="#666666"/>
</svg>
