<svg width="28" height="25" viewBox="0 0 28 25" fill="none" xmlns="http://www.w3.org/2000/svg">
<path d="M24.5 0.291016H3.5C2.57205 0.292099 1.68239 0.694718 1.02622 1.41053C0.370061 2.12634 0.000992641 3.09688 0 4.1092V20.4728C0.000992641 21.4851 0.370061 22.4557 1.02622 23.1715C1.68239 23.8873 2.57205 24.2899 3.5 24.291H24.5C25.428 24.2899 26.3176 23.8873 26.9738 23.1715C27.6299 22.4557 27.999 21.4851 28 20.4728V4.1092C27.999 3.09688 27.6299 2.12634 26.9738 1.41053C26.3176 0.694718 25.428 0.292099 24.5 0.291016ZM23.6138 6.6067L14.6138 14.2431C14.4383 14.3919 14.2223 14.4727 14 14.4727C13.7777 14.4727 13.5618 14.3919 13.3863 14.2431L4.38625 6.6067C4.28051 6.51958 4.19169 6.41041 4.12496 6.28553C4.05823 6.16065 4.01491 6.02254 3.99753 5.87924C3.98015 5.73594 3.98905 5.59029 4.02371 5.45077C4.05837 5.31125 4.1181 5.18064 4.19944 5.06653C4.28077 4.95241 4.38208 4.85706 4.49749 4.78603C4.61289 4.715 4.74009 4.66969 4.87168 4.65275C5.00327 4.6358 5.13664 4.64756 5.26403 4.68733C5.39142 4.72711 5.5103 4.7941 5.61375 4.88442L14 11.9999L22.3862 4.88442C22.596 4.71167 22.8596 4.6359 23.1201 4.6735C23.3806 4.71111 23.617 4.85906 23.7783 5.08537C23.9396 5.31168 24.0128 5.59816 23.982 5.88285C23.9512 6.16754 23.8189 6.42757 23.6138 6.6067Z" fill="#666666"/>
</svg>
