<svg width="190" height="140" viewBox="0 0 190 140" fill="none" xmlns="http://www.w3.org/2000/svg">
<path fill-rule="evenodd" clip-rule="evenodd" d="M10.2451 0.775988C5.94924 2.21505 2.09261 6.28876 0.738765 10.8171C0.0163922 13.2347 0 14.5365 0 69.9917C0 125.447 0.0163922 126.749 0.738765 129.166C2.11347 133.763 5.97382 137.794 10.3774 139.229C12.7084 139.988 14.0175 140 95 140C175.982 140 177.292 139.988 179.623 139.229C184.026 137.794 187.887 133.763 189.261 129.166C189.984 126.749 190 125.447 190 69.9917C190 14.5365 189.984 13.2347 189.261 10.8171C187.887 6.21991 184.026 2.18977 179.623 0.754597C177.29 -0.00499374 176.013 -0.0162737 94.8678 0.00511778C14.5991 0.0265092 12.423 0.0463458 10.2451 0.775988ZM177.437 8.26571L178.472 8.73438L140.927 47.8546C105.45 84.821 103.249 87.0367 100.961 88.102C98.8402 89.0888 98.0992 89.2288 95 89.2288C91.9008 89.2288 91.1598 89.0888 89.0392 88.102C86.751 87.0367 84.5504 84.821 49.0729 47.8546L11.5282 8.73438L12.5631 8.26571C14.0678 7.5843 175.932 7.5843 177.437 8.26571ZM33.6237 43.0591L59.6078 70.1881L33.5294 97.4116L7.45098 124.635V70.2822C7.45098 40.3883 7.49345 15.9297 7.54524 15.9297C7.59702 15.9297 19.3323 28.138 33.6237 43.0591ZM182.549 70.2822V124.635L156.471 97.4116L130.392 70.1881L156.376 43.0591C170.668 28.138 182.403 15.9297 182.455 15.9297C182.507 15.9297 182.549 40.3883 182.549 70.2822ZM81.402 92.4289C83.2081 93.8665 85.9117 95.3016 88.6667 96.2856C90.2064 96.8356 91.7801 97.0172 95 97.0172C99.5451 97.0172 101.431 96.5695 105.245 94.5844C108.116 93.0905 109.522 91.8284 117.546 83.5398L125.003 75.837L151.614 103.621C177.901 131.065 178.213 131.409 177.196 131.813C176.489 132.094 150.797 132.221 95 132.221C39.203 132.221 13.5112 132.094 12.8038 131.813C11.7871 131.409 12.0993 131.065 38.386 103.621L64.9971 75.837L72.4545 83.5398C76.5558 87.7765 80.5824 91.7767 81.402 92.4289Z" fill="white"/>
</svg>
