<svg width="28" height="26" viewBox="0 0 28 26" fill="none" xmlns="http://www.w3.org/2000/svg">
<path d="M25.2219 6.01172H4.375C3.89156 6.01172 3.5 5.62016 3.5 5.13672C3.5 4.65328 3.89156 4.26172 4.375 4.26172H25.375C25.8584 4.26172 26.25 3.87016 26.25 3.38672C26.25 1.93695 25.0748 0.761719 23.625 0.761719H3.5C1.5668 0.761719 0 2.32852 0 4.26172V21.7617C0 23.6949 1.5668 25.2617 3.5 25.2617H25.2219C26.7542 25.2617 28 24.0843 28 22.6367V8.63672C28 7.18914 26.7542 6.01172 25.2219 6.01172ZM22.75 17.3867C21.7837 17.3867 21 16.603 21 15.6367C21 14.6704 21.7837 13.8867 22.75 13.8867C23.7163 13.8867 24.5 14.6704 24.5 15.6367C24.5 16.603 23.7163 17.3867 22.75 17.3867Z" fill="#666666"/>
</svg>
