<svg width="28" height="29" viewBox="0 0 28 29" fill="none" xmlns="http://www.w3.org/2000/svg">
<path d="M14.3042 6.15651C14.2227 6.07863 14.1144 6.03516 14.0017 6.03516C13.8891 6.03516 13.7807 6.07863 13.6993 6.15651L3.63135 15.7744C3.58859 15.8153 3.55457 15.8645 3.53136 15.9189C3.50814 15.9733 3.4962 16.0319 3.49627 16.091L3.49463 25.1178C3.49463 25.5819 3.679 26.027 4.00719 26.3552C4.33538 26.6834 4.7805 26.8678 5.24463 26.8678H10.5001C10.7322 26.8678 10.9547 26.7756 11.1188 26.6115C11.2829 26.4474 11.3751 26.2248 11.3751 25.9928V18.5553C11.3751 18.4392 11.4212 18.3279 11.5032 18.2459C11.5853 18.1639 11.6966 18.1178 11.8126 18.1178H16.1876C16.3036 18.1178 16.4149 18.1639 16.497 18.2459C16.579 18.3279 16.6251 18.4392 16.6251 18.5553V25.9928C16.6251 26.2248 16.7173 26.4474 16.8814 26.6115C17.0455 26.7756 17.268 26.8678 17.5001 26.8678H22.7534C23.2175 26.8678 23.6626 26.6834 23.9908 26.3552C24.319 26.027 24.5034 25.5819 24.5034 25.1178V16.091C24.5035 16.0319 24.4915 15.9733 24.4683 15.9189C24.4451 15.8645 24.4111 15.8153 24.3683 15.7744L14.3042 6.15651Z" />
<path d="M26.8466 13.9691L22.756 10.0557V4.11719C22.756 3.88512 22.6638 3.66256 22.4997 3.49847C22.3356 3.33437 22.1131 3.24219 21.881 3.24219H19.256C19.024 3.24219 18.8014 3.33437 18.6373 3.49847C18.4732 3.66256 18.381 3.88512 18.381 4.11719V5.86719L15.2135 2.83859C14.9171 2.53891 14.4763 2.36719 14 2.36719C13.5253 2.36719 13.0856 2.53891 12.7892 2.83914L1.15721 13.968C0.817052 14.2962 0.774396 14.8359 1.08393 15.1914C1.16165 15.2811 1.25683 15.3541 1.36365 15.4059C1.47048 15.4577 1.58672 15.4872 1.70531 15.4926C1.82389 15.498 1.94234 15.4792 2.05345 15.4374C2.16455 15.3956 2.26599 15.3316 2.35158 15.2494L13.6992 4.40594C13.7806 4.32805 13.889 4.28458 14.0017 4.28458C14.1143 4.28458 14.2227 4.32805 14.3041 4.40594L25.6528 15.2494C25.82 15.4097 26.0439 15.4972 26.2755 15.4927C26.5071 15.4882 26.7274 15.392 26.8882 15.2253C27.224 14.8775 27.1961 14.3033 26.8466 13.9691Z" />
</svg>
