<svg width="28" height="23" viewBox="0 0 28 23" fill="none" xmlns="http://www.w3.org/2000/svg">
<path d="M15.4787 2.59901L14.4462 0.507756C14.2756 0.144631 13.7419 0.131506 13.5537 0.507756L12.5213 2.59901L10.2331 2.92713C9.82625 2.98838 9.65125 3.49151 9.95312 3.79338L11.6156 5.41213L11.2219 7.69151C11.1606 8.09838 11.5806 8.41338 11.9569 8.22526L14.0087 7.14026L16.0475 8.20776C16.4237 8.39588 16.8481 8.08088 16.7825 7.67401L16.3888 5.39463L18.0513 3.79338C18.3487 3.49588 18.1781 2.99276 17.7712 2.92713L15.4831 2.59901H15.4787ZM11.2 11.4321C10.4256 11.4321 9.8 12.0578 9.8 12.8321V21.2321C9.8 22.0065 10.4256 22.6321 11.2 22.6321H16.8C17.5744 22.6321 18.2 22.0065 18.2 21.2321V12.8321C18.2 12.0578 17.5744 11.4321 16.8 11.4321H11.2ZM1.4 14.2321C0.625625 14.2321 0 14.8578 0 15.6321V21.2321C0 22.0065 0.625625 22.6321 1.4 22.6321H7C7.77437 22.6321 8.4 22.0065 8.4 21.2321V15.6321C8.4 14.8578 7.77437 14.2321 7 14.2321H1.4ZM19.6 18.4321V21.2321C19.6 22.0065 20.2256 22.6321 21 22.6321H26.6C27.3744 22.6321 28 22.0065 28 21.2321V18.4321C28 17.6578 27.3744 17.0321 26.6 17.0321H21C20.2256 17.0321 19.6 17.6578 19.6 18.4321Z" fill="#666666"/>
</svg>
