<svg width="27" height="28" viewBox="0 0 27 28" fill="none" xmlns="http://www.w3.org/2000/svg">
<path d="M13.5 0.527344C6.05618 0.527344 0 6.58352 0 14.0273C0 21.4712 6.05618 27.5273 13.5 27.5273C20.9438 27.5273 27 21.4712 27 14.0273C27 6.58352 20.9438 0.527344 13.5 0.527344ZM13.5 21.2907C13.2433 21.2907 12.9923 21.2146 12.7788 21.072C12.5654 20.9293 12.399 20.7266 12.3007 20.4894C12.2025 20.2522 12.1768 19.9912 12.2269 19.7394C12.277 19.4876 12.4006 19.2563 12.5821 19.0748C12.7637 18.8932 12.995 18.7696 13.2468 18.7195C13.4986 18.6694 13.7596 18.6951 13.9968 18.7934C14.2339 18.8916 14.4367 19.058 14.5793 19.2715C14.7219 19.485 14.7981 19.7359 14.7981 19.9927C14.7981 20.3369 14.6613 20.6671 14.4179 20.9105C14.1744 21.154 13.8443 21.2907 13.5 21.2907ZM14.9097 8.23532L14.5372 16.1536C14.5372 16.429 14.4278 16.6931 14.233 16.8879C14.0383 17.0826 13.7741 17.1921 13.4987 17.1921C13.2233 17.1921 12.9591 17.0826 12.7644 16.8879C12.5696 16.6931 12.4602 16.429 12.4602 16.1536L12.0877 8.23922V8.23597C12.0795 8.04576 12.1099 7.85586 12.1771 7.67771C12.2443 7.49956 12.3468 7.33684 12.4785 7.19936C12.6102 7.06187 12.7684 6.95247 12.9435 6.87773C13.1186 6.80298 13.307 6.76445 13.4974 6.76445C13.6878 6.76445 13.8762 6.80298 14.0513 6.87773C14.2264 6.95247 14.3846 7.06187 14.5163 7.19936C14.648 7.33684 14.7505 7.49956 14.8177 7.67771C14.8849 7.85586 14.9153 8.04576 14.9071 8.23597L14.9097 8.23532Z" fill="#666666"/>
</svg>
