<svg width="28" height="30" viewBox="0 0 28 30" fill="none" xmlns="http://www.w3.org/2000/svg">
<path d="M12.7148 1.27999C13.5297 0.901463 14.4703 0.901463 15.2852 1.27999L27.2398 6.82068C27.7047 7.03463 28 7.50093 28 8.0166C28 8.53227 27.7047 8.99856 27.2398 9.21251L15.2852 14.7532C14.4703 15.1317 13.5297 15.1317 12.7148 14.7532L0.760156 9.21251C0.295313 8.99308 0 8.52678 0 8.0166C0 7.50641 0.295313 7.03463 0.760156 6.82068L12.7148 1.27999ZM24.3305 12.493L27.2398 13.8426C27.7047 14.0565 28 14.5228 28 15.0385C28 15.5541 27.7047 16.0204 27.2398 16.2344L15.2852 21.7751C14.4703 22.1536 13.5297 22.1536 12.7148 21.7751L0.760156 16.2344C0.295313 16.015 0 15.5487 0 15.0385C0 14.5283 0.295313 14.0565 0.760156 13.8426L3.66953 12.493L11.982 16.3441C13.2617 16.9366 14.7383 16.9366 16.018 16.3441L24.3305 12.493ZM16.018 23.366L24.3305 19.5149L27.2398 20.8644C27.7047 21.0784 28 21.5447 28 22.0604C28 22.576 27.7047 23.0423 27.2398 23.2563L15.2852 28.797C14.4703 29.1755 13.5297 29.1755 12.7148 28.797L0.760156 23.2563C0.295313 23.0368 0 22.5705 0 22.0604C0 21.5502 0.295313 21.0784 0.760156 20.8644L3.66953 19.5149L11.982 23.366C13.2617 23.9585 14.7383 23.9585 16.018 23.366Z" fill="#666666"/>
</svg>
