<svg width="27" height="27" viewBox="0 0 27 27" fill="none" xmlns="http://www.w3.org/2000/svg">
<g clip-path="url(#clip0_127_2766)">
<path d="M13.5799 27.1598C21.0798 27.1598 27.1598 21.0798 27.1598 13.5799C27.1598 6.07992 21.0798 0 13.5799 0C6.07992 0 0 6.07992 0 13.5799C0 21.0798 6.07992 27.1598 13.5799 27.1598Z" fill="#FA790E"/>
<path d="M9.90537 12.3018V8.46746C9.90537 7.50888 10.7042 6.71006 11.6628 6.71006H15.3373C16.2959 6.71006 17.0947 7.50888 17.0947 8.46746V12.3018H18.6924V8.46746C18.6924 6.71006 17.2545 5.11243 15.3373 5.11243H11.6628C9.90537 5.11243 8.30774 6.5503 8.30774 8.46746V12.3018H9.90537V12.3018Z" fill="white"/>
<path d="M18.8521 11.6627H8.14796C7.82844 11.6627 7.50891 11.9822 7.50891 12.3018V21.2485C7.50891 21.568 7.82844 21.8876 8.14796 21.8876H19.0119C19.3314 21.8876 19.6509 21.568 19.6509 21.2485V12.3018C19.4912 11.9822 19.1716 11.6627 18.8521 11.6627ZM14.0592 16.6154V18.5325C14.0592 18.8521 13.7397 19.0118 13.5799 19.0118H13.4202C13.1006 19.0118 12.9409 18.8521 12.9409 18.5325V16.6154C12.6213 16.4556 12.3018 15.9763 12.3018 15.6568C12.3018 15.0177 12.7811 14.3787 13.5799 14.3787C14.219 14.3787 14.858 14.858 14.858 15.6568C14.6983 15.9763 14.5385 16.4556 14.0592 16.6154Z" fill="white"/>
</g>
<defs>
<clipPath id="clip0_127_2766">
<rect width="27" height="27" fill="white"/>
</clipPath>
</defs>
</svg>
