<svg width="337" height="252" viewBox="0 0 337 252" fill="none" xmlns="http://www.w3.org/2000/svg">
<path d="M268.25 99.293C268.25 99.293 272.411 111.646 257.278 121.73C257.278 121.73 281.491 122.486 286.536 104.713L268.25 99.293Z" fill="#F2CF4D"/>
<path d="M325.146 91.2163C329.362 72.8997 317.924 54.6349 299.598 50.4209C281.272 46.2068 262.998 57.6392 258.782 75.9559C254.566 94.2725 266.004 112.537 284.33 116.751C302.656 120.965 320.93 109.533 325.146 91.2163Z" fill="#F2CF4D"/>
<path d="M282.465 83.5647C282.465 85.7075 280.699 87.3461 278.681 87.3461C276.537 87.3461 274.898 85.5814 274.898 83.5647C274.898 81.4218 276.664 79.7832 278.681 79.7832C280.699 79.7832 282.465 81.4218 282.465 83.5647Z" fill="white"/>
<path d="M295.707 83.5647C295.707 85.7075 293.941 87.3461 291.924 87.3461C289.78 87.3461 288.14 85.5814 288.14 83.5647C288.14 81.4218 289.906 79.7832 291.924 79.7832C294.067 79.7832 295.707 81.4218 295.707 83.5647Z" fill="white"/>
<path d="M309.075 83.5647C309.075 85.7075 307.309 87.3461 305.291 87.3461C303.147 87.3461 301.508 85.5814 301.508 83.5647C301.508 81.4218 303.273 79.7832 305.291 79.7832C307.435 79.7832 309.075 81.4218 309.075 83.5647Z" fill="white"/>
<path d="M50.8112 169.6C50.8112 169.6 47.6584 178.927 59.1346 186.49C59.1346 186.49 40.8483 186.994 37.0649 173.633L50.8112 169.6Z" fill="#757FA9"/>
<path d="M35.678 179.81C49.817 179.81 61.2788 168.354 61.2788 154.223C61.2788 140.091 49.817 128.635 35.678 128.635C21.539 128.635 10.0771 140.091 10.0771 154.223C10.0771 168.354 21.539 179.81 35.678 179.81Z" fill="#757FA9"/>
<path d="M42.8667 154.225C42.8667 155.864 44.1278 157.124 45.7673 157.124C47.4068 157.124 48.6679 155.864 48.6679 154.225C48.6679 152.587 47.4068 151.326 45.7673 151.326C44.1278 151.452 42.8667 152.713 42.8667 154.225Z" fill="white"/>
<path d="M32.9038 154.225C32.9038 155.864 34.1649 157.124 35.8044 157.124C37.4439 157.124 38.705 155.864 38.705 154.225C38.705 152.587 37.4439 151.326 35.8044 151.326C34.1649 151.326 32.9038 152.713 32.9038 154.225Z" fill="white"/>
<path d="M22.8149 154.225C22.8149 155.864 24.0761 157.124 25.7155 157.124C27.355 157.124 28.6161 155.864 28.6161 154.225C28.6161 152.587 27.355 151.326 25.7155 151.326C24.0761 151.452 22.8149 152.713 22.8149 154.225Z" fill="white"/>
<path d="M80.9541 75.7168C80.9541 75.7168 76.4364 89.2628 93.0011 100.3C93.0011 100.3 66.4976 101.103 60.9761 81.6369L80.9541 75.7168Z" fill="#AEC585"/>
<path d="M85.4334 79.8384C99.9785 65.3008 99.9785 41.7305 85.4334 27.1928C70.8883 12.6551 47.3061 12.6551 32.761 27.1928C18.2159 41.7305 18.2159 65.3007 32.761 79.8384C47.3061 94.3761 70.8884 94.3761 85.4334 79.8384Z" fill="#AEC585"/>
<path d="M69.5098 53.5424C69.5098 55.8503 71.4172 57.7568 73.7262 57.7568C76.0352 57.7568 77.9427 55.8503 77.9427 53.5424C77.9427 51.2346 76.0352 49.3281 73.7262 49.3281C71.3168 49.3281 69.5098 51.2346 69.5098 53.5424Z" fill="white"/>
<path d="M54.8521 53.5424C54.8521 55.8503 56.7595 57.7568 59.0685 57.7568C61.3775 57.7568 63.285 55.8503 63.285 53.5424C63.285 51.2346 61.3775 49.3281 59.0685 49.3281C56.7595 49.3281 54.8521 51.2346 54.8521 53.5424Z" fill="white"/>
<path d="M40.2959 53.5424C40.2959 55.8503 42.2033 57.7568 44.5124 57.7568C46.8214 57.7568 48.7288 55.8503 48.7288 53.5424C48.7288 51.2346 46.8214 49.3281 44.5124 49.3281C42.2033 49.3281 40.2959 51.2346 40.2959 53.5424Z" fill="white"/>
<path d="M336.94 220.834C336.94 203.691 323.068 189.826 305.917 189.826C288.765 189.826 274.893 203.691 274.893 220.834C274.893 237.977 288.765 251.842 305.917 251.842C322.942 251.968 336.94 237.977 336.94 220.834ZM333.914 222.473C333.661 226.632 332.526 230.54 330.635 234.195V234.321H324.581V234.069C325.716 230.414 326.347 226.506 326.473 222.473V222.347H333.914V222.473ZM330.635 207.599C332.526 211.254 333.661 215.162 333.914 219.321V219.448H326.473V219.321C326.347 215.288 325.716 211.38 324.581 207.725V207.473L330.635 207.599ZM318.276 195.624C322.437 197.641 325.969 200.666 328.743 204.448L328.869 204.7H323.573V204.574C322.185 201.171 320.294 198.271 318.15 195.876L317.645 195.246L318.276 195.624ZM314.871 219.448V219.321C314.871 215.288 314.492 211.254 314.114 207.725V207.599H321.681V207.725C322.942 211.38 323.573 215.288 323.699 219.448V219.574H314.871V219.448ZM323.699 222.473C323.573 226.632 322.816 230.54 321.681 234.195V234.321H314.114V234.195C314.619 230.54 314.871 226.632 314.871 222.599V222.473H323.699ZM310.835 193.86C314.619 195.624 318.024 199.406 320.294 204.448L320.42 204.7H313.61V204.574C312.853 200.162 311.844 196.633 310.583 194.112L310.457 193.734L310.835 193.86ZM299.737 219.448V219.321C299.737 215.162 300.116 211.254 300.494 207.725V207.599H311.087V207.725C311.592 211.254 311.844 215.162 311.844 219.321V219.448H299.737ZM311.97 222.347V222.473C311.97 226.632 311.592 230.54 311.213 234.069V234.195H300.62V234.069C300.116 230.54 299.863 226.632 299.863 222.473V222.347H311.97ZM305.791 192.725C307.178 192.725 309.322 196.759 310.583 204.448V204.574H300.872V204.448C302.386 196.759 304.403 192.725 305.791 192.725ZM300.872 193.86L301.251 193.734L301.124 194.112C299.863 196.633 298.854 200.162 298.098 204.574V204.7H291.288L291.414 204.448C293.684 199.406 296.963 195.624 300.872 193.86ZM297.593 207.725C297.089 211.38 296.837 215.288 296.837 219.321V219.448H288.009V219.321C288.135 215.162 288.892 211.254 290.027 207.599V207.473H297.593V207.725ZM297.593 234.195H290.027V234.069C288.765 230.414 288.135 226.506 288.009 222.347V222.221H296.837V222.347C296.837 226.38 297.089 230.288 297.593 233.943V234.195ZM282.964 204.448C285.613 200.666 289.27 197.641 293.432 195.624L294.188 195.246L293.684 195.876C291.54 198.271 289.648 201.171 288.261 204.574V204.7H282.964V204.448ZM277.668 219.321C277.92 215.162 279.055 211.254 280.946 207.599V207.473H287V207.725C285.865 211.38 285.234 215.288 285.108 219.321V219.448H277.668V219.321ZM280.946 234.195C279.055 230.54 277.92 226.632 277.668 222.473V222.347H285.108V222.473C285.234 226.506 285.865 230.414 287 234.069V234.321L280.946 234.195ZM293.432 246.17C289.27 244.153 285.739 241.128 282.964 237.346L282.838 237.094H288.135V237.22C289.522 240.624 291.414 243.523 293.558 245.918L294.062 246.548L293.432 246.17ZM300.872 247.934C297.089 246.17 293.684 242.388 291.414 237.346L291.288 237.094H298.098V237.22C298.854 241.632 299.863 245.161 301.124 247.682L301.251 248.061L300.872 247.934ZM305.791 249.069C304.403 249.069 302.259 245.035 300.998 237.346V237.22H310.709V237.346C309.322 245.035 307.178 249.069 305.791 249.069ZM310.835 247.934L310.457 248.061L310.583 247.682C311.844 245.161 312.853 241.632 313.61 237.22V237.094H320.42L320.294 237.346C318.024 242.388 314.619 246.17 310.835 247.934ZM318.276 246.17L317.519 246.548L318.024 245.918C320.167 243.523 322.059 240.624 323.446 237.22V237.094H328.743L328.617 237.346C325.969 241.128 322.311 244.153 318.276 246.17Z" fill="#AEC585"/>
<path d="M285.108 219.321C285.234 215.288 285.865 211.38 287 207.725V207.473H280.946V207.599C279.055 211.254 277.92 215.162 277.667 219.321V219.447H285.108V219.321ZM278.046 219.195C278.298 215.162 279.307 211.38 281.199 207.851H286.621C285.486 211.38 284.856 215.288 284.73 219.195H278.046Z" fill="white"/>
<path d="M287 234.07C285.865 230.415 285.234 226.507 285.108 222.474V222.348H277.667V222.474C277.92 226.633 279.055 230.541 280.946 234.196V234.322H287V234.07ZM281.199 233.944C279.307 230.415 278.298 226.633 278.046 222.6H284.856C284.982 226.507 285.613 230.289 286.748 233.944H281.199Z" fill="white"/>
<path d="M288.135 204.574C289.522 201.17 291.414 198.271 293.558 195.876L294.062 195.246L293.305 195.624C289.144 197.641 285.613 200.666 282.838 204.448L282.712 204.7L288.135 204.574ZM283.469 204.322C285.991 200.918 289.144 198.145 292.927 196.254C291.035 198.523 289.396 201.296 288.009 204.322H283.469Z" fill="white"/>
<path d="M296.837 222.474V222.348H288.009V222.474C288.135 226.633 288.892 230.541 290.027 234.196V234.322H297.593V234.196C297.089 230.415 296.837 226.507 296.837 222.474ZM290.279 233.944C289.144 230.415 288.387 226.633 288.261 222.6H296.458C296.458 226.507 296.711 230.415 297.215 233.944H290.279Z" fill="white"/>
<path d="M290.153 207.473C288.892 211.254 288.135 215.162 288.009 219.195V219.321H296.837V219.195C296.837 215.162 297.215 211.128 297.593 207.599V207.473H290.153ZM288.261 219.195C288.387 215.162 289.144 211.38 290.279 207.851H297.215C296.837 211.38 296.584 215.288 296.458 219.195H288.261Z" fill="white"/>
<path d="M288.135 237.222L282.712 237.096L282.838 237.348C285.486 241.129 289.144 244.154 293.305 246.171L294.062 246.549L293.558 245.919C291.414 243.524 289.648 240.625 288.135 237.222ZM283.469 237.474H288.009C289.27 240.625 290.909 243.272 292.927 245.541C289.144 243.524 285.865 240.751 283.469 237.474Z" fill="white"/>
<path d="M310.709 237.096H300.998V237.222C302.385 244.911 304.529 248.944 305.79 248.944C307.178 248.944 309.321 244.911 310.583 237.222L310.709 237.096ZM301.25 237.474H310.33C308.943 245.289 306.799 248.818 305.79 248.818C304.781 248.692 302.764 245.163 301.25 237.474Z" fill="white"/>
<path d="M320.42 237.096H313.61V237.222C312.853 241.633 311.844 245.163 310.583 247.684L310.457 248.062L310.835 247.936C314.619 246.171 318.024 242.39 320.294 237.348L320.42 237.096ZM311.087 247.432C312.222 244.911 313.231 241.633 313.862 237.348H319.915C317.771 242.138 314.619 245.667 311.087 247.432Z" fill="white"/>
<path d="M328.869 237.096H323.573V237.222C322.185 240.625 320.294 243.524 318.15 245.919L317.645 246.549L318.402 246.171C322.564 244.154 326.095 241.129 328.869 237.348V237.096ZM318.78 245.541C320.672 243.272 322.311 240.499 323.699 237.474H328.239C325.716 240.751 322.564 243.524 318.78 245.541Z" fill="white"/>
<path d="M298.098 237.222V237.096H291.288L291.414 237.348C293.684 242.39 297.089 246.171 300.872 247.936L301.25 248.062L301.124 247.684C299.737 245.163 298.728 241.633 298.098 237.222ZM291.666 237.474H297.719C298.476 241.633 299.359 245.037 300.494 247.558C297.089 245.667 293.936 242.138 291.666 237.474Z" fill="white"/>
<path d="M323.446 204.574L328.869 204.7L328.743 204.448C326.095 200.666 322.437 197.641 318.276 195.624L317.519 195.246L318.023 195.876C320.294 198.271 322.059 201.17 323.446 204.574ZM328.239 204.322H323.699C322.437 201.17 320.798 198.523 318.78 196.254C322.564 198.145 325.716 200.918 328.239 204.322Z" fill="white"/>
<path d="M323.699 219.321C323.573 215.162 322.816 211.254 321.681 207.599V207.473H314.114V207.599C314.619 211.254 314.871 215.162 314.871 219.195V219.321H323.699ZM315.123 219.195C315.123 215.288 314.871 211.38 314.366 207.851H321.303C322.438 211.38 323.194 215.162 323.32 219.195H315.123Z" fill="white"/>
<path d="M324.582 207.725C325.717 211.38 326.347 215.288 326.473 219.321V219.447H333.914V219.321C333.662 215.162 332.527 211.254 330.635 207.599V207.473H324.582V207.725ZM330.509 207.851C332.401 211.38 333.409 215.162 333.662 219.195H326.852C326.725 215.288 326.095 211.506 324.96 207.851H330.509Z" fill="white"/>
<path d="M314.871 222.473C314.871 226.506 314.493 230.54 314.114 234.069V234.195H321.681V234.069C322.942 230.414 323.573 226.506 323.699 222.347V222.221H314.871V222.473ZM323.447 222.599C323.32 226.632 322.564 230.414 321.429 233.943H314.493C314.871 230.414 315.123 226.506 315.249 222.599H323.447Z" fill="white"/>
<path d="M326.599 222.474C326.473 226.507 325.843 230.415 324.708 234.07V234.322H330.761V234.196C332.653 230.541 333.788 226.633 334.04 222.474V222.348H326.599V222.474ZM333.662 222.6C333.409 226.633 332.274 230.415 330.509 233.944H325.086C326.221 230.415 326.851 226.507 326.978 222.6H333.662Z" fill="white"/>
<path d="M313.61 204.575V204.701H320.42L320.294 204.448C318.024 199.407 314.619 195.625 310.835 193.86L310.457 193.734L310.583 194.113C311.844 196.507 312.853 200.037 313.61 204.575ZM319.915 204.322H313.862C313.105 200.163 312.222 196.76 311.087 194.239C314.619 196.129 317.771 199.659 319.915 204.322Z" fill="white"/>
<path d="M300.998 204.7H310.709V204.574C309.321 196.885 307.178 192.852 305.916 192.852C304.529 192.852 302.385 196.885 301.124 204.574L300.998 204.7ZM305.79 192.978C306.799 192.978 308.943 196.507 310.33 204.322H301.25C302.764 196.507 304.781 192.978 305.79 192.978Z" fill="white"/>
<path d="M291.288 204.701H298.098V204.575C298.854 200.163 299.863 196.633 301.124 194.113L301.25 193.734L300.872 193.86C297.089 195.625 293.684 199.407 291.414 204.448L291.288 204.701ZM300.62 194.365C299.485 196.886 298.476 200.163 297.845 204.448H291.792C293.936 199.659 297.089 196.129 300.62 194.365Z" fill="white"/>
<path d="M299.737 222.474C299.737 226.633 300.116 230.541 300.494 234.07V234.196H311.088V234.07C311.592 230.541 311.844 226.633 311.844 222.474V222.348H299.611L299.737 222.474ZM311.592 222.6C311.592 226.633 311.214 230.415 310.835 233.944H300.746C300.242 230.415 299.99 226.633 299.99 222.6H311.592Z" fill="white"/>
<path d="M311.97 219.322C311.97 215.163 311.592 211.255 311.213 207.726V207.6H300.62V207.726C300.115 211.255 299.863 215.163 299.863 219.322V219.448H312.096L311.97 219.322ZM299.989 219.196C299.989 215.163 300.242 211.381 300.746 207.852H310.835C311.34 211.381 311.592 215.163 311.592 219.196H299.989Z" fill="white"/>
<path d="M148.831 33.7037C148.705 33.3256 148.705 33.0735 148.579 32.6953L147.57 33.3256L148.831 33.7037Z" fill="#DA8459"/>
<path d="M170.396 40.5121C172.919 37.9911 174.306 34.5878 174.306 30.9324C174.306 23.3695 168.126 17.3192 160.686 17.3192C159.677 17.3192 158.668 17.4452 157.785 17.6973C155.767 12.6554 150.849 9 145.048 9C137.481 9 131.428 15.1764 131.428 22.6132C131.428 26.2686 132.815 29.6719 135.337 32.1929C120.582 37.3609 120.582 55.0077 120.582 65.7218V67.2344H136.346C136.22 69.6293 136.22 72.0242 136.22 74.041V75.6796H185.026V74.167C185.026 63.3269 185.026 45.8061 170.396 40.5121ZM123.609 64.2092C123.609 52.4867 124.239 37.4869 138.742 34.2097L142.4 33.4534L139.247 31.4366C136.22 29.4198 134.328 26.1426 134.328 22.4872C134.328 16.689 139.121 11.8991 144.922 11.8991C149.336 11.8991 153.119 14.6722 154.759 18.5797C150.092 20.7225 146.94 25.5123 146.94 30.9324C146.94 34.5878 148.327 37.9911 150.849 40.5121C140.256 44.4196 137.355 54.7556 136.472 64.2092H123.609ZM139.247 72.6544C139.247 60.9319 139.877 45.9322 154.38 42.6549L158.037 41.8986L154.885 39.8819C151.858 37.8651 149.966 34.5878 149.966 30.9324C149.966 25.1342 154.759 20.3444 160.56 20.3444C166.361 20.3444 171.153 25.1342 171.153 30.9324C171.153 34.5878 169.261 37.8651 166.235 39.8819L163.082 41.8986L166.739 42.6549C181.242 45.9322 181.873 60.9319 181.873 72.6544H139.247Z" fill="#DA8459"/>
<path d="M41.3964 251.612C41.2703 251.612 41.1442 251.612 41.0181 251.612H40.7659C34.9647 251.486 29.4158 250.226 24.2451 247.831C20.3356 246.066 16.6784 243.671 13.5256 240.646C9.48997 236.991 6.33716 232.579 3.94102 227.663C2.55378 224.638 1.41877 221.487 0.788203 218.209C0.157641 215.058 -0.0945844 212.285 0.0315281 209.638C0.0315281 208.252 0.662091 206.991 1.54488 205.983L1.92322 205.605C2.806 204.596 3.8149 203.714 4.8238 202.706C7.09383 200.689 9.74219 200.185 12.6428 201.319C15.0389 202.327 16.8045 204.092 17.4351 206.613L17.5612 207.243C18.0656 209.134 18.6962 211.025 19.0745 213.041C19.579 215.562 18.9484 217.831 17.0567 219.722C16.5523 220.226 16.0478 220.73 15.5434 221.235C17.1828 226.403 20.4618 230.562 25.0018 233.461C26.5152 234.47 28.2807 235.226 30.1724 235.856C30.6769 235.352 31.0552 234.848 31.5597 234.47C33.5775 232.453 36.0997 231.823 38.8742 232.579L40.1353 232.957C41.9009 233.461 43.7926 233.839 45.5582 234.47C47.7021 235.352 49.4676 237.117 50.2243 239.386C50.981 241.528 50.7288 243.797 49.4676 245.814C49.2154 246.192 48.9632 246.444 48.711 246.822L47.9543 247.579C47.0715 248.461 46.1887 249.343 45.3059 250.226C44.1709 251.234 42.9098 251.486 41.7748 251.612C41.7748 251.612 41.5226 251.612 41.3964 251.612ZM40.892 248.461C41.0181 248.461 41.1442 248.461 41.1442 248.461C41.2703 248.461 41.3964 248.461 41.5226 248.461C42.4053 248.335 43.0359 248.209 43.2881 247.831C44.1709 246.948 45.0537 246.066 45.9365 245.31L46.6932 244.554C46.8193 244.428 46.9454 244.301 47.0715 244.175C47.8282 243.041 47.9543 241.781 47.4498 240.52C46.9454 239.133 45.9365 237.999 44.6754 237.621C43.0359 236.991 41.3964 236.613 39.6309 236.108L38.3697 235.73C36.7303 235.352 35.343 235.73 34.0819 236.865C33.4514 237.369 32.9469 237.999 32.3163 238.629C31.6858 239.26 30.9291 239.512 30.0463 239.26C27.6502 238.503 25.5063 237.621 23.6146 236.36C18.1917 232.831 14.4084 227.915 12.6428 221.739C12.3906 220.983 12.6428 220.226 13.1472 219.596C13.7778 218.966 14.4084 218.336 14.9128 217.831C16.0478 216.697 16.4262 215.436 16.0478 214.05C15.6695 212.159 15.165 210.268 14.5345 208.504L14.2822 207.873C13.7778 206.361 12.895 205.226 11.3817 204.596C9.61608 203.966 8.22884 204.218 6.96772 205.353C6.08493 206.235 5.07603 207.117 4.19324 208.126L3.8149 208.378C3.43657 208.756 3.18434 209.386 3.18434 209.89C3.05823 212.285 3.31045 214.806 3.94102 217.705C4.57158 220.73 5.58048 223.63 6.84161 226.403C8.98552 230.94 12.0122 234.974 15.6695 238.377C18.5701 241.024 21.9751 243.293 25.6324 244.932C30.4246 247.201 35.4692 248.335 40.892 248.461Z" fill="#DA8459"/>
<path d="M54.5119 226.781C53.2508 226.781 52.1158 226.781 50.8547 226.781C50.7286 219.722 48.2063 213.546 43.1618 208.504C38.1173 203.462 32.0639 201.067 24.8755 200.815C24.8755 200.185 24.8755 199.555 24.8755 199.05C24.8755 198.42 24.8755 197.916 24.8755 197.286C39.8829 196.782 54.6381 209.639 54.5119 226.781Z" fill="#DA8459"/>
<path d="M51.8635 225.772H53.3768C53.1246 218.462 50.0979 211.655 44.8012 206.487C39.5044 201.319 32.6944 198.42 25.8843 198.42V199.932C32.9466 200.311 39 202.958 43.9184 207.874C48.8368 212.663 51.4851 218.714 51.8635 225.772Z" fill="#DA8459"/>
<path d="M43.4144 226.782C42.1533 226.782 41.0182 226.782 39.8832 226.782C38.8743 217.833 33.9559 212.917 25.002 211.908C25.002 210.774 25.002 209.64 25.002 208.379C34.0821 208.127 43.2883 215.816 43.4144 226.782Z" fill="#DA8459"/>
<path d="M40.766 225.775H42.2794C42.0272 221.363 40.1355 217.456 36.9827 214.305C33.956 211.279 29.9204 209.641 25.8848 209.389V210.901C34.5865 212.162 39.5049 217.078 40.766 225.775Z" fill="#DA8459"/>
<path d="M24.876 219.47C28.5332 219.218 32.3166 222.621 32.1905 226.781C30.9294 226.781 29.7944 226.781 28.5332 226.781C28.281 224.512 27.0199 223.378 24.876 223.126C24.876 221.865 24.876 220.605 24.876 219.47Z" fill="#DA8459"/>
<path d="M29.5419 225.771H31.1814C30.9291 224.511 30.2986 223.251 29.4158 222.368C28.4069 221.486 27.2719 220.856 26.0107 220.604V222.242C27.7763 222.62 29.0374 223.881 29.5419 225.771Z" fill="#DA8459"/>
<path d="M248.221 33.297H239.645C239.519 33.297 239.519 33.297 239.519 33.297H238.763C239.645 30.65 240.402 27.8769 239.772 24.8518C239.267 22.5829 237.88 21.0703 236.114 21.0703C234.223 21.0703 232.835 22.5829 232.331 24.8518C231.826 27.3727 230.944 29.7677 229.683 31.9105C229.43 32.4147 229.178 32.7928 228.8 33.297C226.782 33.4231 225.143 34.8096 224.638 36.7003H224.512V34.0533H213.414V59.5151H224.512V57.2462H225.143C226.025 58.6327 227.539 59.5151 229.178 59.5151H243.807C246.077 59.5151 247.843 57.7504 247.843 55.4815V55.2294C247.843 54.4731 247.591 53.7168 247.212 53.0866C248.473 52.4564 249.23 51.0698 249.23 49.5573V49.3052C249.23 48.5489 248.978 47.7926 248.599 47.1623C249.861 46.5321 250.617 45.1456 250.617 43.633V43.3809C250.617 42.6246 250.365 41.8683 249.987 41.2381C251.248 40.6078 252.005 39.2213 252.005 37.7087V37.4566C252.257 35.0617 250.365 33.297 248.221 33.297ZM222.116 57.1202H215.936V36.4482H222.116V57.1202ZM249.861 37.5827C249.861 38.465 249.104 39.2213 248.221 39.2213H246.708V41.6162C247.591 41.6162 248.347 42.3725 248.347 43.2548V43.5069C248.347 44.3893 247.591 45.1456 246.708 45.1456H245.194V47.5405C246.077 47.5405 246.834 48.2968 246.834 49.1791V49.4312C246.834 50.3135 246.077 51.0698 245.194 51.0698H243.681V53.4648C244.564 53.4648 245.321 54.221 245.321 55.1034V55.3555C245.321 56.2378 244.564 56.9941 243.681 56.9941H229.052C228.043 56.9941 227.16 56.3639 226.782 55.4815L226.53 54.7252H224.512V39.0952H226.782L226.908 37.9608C227.034 36.7003 228.043 35.6919 229.304 35.6919L230.313 35.5659L230.691 34.9356C231.07 34.3054 231.448 33.6752 231.827 33.0449C233.214 30.65 234.223 28.129 234.727 25.2299C234.979 24.0955 235.484 23.3392 236.114 23.3392C236.997 23.3392 237.375 24.7257 237.502 25.1039C238.006 27.6248 237.375 30.0197 236.493 32.2886C236.24 32.7928 236.114 33.297 235.988 33.5491L234.853 35.4398H248.347C249.23 35.4398 249.987 36.1961 249.987 37.0785V37.5827H249.861Z" fill="#757FA9"/>
<path d="M284.938 144.164V177.693H329.456V144.164H284.938ZM307.26 163.828L289.352 146.685H325.168L307.26 163.828ZM300.576 160.928L287.461 173.407V148.324L300.576 160.928ZM302.342 162.693L307.26 167.357L312.179 162.693L325.168 175.172H289.352L302.342 162.693ZM313.944 160.928L327.06 148.45V173.533L313.944 160.928Z" fill="#F2CF4D"/>
</svg>
