<svg width="258" height="312" viewBox="0 0 258 312" fill="none" xmlns="http://www.w3.org/2000/svg">
<g clip-path="url(#clip0_2804_4529)">
<path d="M15.7563 92.6365L35.1819 112.056L44.1033 103.209L52.9527 94.2907L33.5271 74.8716L24.6777 83.7181L15.7563 92.6365Z" fill="#B3B3B3"/>
<path d="M27.7716 63.9392L4.89261 86.8106C3.16589 88.5367 3.09394 91.3417 4.82066 93.0679L12.3031 100.548C14.0298 102.274 16.8357 102.202 18.5624 100.476L41.4414 77.6764C43.1681 75.9503 43.2401 73.1453 41.5134 71.4192L34.0309 63.8673C32.3042 62.2131 29.4983 62.2131 27.7716 63.9392Z" fill="#FA790E"/>
<path d="M16.9077 98.0304L16.3322 98.6058C15.9724 98.9654 15.3249 98.9654 14.9652 98.6058L6.83523 90.3347C6.4755 89.9751 6.4755 89.3277 6.83523 88.9681L7.4108 88.3928C7.77053 88.0331 8.41805 88.0331 8.77778 88.3928L16.9797 96.5919C17.2675 97.0235 17.2675 97.5988 16.9077 98.0304Z" fill="#B3B3B3"/>
<path d="M20.6491 94.2185L20.0735 94.7938C19.7138 95.1535 19.0663 95.1535 18.7066 94.7938L10.5047 86.5947C10.1449 86.2351 10.1449 85.5878 10.5047 85.2281L11.0802 84.6528C11.44 84.2932 12.0875 84.2932 12.4472 84.6528L20.6491 92.8519C21.0088 93.2835 21.0088 93.8589 20.6491 94.2185Z" fill="#B3B3B3"/>
<path d="M24.4621 90.4785L23.8865 91.0539C23.5268 91.4135 22.8793 91.4135 22.5195 91.0539L14.3177 82.8547C13.9579 82.4951 13.9579 81.8478 14.3177 81.4882L14.8932 80.9128C15.253 80.5532 15.9005 80.5532 16.2602 80.9128L24.4621 89.1119C24.8218 89.5435 24.8218 90.1189 24.4621 90.4785Z" fill="#B3B3B3"/>
<path d="M28.2031 86.7385L27.6276 87.3139C27.2678 87.6735 26.6203 87.6735 26.2606 87.3139L18.1306 79.1147C17.7709 78.7551 17.7709 78.1078 18.1306 77.7482L18.7062 77.1728C19.0659 76.8132 19.7135 76.8132 20.0732 77.1728L28.2751 85.372C28.5629 85.7316 28.5629 86.3789 28.2031 86.7385Z" fill="#B3B3B3"/>
<path d="M31.9445 82.9985L31.369 83.5739C31.0092 83.9335 30.3617 83.9335 30.002 83.5739L21.8001 75.3747C21.4403 75.0151 21.4403 74.3678 21.8001 74.0082L22.3756 73.4328C22.7354 73.0732 23.3829 73.0732 23.7426 73.4328L31.9445 81.632C32.3043 81.9916 32.3043 82.567 31.9445 82.9985Z" fill="#B3B3B3"/>
<path d="M35.6856 79.1867L35.11 79.7621C34.7503 80.1217 34.1027 80.1217 33.743 79.7621L25.6131 71.5629C25.2533 71.2033 25.2533 70.556 25.6131 70.1964L26.1886 69.621C26.5484 69.2614 27.1959 69.2614 27.5556 69.621L35.7575 77.8202C36.0453 78.2517 36.0453 78.8271 35.6856 79.1867Z" fill="#B3B3B3"/>
<path d="M39.4268 75.4467L38.8512 76.0221C38.4915 76.3817 37.844 76.3817 37.4842 76.0221L29.3543 67.8229C28.9945 67.4633 28.9945 66.816 29.3543 66.4564L29.9298 65.881C30.2896 65.5214 30.9371 65.5214 31.2968 65.881L39.4268 74.0802C39.8585 74.5117 39.8585 75.0871 39.4268 75.4467Z" fill="#B3B3B3"/>
<path d="M242.244 92.6365L222.819 112.056L213.897 103.209L205.048 94.2907L224.473 74.8716L233.323 83.7181L242.244 92.6365Z" fill="#B3B3B3"/>
<path d="M230.301 63.9391L253.18 86.8105C254.907 88.5366 254.979 91.3416 253.252 93.0678L245.769 100.548C244.043 102.274 241.237 102.202 239.51 100.476L216.559 77.6763C214.832 75.9502 214.76 73.1452 216.487 71.4191L223.97 63.9391C225.696 62.213 228.502 62.213 230.301 63.9391Z" fill="#FA790E"/>
<path d="M241.093 98.0305L241.669 98.6059C242.028 98.9655 242.676 98.9655 243.036 98.6059L251.237 90.4067C251.597 90.0471 251.597 89.3998 251.237 89.0402L250.662 88.4648C250.302 88.1052 249.655 88.1052 249.295 88.4648L241.093 96.6639C240.733 97.0236 240.733 97.5989 241.093 98.0305Z" fill="#B3B3B3"/>
<path d="M237.352 94.2185L237.927 94.7938C238.287 95.1535 238.935 95.1535 239.294 94.7938L247.496 86.5947C247.856 86.2351 247.856 85.5878 247.496 85.2281L246.921 84.6528C246.561 84.2932 245.913 84.2932 245.554 84.6528L237.352 92.8519C236.992 93.2835 236.992 93.8589 237.352 94.2185Z" fill="#B3B3B3"/>
<path d="M233.61 90.4785L234.186 91.0539C234.546 91.4135 235.193 91.4135 235.553 91.0539L243.755 82.8547C244.115 82.4951 244.115 81.8478 243.755 81.4882L243.179 80.9128C242.82 80.5532 242.172 80.5532 241.812 80.9128L233.61 89.1119C233.179 89.5435 233.179 90.1189 233.61 90.4785Z" fill="#B3B3B3"/>
<path d="M229.798 86.7385L230.373 87.3139C230.733 87.6735 231.38 87.6735 231.74 87.3139L239.942 79.1147C240.302 78.7551 240.302 78.1078 239.942 77.7482L239.367 77.1728C239.007 76.8132 238.359 76.8132 238 77.1728L229.798 85.372C229.438 85.7316 229.438 86.3789 229.798 86.7385Z" fill="#B3B3B3"/>
<path d="M226.056 82.9985L226.632 83.5739C226.992 83.9335 227.639 83.9335 227.999 83.5739L236.201 75.3747C236.561 75.0151 236.561 74.3678 236.201 74.0082L235.625 73.4328C235.266 73.0732 234.618 73.0732 234.258 73.4328L226.056 81.632C225.697 81.9916 225.697 82.567 226.056 82.9985Z" fill="#B3B3B3"/>
<path d="M222.315 79.1867L222.891 79.7621C223.251 80.1217 223.898 80.1217 224.258 79.7621L232.388 71.5629C232.747 71.2033 232.747 70.556 232.388 70.1964L231.812 69.621C231.452 69.2614 230.805 69.2614 230.445 69.621L222.315 77.8921C221.955 78.2517 221.955 78.8271 222.315 79.1867Z" fill="#B3B3B3"/>
<path d="M218.574 75.4467L219.149 76.0221C219.509 76.3817 220.157 76.3817 220.516 76.0221L228.718 67.8229C229.078 67.4633 229.078 66.816 228.718 66.4564L228.143 65.881C227.783 65.5214 227.135 65.5214 226.776 65.881L218.574 74.0802C218.142 74.5117 218.142 75.0871 218.574 75.4467Z" fill="#B3B3B3"/>
<path d="M111.877 25.2449V62.7165H129H146.123V25.2449H129H111.877Z" fill="#B3B3B3"/>
<path d="M202.776 256.782C243.516 216.055 243.516 150.024 202.776 109.298C162.036 68.5715 95.9834 68.5715 55.2434 109.298C14.5034 150.024 14.5034 216.055 55.2434 256.782C95.9834 297.508 162.036 297.508 202.776 256.782Z" fill="#F2F2F2"/>
<path d="M173.539 231.77C170.78 231.77 168.017 231.77 165.253 231.77C162.522 231.751 159.879 230.808 157.753 229.094C155.957 227.69 154.588 225.813 153.8 223.674C153.311 222.415 153.053 221.077 153.039 219.726C153.039 214.315 153.039 208.909 153.039 203.508C153.018 201.849 153.336 200.203 153.975 198.671C154.615 197.14 155.56 195.756 156.755 194.604C158.592 192.779 160.956 191.576 163.513 191.165C164.023 191.077 164.539 191.034 165.057 191.037C170.6 191.037 176.139 190.954 181.672 191.037C186.932 191.134 190.689 193.713 192.959 198.433C193.698 200.03 194.062 201.774 194.025 203.534C194.025 208.768 194.025 214.003 194.025 219.232C194.059 221.128 193.649 223.005 192.828 224.714C192.006 226.423 190.796 227.916 189.294 229.073C187.148 230.829 184.455 231.778 181.682 231.755L173.539 231.77ZM173.112 196.369C173.312 196.037 173.42 195.658 173.426 195.271C173.432 194.883 173.336 194.501 173.147 194.163C172.957 193.825 172.682 193.543 172.349 193.346C172.016 193.148 171.636 193.042 171.249 193.039C170.812 193.011 170.377 193.116 170.001 193.339C169.624 193.562 169.324 193.893 169.139 194.29C168.938 194.679 168.867 195.121 168.936 195.554C169.004 195.986 169.209 196.385 169.519 196.693C169.71 196.899 169.715 196.961 169.427 197.043C167.884 197.49 166.435 198.212 165.15 199.174C162.337 201.199 160.371 204.19 159.627 207.574C159.242 209.378 159.204 211.238 159.514 213.056C159.56 213.349 159.689 213.462 160.028 213.385C160.589 213.251 161.161 213.179 161.732 213.087C162.988 212.886 164.249 212.69 165.5 212.484L170.132 211.717C171.8 211.45 173.472 211.203 175.14 210.92C176.808 210.637 178.393 210.405 180.014 210.122C181.316 209.911 182.614 209.695 183.916 209.489C185.218 209.283 186.397 209.077 187.642 208.907C188.337 208.809 188.342 208.84 188.193 208.151C188.193 208.078 188.152 208.012 188.141 207.94C187.812 206.042 187.067 204.24 185.959 202.664C184.874 201.071 183.472 199.718 181.841 198.69C180.024 197.525 177.971 196.777 175.83 196.498C174.929 196.375 174.02 196.332 173.112 196.369V196.369ZM166.606 225.522L168.377 223.617C168.506 223.485 168.67 223.394 168.85 223.355C169.949 223.131 170.997 222.703 171.939 222.094C171.993 222.049 172.063 222.027 172.134 222.032C172.943 222.099 173.755 222.099 174.564 222.032C175.43 222.016 176.292 221.913 177.137 221.723C178.321 221.476 179.5 221.209 180.689 220.972C182.006 220.709 183.329 220.457 184.647 220.231C184.908 220.193 185.147 220.063 185.321 219.865C185.371 219.823 185.41 219.77 185.434 219.709C185.458 219.648 185.465 219.582 185.457 219.517C185.448 219.452 185.423 219.39 185.384 219.338C185.345 219.285 185.293 219.244 185.233 219.217C184.961 219.047 184.643 218.966 184.322 218.985H164.362C164.161 218.975 163.962 219.031 163.796 219.145C162.71 219.906 162.442 220.751 162.983 221.996C163.042 222.105 163.064 222.23 163.044 222.352C163.025 222.474 162.965 222.586 162.875 222.67C162.406 223.237 161.938 223.798 161.5 224.379C161.135 224.863 160.754 225.244 160.08 224.981C159.967 224.935 159.807 224.981 159.694 224.956C159.572 224.911 159.439 224.904 159.313 224.934C159.187 224.964 159.072 225.031 158.983 225.126C158.201 225.738 157.408 226.33 156.616 226.927C156.451 227.051 156.43 227.159 156.616 227.308C156.971 227.622 157.311 227.956 157.645 228.265C159.271 229.576 161.194 230.465 163.245 230.854C163.327 230.871 163.413 230.868 163.493 230.845C163.574 230.822 163.648 230.779 163.708 230.72C165.433 229.351 167.172 228.003 168.902 226.644L170.117 225.676C168.922 225.445 167.795 225.62 166.58 225.522H166.606ZM173.812 214.404H155.967C155.694 214.404 155.38 214.404 155.334 214.713C155.288 215.022 155.154 215.444 155.581 215.742C156.117 216.091 156.632 216.469 157.125 216.875C157.347 217.057 157.627 217.152 157.913 217.142C163.962 217.142 170.01 217.142 176.056 217.142H189.619C189.796 217.173 189.978 217.14 190.133 217.05C190.72 216.602 191.322 216.175 191.914 215.732C192.051 215.603 192.149 215.438 192.197 215.256C192.244 215.074 192.239 214.882 192.182 214.703C192.043 214.394 191.76 214.451 191.497 214.451L173.812 214.404Z" fill="#FA790E"/>
<path d="M161.887 245.06C161.887 246.532 161.887 248.009 161.887 249.481C161.887 249.893 161.769 249.996 161.372 249.996C161.011 249.965 160.648 249.965 160.286 249.996C159.89 250.027 159.808 249.873 159.808 249.481C159.808 247.16 159.808 244.849 159.838 242.512C159.838 241.148 159.838 239.779 159.838 238.395C159.828 238.281 159.851 238.167 159.904 238.065C159.957 237.964 160.038 237.88 160.137 237.823C161.049 237.189 162.098 236.779 163.198 236.628C164.298 236.477 165.419 236.589 166.468 236.954C167.308 237.256 168.038 237.803 168.565 238.524C169.091 239.245 169.39 240.107 169.422 240.999C169.474 242.893 168.769 244.391 167.05 245.225C166.263 245.653 165.376 245.863 164.48 245.832C163.585 245.801 162.715 245.531 161.959 245.05C161.935 245.049 161.91 245.053 161.887 245.06V245.06ZM161.887 240.942V242.687C161.879 242.782 161.892 242.877 161.925 242.966C161.958 243.055 162.01 243.136 162.077 243.202C162.584 243.669 163.215 243.981 163.893 244.1C164.572 244.22 165.271 244.142 165.907 243.876C167.595 243.068 167.919 240.685 166.72 239.311C165.521 237.937 163.302 238.173 162.062 238.853C161.887 238.945 161.887 239.095 161.887 239.259V240.942Z" fill="#FA790E"/>
<path d="M195.116 241.488C194.03 241.488 192.939 241.488 191.848 241.488C191.498 241.488 191.446 241.586 191.524 241.925C191.961 243.84 193.768 244.468 195.41 244.056C196.084 243.884 196.702 243.538 197.201 243.053C197.35 242.908 197.417 242.898 197.576 243.053C197.867 243.332 198.175 243.594 198.498 243.835C198.719 244.005 198.693 244.128 198.498 244.293C197.579 245.119 196.426 245.638 195.199 245.781C193.838 245.989 192.448 245.687 191.297 244.931C189.912 243.964 189.403 242.574 189.429 240.917C189.435 239.932 189.78 238.98 190.405 238.22C191.03 237.46 191.897 236.938 192.862 236.742C194.921 236.32 197.072 236.778 198.246 238.873C198.605 239.553 198.799 240.308 198.812 241.076C198.812 241.411 198.704 241.503 198.385 241.498C197.299 241.483 196.187 241.488 195.116 241.488ZM194.087 239.944C194.828 239.944 195.569 239.944 196.31 239.944C196.717 239.944 196.691 239.81 196.552 239.522C196.396 239.216 196.178 238.946 195.912 238.729C195.647 238.512 195.339 238.353 195.008 238.261C194.374 238.044 193.684 238.064 193.064 238.318C192.444 238.572 191.937 239.041 191.637 239.64C191.503 239.923 191.59 239.949 191.843 239.944C192.584 239.944 193.325 239.944 194.066 239.944H194.087Z" fill="#FA790E"/>
<path d="M175.759 241.488C174.699 241.488 173.639 241.488 172.579 241.488C172.229 241.488 172.095 241.513 172.177 241.935C172.304 242.524 172.615 243.056 173.065 243.456C173.514 243.855 174.08 244.102 174.679 244.159C175.247 244.223 175.823 244.159 176.364 243.971C176.905 243.783 177.396 243.476 177.803 243.073C177.937 242.944 178.024 242.872 178.194 243.027C178.508 243.32 178.848 243.598 179.182 243.871C179.347 244.005 179.378 244.108 179.182 244.267C178.514 244.869 177.721 245.316 176.859 245.574C175.997 245.832 175.089 245.895 174.2 245.76C173.558 245.707 172.934 245.518 172.371 245.205C171.807 244.893 171.317 244.464 170.931 243.948C169.387 241.791 169.82 238.286 172.522 237.102C174.365 236.284 176.202 236.351 177.839 237.617C178.366 238.041 178.787 238.583 179.068 239.198C179.349 239.814 179.481 240.487 179.455 241.163C179.455 241.447 179.306 241.498 179.064 241.493H175.754L175.759 241.488ZM174.771 239.944C175.502 239.944 176.228 239.944 176.954 239.944C177.376 239.944 177.334 239.758 177.211 239.506C177.057 239.2 176.84 238.93 176.574 238.714C176.307 238.498 175.998 238.342 175.667 238.255C175.033 238.037 174.341 238.056 173.72 238.309C173.1 238.561 172.591 239.031 172.29 239.63C172.162 239.902 172.234 239.944 172.496 239.938C173.263 239.954 174.02 239.959 174.771 239.959V239.944Z" fill="#FA790E"/>
<path d="M157.198 240.387C157.049 239.568 157.023 238.781 156.169 238.467C155.717 238.265 155.22 238.185 154.728 238.235C154.023 238.306 153.337 238.506 152.705 238.827C152.504 238.94 152.406 238.92 152.309 238.698C152.211 238.477 152.025 238.184 151.881 237.895C151.619 237.417 151.619 237.417 152.108 237.216C153.53 236.564 155.133 236.422 156.647 236.815C157.975 237.185 159.092 238.184 159.036 239.836C158.979 241.334 159.036 242.831 159.036 244.329C159.056 244.449 159.033 244.573 158.97 244.677C158.908 244.782 158.811 244.861 158.696 244.901C156.889 245.781 155.011 246.151 153.034 245.523C151.346 245.009 150.384 243.67 150.749 241.823C150.854 241.36 151.079 240.933 151.4 240.585C151.722 240.236 152.129 239.978 152.581 239.836C153.162 239.586 153.787 239.454 154.419 239.446C155.052 239.438 155.679 239.555 156.267 239.79C156.604 239.943 156.918 240.144 157.198 240.387ZM157.023 242.821C157.023 241.936 157.023 241.817 156.55 241.545C156.122 241.244 155.628 241.052 155.11 240.984C154.592 240.917 154.065 240.977 153.575 241.159C153.33 241.239 153.112 241.383 152.942 241.576C152.772 241.769 152.657 242.004 152.609 242.257C152.561 242.51 152.581 242.771 152.667 243.013C152.754 243.255 152.904 243.47 153.101 243.634C154.007 244.401 155.078 244.298 156.112 244.036C157.039 243.799 157.023 243.742 157.023 242.821V242.821Z" fill="#FA790E"/>
<path d="M189.326 236.82C187.962 238.029 186.675 239.182 185.373 240.32C185.131 240.526 185.141 240.649 185.373 240.876C186.706 242.312 188.019 243.763 189.341 245.209C189.434 245.312 189.563 245.395 189.568 245.59C188.822 245.59 188.085 245.59 187.349 245.59C187.256 245.585 187.165 245.557 187.085 245.509C187.006 245.46 186.939 245.393 186.891 245.312C185.949 244.247 185.018 243.166 184.06 242.106C183.932 241.962 183.844 241.642 183.546 241.766C183.383 241.814 183.243 241.918 183.149 242.059C183.055 242.2 183.013 242.369 183.031 242.538C183.072 243.423 183.057 244.309 183.098 245.194C183.098 245.518 183 245.601 182.707 245.585C182.301 245.559 181.893 245.559 181.487 245.585C181.152 245.611 181.075 245.498 181.075 245.178C181.075 243.027 181.075 240.876 181.075 238.729C181.075 237.566 181.075 236.403 181.075 235.24C181.075 234.936 181.158 234.823 181.461 234.838C181.869 234.859 182.278 234.859 182.686 234.838C182.98 234.838 183.047 234.941 183.041 235.214C183.041 236.789 183.016 238.359 183.01 239.923C183.01 240.001 182.974 240.098 183.077 240.186L184.58 238.776L186.516 236.979C186.601 236.881 186.721 236.818 186.85 236.804C187.653 236.825 188.466 236.82 189.326 236.82Z" fill="#FA790E"/>
<path d="M149.544 239.481C149.544 241.4 149.544 243.32 149.544 245.23C149.544 245.539 149.457 245.6 149.184 245.59C148.721 245.59 148.252 245.59 147.784 245.59C147.46 245.59 147.413 245.477 147.413 245.189C147.413 241.411 147.413 237.638 147.413 233.865C147.413 233.428 147.321 233.299 146.873 233.32C145.972 233.361 145.071 233.32 144.165 233.32C143.903 233.32 143.8 233.253 143.815 232.98C143.815 232.589 143.815 232.192 143.815 231.801C143.815 231.58 143.898 231.498 144.124 231.498C147.031 231.498 149.937 231.498 152.843 231.498C153.065 231.498 153.157 231.57 153.147 231.801C153.147 232.192 153.147 232.584 153.147 232.975C153.147 233.253 153.06 233.325 152.797 233.32C151.84 233.32 150.877 233.32 149.92 233.32C149.596 233.32 149.498 233.397 149.503 233.731C149.503 235.651 149.503 237.571 149.503 239.481H149.544Z" fill="#FA790E"/>
<path d="M129 54.0857C57.773 54.0857 0 111.84 0 183.043C0 254.246 57.773 312 129 312C200.227 312 258 254.246 258 183.043C258 111.84 200.227 54.0857 129 54.0857ZM129 287.331C71.3709 287.331 24.6776 240.653 24.6776 183.043C24.6776 125.433 71.3709 78.7551 129 78.7551C186.629 78.7551 233.322 125.433 233.322 183.043C233.322 240.653 186.629 287.331 129 287.331Z" fill="#FA790E"/>
<path d="M129 101.842L119.431 183.043H129H138.569L129 101.842Z" fill="#FF0001"/>
<path d="M47.7725 183.043L129 192.609V183.043V173.477L47.7725 183.043Z" fill="#FF0001"/>
<path d="M129 171.391C122.597 171.391 117.345 176.57 117.345 183.043C117.345 189.444 122.525 194.694 129 194.694C135.403 194.694 140.655 189.516 140.655 183.043C140.655 176.57 135.403 171.391 129 171.391Z" fill="#1A1A1A"/>
<path d="M125.691 278.7V290.495H129H132.31V278.7H129H125.691Z" fill="#1A1A1A"/>
<path d="M81.1559 100.188L84.0337 98.4619L78.1341 88.3208L75.2563 89.975L72.3784 91.6292L78.278 101.842L81.1559 100.188Z" fill="#1A1A1A"/>
<path d="M35.9014 129.317L34.2466 132.194L44.463 138.091L46.1177 135.214L47.7725 132.265L37.5561 126.44L35.9014 129.317Z" fill="#1A1A1A"/>
<path d="M21.5122 183.043V186.351H33.3114V183.043V179.663H21.5122V183.043Z" fill="#1A1A1A"/>
<path d="M44.463 227.994L34.2466 233.892L35.9014 236.769L37.5561 239.646L47.7725 233.748L46.1177 230.871L44.463 227.994Z" fill="#1A1A1A"/>
<path d="M78.278 264.243L72.3784 274.456L75.2563 276.111L78.1341 277.765L84.0337 267.552L81.1559 265.898L78.278 264.243Z" fill="#1A1A1A"/>
<path d="M176.845 265.898L173.967 267.552L179.866 277.765L182.744 276.111L185.622 274.456L179.723 264.243L176.845 265.898Z" fill="#1A1A1A"/>
<path d="M211.882 230.871L210.228 233.748L220.444 239.646L222.099 236.769L223.753 233.892L213.537 227.994L211.882 230.871Z" fill="#1A1A1A"/>
<path d="M224.689 179.663V183.043V186.351H236.488V183.043V179.663H224.689Z" fill="#1A1A1A"/>
<path d="M220.444 126.44L210.228 132.265L211.882 135.214L213.537 138.091L223.753 132.194L222.099 129.317L220.444 126.44Z" fill="#1A1A1A"/>
<path d="M179.723 101.842L185.622 91.6292L182.744 89.975L179.866 88.3208L173.967 98.4619L176.845 100.188L179.723 101.842Z" fill="#1A1A1A"/>
<path d="M125.691 75.5906V87.314H129H132.31V75.5906H129H125.691Z" fill="#1A1A1A"/>
<path d="M128.712 246.407C99.43 246.407 74.1048 226.628 67.126 198.219L61.2983 199.657C68.9247 230.727 96.696 252.448 128.712 252.448C131.374 252.448 134.108 252.232 136.77 251.945V245.903C134.108 246.191 131.446 246.407 128.712 246.407Z" fill="#2E58A6"/>
<path d="M63.0253 192.537L51.0103 218.213L56.4782 220.802L65.7593 200.952L84.897 211.668L87.7749 206.418L63.0253 192.537Z" fill="#2E58A6"/>
<path d="M192.097 183.69H198.141C198.141 183.474 198.141 183.259 198.141 183.043C198.141 148.448 172.672 119.319 138.713 114.429V120.542C169.29 125.361 192.097 151.828 192.097 183.043C192.169 183.259 192.097 183.474 192.097 183.69Z" fill="#2E58A6"/>
<path d="M163.606 0H94.4659C89.1418 0 84.897 4.17151 84.897 9.34993V32.0055C84.897 37.184 89.2138 41.3555 94.4659 41.3555H163.606C168.93 41.3555 173.175 37.184 173.175 32.0055V9.34993C173.175 4.17151 168.858 0 163.606 0Z" fill="#FA790E"/>
<path d="M95.7611 35.0983H94.1063C92.9552 35.0983 92.0918 34.1633 92.0918 33.0844V8.27116C92.0918 7.12039 93.0271 6.25732 94.1063 6.25732H95.7611C96.9122 6.25732 97.7756 7.19232 97.7756 8.27116V33.0844C97.7756 34.1633 96.8403 35.0983 95.7611 35.0983Z" fill="#B3B3B3"/>
<path d="M107.129 35.0983H105.474C104.323 35.0983 103.459 34.1633 103.459 33.0844V8.27116C103.459 7.12039 104.395 6.25732 105.474 6.25732H107.129C108.28 6.25732 109.143 7.19232 109.143 8.27116V33.0844C109.143 34.1633 108.208 35.0983 107.129 35.0983Z" fill="#B3B3B3"/>
<path d="M118.496 35.0983H116.841C115.69 35.0983 114.827 34.1633 114.827 33.0844V8.27116C114.827 7.12039 115.762 6.25732 116.841 6.25732H118.496C119.647 6.25732 120.51 7.19232 120.51 8.27116V33.0844C120.51 34.1633 119.575 35.0983 118.496 35.0983Z" fill="#B3B3B3"/>
<path d="M129.792 35.0983H128.137C126.986 35.0983 126.123 34.1633 126.123 33.0844V8.27116C126.123 7.12039 127.058 6.25732 128.137 6.25732H129.792C130.943 6.25732 131.806 7.19232 131.806 8.27116V33.0844C131.878 34.1633 130.943 35.0983 129.792 35.0983Z" fill="#B3B3B3"/>
<path d="M141.159 35.0983H139.577C138.425 35.0983 137.562 34.1633 137.562 33.0844V8.27116C137.562 7.12039 138.497 6.25732 139.577 6.25732H141.231C142.382 6.25732 143.246 7.19232 143.246 8.27116V33.0844C143.246 34.1633 142.31 35.0983 141.159 35.0983Z" fill="#B3B3B3"/>
<path d="M152.527 35.0983H150.872C149.721 35.0983 148.857 34.1633 148.857 33.0844V8.27116C148.857 7.12039 149.793 6.25732 150.872 6.25732H152.527C153.678 6.25732 154.541 7.19232 154.541 8.27116V33.0844C154.613 34.1633 153.678 35.0983 152.527 35.0983Z" fill="#B3B3B3"/>
<path d="M163.894 35.0983H162.24C161.088 35.0983 160.225 34.1633 160.225 33.0844V8.27116C160.225 7.12039 161.16 6.25732 162.24 6.25732H163.894C165.046 6.25732 165.909 7.19232 165.909 8.27116V33.0844C165.981 34.1633 165.046 35.0983 163.894 35.0983Z" fill="#B3B3B3"/>
</g>
<defs>
<clipPath id="clip0_2804_4529">
<rect width="258" height="312" fill="white"/>
</clipPath>
</defs>
</svg>
